<svg width="25" height="24" viewBox="0 0 25 24" fill="none" xmlns="http://www.w3.org/2000/svg">
<g clip-path="url(#clip0_2283_2336)">
<path d="M15.7778 20.7203C15.5189 20.4597 15.3086 20.1549 15.1568 19.8203H8.90884C8.19324 19.8188 7.5074 19.5338 7.0014 19.0278C6.49539 18.5218 6.21042 17.8359 6.20884 17.1203V8.26735C5.52303 8.05435 4.93638 7.60242 4.55547 6.99366C4.17455 6.38489 4.02464 5.65968 4.13297 4.94978C4.2413 4.23988 4.60069 3.59239 5.14583 3.12494C5.69098 2.6575 6.38572 2.4011 7.10384 2.40235C7.81971 2.40257 8.5119 2.65876 9.05541 3.12467C9.59892 3.59058 9.9579 4.23548 10.0675 4.94291C10.1772 5.65033 10.0302 6.37364 9.65323 6.9822C9.27624 7.59077 8.69406 8.04446 8.01184 8.26135V10.2123H15.0368C15.2495 9.53066 15.6991 8.9476 16.3044 8.56863C16.9096 8.18967 17.6305 8.03982 18.3366 8.14621C19.0427 8.2526 19.6875 8.60819 20.1542 9.14866C20.6209 9.68913 20.8788 10.3788 20.8811 11.0929C20.8835 11.807 20.6303 12.4983 20.1672 13.0419C19.7041 13.5855 19.0617 13.9453 18.3563 14.0564C17.6509 14.1675 16.9291 14.0225 16.3213 13.6476C15.7136 13.2727 15.2601 12.6926 15.0428 12.0123H8.01184V17.1183C8.01184 17.357 8.10666 17.586 8.27544 17.7547C8.44422 17.9235 8.67314 18.0183 8.91184 18.0183H14.9588C15.088 17.3618 15.4329 16.7673 15.9387 16.3293C16.4445 15.8914 17.0823 15.635 17.7505 15.6012C18.4188 15.5673 19.0792 15.7578 19.6267 16.1423C20.1742 16.5269 20.5775 17.0835 20.7724 17.7236C20.9673 18.3637 20.9426 19.0505 20.7022 19.675C20.4618 20.2994 20.0196 20.8256 19.4459 21.1698C18.8721 21.5141 18.1997 21.6566 17.5357 21.5748C16.8716 21.493 16.2539 21.1915 15.7808 20.7183L15.7778 20.7203ZM16.6998 18.5993C16.6998 18.8367 16.7702 19.0687 16.9021 19.266C17.0339 19.4634 17.2213 19.6172 17.4406 19.708C17.6599 19.7988 17.9012 19.8226 18.1339 19.7763C18.3667 19.73 18.5805 19.6157 18.7484 19.4479C18.9162 19.2801 19.0305 19.0662 19.0768 18.8335C19.1231 18.6007 19.0993 18.3594 19.0085 18.1401C18.9177 17.9209 18.7639 17.7334 18.5665 17.6016C18.3692 17.4697 18.1372 17.3993 17.8998 17.3993C17.5821 17.3993 17.2773 17.5254 17.0524 17.7498C16.8274 17.9742 16.7006 18.2786 16.6998 18.5963V18.5993ZM16.6998 11.0993C16.6998 11.3367 16.7702 11.5687 16.9021 11.766C17.0339 11.9634 17.2213 12.1172 17.4406 12.208C17.6599 12.2988 17.9012 12.3226 18.1339 12.2763C18.3667 12.23 18.5805 12.1157 18.7484 11.9479C18.9162 11.7801 19.0305 11.5662 19.0768 11.3335C19.1231 11.1007 19.0993 10.8594 19.0085 10.6401C18.9177 10.4209 18.7639 10.2334 18.5665 10.1016C18.3692 9.96973 18.1372 9.89935 17.8998 9.89935C17.5821 9.89935 17.2773 10.0254 17.0524 10.2498C16.8274 10.4742 16.7006 10.7786 16.6998 11.0963V11.0993ZM5.89984 5.39935C5.89984 5.63669 5.97022 5.86869 6.10207 6.06603C6.23393 6.26337 6.42135 6.41718 6.64062 6.508C6.85989 6.59883 7.10117 6.62259 7.33395 6.57629C7.56672 6.52999 7.78054 6.4157 7.94837 6.24788C8.11619 6.08005 8.23048 5.86623 8.27678 5.63346C8.32308 5.40068 8.29932 5.1594 8.20849 4.94013C8.11767 4.72086 7.96386 4.53344 7.76652 4.40158C7.56918 4.26973 7.33717 4.19935 7.09984 4.19935C6.7821 4.19935 6.47733 4.32536 6.25237 4.54976C6.02741 4.77415 5.90063 5.07861 5.89984 5.39635V5.39935Z" fill="#FFFDF9"/>
</g>
<defs>
<clipPath id="clip0_2283_2336">
<rect width="24" height="24" fill="white" transform="translate(0.5)"/>
</clipPath>
</defs>
</svg>
