<svg width="67" height="20" viewBox="0 0 67 20" fill="none" xmlns="http://www.w3.org/2000/svg">
<path d="M12.4503 4.32508C12.7653 3.96198 13.0055 3.54022 13.1571 3.08403C13.3087 2.62783 13.3687 2.14619 13.3336 1.66675C12.3664 1.74482 11.4686 2.19971 10.8336 2.93341C10.5295 3.28506 10.2991 3.69415 10.156 4.13645C10.0128 4.57876 9.95989 5.04528 10.0003 5.50842C10.4721 5.51235 10.9384 5.40766 11.3633 5.20246C11.7881 4.99727 12.1601 4.69706 12.4503 4.32508ZM14.5503 10.5251C14.5559 9.88653 14.7241 9.25993 15.039 8.70442C15.354 8.1489 15.8052 7.6828 16.3503 7.35008C16.0063 6.85445 15.5516 6.44578 15.0222 6.15648C14.4927 5.86718 13.9032 5.70521 13.3003 5.68342C12.0003 5.55008 10.8003 6.44175 10.1086 6.44175C9.41696 6.44175 8.44196 5.70008 7.35863 5.71675C6.6504 5.74008 5.96031 5.94657 5.35566 6.31607C4.75102 6.68558 4.25247 7.20548 3.90863 7.82508C2.44196 10.3751 3.53363 14.1667 5.00029 16.2251C5.66696 17.2334 6.50029 18.3751 7.60029 18.3334C8.70029 18.2917 9.05863 17.6501 10.3336 17.6501C11.6086 17.6501 12.0003 18.3334 13.0836 18.3084C14.167 18.2834 14.9336 17.2751 15.6336 16.2668C16.1295 15.5347 16.5168 14.7347 16.7836 13.8917C16.1232 13.6101 15.5597 13.1412 15.1628 12.5428C14.7659 11.9445 14.553 11.2431 14.5503 10.5251Z" fill="#191206"/>
<path d="M26.6841 15H25.0741V7.678H26.6841V15ZM25.0321 6.124C24.9341 5.97 24.8921 5.816 24.8921 5.634C24.8921 5.452 24.9341 5.298 25.0321 5.144C25.1161 4.99 25.2281 4.878 25.3821 4.78C25.5361 4.696 25.6901 4.654 25.8721 4.654C26.0541 4.654 26.2081 4.696 26.3621 4.78C26.5161 4.878 26.6281 4.99 26.7261 5.144C26.8101 5.298 26.8521 5.452 26.8521 5.634C26.8521 5.816 26.8101 5.97 26.7261 6.124C26.6281 6.278 26.5161 6.39 26.3621 6.474C26.2081 6.572 26.0541 6.614 25.8721 6.614C25.6901 6.614 25.5361 6.572 25.3821 6.474C25.2281 6.39 25.1161 6.278 25.0321 6.124ZM28.1717 6.586V5.06H35.6757V6.586H32.7777V15H31.0697V6.586H28.1717ZM36.3534 11.766V7.678H37.9634V11.794C37.9634 12.816 38.4394 13.754 39.5874 13.754C40.7354 13.754 41.2114 12.816 41.2114 11.794V7.678H42.8214V11.766C42.8214 13.726 41.6734 15.21 39.5734 15.21C37.5434 15.21 36.3534 13.782 36.3534 11.766ZM44.5565 7.678H46.0265L46.0825 8.686C46.5305 7.874 47.4125 7.468 48.3225 7.468C50.1425 7.468 51.0385 8.924 51.0385 10.646V15H49.4285V10.828C49.4285 9.834 49.0365 8.924 47.9165 8.924C46.8805 8.924 46.1665 9.708 46.1665 10.744V15H44.5565V7.678ZM52.4513 11.332C52.4513 9.288 53.8793 7.468 56.0493 7.468C58.2193 7.468 59.5353 9.106 59.5353 11.248V11.724H54.1173C54.2293 12.858 54.9433 13.81 56.1753 13.81C56.9453 13.81 57.5333 13.474 57.9673 12.788L59.3813 13.334C58.8213 14.594 57.5193 15.21 56.1753 15.21C53.9773 15.21 52.4513 13.544 52.4513 11.332ZM56.0493 8.77C54.9993 8.77 54.3553 9.596 54.1593 10.576H57.8553C57.7013 9.61 57.1273 8.77 56.0493 8.77ZM60.5007 13.25L61.9567 12.872C62.2087 13.53 62.7827 13.88 63.4827 13.88C64.0427 13.88 64.7287 13.614 64.7287 12.956C64.7287 12.326 64.0567 12.102 63.5387 12.018L63.0767 11.934C61.8867 11.724 60.7107 11.15 60.7107 9.778C60.7107 8.266 62.0267 7.468 63.4407 7.468C64.7147 7.468 65.8627 8.126 66.2267 9.4L64.7847 9.75C64.5467 9.134 64.0847 8.784 63.4267 8.784C62.9087 8.784 62.2927 9.05 62.2927 9.652C62.2927 10.254 63.0907 10.436 63.5527 10.52L64.0147 10.604C65.2047 10.8 66.3387 11.458 66.3387 12.802C66.3387 14.37 64.9387 15.21 63.4687 15.21C62.1667 15.21 60.9067 14.552 60.5007 13.25Z" fill="#191206"/>
</svg>
