<svg width="428" height="926" viewBox="0 0 428 926" fill="none" xmlns="http://www.w3.org/2000/svg">
<g clip-path="url(#clip0_265_2637)">
<rect width="428" height="926" fill="url(#paint0_linear_265_2637)"/>
<circle opacity="0.32" cx="14" cy="11" r="103.5" stroke="#FDB133"/>
<circle opacity="0.4" cx="14" cy="11" r="61.5" stroke="#FDB133"/>
<circle opacity="0.4" cx="14" cy="11" r="23.5" stroke="#FDB133"/>
<circle opacity="0.16" cx="14" cy="11" r="161.5" stroke="#FDB133"/>
<circle opacity="0.08" cx="14" cy="11" r="236.5" stroke="#FDB133"/>
<circle opacity="0.32" cx="379" cy="833" r="103.5" stroke="#FDB133"/>
<circle opacity="0.4" cx="379" cy="833" r="61.5" stroke="#FDB133"/>
<circle opacity="0.4" cx="379" cy="833" r="23.5" stroke="#FDB133"/>
<circle opacity="0.16" cx="379" cy="833" r="161.5" stroke="#FDB133"/>
<circle opacity="0.08" cx="379" cy="833" r="236.5" stroke="#FDB133"/>
<g opacity="0.2" filter="url(#filter0_d_265_2637)">
<circle cx="-43" cy="887" r="208" fill="#224261"/>
</g>
<circle opacity="0.32" cx="204" cy="461" r="103.5" stroke="#FDB133" stroke-opacity="0.18"/>
<circle opacity="0.4" cx="204" cy="461" r="61.5" stroke="#FDB133" stroke-opacity="0.18"/>
<circle opacity="0.4" cx="204" cy="461" r="23.5" stroke="#FDB133" stroke-opacity="0.18"/>
<circle opacity="0.16" cx="204" cy="461" r="161.5" stroke="#FDB133" stroke-opacity="0.18"/>
<circle opacity="0.08" cx="204" cy="461" r="236.5" stroke="#FDB133" stroke-opacity="0.18"/>
<g opacity="0.2" filter="url(#filter1_b_265_2637)">
<mask id="path-17-inside-1_265_2637" fill="white">
<path d="M0 301H428V926H0V301Z"/>
</mask>
<path d="M0 301H428V926H0V301Z" fill="#FFFBF4" fill-opacity="0.32"/>
<path d="M0 302H428V300H0V302Z" fill="#FFFBF4" mask="url(#path-17-inside-1_265_2637)"/>
</g>
</g>
<defs>
<filter id="filter0_d_265_2637" x="-255" y="679" width="424" height="424" filterUnits="userSpaceOnUse" color-interpolation-filters="sRGB">
<feFlood flood-opacity="0" result="BackgroundImageFix"/>
<feColorMatrix in="SourceAlpha" type="matrix" values="0 0 0 0 0 0 0 0 0 0 0 0 0 0 0 0 0 0 127 0" result="hardAlpha"/>
<feOffset dy="4"/>
<feGaussianBlur stdDeviation="2"/>
<feComposite in2="hardAlpha" operator="out"/>
<feColorMatrix type="matrix" values="0 0 0 0 0 0 0 0 0 0 0 0 0 0 0 0 0 0 0.25 0"/>
<feBlend mode="normal" in2="BackgroundImageFix" result="effect1_dropShadow_265_2637"/>
<feBlend mode="normal" in="SourceGraphic" in2="effect1_dropShadow_265_2637" result="shape"/>
</filter>
<filter id="filter1_b_265_2637" x="-32" y="269" width="492" height="689" filterUnits="userSpaceOnUse" color-interpolation-filters="sRGB">
<feFlood flood-opacity="0" result="BackgroundImageFix"/>
<feGaussianBlur in="BackgroundImageFix" stdDeviation="16"/>
<feComposite in2="SourceAlpha" operator="in" result="effect1_backgroundBlur_265_2637"/>
<feBlend mode="normal" in="SourceGraphic" in2="effect1_backgroundBlur_265_2637" result="shape"/>
</filter>
<linearGradient id="paint0_linear_265_2637" x1="-210.188" y1="39.6702" x2="701.784" y2="1204.94" gradientUnits="userSpaceOnUse">
<stop offset="0.1" stop-color="#040A28"/>
<stop offset="0.35" stop-color="#020308"/>
<stop offset="0.5" stop-color="#020308"/>
</linearGradient>
<clipPath id="clip0_265_2637">
<rect width="428" height="926" fill="white"/>
</clipPath>
</defs>
</svg>
