<svg width="187" height="180" viewBox="0 0 187 180" fill="none" xmlns="http://www.w3.org/2000/svg">
<circle cx="1.5332" cy="75" r="1" fill="#EB5757" fill-opacity="0.5"/>
<circle cx="171.033" cy="110.5" r="2.5" fill="#EB5757" fill-opacity="0.5"/>
<circle cx="122.533" cy="171" r="1" fill="#EB5757" fill-opacity="0.5"/>
<circle cx="63.0332" cy="176.5" r="3.5" fill="#EB5757" fill-opacity="0.5"/>
<circle cx="107.033" cy="4.5" r="2.5" fill="#EB5757" fill-opacity="0.5"/>
<circle cx="166.033" cy="160.5" r="2.5" fill="#EB5757" fill-opacity="0.5"/>
<circle cx="10.5332" cy="133" r="5" fill="#EB5757" fill-opacity="0.5"/>
<circle cx="20.5332" cy="10" r="10" fill="#EB5757" fill-opacity="0.5"/>
<circle cx="178.967" cy="27.5" r="7.5" fill="#EB5757" fill-opacity="0.5"/>
<circle cx="93.9997" cy="82.9995" r="41.6667" stroke="#EB5757" stroke-width="5"/>
<path fill-rule="evenodd" clip-rule="evenodd" d="M90.3366 61.875H97.6631C98.1319 61.8747 98.5404 61.8745 98.9261 61.9361C100.45 62.1794 101.769 63.1298 102.481 64.4985C102.662 64.8449 102.791 65.2325 102.939 65.6774L103.18 66.403C103.221 66.5258 103.233 66.5606 103.243 66.588C103.622 67.6369 104.606 68.346 105.721 68.3742C105.751 68.375 105.786 68.3751 105.917 68.3751H112.417C113.314 68.3751 114.042 69.1026 114.042 70.0001C114.042 70.8975 113.314 71.6251 112.417 71.6251H75.583C74.6855 71.6251 73.958 70.8975 73.958 70.0001C73.958 69.1026 74.6855 68.3751 75.583 68.3751H82.0832C82.2133 68.3751 82.2492 68.375 82.2785 68.3742C83.3936 68.346 84.3773 67.6369 84.7567 66.588C84.7667 66.5604 84.7782 66.5264 84.8193 66.403L85.0611 65.6774C85.2091 65.2326 85.338 64.8449 85.5184 64.4985C86.2312 63.1298 87.5498 62.1794 89.0736 61.9361C89.4593 61.8745 89.8678 61.8747 90.3366 61.875ZM87.5173 68.3751C87.6289 68.1562 87.7278 67.9288 87.8129 67.6935C87.8388 67.6221 87.8641 67.5461 87.8967 67.4484L88.1129 66.7997C88.3104 66.2071 88.3559 66.0862 88.401 65.9996C88.6386 65.5433 89.0781 65.2265 89.5861 65.1454C89.6826 65.13 89.8116 65.1251 90.4363 65.1251H97.5635C98.1881 65.1251 98.3172 65.13 98.4136 65.1454C98.9216 65.2265 99.3611 65.5433 99.5987 65.9996C99.6438 66.0862 99.6893 66.207 99.8868 66.7997L100.103 67.448L100.187 67.6936C100.272 67.9288 100.371 68.1562 100.482 68.3751H87.5173Z" fill="#E54444"/>
<path d="M80.8157 75.3087C80.756 74.4132 79.9817 73.7357 79.0862 73.7953C78.1907 73.855 77.5132 74.6294 77.5729 75.5248L78.577 90.5869C78.7623 93.3662 78.9119 95.6112 79.2629 97.3728C79.6277 99.2044 80.2483 100.734 81.5301 101.933C82.8119 103.133 84.3796 103.65 86.2313 103.892C88.0124 104.125 90.2623 104.125 93.0476 104.125H94.9519C97.7373 104.125 99.9874 104.125 101.768 103.892C103.62 103.65 105.188 103.133 106.47 101.933C107.751 100.734 108.372 99.2044 108.737 97.3728C109.088 95.6112 109.237 93.3662 109.423 90.587L110.427 75.5248C110.487 74.6294 109.809 73.855 108.914 73.7953C108.018 73.7357 107.244 74.4132 107.184 75.3087L106.187 90.2567C105.993 93.1771 105.854 95.209 105.549 96.7379C105.254 98.2208 104.842 99.0058 104.249 99.56C103.657 100.114 102.846 100.474 101.347 100.67C99.8012 100.872 97.7645 100.875 94.8377 100.875H93.162C90.2352 100.875 88.1985 100.872 86.6528 100.67C85.1535 100.474 84.3428 100.114 83.7504 99.56C83.158 99.0058 82.7456 98.2208 82.4502 96.7379C82.1457 95.209 82.0069 93.1771 81.8122 90.2567L80.8157 75.3087Z" fill="#E54444"/>
<path d="M88.4215 79.2165C89.3145 79.1272 90.1108 79.7787 90.2001 80.6717L91.2835 91.5051C91.3728 92.3981 90.7212 93.1944 89.8282 93.2837C88.9352 93.373 88.1389 92.7215 88.0496 91.8284L86.9663 80.9951C86.877 80.1021 87.5285 79.3058 88.4215 79.2165Z" fill="#E54444"/>
<path d="M99.5782 79.2165C100.471 79.3058 101.123 80.1021 101.033 80.9951L99.9501 91.8284C99.8608 92.7215 99.0645 93.373 98.1715 93.2837C97.2785 93.1944 96.627 92.3981 96.7163 91.5051L97.7996 80.6717C97.8889 79.7787 98.6852 79.1272 99.5782 79.2165Z" fill="#E54444"/>
</svg>
