<svg width="32" height="32" viewBox="0 0 32 32" fill="none" xmlns="http://www.w3.org/2000/svg">
<path d="M2.33334 17.7663C1.95556 17.7663 1.63912 17.6388 1.384 17.3837C1.12889 17.1286 1.00089 16.8117 1 16.433C0.999116 16.0543 1.12712 15.7379 1.384 15.4837C1.64089 15.2295 1.95734 15.1015 2.33334 15.0997H7.00001C7.37778 15.0997 7.69467 15.2277 7.95067 15.4837C8.20667 15.7397 8.33423 16.0561 8.33334 16.433C8.33245 16.8099 8.20445 17.1268 7.94934 17.3837C7.69423 17.6406 7.37778 17.7681 7.00001 17.7663H2.33334ZM9.33334 26.6663C8.22223 26.6663 7.27778 26.2775 6.5 25.4997C5.72223 24.7219 5.33334 23.7775 5.33334 22.6663H3.66667C3.22223 22.6663 2.86667 22.4997 2.6 22.1663C2.33334 21.833 2.25556 21.4552 2.36667 21.033L2.66667 19.7663H6.83334C7.76667 19.7663 8.55556 19.4441 9.2 18.7997C9.84445 18.1552 10.1667 17.3663 10.1667 16.433C10.1667 16.1441 10.1333 15.8775 10.0667 15.633C10 15.3886 9.91112 15.1441 9.80001 14.8997H11.0667C12 14.8997 12.7889 14.5775 13.4333 13.933C14.0778 13.2886 14.4 12.4997 14.4 11.5663C14.4 10.633 14.0778 9.84412 13.4333 9.19967C12.7889 8.55523 12 8.23301 11.0667 8.23301H6L6.2 7.43301C6.33334 6.81079 6.63912 6.30545 7.11734 5.91701C7.59556 5.52856 8.15645 5.3339 8.8 5.33301H22.3333C22.7778 5.33301 23.1333 5.49967 23.4 5.83301C23.6667 6.16634 23.7445 6.54412 23.6333 6.96634L22.7667 10.6663H25.3333C25.7556 10.6663 26.1556 10.761 26.5333 10.9503C26.9111 11.1397 27.2222 11.4006 27.4667 11.733L29.9667 15.033C30.2111 15.3441 30.3667 15.6832 30.4333 16.0503C30.5 16.4175 30.5 16.7895 30.4333 17.1663L29.5333 21.5997C29.4667 21.9108 29.3111 22.1663 29.0667 22.3663C28.8222 22.5663 28.5444 22.6663 28.2333 22.6663H26.6667C26.6667 23.7775 26.2778 24.7219 25.5 25.4997C24.7222 26.2775 23.7778 26.6663 22.6667 26.6663C21.5556 26.6663 20.6111 26.2775 19.8333 25.4997C19.0556 24.7219 18.6667 23.7775 18.6667 22.6663H13.3333C13.3333 23.7775 12.9444 24.7219 12.1667 25.4997C11.3889 26.2775 10.4444 26.6663 9.33334 26.6663ZM5 12.8997C4.62223 12.8997 4.30578 12.7717 4.05067 12.5157C3.79556 12.2597 3.66756 11.9432 3.66667 11.5663C3.66578 11.1895 3.79378 10.873 4.05067 10.617C4.30756 10.361 4.624 10.233 5 10.233H11C11.3778 10.233 11.6947 10.361 11.9507 10.617C12.2067 10.873 12.3342 11.1895 12.3333 11.5663C12.3325 11.9432 12.2045 12.2601 11.9493 12.517C11.6942 12.7739 11.3778 12.9015 11 12.8997H5ZM9.33334 23.9997C9.71112 23.9997 10.028 23.8717 10.284 23.6157C10.54 23.3597 10.6676 23.0432 10.6667 22.6663C10.6658 22.2895 10.5378 21.973 10.2827 21.717C10.0276 21.461 9.71112 21.333 9.33334 21.333C8.95556 21.333 8.63912 21.461 8.384 21.717C8.12889 21.973 8.00089 22.2895 8 22.6663C7.99912 23.0432 8.12712 23.3601 8.384 23.617C8.64089 23.8739 8.95734 24.0015 9.33334 23.9997ZM22.6667 23.9997C23.0445 23.9997 23.3613 23.8717 23.6173 23.6157C23.8733 23.3597 24.0009 23.0432 24 22.6663C23.9991 22.2895 23.8711 21.973 23.616 21.717C23.3609 21.461 23.0445 21.333 22.6667 21.333C22.2889 21.333 21.9725 21.461 21.7173 21.717C21.4622 21.973 21.3342 22.2895 21.3333 22.6663C21.3325 23.0432 21.4605 23.3601 21.7173 23.617C21.9742 23.8739 22.2907 24.0015 22.6667 23.9997ZM21.2333 17.333H27.6667L27.8 16.633L25.3333 13.333H22.1667L21.2333 17.333Z" fill="#FA898F"/>
</svg>
