<svg width="16" height="20" viewBox="0 0 16 20" fill="none" xmlns="http://www.w3.org/2000/svg">
<path d="M5 16H11C11.2833 16 11.521 15.904 11.713 15.712C11.905 15.52 12.0007 15.2827 12 15C11.9993 14.7173 11.9033 14.48 11.712 14.288C11.5207 14.096 11.2833 14 11 14H5C4.71667 14 4.47933 14.096 4.288 14.288C4.09667 14.48 4.00067 14.7173 4 15C3.99933 15.2827 4.09533 15.5203 4.288 15.713C4.48067 15.9057 4.718 16.0013 5 16ZM5 12H11C11.2833 12 11.521 11.904 11.713 11.712C11.905 11.52 12.0007 11.2827 12 11C11.9993 10.7173 11.9033 10.48 11.712 10.288C11.5207 10.096 11.2833 10 11 10H5C4.71667 10 4.47933 10.096 4.288 10.288C4.09667 10.48 4.00067 10.7173 4 11C3.99933 11.2827 4.09533 11.5203 4.288 11.713C4.48067 11.9057 4.718 12.0013 5 12ZM2 20C1.45 20 0.979333 19.8043 0.588 19.413C0.196666 19.0217 0.000666667 18.5507 0 18V2C0 1.45 0.196 0.979333 0.588 0.588C0.98 0.196667 1.45067 0.000666667 2 0H9.175C9.44167 0 9.696 0.0500001 9.938 0.15C10.18 0.25 10.3923 0.391667 10.575 0.575L15.425 5.425C15.6083 5.60833 15.75 5.821 15.85 6.063C15.95 6.305 16 6.559 16 6.825V18C16 18.55 15.8043 19.021 15.413 19.413C15.0217 19.805 14.5507 20.0007 14 20H2ZM9 6C9 6.28333 9.096 6.521 9.288 6.713C9.48 6.905 9.71733 7.00067 10 7H14L9 2V6Z" fill="#FFFDF9"/>
</svg>
