<svg width="73" height="20" viewBox="0 0 73 20" fill="none" xmlns="http://www.w3.org/2000/svg">
<path d="M18.7266 10.2C18.7266 9.46 18.6653 8.92 18.5327 8.36001H9.91024V11.7H14.9714C14.8694 12.53 14.3184 13.78 13.0939 14.62L13.0767 14.7318L15.803 16.8015L15.9919 16.82C17.7265 15.25 18.7266 12.94 18.7266 10.2Z" fill="#3843FF"/>
<path d="M9.91024 19C12.3898 19 14.4714 18.2 15.9919 16.82L13.0939 14.62C12.3184 15.15 11.2776 15.52 9.91024 15.52C7.48168 15.52 5.42047 13.95 4.68571 11.78L4.57801 11.789L1.7432 13.939L1.70613 14.04C3.21632 16.9799 6.31837 19 9.91024 19Z" fill="#3BA935"/>
<path d="M4.68571 11.78C4.49183 11.22 4.37963 10.62 4.37963 10C4.37963 9.37996 4.49183 8.77998 4.67551 8.21999L4.67037 8.10073L1.80004 5.91619L1.70613 5.95996C1.08371 7.17998 0.726562 8.55 0.726562 10C0.726562 11.45 1.08371 12.82 1.70613 14.04L4.68571 11.78Z" fill="#FDB133"/>
<path d="M9.91024 4.47998C11.6347 4.47998 12.7979 5.20997 13.4612 5.82001L16.0531 3.34C14.4613 1.89 12.3898 1 9.91024 1C6.31837 1 3.21632 3.01998 1.70613 5.95996L4.67551 8.21999C5.42047 6.05 7.48168 4.47998 9.91024 4.47998Z" fill="#E3524F"/>
<path d="M24.8149 10.058C24.8149 7.188 26.8449 4.78 29.8549 4.78C31.6329 4.78 33.2989 5.662 34.0549 7.328L32.4309 7.874C31.8989 6.88 30.9749 6.348 29.8549 6.348C27.8529 6.348 26.5789 8.112 26.5789 10.03C26.5789 11.962 27.8109 13.712 29.8969 13.712C31.4929 13.712 32.6689 12.732 32.8089 11.094H30.0929V9.666H34.5589V10.604C34.5589 13.334 32.6269 15.28 29.8269 15.28C26.9009 15.28 24.8149 12.998 24.8149 10.058ZM35.7774 11.332C35.7774 9.162 37.3034 7.468 39.5574 7.468C41.7414 7.468 43.2814 9.134 43.2814 11.332C43.2814 13.502 41.7554 15.21 39.5014 15.21C37.3314 15.21 35.7774 13.516 35.7774 11.332ZM39.5294 8.924C38.1994 8.924 37.4294 10.072 37.4294 11.332C37.4294 12.55 38.1994 13.754 39.5294 13.754C40.8594 13.754 41.6294 12.578 41.6294 11.332C41.6294 10.086 40.8874 8.924 39.5294 8.924ZM44.4454 11.332C44.4454 9.162 45.9714 7.468 48.2254 7.468C50.4094 7.468 51.9494 9.134 51.9494 11.332C51.9494 13.502 50.4234 15.21 48.1694 15.21C45.9994 15.21 44.4454 13.516 44.4454 11.332ZM48.1974 8.924C46.8674 8.924 46.0974 10.072 46.0974 11.332C46.0974 12.55 46.8674 13.754 48.1974 13.754C49.5274 13.754 50.2974 12.578 50.2974 11.332C50.2974 10.086 49.5554 8.924 48.1974 8.924ZM53.1134 11.192C53.1134 9.232 54.4854 7.468 56.5714 7.468C57.5514 7.468 58.4194 7.888 58.9514 8.714L59.0074 7.678H60.4774V14.23C60.4774 16.428 59.0634 17.982 56.7674 17.982C55.3534 17.982 54.1634 17.338 53.4914 16.078L55.0174 15.546C55.4374 16.218 56.0254 16.568 56.8234 16.568C58.1254 16.568 58.8674 15.644 58.8674 14.356V13.656C58.3074 14.44 57.4394 14.86 56.4874 14.86C54.4714 14.86 53.1134 13.152 53.1134 11.192ZM56.8234 8.924C55.5914 8.924 54.7654 9.96 54.7654 11.164C54.7654 12.34 55.5774 13.404 56.8234 13.404C58.0694 13.404 58.8954 12.382 58.8954 11.164C58.8954 9.96 58.0974 8.924 56.8234 8.924ZM62.2127 15V4.584H63.8227V15H62.2127ZM65.2403 11.332C65.2403 9.288 66.6683 7.468 68.8383 7.468C71.0083 7.468 72.3243 9.106 72.3243 11.248V11.724H66.9063C67.0183 12.858 67.7323 13.81 68.9643 13.81C69.7343 13.81 70.3223 13.474 70.7563 12.788L72.1703 13.334C71.6103 14.594 70.3083 15.21 68.9643 15.21C66.7663 15.21 65.2403 13.544 65.2403 11.332ZM68.8383 8.77C67.7883 8.77 67.1443 9.596 66.9483 10.576H70.6443C70.4903 9.61 69.9163 8.77 68.8383 8.77Z" fill="#191206"/>
</svg>
