<svg width="19" height="18" viewBox="0 0 19 18" fill="none" xmlns="http://www.w3.org/2000/svg">
<path d="M1.5 8H7.5C7.76522 8 8.01957 7.89464 8.20711 7.70711C8.39464 7.51957 8.5 7.26522 8.5 7V1C8.5 0.734784 8.39464 0.48043 8.20711 0.292893C8.01957 0.105357 7.76522 0 7.5 0H1.5C1.23478 0 0.98043 0.105357 0.792893 0.292893C0.605357 0.48043 0.5 0.734784 0.5 1V7C0.5 7.26522 0.605357 7.51957 0.792893 7.70711C0.98043 7.89464 1.23478 8 1.5 8ZM11.5 8H17.5C17.7652 8 18.0196 7.89464 18.2071 7.70711C18.3946 7.51957 18.5 7.26522 18.5 7V1C18.5 0.734784 18.3946 0.48043 18.2071 0.292893C18.0196 0.105357 17.7652 0 17.5 0H11.5C11.2348 0 10.9804 0.105357 10.7929 0.292893C10.6054 0.48043 10.5 0.734784 10.5 1V7C10.5 7.26522 10.6054 7.51957 10.7929 7.70711C10.9804 7.89464 11.2348 8 11.5 8ZM1.5 18H7.5C7.76522 18 8.01957 17.8946 8.20711 17.7071C8.39464 17.5196 8.5 17.2652 8.5 17V11C8.5 10.7348 8.39464 10.4804 8.20711 10.2929C8.01957 10.1054 7.76522 10 7.5 10H1.5C1.23478 10 0.98043 10.1054 0.792893 10.2929C0.605357 10.4804 0.5 10.7348 0.5 11V17C0.5 17.2652 0.605357 17.5196 0.792893 17.7071C0.98043 17.8946 1.23478 18 1.5 18ZM14.5 18C16.706 18 18.5 16.206 18.5 14C18.5 11.794 16.706 10 14.5 10C12.294 10 10.5 11.794 10.5 14C10.5 16.206 12.294 18 14.5 18Z" fill="#FFFDF9"/>
</svg>
