<svg width="24" height="24" viewBox="0 0 24 24" fill="none" xmlns="http://www.w3.org/2000/svg">
<g clip-path="url(#clip0_1238_1029)">
<path fill-rule="evenodd" clip-rule="evenodd" d="M3.42857 4.89187e-08C3.26558 -5.50061e-05 3.10596 0.0463617 2.96841 0.133807C2.83087 0.221253 2.72111 0.346102 2.652 0.493714L0.0805714 5.99486C0.0175112 6.13024 -0.00908133 6.27975 0.00342857 6.42857H0V8.04857C0 8.94686 0.387429 9.80743 1.08 10.4417C1.76914 11.076 2.70686 11.4326 3.684 11.4326H4.19829C5.16001 11.4387 6.08933 11.0853 6.804 10.4417C7.08629 10.1823 7.31486 9.892 7.48971 9.57086C7.70743 9.27943 8.06057 9.27943 8.26457 9.54686C8.44171 9.87829 8.67429 10.1766 8.96229 10.4417C9.65314 11.076 10.5909 11.4326 11.568 11.4326H12.4886C13.4503 11.4387 14.3796 11.0853 15.0943 10.4417C15.3629 10.1937 15.5834 9.91714 15.756 9.612C15.9806 9.26057 16.3731 9.26914 16.5789 9.59486C16.7537 9.90686 16.9777 10.1891 17.2509 10.4417C17.9417 11.076 18.8794 11.4326 19.8566 11.4326H20.316C21.2777 11.4387 22.2071 11.0853 22.9217 10.4417C23.6126 9.80743 24 8.94686 24 8.04857V6.42857H23.9966C24.0091 6.27975 23.9825 6.13024 23.9194 5.99486L21.348 0.493714C21.2789 0.346102 21.1691 0.221253 21.0316 0.133807C20.894 0.0463617 20.7344 -5.50061e-05 20.5714 4.89187e-08H3.42857ZM1.71429 22.2857V13.2497C3.75086 13.9217 6.18 13.6217 7.848 12.3309C10.0731 14.052 13.932 14.052 16.1554 12.3309C17.832 13.6269 20.256 13.9217 22.2857 13.2326V22.2857C22.2857 22.7404 22.1051 23.1764 21.7836 23.4979C21.4621 23.8194 21.0261 24 20.5714 24H18.42V17.5029C18.4208 17.4525 18.4104 17.4025 18.3897 17.3566C18.3689 17.3107 18.3383 17.2699 18.3 17.2371C18.2201 17.1653 18.116 17.1262 18.0086 17.1274H14.5937C14.4863 17.1262 14.3822 17.1653 14.3023 17.2371C14.264 17.2699 14.2334 17.3107 14.2126 17.3566C14.1919 17.4025 14.1815 17.4525 14.1823 17.5029V24H3.42857C2.97391 24 2.53788 23.8194 2.21639 23.4979C1.8949 23.1764 1.71429 22.7404 1.71429 22.2857ZM4.28914 18.4457V16.2857C4.28914 16.0584 4.37945 15.8404 4.54019 15.6796C4.70094 15.5189 4.91896 15.4286 5.14629 15.4286H10.3131C10.5405 15.4286 10.7585 15.5189 10.9192 15.6796C11.08 15.8404 11.1703 16.0584 11.1703 16.2857V18.4457C11.1703 18.673 11.08 18.8911 10.9192 19.0518C10.7585 19.2126 10.5405 19.3029 10.3131 19.3029H5.14629C4.91896 19.3029 4.70094 19.2126 4.54019 19.0518C4.37945 18.8911 4.28914 18.673 4.28914 18.4457Z" fill="#C1C2C3"/>
</g>
<defs>
<clipPath id="clip0_1238_1029">
<rect width="24" height="24" fill="white"/>
</clipPath>
</defs>
</svg>
