<svg width="16" height="16" viewBox="0 0 16 16" fill="none" xmlns="http://www.w3.org/2000/svg">
<path fill-rule="evenodd" clip-rule="evenodd" d="M5.24241 3.15184L4.02242 4.37184C2.22975 6.16517 1.33375 7.06117 1.33375 8.1745C1.33375 9.2885 2.22975 10.1845 4.02242 11.9772C5.81575 13.7705 6.71175 14.6665 7.82575 14.6665C8.93908 14.6665 9.83575 13.7705 11.6284 11.9778L12.8484 10.7578C13.8784 9.72717 14.3937 9.2125 14.5851 8.54384C14.7771 7.87517 14.6131 7.16517 14.2851 5.74584L14.0964 4.92717C13.8211 3.7325 13.6831 3.13517 13.2744 2.72584C12.8657 2.3165 12.2677 2.17917 11.0731 1.90384L10.2544 1.7145C8.83441 1.38717 8.12508 1.22317 7.45641 1.4145C6.78775 1.6065 6.27242 2.12184 5.24241 3.15184ZM8.56975 9.55184C9.01841 9.10384 9.01508 8.45984 8.74641 7.94984C8.81293 7.85377 8.84369 7.73743 8.83337 7.62104C8.82304 7.50465 8.77228 7.39555 8.68989 7.31269C8.6075 7.22983 8.4987 7.17844 8.38237 7.16745C8.26604 7.15645 8.14953 7.18655 8.05308 7.2525C7.82641 7.1325 7.57775 7.0685 7.32975 7.07117C7.19714 7.07241 7.07045 7.12627 6.97756 7.22092C6.88467 7.31556 6.83318 7.44323 6.83441 7.57584C6.83565 7.70845 6.88952 7.83513 6.98416 7.92802C7.0788 8.02092 7.20647 8.07241 7.33908 8.07117C7.49345 8.07687 7.63934 8.14323 7.74508 8.25584C8.00308 8.51384 7.93575 8.7725 7.86308 8.84517C7.78975 8.91784 7.53175 8.98517 7.27375 8.72717C6.75108 8.2045 5.84841 8.03117 5.27041 8.60917C4.82175 9.05784 4.82508 9.70184 5.09375 10.2118C5.02765 10.3079 4.99723 10.4241 5.00774 10.5403C5.01826 10.6564 5.06904 10.7652 5.15131 10.8479C5.23358 10.9306 5.34216 10.9819 5.45826 10.9929C5.57436 11.004 5.69067 10.9741 5.78708 10.9085C6.08624 11.0726 6.43327 11.1273 6.76841 11.0632C6.89837 11.0365 7.0124 10.9592 7.08541 10.8485C7.15843 10.7377 7.18445 10.6025 7.15775 10.4725C7.13105 10.3425 7.05382 10.2285 6.94305 10.1555C6.83228 10.0825 6.69704 10.0565 6.56708 10.0832C6.44908 10.1078 6.25841 10.0692 6.09508 9.90584C5.83708 9.64717 5.90441 9.38917 5.97708 9.3165C6.05041 9.24384 6.30841 9.1765 6.56641 9.4345C7.08908 9.95717 7.99175 10.1305 8.56975 9.55184ZM9.32041 6.86184C9.19662 6.738 9.09843 6.59099 9.03145 6.42921C8.96447 6.26743 8.93002 6.09404 8.93005 5.91894C8.93008 5.74384 8.9646 5.57046 9.03163 5.4087C9.09867 5.24694 9.19691 5.09996 9.32075 4.97617C9.44458 4.85238 9.59159 4.75419 9.75337 4.68721C9.91516 4.62023 10.0885 4.58577 10.2636 4.5858C10.4388 4.58583 10.6121 4.62035 10.7739 4.68739C10.9356 4.75443 11.0826 4.85267 11.2064 4.9765C11.4564 5.2266 11.5968 5.56578 11.5968 5.91941C11.5967 6.27304 11.4562 6.61216 11.2061 6.86217C10.956 7.11218 10.6168 7.2526 10.2632 7.25254C9.90955 7.25248 9.57043 7.11194 9.32041 6.86184Z" fill="#EA9507"/>
</svg>
