<svg width="24" height="22" viewBox="0 0 24 22" fill="none" xmlns="http://www.w3.org/2000/svg">
<path d="M11.7183 0.603022C10.8886 0.734272 10.2417 1.45146 10.1855 2.31865C10.1667 2.60458 10.1808 2.73583 10.2558 2.96083L10.3542 3.24208L10.2511 3.3499C10.1948 3.41083 8.63391 4.87802 6.78235 6.60771L3.42141 9.75771L2.7886 9.79052C1.80423 9.84208 1.31204 10.0296 0.777663 10.5593C0.454226 10.878 0.280788 11.1405 0.126101 11.553C0.0229757 11.8155 0.0229757 11.853 0.00891317 15.4624C-0.00514933 19.4796 -0.00983685 19.428 0.285476 20.014C0.482351 20.403 1.01204 20.9233 1.41048 21.1202C2.02454 21.4202 1.40579 21.4061 12.023 21.4061C22.6261 21.4061 22.0308 21.4202 22.6214 21.1202C23.1839 20.839 23.6105 20.3561 23.8495 19.7374L23.9761 19.414L23.9902 15.8046C23.9995 13.3061 23.9902 12.1015 23.9527 11.8905C23.798 10.9999 23.0761 10.1796 22.2136 9.91708C22.0074 9.85615 21.6886 9.81396 21.2667 9.79052L20.6339 9.75771L17.1652 6.51396L13.6964 3.26552L13.7855 2.97958C14.198 1.65771 13.0917 0.387396 11.7183 0.603022ZM11.0152 3.96865C11.587 4.37646 12.6042 4.3624 13.087 3.93583C13.1292 3.89833 13.1902 3.8749 13.2136 3.87958C13.2417 3.88896 14.6761 5.21552 16.3964 6.82802L19.5277 9.75771L15.787 9.77177C13.7292 9.77646 10.3542 9.77646 8.28704 9.77177L4.52766 9.75771L7.6636 6.81865C9.39329 5.20146 10.823 3.8749 10.8417 3.8749C10.8652 3.8749 10.9448 3.91708 11.0152 3.96865ZM7.07766 13.6296C7.36829 13.6905 7.66829 13.9155 7.79485 14.1593C7.98235 14.5155 7.94016 15.1999 7.72454 15.4765C7.66829 15.5468 7.54641 15.6593 7.45266 15.7296L7.27922 15.8561L7.46204 16.1796C7.90266 16.9483 7.97298 17.1218 7.9261 17.253C7.82766 17.5061 7.35891 17.6608 7.2136 17.4874C7.1761 17.4405 6.9886 17.0983 6.79641 16.7233L6.44485 16.039L6.24329 16.0249L6.04641 16.0108V16.6671C6.04641 17.4499 6.0136 17.5155 5.6386 17.5155C5.23079 17.5155 5.24954 17.614 5.24954 15.5421C5.24954 13.953 5.25891 13.714 5.32454 13.653C5.38548 13.5921 5.5261 13.578 6.11672 13.578C6.51516 13.578 6.94641 13.6015 7.07766 13.6296ZM11.362 13.6811C11.4042 13.7374 11.437 13.8593 11.437 13.953C11.437 14.0468 11.4042 14.1686 11.362 14.2249C11.2917 14.3233 11.2636 14.328 10.5183 14.328H9.74485L9.75891 14.7827L9.77297 15.2421L10.2183 15.2561C10.6027 15.2655 10.673 15.2796 10.748 15.364C10.7902 15.4202 10.8277 15.5093 10.8277 15.5702C10.8277 15.6311 10.7902 15.7202 10.748 15.7765C10.673 15.8608 10.6027 15.8749 10.2183 15.8843L9.77297 15.8983L9.75891 16.353L9.74485 16.8124H10.5042C11.3808 16.8124 11.437 16.8311 11.437 17.1546C11.437 17.5108 11.4277 17.5155 10.1995 17.5155C9.29485 17.5155 9.09797 17.5015 9.00891 17.4405L8.90579 17.3702V15.5796C8.90579 14.5952 8.92454 13.7655 8.94329 13.7374C9.03704 13.6015 9.18704 13.5827 10.2277 13.578C11.273 13.578 11.2917 13.578 11.362 13.6811ZM13.1995 13.728C13.2558 13.7749 13.5183 14.2296 13.7855 14.7311L14.273 15.6452L14.287 14.7171C14.3011 13.7093 14.3105 13.6624 14.5777 13.6108C14.7324 13.578 14.9995 13.6436 15.0558 13.728C15.0745 13.7608 15.0933 14.5952 15.0933 15.5796V17.3702L14.9902 17.4405C14.8589 17.5343 14.4886 17.539 14.3573 17.4452C14.3058 17.4077 14.0292 16.953 13.748 16.4327L13.2417 15.4952L13.2183 16.4374C13.1902 17.5202 13.1948 17.5155 12.787 17.5155C12.6042 17.5155 12.5339 17.4921 12.4448 17.3983L12.3277 17.2858V15.5983C12.3277 14.6327 12.3464 13.8593 12.3745 13.7936C12.4589 13.5733 12.9886 13.5311 13.1995 13.728ZM18.7261 13.6718C18.7777 13.728 18.8105 13.8358 18.8105 13.953C18.8105 14.2624 18.712 14.328 18.248 14.328H17.8589V15.828C17.8589 17.2671 17.8542 17.3327 17.7652 17.4218C17.587 17.5999 17.0527 17.5202 16.9964 17.3093C16.9823 17.2577 16.9683 16.564 16.9683 15.7671V14.328H16.5745C16.1574 14.328 16.0683 14.2905 16.0073 14.089C15.9605 13.9436 16.0214 13.6811 16.1152 13.6296C16.162 13.6015 16.6917 13.578 17.4183 13.578C18.5808 13.578 18.6464 13.5827 18.7261 13.6718Z" fill="#4CAF50"/>
</svg>
