<svg width="28" height="14" viewBox="0 0 28 14" fill="none" xmlns="http://www.w3.org/2000/svg">
<path d="M6.03468 0.536719C5.71676 0.589468 5.16763 0.800465 4.89017 0.982156C4.46243 1.25762 0.751445 4.85628 0.49711 5.24311C0.115607 5.82335 0 6.23362 0 7.00141C0 7.7692 0.115607 8.17947 0.49711 8.75971C0.751445 9.14654 4.46243 12.7452 4.89017 13.0207C5.05202 13.1262 5.34104 13.2668 5.53757 13.343L5.89017 13.4778L15.3988 13.4954C23.8555 13.5071 24.9538 13.5013 25.3179 13.4192C26.5145 13.1496 27.4913 12.2529 27.8555 11.0865L28 10.6294V7.00141V3.37345L27.8555 2.91629C27.4971 1.77339 26.5896 0.911824 25.4104 0.607052C24.9884 0.501554 24.6879 0.495692 15.578 0.501554C10.4104 0.507415 6.11561 0.524997 6.03468 0.536719ZM6.83237 4.69217C7.33526 4.9442 7.6474 5.65924 7.36994 5.94057C7.30636 6.00504 7.19075 6.06365 7.12139 6.06365C6.96532 6.06365 6.78613 5.9054 6.78613 5.75888C6.78613 5.61821 6.68208 5.41308 6.56069 5.3193C6.50289 5.27828 6.27746 5.24897 6 5.24311C5.60694 5.24311 5.50289 5.26655 5.33526 5.37791C4.93064 5.65338 4.93064 6.23948 5.33526 6.51495C5.49133 6.62045 5.61272 6.64975 5.91908 6.64975C6.46243 6.64975 6.78613 6.77869 7.09249 7.11277C7.45665 7.51132 7.56069 7.95089 7.41618 8.49597C7.33526 8.8066 6.84393 9.29307 6.52023 9.3927C6.17919 9.49234 5.32948 9.48062 5.06358 9.37512C4.65318 9.19929 4.35838 8.7773 4.35838 8.37289C4.35838 7.91573 4.78613 7.7692 4.98844 8.15603C5.02312 8.22636 5.05202 8.33772 5.05202 8.40219C5.05202 8.46666 5.12139 8.57216 5.20231 8.63663C5.32948 8.73627 5.43931 8.75971 5.78613 8.75971C6.28902 8.75971 6.54335 8.66008 6.68786 8.41391C6.87283 8.09742 6.77457 7.65784 6.47399 7.47029C6.4104 7.42927 6.11561 7.37065 5.82081 7.34721C5.19653 7.30032 4.89595 7.15966 4.61272 6.78455C4.24855 6.30395 4.24277 5.61821 4.59538 5.13175C4.90751 4.69217 5.26012 4.54565 6.01156 4.53979C6.45665 4.53979 6.57225 4.56323 6.83237 4.69217ZM11.7572 4.65701C11.8208 4.72148 11.8728 4.82698 11.8728 4.89145C11.8728 4.95592 11.8208 5.06142 11.7572 5.12589C11.6532 5.23139 11.5665 5.24311 10.659 5.24311C9.68786 5.24311 9.67052 5.24311 9.53179 5.38963C9.39884 5.51858 9.38728 5.57719 9.38728 6.09296V6.64975H10.5145C11.5665 6.64975 11.6474 6.65561 11.7572 6.76697C11.8208 6.83144 11.8728 6.93694 11.8728 7.00141C11.8728 7.06588 11.8208 7.17138 11.7572 7.23585C11.6474 7.34721 11.5665 7.35307 10.5145 7.35307H9.38728V7.85126C9.38728 8.30842 9.39884 8.36703 9.53179 8.49597C9.67052 8.64249 9.68786 8.64249 10.659 8.64249C11.5665 8.64249 11.6532 8.65422 11.7572 8.75971C11.8208 8.82418 11.8728 8.92968 11.8728 8.99415C11.8728 9.05863 11.8208 9.16412 11.7572 9.22859C11.6532 9.33409 11.5665 9.34582 10.6821 9.34582C10.0867 9.34582 9.63006 9.31651 9.47977 9.27548C9.17919 9.18171 8.85549 8.85349 8.76301 8.54872C8.6763 8.24395 8.66474 5.6651 8.75723 5.34275C8.83237 5.06728 9.20231 4.68045 9.45665 4.60426C9.56069 4.57495 10.0983 4.54565 10.6474 4.54565C11.5665 4.53979 11.6474 4.54565 11.7572 4.65701ZM13.5491 4.71562C13.659 4.82698 13.6647 4.90903 13.6647 6.64975C13.6647 8.39047 13.6705 8.47252 13.7803 8.58388C13.8844 8.68938 13.9711 8.7011 14.9075 8.7011C15.8439 8.7011 15.9306 8.71283 16.0347 8.81832C16.185 8.97071 16.1792 9.14068 16.0289 9.29307C15.9191 9.40443 15.8613 9.41029 14.7977 9.3927C13.6994 9.37512 13.6821 9.37512 13.4509 9.21687C13.3121 9.1231 13.1676 8.95899 13.0925 8.8066C12.9769 8.56044 12.9711 8.4608 12.9711 6.69078C12.9711 4.90903 12.9769 4.82698 13.0867 4.71562C13.1503 4.65115 13.2543 4.5984 13.3179 4.5984C13.3815 4.5984 13.4855 4.65115 13.5491 4.71562ZM17.8844 4.71562C17.9942 4.82698 18 4.90903 18 6.64975C18 8.39047 18.0058 8.47252 18.1156 8.58388C18.2197 8.68938 18.3064 8.7011 19.2428 8.7011C20.1792 8.7011 20.2659 8.71283 20.3699 8.81832C20.5202 8.97071 20.5145 9.14068 20.3642 9.29307C20.2543 9.40443 20.1965 9.41029 19.1329 9.3927C18.0347 9.37512 18.0173 9.37512 17.7861 9.21687C17.6474 9.1231 17.5029 8.95899 17.4277 8.8066C17.3121 8.56044 17.3064 8.4608 17.3064 6.69078C17.3064 4.90903 17.3121 4.82698 17.422 4.71562C17.4855 4.65115 17.5896 4.5984 17.6532 4.5984C17.7168 4.5984 17.8208 4.65115 17.8844 4.71562ZM25.1098 4.84456C25.4162 5.06142 25.5376 5.26655 25.5376 5.57719C25.5376 5.82921 25.4566 5.99918 24.6994 7.31791C24.2139 8.16189 23.7919 8.83005 23.6994 8.90038C23.4855 9.06449 22.9538 9.07035 22.7283 8.91796C22.6301 8.84763 22.2543 8.25567 21.7283 7.33549C20.9827 6.01676 20.8902 5.82921 20.8902 5.58891C20.8902 5.26069 21.0694 4.96178 21.3526 4.82112C21.5318 4.72734 21.7514 4.71562 23.237 4.71562C24.8844 4.71562 24.9249 4.71562 25.1098 4.84456Z" fill="#C6D549"/>
</svg>
