<svg width="32" height="32" viewBox="0 0 32 32" fill="none" xmlns="http://www.w3.org/2000/svg">
<path fill-rule="evenodd" clip-rule="evenodd" d="M6.94229 7.31499C7.06073 7.11734 7.22837 6.95375 7.42887 6.84018C7.62936 6.72661 7.85587 6.66694 8.08629 6.66699H23.909C24.1394 6.66694 24.3659 6.72661 24.5664 6.84018C24.7669 6.95375 24.9345 7.11734 25.053 7.31499L28.0583 12.3243C28.1189 12.4255 28.1516 12.541 28.1531 12.6589C28.1545 12.7769 28.1246 12.8931 28.0664 12.9957C28.0083 13.0983 27.9239 13.1837 27.822 13.243C27.7201 13.3024 27.6042 13.3337 27.4863 13.3337H25.9996V24.667C25.9996 25.0206 25.8592 25.3598 25.6091 25.6098C25.3591 25.8599 25.0199 26.0003 24.6663 26.0003H15.333C14.9793 26.0003 14.6402 25.8599 14.3902 25.6098C14.1401 25.3598 13.9996 25.0206 13.9996 24.667V17.6003C13.9996 17.5296 13.9715 17.4618 13.9215 17.4118C13.8715 17.3618 13.8037 17.3337 13.733 17.3337H9.59963C9.5289 17.3337 9.46107 17.3618 9.41107 17.4118C9.36106 17.4618 9.33296 17.5296 9.33296 17.6003V24.667C9.33296 25.0206 9.19248 25.3598 8.94244 25.6098C8.69239 25.8599 8.35325 26.0003 7.99963 26.0003H7.33296C6.97934 26.0003 6.6402 25.8599 6.39015 25.6098C6.1401 25.3598 5.99963 25.0206 5.99963 24.667V13.3337H4.50896C4.39089 13.3339 4.27487 13.3028 4.17277 13.2435C4.07066 13.1843 3.98613 13.0989 3.92781 12.9963C3.8695 12.8936 3.83949 12.7773 3.84087 12.6592C3.84224 12.5412 3.87494 12.4256 3.93563 12.3243L6.94229 7.31499ZM16.6663 17.555C16.6663 17.2483 16.9156 17.0003 17.2223 17.0003H22.777C23.0836 17.0003 23.333 17.2497 23.333 17.5563V21.4443C23.333 21.751 23.085 22.0003 22.777 22.0003H17.2223C17.1493 22.0003 17.077 21.9859 17.0095 21.958C16.9421 21.9301 16.8808 21.8891 16.8291 21.8375C16.7775 21.7858 16.7366 21.7246 16.7086 21.6571C16.6807 21.5896 16.6663 21.5173 16.6663 21.4443V17.555Z" fill="#EA9507"/>
</svg>
