<svg width="24" height="24" viewBox="0 0 24 24" fill="none" xmlns="http://www.w3.org/2000/svg">
<path d="M22.0003 12L22.7803 11.375L23.2803 12L22.7803 12.625L22.0003 12ZM13.0003 13C12.7351 13 12.4807 12.8946 12.2932 12.7071C12.1056 12.5196 12.0003 12.2652 12.0003 12C12.0003 11.7348 12.1056 11.4804 12.2932 11.2929C12.4807 11.1054 12.7351 11 13.0003 11V13ZM18.7803 6.375L22.7803 11.375L21.2203 12.625L17.2203 7.625L18.7803 6.375ZM22.7803 12.625L18.7803 17.625L17.2203 16.375L21.2203 11.375L22.7803 12.625ZM22.0003 13H13.0003V11H22.0003V13Z" fill="#FFFDF9"/>
<path d="M14 8.13189V7.38889C14 5.76989 14 4.96089 13.526 4.40189C13.052 3.84289 12.254 3.70889 10.658 3.44189L8.986 3.16389C5.743 2.62389 4.122 2.35389 3.061 3.25189C2 4.15089 2 5.79489 2 9.08189V14.9169C2 18.2049 2 19.8489 3.06 20.7469C4.122 21.6469 5.743 21.3769 8.986 20.8359L10.658 20.5569C12.254 20.2909 13.052 20.1579 13.526 19.5989C14 19.0389 14 18.2289 14 16.6099V16.0649" stroke="#FFFDF9" stroke-width="2"/>
</svg>
