<svg width="24" height="24" viewBox="0 0 24 24" fill="none" xmlns="http://www.w3.org/2000/svg">
<path fill-rule="evenodd" clip-rule="evenodd" d="M8.20248 10.8096L4.50325 10.4824C3.67308 10.4824 3 11.1621 3 12.0003C3 12.8386 3.67308 13.5182 4.50325 13.5182L8.20248 13.1911C8.85375 13.1911 9.38174 12.6579 9.38174 12.0003C9.38174 11.3416 8.85375 10.8096 8.20248 10.8096Z" fill="#BCBCBC"/>
<path fill-rule="evenodd" clip-rule="evenodd" d="M20.6247 10.8698C20.5668 10.8115 20.3508 10.5647 20.1479 10.3598C18.9643 9.07656 15.8738 6.97815 14.2571 6.33596C14.0116 6.23352 13.3909 6.01542 13.0582 6C12.7408 6 12.4375 6.0738 12.1484 6.2192C11.7873 6.42299 11.4993 6.74463 11.34 7.12355C11.2386 7.38572 11.0793 8.17331 11.0793 8.18763C10.9211 9.04792 10.835 10.4469 10.835 11.9934C10.835 13.465 10.9211 14.8067 11.051 15.6813C11.0651 15.6967 11.2244 16.6738 11.3979 17.0086C11.7153 17.6211 12.336 18 13.0004 18H13.0582C13.4913 17.9857 14.4011 17.6057 14.4011 17.5924C15.9316 16.9502 18.949 14.9532 20.1621 13.6258C20.1621 13.6258 20.5047 13.2844 20.653 13.0718C20.8843 12.7656 20.9999 12.3866 20.9999 12.0077C20.9999 11.5847 20.8701 11.1915 20.6247 10.8698Z" fill="#FFFDF9"/>
</svg>
