<svg width="17" height="10" viewBox="0 0 17 10" fill="none" xmlns="http://www.w3.org/2000/svg">
<path d="M16.6331 0.3824C16.3982 0.137549 16.0795 0 15.7473 0C15.415 0 15.0964 0.137549 14.8614 0.3824L8.6591 6.84743L2.45679 0.3824C2.22048 0.144488 1.90397 0.0128441 1.57544 0.0158205C1.24691 0.018796 0.93264 0.156154 0.700325 0.398309C0.46801 0.640465 0.336235 0.968042 0.333382 1.31049C0.330526 1.65294 0.456821 1.98285 0.685062 2.22918L7.77324 9.6176C8.00821 9.86245 8.32685 10 8.6591 10C8.99135 10 9.31 9.86245 9.54497 9.6176L16.6331 2.22918C16.868 1.98425 17 1.65211 17 1.30579C17 0.959466 16.868 0.627323 16.6331 0.3824Z" fill="#FFFBF4"/>
</svg>
