<svg width="16" height="16" viewBox="0 0 16 16" fill="none" xmlns="http://www.w3.org/2000/svg">
<path d="M5.61434 13.7458C6.78501 14.3605 7.37034 14.6672 7.99967 14.6672V8.00049L1.75834 4.71582L1.73167 4.76049C1.33301 5.43649 1.33301 6.27849 1.33301 7.96182V8.03982C1.33301 9.72249 1.33301 10.5645 1.73101 11.2405C2.12967 11.9172 2.84701 12.2938 4.28101 13.0465L5.61434 13.7458Z" fill="#EA9507"/>
<path opacity="0.7" d="M11.7181 2.95434L10.3848 2.25434C9.21479 1.64034 8.62946 1.33301 8.00012 1.33301C7.37012 1.33301 6.78546 1.63967 5.61479 2.25434L4.28146 2.95434C2.87879 3.69034 2.16146 4.06634 1.75879 4.71434L8.00012 7.99967L14.2415 4.71501C13.8375 4.06634 13.1215 3.69034 11.7181 2.95434Z" fill="#EA9507"/>
<path opacity="0.5" d="M14.2687 4.76049L14.2413 4.71582L8 8.00049V14.6672C8.62933 14.6672 9.21467 14.3605 10.3853 13.7458L11.7187 13.0458C13.1527 12.2932 13.87 11.9172 14.2687 11.2405C14.6667 10.5645 14.6667 9.72249 14.6667 8.04049V7.96249C14.6667 6.27915 14.6667 5.43649 14.2687 4.76049Z" fill="#EA9507"/>
<path d="M4.21498 2.98897L4.28164 2.95431L5.27698 2.43164L11.3436 5.76831L14.027 4.42764C14.1181 4.53075 14.1985 4.64142 14.2683 4.75964C14.3683 4.92897 14.443 5.10897 14.499 5.30964L11.833 6.64231V8.66631C11.833 8.79892 11.7803 8.92609 11.6865 9.01986C11.5928 9.11363 11.4656 9.16631 11.333 9.16631C11.2004 9.16631 11.0732 9.11363 10.9794 9.01986C10.8857 8.92609 10.833 8.79892 10.833 8.66631V7.14231L8.49964 8.30897V14.6023C8.33634 14.6446 8.16834 14.6661 7.99964 14.6663C7.83431 14.6663 7.67098 14.645 7.49964 14.6023V8.30897L1.50098 5.30897C1.55698 5.10897 1.63164 4.92897 1.73164 4.75964C1.80098 4.64142 1.88142 4.53075 1.97298 4.42764L7.99964 7.44097L10.2576 6.31231L4.21498 2.98897Z" fill="#EA9507"/>
</svg>
