<svg width="24" height="24" viewBox="0 0 24 24" fill="none" xmlns="http://www.w3.org/2000/svg">
<path fill-rule="evenodd" clip-rule="evenodd" d="M13.7306 2.18381C13.9089 2.04191 14.1329 1.97595 14.356 2.00793C18.4004 2.45862 21.5405 5.60746 21.9946 9.66467C22.0205 9.89351 21.9557 10.1174 21.8133 10.2972C21.6699 10.4771 21.4668 10.59 21.2387 10.615C21.2058 10.619 21.174 10.621 21.1411 10.621C20.7049 10.621 20.3394 10.2922 20.2906 9.85654C19.9261 6.60477 17.4065 4.07951 14.1648 3.71776C13.6947 3.66479 13.3551 3.23908 13.4079 2.76841C13.4328 2.53557 13.5473 2.32771 13.7306 2.18381ZM13.4144 6.17047C13.505 5.70579 13.9422 5.402 14.4183 5.48994C16.5027 5.89666 18.1111 7.51055 18.5184 9.60012C18.609 10.0658 18.3043 10.5185 17.8412 10.6114C17.7854 10.6214 17.7306 10.6264 17.6759 10.6264C17.2675 10.6264 16.913 10.3336 16.8353 9.93089V9.92989C16.5624 8.53085 15.4859 7.45159 14.0916 7.17978C13.6285 7.08884 13.3238 6.63515 13.4144 6.17047Z" fill="#FFFBF4"/>
<path fill-rule="evenodd" clip-rule="evenodd" d="M17.6047 14.6729C16.9563 14.535 16.4435 14.8348 15.9893 15.0967C15.5242 15.3665 14.6389 16.081 14.133 15.8971C11.5376 14.8338 9.09669 12.5704 8.04004 9.97617C7.8538 9.45953 8.56787 8.57314 8.83576 8.10546C9.09769 7.65177 9.39247 7.13513 9.25803 6.48557C9.13653 5.90097 7.56499 3.90934 7.00928 3.36472C6.64179 3.00496 6.26733 2.8071 5.88192 2.77412C4.43288 2.71316 2.81454 4.63884 2.53071 5.09952C1.81864 6.08185 1.82362 7.38895 2.54266 8.97386C4.27553 13.2309 10.8296 19.6555 15.1199 21.4463C15.9106 21.815 16.6357 21.9999 17.286 21.9999C17.9224 21.9999 18.489 21.823 18.976 21.4723C19.3425 21.2614 21.3562 19.5696 21.3025 18.0876C21.2716 17.7099 21.0734 17.3321 20.7169 16.9664C20.1731 16.4078 18.1873 14.7959 17.6047 14.6729Z" fill="#FFFBF4"/>
</svg>
