<svg width="24" height="24" viewBox="0 0 24 24" fill="none" xmlns="http://www.w3.org/2000/svg">
<path d="M12.0004 2.3999C13.4501 2.40074 14.8808 2.72991 16.1852 3.36271C17.4895 3.99551 18.6336 4.9155 19.5316 6.05365C20.4295 7.19179 21.0581 8.51854 21.37 9.93432C21.6819 11.3501 21.6691 12.8181 21.3326 14.2283C20.9961 15.6384 20.3446 16.954 19.427 18.0764C18.5093 19.1987 17.3494 20.0987 16.0343 20.7087C14.7191 21.3187 13.2829 21.6229 11.8334 21.5985C10.3839 21.5742 8.95868 21.2218 7.66479 20.5679L7.51959 20.4899L3.14559 21.5819C3.06141 21.6031 2.97364 21.6057 2.88834 21.5897C2.80304 21.5736 2.72223 21.5393 2.6515 21.4889C2.58077 21.4386 2.5218 21.3736 2.47865 21.2983C2.4355 21.2229 2.40921 21.1392 2.40159 21.0527V20.9543L2.41839 20.8547L3.51039 16.4819L3.43479 16.3379C2.88701 15.2564 2.54906 14.0808 2.43879 12.8735L2.40879 12.4151L2.40039 11.9999C2.40039 9.45382 3.41182 7.01203 5.21217 5.21168C7.01251 3.41133 9.45431 2.3999 12.0004 2.3999ZM12.6004 13.1999H9.00039L8.89239 13.2095C8.75405 13.2346 8.6289 13.3074 8.53878 13.4153C8.44866 13.5232 8.39929 13.6593 8.39929 13.7999C8.39929 13.9405 8.44866 14.0766 8.53878 14.1845C8.6289 14.2924 8.75405 14.3653 8.89239 14.3903L9.00039 14.3999H12.6004L12.7084 14.3903C12.8467 14.3653 12.9719 14.2924 13.062 14.1845C13.1521 14.0766 13.2015 13.9405 13.2015 13.7999C13.2015 13.6593 13.1521 13.5232 13.062 13.4153C12.9719 13.3074 12.8467 13.2346 12.7084 13.2095L12.6004 13.1999ZM15.0004 9.5999H9.00039L8.89239 9.6095C8.75405 9.63455 8.6289 9.70738 8.53878 9.81529C8.44866 9.92319 8.39929 10.0593 8.39929 10.1999C8.39929 10.3405 8.44866 10.4766 8.53878 10.5845C8.6289 10.6924 8.75405 10.7653 8.89239 10.7903L9.00039 10.7999H15.0004L15.1084 10.7903C15.2467 10.7653 15.3719 10.6924 15.462 10.5845C15.5521 10.4766 15.6015 10.3405 15.6015 10.1999C15.6015 10.0593 15.5521 9.92319 15.462 9.81529C15.3719 9.70738 15.2467 9.63455 15.1084 9.6095L15.0004 9.5999Z" fill="#C1C2C3"/>
</svg>
