<svg width="32" height="32" viewBox="0 0 32 32" fill="none" xmlns="http://www.w3.org/2000/svg">
<path d="M28 23.0329V12.5333C28 9.54639 28 8.05291 27.4187 6.91205C26.9074 5.90852 26.0915 5.09262 25.0879 4.5813C23.9471 4 22.4536 4 19.4667 4H12.5333C9.54639 4 8.05291 4 6.91205 4.5813C5.90852 5.09262 5.09262 5.90852 4.5813 6.91205C4 8.05291 4 9.54639 4 12.5333V14.1333C4 17.1203 4 18.6138 4.5813 19.7546C5.09262 20.7581 5.90852 21.574 6.91205 22.0854C8.05291 22.6667 9.54639 22.6667 12.5333 22.6667H18.1878C18.8561 22.6667 19.1902 22.6667 19.5038 22.7437C19.7818 22.812 20.0469 22.9247 20.2891 23.0773C20.5622 23.2494 20.7943 23.4899 21.2583 23.9708L22.4971 25.2548C24.2172 27.0376 25.0772 27.929 25.8181 27.9967C26.4607 28.0554 27.0921 27.8004 27.5138 27.312C28 26.7489 28 25.5103 28 23.0329Z" fill="#FDB133"/>
<path d="M21.3337 14.6667C20.5973 14.6667 20.0003 14.0697 20.0003 13.3333C20.0003 12.597 20.5973 12 21.3337 12C22.07 12 22.667 12.597 22.667 13.3333C22.667 14.0697 22.07 14.6667 21.3337 14.6667Z" fill="#FFFBF4"/>
<path d="M14.667 13.3333C14.667 14.0697 15.2639 14.6667 16.0003 14.6667C16.7367 14.6667 17.3337 14.0697 17.3337 13.3333C17.3337 12.597 16.7367 12 16.0003 12C15.2639 12 14.667 12.597 14.667 13.3333Z" fill="#FFFBF4"/>
<path d="M9.33366 13.3333C9.33366 14.0697 9.93061 14.6667 10.667 14.6667C11.4034 14.6667 12.0003 14.0697 12.0003 13.3333C12.0003 12.597 11.4034 12 10.667 12C9.93061 12 9.33366 12.597 9.33366 13.3333Z" fill="#FFFBF4"/>
</svg>
