<svg width="24" height="24" viewBox="0 0 24 24" fill="none" xmlns="http://www.w3.org/2000/svg">
<path d="M12.0004 2.40039C13.4501 2.40123 14.8808 2.7304 16.1852 3.3632C17.4895 3.99599 18.6336 4.91599 19.5316 6.05413C20.4295 7.19228 21.0581 8.51903 21.37 9.9348C21.6819 11.3506 21.6691 12.8186 21.3326 14.2288C20.9961 15.6389 20.3446 16.9545 19.427 18.0769C18.5093 19.1992 17.3494 20.0992 16.0343 20.7092C14.7191 21.3192 13.2829 21.6234 11.8334 21.599C10.3839 21.5746 8.95868 21.2223 7.66479 20.5684L7.51959 20.4904L3.14559 21.5824C3.06141 21.6036 2.97364 21.6062 2.88834 21.5902C2.80304 21.5741 2.72223 21.5397 2.6515 21.4894C2.58077 21.4391 2.5218 21.3741 2.47865 21.2988C2.4355 21.2234 2.40921 21.1397 2.40159 21.0532V20.9548L2.41839 20.8552L3.51039 16.4824L3.43479 16.3384C2.88701 15.2568 2.54906 14.0813 2.43879 12.874L2.40879 12.4156L2.40039 12.0004C2.40039 9.45431 3.41182 7.01252 5.21217 5.21217C7.01251 3.41182 9.45431 2.40039 12.0004 2.40039ZM12.6004 13.2004H9.00039L8.89239 13.21C8.75405 13.235 8.6289 13.3079 8.53878 13.4158C8.44866 13.5237 8.39929 13.6598 8.39929 13.8004C8.39929 13.941 8.44866 14.0771 8.53878 14.185C8.6289 14.2929 8.75405 14.3657 8.89239 14.3908L9.00039 14.4004H12.6004L12.7084 14.3908C12.8467 14.3657 12.9719 14.2929 13.062 14.185C13.1521 14.0771 13.2015 13.941 13.2015 13.8004C13.2015 13.6598 13.1521 13.5237 13.062 13.4158C12.9719 13.3079 12.8467 13.235 12.7084 13.21L12.6004 13.2004ZM15.0004 9.60039H9.00039L8.89239 9.60999C8.75405 9.63504 8.6289 9.70787 8.53878 9.81577C8.44866 9.92368 8.39929 10.0598 8.39929 10.2004C8.39929 10.341 8.44866 10.4771 8.53878 10.585C8.6289 10.6929 8.75405 10.7657 8.89239 10.7908L9.00039 10.8004H15.0004L15.1084 10.7908C15.2467 10.7657 15.3719 10.6929 15.462 10.585C15.5521 10.4771 15.6015 10.341 15.6015 10.2004C15.6015 10.0598 15.5521 9.92368 15.462 9.81577C15.3719 9.70787 15.2467 9.63504 15.1084 9.60999L15.0004 9.60039Z" fill="#C1C2C3"/>
</svg>
