<svg width="24" height="22" viewBox="0 0 24 22" fill="none" xmlns="http://www.w3.org/2000/svg">
<path d="M12.1742 12.1174C12.2517 12.1178 12.2517 12.1178 12.3308 12.1181C12.3857 12.1181 12.4406 12.1181 12.4972 12.1181C12.6758 12.1181 12.8543 12.1186 13.0329 12.1191C13.1428 12.1192 13.2528 12.1193 13.3627 12.1193C13.7713 12.1196 14.1799 12.1205 14.5885 12.1213C15.501 12.1226 16.4136 12.1239 17.3538 12.1252C17.3538 14.0021 17.3538 15.879 17.3538 17.8127C17.6991 17.8127 18.0443 17.8127 18.4 17.8127C18.3995 17.6485 18.3995 17.6485 18.399 17.4809C18.398 17.12 18.3973 16.759 18.3968 16.398C18.3965 16.1791 18.3961 15.9601 18.3954 15.7412C18.3946 15.4897 18.3943 15.2383 18.394 14.9868C18.3935 14.8683 18.3935 14.8683 18.393 14.7475C18.393 14.6386 18.393 14.6386 18.393 14.5276C18.3929 14.4633 18.3927 14.399 18.3926 14.3328C18.4 14.1877 18.4 14.1877 18.4615 14.1252C18.6338 14.1193 18.8046 14.1174 18.9769 14.1181C19.0318 14.1181 19.0868 14.1181 19.1433 14.1181C19.3219 14.1181 19.5005 14.1186 19.6791 14.1191C19.789 14.1192 19.8989 14.1193 20.0088 14.1193C20.4174 14.1196 20.826 14.1205 21.2346 14.1213C22.1472 14.1226 23.0598 14.1239 24 14.1252C24 16.724 24 19.3227 24 22.0002C16.08 22.0002 8.16 22.0002 0 22.0002C0 19.2365 0 16.4727 0 13.6252C1.15754 13.6252 2.31508 13.6252 3.50769 13.6252C3.56923 13.6877 3.56923 13.6877 3.57663 13.8542C3.57649 13.9285 3.57636 14.0027 3.57622 14.0792C3.57623 14.1201 3.57623 14.1609 3.57624 14.203C3.5762 14.3386 3.57572 14.4742 3.57524 14.6098C3.57513 14.7036 3.57504 14.7974 3.57498 14.8912C3.57474 15.1385 3.57414 15.3858 3.57346 15.6332C3.57283 15.8854 3.57255 16.1375 3.57224 16.3897C3.57157 16.8849 3.57049 17.3801 3.56923 17.8752C3.89415 17.8752 4.21908 17.8752 4.55385 17.8752C4.55385 16.5965 4.55385 15.3177 4.55385 14.0002C6.60492 14.0002 8.656 14.0002 10.7692 14.0002C10.7692 15.0315 10.7692 16.0627 10.7692 17.1252C11.0942 17.1252 11.4191 17.1252 11.7538 17.1252C11.7535 16.976 11.7532 16.8267 11.7529 16.673C11.7519 16.181 11.7512 15.6891 11.7507 15.1971C11.7503 14.8987 11.7499 14.6003 11.7492 14.302C11.7485 14.0142 11.7482 13.7265 11.748 13.4388C11.7479 13.3288 11.7477 13.2187 11.7473 13.1087C11.7469 12.9552 11.7468 12.8016 11.7469 12.6481C11.7466 12.6021 11.7464 12.5562 11.7462 12.5088C11.747 12.1099 11.7859 12.1181 12.1742 12.1174ZM12.3692 13.0627C12.3692 13.269 12.3692 13.4752 12.3692 13.6877C12.5723 13.6877 12.7754 13.6877 12.9846 13.6877C12.9846 13.4815 12.9846 13.2752 12.9846 13.0627C12.7815 13.0627 12.5785 13.0627 12.3692 13.0627ZM13.3538 13.0627C13.3538 13.269 13.3538 13.4752 13.3538 13.6877C13.5569 13.6877 13.76 13.6877 13.9692 13.6877C13.9692 13.4815 13.9692 13.2752 13.9692 13.0627C13.7662 13.0627 13.5631 13.0627 13.3538 13.0627ZM14.3385 13.0627C14.3385 13.269 14.3385 13.4752 14.3385 13.6877C14.5415 13.6877 14.7446 13.6877 14.9538 13.6877C14.9538 13.4815 14.9538 13.2752 14.9538 13.0627C14.7508 13.0627 14.5477 13.0627 14.3385 13.0627ZM15.3231 13.0627C15.3231 13.269 15.3231 13.4752 15.3231 13.6877C15.5262 13.6877 15.7292 13.6877 15.9385 13.6877C15.9385 13.4815 15.9385 13.2752 15.9385 13.0627C15.7354 13.0627 15.5323 13.0627 15.3231 13.0627ZM16.3077 13.0627C16.3077 13.269 16.3077 13.4752 16.3077 13.6877C16.5108 13.6877 16.7138 13.6877 16.9231 13.6877C16.9231 13.4815 16.9231 13.2752 16.9231 13.0627C16.72 13.0627 16.5169 13.0627 16.3077 13.0627ZM12.3692 14.0627C12.3692 14.269 12.3692 14.4752 12.3692 14.6877C12.5723 14.6877 12.7754 14.6877 12.9846 14.6877C12.9846 14.4815 12.9846 14.2752 12.9846 14.0627C12.7815 14.0627 12.5785 14.0627 12.3692 14.0627ZM13.3538 14.0627C13.3538 14.269 13.3538 14.4752 13.3538 14.6877C13.5569 14.6877 13.76 14.6877 13.9692 14.6877C13.9692 14.4815 13.9692 14.2752 13.9692 14.0627C13.7662 14.0627 13.5631 14.0627 13.3538 14.0627ZM14.3385 14.0627C14.3385 14.269 14.3385 14.4752 14.3385 14.6877C14.5415 14.6877 14.7446 14.6877 14.9538 14.6877C14.9538 14.4815 14.9538 14.2752 14.9538 14.0627C14.7508 14.0627 14.5477 14.0627 14.3385 14.0627ZM15.3231 14.0627C15.3231 14.269 15.3231 14.4752 15.3231 14.6877C15.5262 14.6877 15.7292 14.6877 15.9385 14.6877C15.9385 14.4815 15.9385 14.2752 15.9385 14.0627C15.7354 14.0627 15.5323 14.0627 15.3231 14.0627ZM16.3077 14.0627C16.3077 14.269 16.3077 14.4752 16.3077 14.6877C16.5108 14.6877 16.7138 14.6877 16.9231 14.6877C16.9231 14.4815 16.9231 14.2752 16.9231 14.0627C16.72 14.0627 16.5169 14.0627 16.3077 14.0627ZM0.369231 14.3127C0.369231 14.5396 0.369231 14.7665 0.369231 15.0002C0.531692 15.0002 0.694154 15.0002 0.861538 15.0002C0.861538 14.7733 0.861538 14.5465 0.861538 14.3127C0.699077 14.3127 0.536615 14.3127 0.369231 14.3127ZM1.47692 14.3127C1.47692 14.5396 1.47692 14.7665 1.47692 15.0002C1.65969 15.0002 1.84246 15.0002 2.03077 15.0002C2.03077 14.7733 2.03077 14.5465 2.03077 14.3127C1.848 14.3127 1.66523 14.3127 1.47692 14.3127ZM2.64615 14.3127C2.64615 14.5396 2.64615 14.7665 2.64615 15.0002C2.80862 15.0002 2.97108 15.0002 3.13846 15.0002C3.13846 14.7733 3.13846 14.5465 3.13846 14.3127C2.976 14.3127 2.81354 14.3127 2.64615 14.3127ZM5.23077 14.6877C5.23077 14.894 5.23077 15.1002 5.23077 15.3127C5.43385 15.3127 5.63692 15.3127 5.84615 15.3127C5.84615 15.1065 5.84615 14.9002 5.84615 14.6877C5.64308 14.6877 5.44 14.6877 5.23077 14.6877ZM6.27692 14.6877C6.27692 14.894 6.27692 15.1002 6.27692 15.3127C6.45969 15.3127 6.64246 15.3127 6.83077 15.3127C6.83077 15.1065 6.83077 14.9002 6.83077 14.6877C6.648 14.6877 6.46523 14.6877 6.27692 14.6877ZM7.26154 14.6877C7.26154 14.894 7.26154 15.1002 7.26154 15.3127C7.44431 15.3127 7.62708 15.3127 7.81538 15.3127C7.81538 15.1065 7.81538 14.9002 7.81538 14.6877C7.63262 14.6877 7.44985 14.6877 7.26154 14.6877ZM8.24615 14.6877C8.24615 14.894 8.24615 15.1002 8.24615 15.3127C8.42892 15.3127 8.61169 15.3127 8.8 15.3127C8.8 15.1065 8.8 14.9002 8.8 14.6877C8.61723 14.6877 8.43446 14.6877 8.24615 14.6877ZM9.23077 14.6877C9.23077 14.894 9.23077 15.1002 9.23077 15.3127C9.41354 15.3127 9.59631 15.3127 9.78462 15.3127C9.84309 15.0817 9.84309 14.9187 9.78462 14.6877C9.60185 14.6877 9.41908 14.6877 9.23077 14.6877ZM18.8923 14.9377C18.8923 15.144 18.8923 15.3502 18.8923 15.5627C19.0954 15.5627 19.2985 15.5627 19.5077 15.5627C19.5077 15.3565 19.5077 15.1502 19.5077 14.9377C19.3046 14.9377 19.1015 14.9377 18.8923 14.9377ZM19.8769 14.9377C19.8769 15.144 19.8769 15.3502 19.8769 15.5627C20.08 15.5627 20.2831 15.5627 20.4923 15.5627C20.4923 15.3565 20.4923 15.1502 20.4923 14.9377C20.2892 14.9377 20.0862 14.9377 19.8769 14.9377ZM20.8615 14.9377C20.8615 15.144 20.8615 15.3502 20.8615 15.5627C21.0646 15.5627 21.2677 15.5627 21.4769 15.5627C21.4769 15.3565 21.4769 15.1502 21.4769 14.9377C21.2738 14.9377 21.0708 14.9377 20.8615 14.9377ZM21.8462 14.9377C21.8462 15.144 21.8462 15.3502 21.8462 15.5627C22.0492 15.5627 22.2523 15.5627 22.4615 15.5627C22.4615 15.3565 22.4615 15.1502 22.4615 14.9377C22.2585 14.9377 22.0554 14.9377 21.8462 14.9377ZM22.8308 14.9377C22.8308 15.144 22.8308 15.3502 22.8308 15.5627C23.0338 15.5627 23.2369 15.5627 23.4462 15.5627C23.4462 15.3565 23.4462 15.1502 23.4462 14.9377C23.2431 14.9377 23.04 14.9377 22.8308 14.9377ZM12.3692 15.0627C12.3692 15.269 12.3692 15.4752 12.3692 15.6877C12.5723 15.6877 12.7754 15.6877 12.9846 15.6877C12.9846 15.4815 12.9846 15.2752 12.9846 15.0627C12.7815 15.0627 12.5785 15.0627 12.3692 15.0627ZM13.3538 15.0627C13.3538 15.269 13.3538 15.4752 13.3538 15.6877C13.5569 15.6877 13.76 15.6877 13.9692 15.6877C13.9692 15.4815 13.9692 15.2752 13.9692 15.0627C13.7662 15.0627 13.5631 15.0627 13.3538 15.0627ZM14.3385 15.0627C14.3385 15.269 14.3385 15.4752 14.3385 15.6877C14.5415 15.6877 14.7446 15.6877 14.9538 15.6877C14.9538 15.4815 14.9538 15.2752 14.9538 15.0627C14.7508 15.0627 14.5477 15.0627 14.3385 15.0627ZM15.3231 15.0627C15.3231 15.269 15.3231 15.4752 15.3231 15.6877C15.5262 15.6877 15.7292 15.6877 15.9385 15.6877C15.9385 15.4815 15.9385 15.2752 15.9385 15.0627C15.7354 15.0627 15.5323 15.0627 15.3231 15.0627ZM16.3077 15.0627C16.3077 15.269 16.3077 15.4752 16.3077 15.6877C16.5108 15.6877 16.7138 15.6877 16.9231 15.6877C16.9231 15.4815 16.9231 15.2752 16.9231 15.0627C16.72 15.0627 16.5169 15.0627 16.3077 15.0627ZM0.369231 15.6252C0.369231 15.8315 0.369231 16.0377 0.369231 16.2502C0.531692 16.2502 0.694154 16.2502 0.861538 16.2502C0.861538 16.044 0.861538 15.8377 0.861538 15.6252C0.699077 15.6252 0.536615 15.6252 0.369231 15.6252ZM1.47692 15.6252C1.47692 15.8315 1.47692 16.0377 1.47692 16.2502C1.65969 16.2502 1.84246 16.2502 2.03077 16.2502C2.03077 16.044 2.03077 15.8377 2.03077 15.6252C1.848 15.6252 1.66523 15.6252 1.47692 15.6252ZM2.64615 15.6252C2.64615 15.8315 2.64615 16.0377 2.64615 16.2502C2.80862 16.2502 2.97108 16.2502 3.13846 16.2502C3.13846 16.044 3.13846 15.8377 3.13846 15.6252C2.976 15.6252 2.81354 15.6252 2.64615 15.6252ZM5.23077 15.6877C5.23077 15.894 5.23077 16.1002 5.23077 16.3127C5.43385 16.3127 5.63692 16.3127 5.84615 16.3127C5.84615 16.1065 5.84615 15.9002 5.84615 15.6877C5.64308 15.6877 5.44 15.6877 5.23077 15.6877ZM6.27692 15.6877C6.27692 15.894 6.27692 16.1002 6.27692 16.3127C6.45969 16.3127 6.64246 16.3127 6.83077 16.3127C6.83077 16.1065 6.83077 15.9002 6.83077 15.6877C6.648 15.6877 6.46523 15.6877 6.27692 15.6877ZM7.26154 15.6877C7.26154 15.894 7.26154 16.1002 7.26154 16.3127C7.44431 16.3127 7.62708 16.3127 7.81538 16.3127C7.81538 16.1065 7.81538 15.9002 7.81538 15.6877C7.63262 15.6877 7.44985 15.6877 7.26154 15.6877ZM8.24615 15.6877C8.24615 15.894 8.24615 16.1002 8.24615 16.3127C8.42892 16.3127 8.61169 16.3127 8.8 16.3127C8.8 16.1065 8.8 15.9002 8.8 15.6877C8.61723 15.6877 8.43446 15.6877 8.24615 15.6877ZM9.23077 15.6877C9.23077 15.894 9.23077 16.1002 9.23077 16.3127C9.43385 16.3127 9.63692 16.3127 9.84615 16.3127C9.82585 16.1065 9.80554 15.9002 9.78462 15.6877C9.60185 15.6877 9.41908 15.6877 9.23077 15.6877ZM18.8923 15.9377C18.8923 16.144 18.8923 16.3502 18.8923 16.5627C19.0954 16.5627 19.2985 16.5627 19.5077 16.5627C19.5077 16.3565 19.5077 16.1502 19.5077 15.9377C19.3046 15.9377 19.1015 15.9377 18.8923 15.9377ZM19.8769 15.9377C19.8769 16.144 19.8769 16.3502 19.8769 16.5627C20.08 16.5627 20.2831 16.5627 20.4923 16.5627C20.4923 16.3565 20.4923 16.1502 20.4923 15.9377C20.2892 15.9377 20.0862 15.9377 19.8769 15.9377ZM20.8615 15.9377C20.8615 16.144 20.8615 16.3502 20.8615 16.5627C21.0646 16.5627 21.2677 16.5627 21.4769 16.5627C21.4769 16.3565 21.4769 16.1502 21.4769 15.9377C21.2738 15.9377 21.0708 15.9377 20.8615 15.9377ZM21.8462 15.9377C21.8462 16.144 21.8462 16.3502 21.8462 16.5627C22.0492 16.5627 22.2523 16.5627 22.4615 16.5627C22.4615 16.3565 22.4615 16.1502 22.4615 15.9377C22.2585 15.9377 22.0554 15.9377 21.8462 15.9377ZM22.8308 15.9377C22.8308 16.144 22.8308 16.3502 22.8308 16.5627C23.0338 16.5627 23.2369 16.5627 23.4462 16.5627C23.4462 16.3565 23.4462 16.1502 23.4462 15.9377C23.2431 15.9377 23.04 15.9377 22.8308 15.9377ZM5.23077 16.6877C5.23077 16.894 5.23077 17.1002 5.23077 17.3127C5.43385 17.3127 5.63692 17.3127 5.84615 17.3127C5.84615 17.1065 5.84615 16.9002 5.84615 16.6877C5.64308 16.6877 5.44 16.6877 5.23077 16.6877ZM6.27692 16.6877C6.27692 16.894 6.27692 17.1002 6.27692 17.3127C6.45969 17.3127 6.64246 17.3127 6.83077 17.3127C6.83077 17.1065 6.83077 16.9002 6.83077 16.6877C6.648 16.6877 6.46523 16.6877 6.27692 16.6877ZM7.26154 16.6877C7.26154 16.894 7.26154 17.1002 7.26154 17.3127C7.44431 17.3127 7.62708 17.3127 7.81538 17.3127C7.81538 17.1065 7.81538 16.9002 7.81538 16.6877C7.63262 16.6877 7.44985 16.6877 7.26154 16.6877ZM8.24615 16.6877C8.24615 16.894 8.24615 17.1002 8.24615 17.3127C8.42892 17.3127 8.61169 17.3127 8.8 17.3127C8.8 17.1065 8.8 16.9002 8.8 16.6877C8.61723 16.6877 8.43446 16.6877 8.24615 16.6877ZM9.23077 16.6877C9.23077 16.894 9.23077 17.1002 9.23077 17.3127C9.41354 17.3127 9.59631 17.3127 9.78462 17.3127C9.84233 16.9971 9.84233 16.9971 9.78462 16.6877C9.60185 16.6877 9.41908 16.6877 9.23077 16.6877ZM0.369231 16.8752C0.369231 17.1021 0.369231 17.329 0.369231 17.5627C0.531692 17.5627 0.694154 17.5627 0.861538 17.5627C0.861538 17.3358 0.861538 17.109 0.861538 16.8752C0.699077 16.8752 0.536615 16.8752 0.369231 16.8752ZM1.47692 16.8752C1.47692 17.1021 1.47692 17.329 1.47692 17.5627C1.65969 17.5627 1.84246 17.5627 2.03077 17.5627C2.03077 17.3358 2.03077 17.109 2.03077 16.8752C1.848 16.8752 1.66523 16.8752 1.47692 16.8752ZM2.64615 16.8752C2.64615 17.1021 2.64615 17.329 2.64615 17.5627C2.80862 17.5627 2.97108 17.5627 3.13846 17.5627C3.13846 17.3358 3.13846 17.109 3.13846 16.8752C2.976 16.8752 2.81354 16.8752 2.64615 16.8752ZM18.8923 16.9377C18.8923 17.144 18.8923 17.3502 18.8923 17.5627C19.0954 17.5627 19.2985 17.5627 19.5077 17.5627C19.5077 17.3565 19.5077 17.1502 19.5077 16.9377C19.3046 16.9377 19.1015 16.9377 18.8923 16.9377ZM19.8769 16.9377C19.8769 17.144 19.8769 17.3502 19.8769 17.5627C20.08 17.5627 20.2831 17.5627 20.4923 17.5627C20.4923 17.3565 20.4923 17.1502 20.4923 16.9377C20.2892 16.9377 20.0862 16.9377 19.8769 16.9377ZM20.8615 16.9377C20.8615 17.144 20.8615 17.3502 20.8615 17.5627C21.0646 17.5627 21.2677 17.5627 21.4769 17.5627C21.4769 17.3565 21.4769 17.1502 21.4769 16.9377C21.2738 16.9377 21.0708 16.9377 20.8615 16.9377ZM21.8462 16.9377C21.8462 17.144 21.8462 17.3502 21.8462 17.5627C22.0492 17.5627 22.2523 17.5627 22.4615 17.5627C22.4615 17.3565 22.4615 17.1502 22.4615 16.9377C22.2585 16.9377 22.0554 16.9377 21.8462 16.9377ZM22.8308 16.9377C22.8308 17.144 22.8308 17.3502 22.8308 17.5627C23.0338 17.5627 23.2369 17.5627 23.4462 17.5627C23.4462 17.3565 23.4462 17.1502 23.4462 16.9377C23.2431 16.9377 23.04 16.9377 22.8308 16.9377ZM12.3692 17.0627C12.3692 17.269 12.3692 17.4752 12.3692 17.6877C12.5723 17.6877 12.7754 17.6877 12.9846 17.6877C12.9846 17.4815 12.9846 17.2752 12.9846 17.0627C12.7815 17.0627 12.5785 17.0627 12.3692 17.0627ZM13.3538 17.0627C13.3538 17.269 13.3538 17.4752 13.3538 17.6877C13.5569 17.6877 13.76 17.6877 13.9692 17.6877C13.9692 17.4815 13.9692 17.2752 13.9692 17.0627C13.7662 17.0627 13.5631 17.0627 13.3538 17.0627ZM14.3385 17.0627C14.3385 17.269 14.3385 17.4752 14.3385 17.6877C14.5415 17.6877 14.7446 17.6877 14.9538 17.6877C14.9538 17.4815 14.9538 17.2752 14.9538 17.0627C14.7508 17.0627 14.5477 17.0627 14.3385 17.0627ZM15.3231 17.0627C15.3231 17.269 15.3231 17.4752 15.3231 17.6877C15.5262 17.6877 15.7292 17.6877 15.9385 17.6877C15.9385 17.4815 15.9385 17.2752 15.9385 17.0627C15.7354 17.0627 15.5323 17.0627 15.3231 17.0627ZM16.3077 17.0627C16.3077 17.269 16.3077 17.4752 16.3077 17.6877C16.5108 17.6877 16.7138 17.6877 16.9231 17.6877C16.9231 17.4815 16.9231 17.2752 16.9231 17.0627C16.72 17.0627 16.5169 17.0627 16.3077 17.0627ZM5.23077 17.6877C5.23077 17.894 5.23077 18.1002 5.23077 18.3127C5.43385 18.3127 5.63692 18.3127 5.84615 18.3127C5.84615 18.1065 5.84615 17.9002 5.84615 17.6877C5.64308 17.6877 5.44 17.6877 5.23077 17.6877ZM6.27692 17.6877C6.27692 17.894 6.27692 18.1002 6.27692 18.3127C6.45969 18.3127 6.64246 18.3127 6.83077 18.3127C6.83077 18.1065 6.83077 17.9002 6.83077 17.6877C6.648 17.6877 6.46523 17.6877 6.27692 17.6877ZM7.26154 17.6877C7.26154 17.894 7.26154 18.1002 7.26154 18.3127C7.44431 18.3127 7.62708 18.3127 7.81538 18.3127C7.81538 18.1065 7.81538 17.9002 7.81538 17.6877C7.63262 17.6877 7.44985 17.6877 7.26154 17.6877ZM8.24615 17.6877C8.24615 17.894 8.24615 18.1002 8.24615 18.3127C8.42892 18.3127 8.61169 18.3127 8.8 18.3127C8.8 18.1065 8.8 17.9002 8.8 17.6877C8.61723 17.6877 8.43446 17.6877 8.24615 17.6877ZM9.23077 17.6877C9.23077 17.894 9.23077 18.1002 9.23077 18.3127C9.41354 18.3127 9.59631 18.3127 9.78462 18.3127C9.84233 17.9971 9.84233 17.9971 9.78462 17.6877C9.60185 17.6877 9.41908 17.6877 9.23077 17.6877ZM18.8923 17.9377C18.8923 18.144 18.8923 18.3502 18.8923 18.5627C19.0954 18.5627 19.2985 18.5627 19.5077 18.5627C19.5077 18.3565 19.5077 18.1502 19.5077 17.9377C19.3046 17.9377 19.1015 17.9377 18.8923 17.9377ZM19.8769 17.9377C19.8769 18.144 19.8769 18.3502 19.8769 18.5627C20.08 18.5627 20.2831 18.5627 20.4923 18.5627C20.4923 18.3565 20.4923 18.1502 20.4923 17.9377C20.2892 17.9377 20.0862 17.9377 19.8769 17.9377ZM20.8615 17.9377C20.8615 18.144 20.8615 18.3502 20.8615 18.5627C21.0646 18.5627 21.2677 18.5627 21.4769 18.5627C21.4769 18.3565 21.4769 18.1502 21.4769 17.9377C21.2738 17.9377 21.0708 17.9377 20.8615 17.9377ZM21.8462 17.9377C21.8462 18.144 21.8462 18.3502 21.8462 18.5627C22.0492 18.5627 22.2523 18.5627 22.4615 18.5627C22.4615 18.3565 22.4615 18.1502 22.4615 17.9377C22.2585 17.9377 22.0554 17.9377 21.8462 17.9377ZM22.8308 17.9377C22.8308 18.144 22.8308 18.3502 22.8308 18.5627C23.0338 18.5627 23.2369 18.5627 23.4462 18.5627C23.4462 18.3565 23.4462 18.1502 23.4462 17.9377C23.2431 17.9377 23.04 17.9377 22.8308 17.9377ZM12.3692 18.0627C12.3692 18.269 12.3692 18.4752 12.3692 18.6877C12.5723 18.6877 12.7754 18.6877 12.9846 18.6877C12.9846 18.4815 12.9846 18.2752 12.9846 18.0627C12.7815 18.0627 12.5785 18.0627 12.3692 18.0627ZM13.3538 18.0627C13.3538 18.269 13.3538 18.4752 13.3538 18.6877C13.5569 18.6877 13.76 18.6877 13.9692 18.6877C13.9692 18.4815 13.9692 18.2752 13.9692 18.0627C13.7662 18.0627 13.5631 18.0627 13.3538 18.0627ZM14.3385 18.0627C14.3385 18.269 14.3385 18.4752 14.3385 18.6877C14.5415 18.6877 14.7446 18.6877 14.9538 18.6877C14.9538 18.4815 14.9538 18.2752 14.9538 18.0627C14.7508 18.0627 14.5477 18.0627 14.3385 18.0627ZM15.3231 18.0627C15.3231 18.269 15.3231 18.4752 15.3231 18.6877C15.5262 18.6877 15.7292 18.6877 15.9385 18.6877C15.9385 18.4815 15.9385 18.2752 15.9385 18.0627C15.7354 18.0627 15.5323 18.0627 15.3231 18.0627ZM16.3077 18.0627C16.3077 18.269 16.3077 18.4752 16.3077 18.6877C16.5108 18.6877 16.7138 18.6877 16.9231 18.6877C16.9231 18.4815 16.9231 18.2752 16.9231 18.0627C16.72 18.0627 16.5169 18.0627 16.3077 18.0627ZM0.369231 18.1252C0.369231 18.3521 0.369231 18.579 0.369231 18.8127C0.531692 18.8127 0.694154 18.8127 0.861538 18.8127C0.861538 18.5858 0.861538 18.359 0.861538 18.1252C0.699077 18.1252 0.536615 18.1252 0.369231 18.1252ZM1.47692 18.1252C1.47692 18.3521 1.47692 18.579 1.47692 18.8127C1.65969 18.8127 1.84246 18.8127 2.03077 18.8127C2.03077 18.5858 2.03077 18.359 2.03077 18.1252C1.848 18.1252 1.66523 18.1252 1.47692 18.1252ZM2.64615 18.1252C2.64615 18.3521 2.64615 18.579 2.64615 18.8127C2.80862 18.8127 2.97108 18.8127 3.13846 18.8127C3.13846 18.5858 3.13846 18.359 3.13846 18.1252C2.976 18.1252 2.81354 18.1252 2.64615 18.1252ZM5.23077 18.6877C5.23077 18.894 5.23077 19.1002 5.23077 19.3127C5.43385 19.3127 5.63692 19.3127 5.84615 19.3127C5.84615 19.1065 5.84615 18.9002 5.84615 18.6877C5.64308 18.6877 5.44 18.6877 5.23077 18.6877ZM6.27692 18.6877C6.27692 18.894 6.27692 19.1002 6.27692 19.3127C6.45969 19.3127 6.64246 19.3127 6.83077 19.3127C6.83077 19.1065 6.83077 18.9002 6.83077 18.6877C6.648 18.6877 6.46523 18.6877 6.27692 18.6877ZM7.26154 18.6877C7.26154 18.894 7.26154 19.1002 7.26154 19.3127C7.44431 19.3127 7.62708 19.3127 7.81538 19.3127C7.81538 19.1065 7.81538 18.9002 7.81538 18.6877C7.63262 18.6877 7.44985 18.6877 7.26154 18.6877ZM8.24615 18.6877C8.24615 18.894 8.24615 19.1002 8.24615 19.3127C8.42892 19.3127 8.61169 19.3127 8.8 19.3127C8.8 19.1065 8.8 18.9002 8.8 18.6877C8.61723 18.6877 8.43446 18.6877 8.24615 18.6877ZM9.23077 18.6877C9.23077 18.894 9.23077 19.1002 9.23077 19.3127C9.41354 19.3127 9.59631 19.3127 9.78462 19.3127C9.79604 19.2328 9.80746 19.1529 9.81923 19.0705C9.82566 19.0256 9.83208 18.9806 9.8387 18.9343C9.85652 18.8076 9.85652 18.8076 9.78462 18.6877C9.60185 18.6877 9.41908 18.6877 9.23077 18.6877ZM18.8923 18.9377C18.8923 19.144 18.8923 19.3502 18.8923 19.5627C19.0954 19.5627 19.2985 19.5627 19.5077 19.5627C19.5077 19.3565 19.5077 19.1502 19.5077 18.9377C19.3046 18.9377 19.1015 18.9377 18.8923 18.9377ZM19.8769 18.9377C19.8769 19.144 19.8769 19.3502 19.8769 19.5627C20.08 19.5627 20.2831 19.5627 20.4923 19.5627C20.4923 19.3565 20.4923 19.1502 20.4923 18.9377C20.2892 18.9377 20.0862 18.9377 19.8769 18.9377ZM20.8615 18.9377C20.8615 19.144 20.8615 19.3502 20.8615 19.5627C21.0646 19.5627 21.2677 19.5627 21.4769 19.5627C21.4769 19.3565 21.4769 19.1502 21.4769 18.9377C21.2738 18.9377 21.0708 18.9377 20.8615 18.9377ZM21.8462 18.9377C21.8462 19.144 21.8462 19.3502 21.8462 19.5627C22.0492 19.5627 22.2523 19.5627 22.4615 19.5627C22.4615 19.3565 22.4615 19.1502 22.4615 18.9377C22.2585 18.9377 22.0554 18.9377 21.8462 18.9377ZM22.8308 18.9377C22.8308 19.144 22.8308 19.3502 22.8308 19.5627C23.0338 19.5627 23.2369 19.5627 23.4462 19.5627C23.4462 19.3565 23.4462 19.1502 23.4462 18.9377C23.2431 18.9377 23.04 18.9377 22.8308 18.9377ZM12.3692 19.0627C12.3692 19.269 12.3692 19.4752 12.3692 19.6877C12.5723 19.6877 12.7754 19.6877 12.9846 19.6877C12.9846 19.4815 12.9846 19.2752 12.9846 19.0627C12.7815 19.0627 12.5785 19.0627 12.3692 19.0627ZM13.3538 19.0627C13.3538 19.269 13.3538 19.4752 13.3538 19.6877C13.5569 19.6877 13.76 19.6877 13.9692 19.6877C13.9692 19.4815 13.9692 19.2752 13.9692 19.0627C13.7662 19.0627 13.5631 19.0627 13.3538 19.0627ZM14.3385 19.0627C14.3385 19.269 14.3385 19.4752 14.3385 19.6877C14.5415 19.6877 14.7446 19.6877 14.9538 19.6877C14.9538 19.4815 14.9538 19.2752 14.9538 19.0627C14.7508 19.0627 14.5477 19.0627 14.3385 19.0627ZM15.3231 19.0627C15.3231 19.269 15.3231 19.4752 15.3231 19.6877C15.5262 19.6877 15.7292 19.6877 15.9385 19.6877C15.9385 19.4815 15.9385 19.2752 15.9385 19.0627C15.7354 19.0627 15.5323 19.0627 15.3231 19.0627ZM16.3077 19.0627C16.3077 19.269 16.3077 19.4752 16.3077 19.6877C16.5108 19.6877 16.7138 19.6877 16.9231 19.6877C16.9231 19.4815 16.9231 19.2752 16.9231 19.0627C16.72 19.0627 16.5169 19.0627 16.3077 19.0627ZM0.369231 19.4377C0.369231 19.644 0.369231 19.8502 0.369231 20.0627C0.531692 20.0627 0.694154 20.0627 0.861538 20.0627C0.861538 19.8565 0.861538 19.6502 0.861538 19.4377C0.699077 19.4377 0.536615 19.4377 0.369231 19.4377ZM1.47692 19.4377C1.47692 19.644 1.47692 19.8502 1.47692 20.0627C1.65969 20.0627 1.84246 20.0627 2.03077 20.0627C2.03077 19.8565 2.03077 19.6502 2.03077 19.4377C1.848 19.4377 1.66523 19.4377 1.47692 19.4377ZM2.64615 19.4377C2.64615 19.644 2.64615 19.8502 2.64615 20.0627C2.80862 20.0627 2.97108 20.0627 3.13846 20.0627C3.13846 19.8565 3.13846 19.6502 3.13846 19.4377C2.976 19.4377 2.81354 19.4377 2.64615 19.4377ZM6.27692 20.3127C6.24305 20.4694 6.24305 20.4694 6.25288 20.6455C6.25368 20.7097 6.25447 20.774 6.25529 20.8402C6.25735 20.9072 6.25941 20.9742 6.26154 21.0432C6.26265 21.1109 6.26376 21.1786 6.2649 21.2484C6.26781 21.4157 6.27222 21.583 6.27692 21.7502C6.58154 21.7502 6.88615 21.7502 7.2 21.7502C7.2083 21.5262 7.2144 21.3025 7.21923 21.0783C7.22181 21.0148 7.22439 20.9514 7.22704 20.886C7.24138 20.514 7.24138 20.514 7.05673 20.208C6.75262 20.0549 6.52091 20.0697 6.27692 20.3127ZM7.93846 20.2502C7.86139 20.4068 7.86992 20.5132 7.87091 20.6882C7.87111 20.7498 7.87131 20.8115 7.87151 20.875C7.87203 20.9395 7.87255 21.004 7.87308 21.0705C7.87335 21.1355 7.87363 21.2006 7.87392 21.2675C7.87465 21.4284 7.87575 21.5893 7.87692 21.7502C8.18154 21.7502 8.48615 21.7502 8.8 21.7502C8.80663 21.5145 8.81152 21.279 8.81538 21.0432C8.81745 20.9762 8.81951 20.9092 8.82163 20.8402C8.82243 20.7759 8.82322 20.7117 8.82404 20.6455C8.82597 20.5566 8.82597 20.5566 8.82794 20.466C8.81338 20.3045 8.81338 20.3045 8.68696 20.1994C8.43156 20.0571 8.17742 20.0884 7.93846 20.2502ZM13.7846 20.8752C13.7846 21.164 13.7846 21.4527 13.7846 21.7502C14.3532 21.7502 14.9218 21.7502 15.5077 21.7502C15.5622 21.0199 15.5622 21.0199 15.4077 20.7111C15.1777 20.4776 14.9709 20.3669 14.6462 20.3518C14.2257 20.3705 14.046 20.5434 13.7846 20.8752ZM19.8769 20.3752C19.8769 20.829 19.8769 21.2827 19.8769 21.7502C20.1815 21.7502 20.4862 21.7502 20.8 21.7502C20.8 21.2965 20.8 20.8427 20.8 20.3752C20.4954 20.3752 20.1908 20.3752 19.8769 20.3752ZM21.5385 20.3752C21.5385 20.829 21.5385 21.2827 21.5385 21.7502C21.8431 21.7502 22.1477 21.7502 22.4615 21.7502C22.4615 21.2965 22.4615 20.8427 22.4615 20.3752C22.1569 20.3752 21.8523 20.3752 21.5385 20.3752ZM0.923077 20.5627C0.923077 20.9546 0.923077 21.3465 0.923077 21.7502C1.47138 21.7502 2.01969 21.7502 2.58462 21.7502C2.58462 21.3583 2.58462 20.9665 2.58462 20.5627C2.03631 20.5627 1.488 20.5627 0.923077 20.5627Z" fill="#FFFDF9"/>
<path d="M19.2613 0C19.2613 4.55813 19.2613 9.11625 19.2613 13.8125C18.977 13.8331 18.6927 13.8538 18.3998 13.875C18.1889 14.0892 18.1918 14.1185 18.1886 14.4051C18.1874 14.4751 18.1861 14.5452 18.1849 14.6174C18.1845 14.693 18.1841 14.7686 18.1837 14.8464C18.182 14.9626 18.182 14.9626 18.1804 15.081C18.1776 15.2866 18.1756 15.4922 18.174 15.6978C18.1722 15.9077 18.1693 16.1176 18.1665 16.3275C18.1613 16.7392 18.1571 17.1508 18.1537 17.5625C17.9709 17.5625 17.7881 17.5625 17.5998 17.5625C17.5795 15.7063 17.5592 13.85 17.5383 11.9375C16.5487 11.9194 16.5487 11.9194 15.5591 11.902C15.4356 11.8996 15.312 11.8972 15.1885 11.8948C15.1237 11.8937 15.0589 11.8927 14.9922 11.8917C14.931 11.8904 14.8697 11.8891 14.8067 11.8878C14.7532 11.8869 14.6998 11.8859 14.6448 11.8849C14.5229 11.875 14.5229 11.875 14.4613 11.8125C14.4554 11.7168 14.4538 11.6209 14.4539 11.525C14.4539 11.4629 14.4538 11.4007 14.4537 11.3367C14.4539 11.268 14.4541 11.1992 14.4544 11.1284C14.4543 11.0565 14.4543 10.9845 14.4543 10.9104C14.4544 10.6713 14.4549 10.4322 14.4553 10.1931C14.4554 10.0279 14.4555 9.8626 14.4556 9.69734C14.4558 9.30599 14.4563 8.91465 14.4569 8.5233C14.4576 8.07788 14.4579 7.63245 14.4582 7.18702C14.4589 6.27051 14.46 5.35401 14.4613 4.4375C13.913 4.4375 13.3647 4.4375 12.7998 4.4375C12.7998 3.695 12.7998 2.9525 12.7998 2.1875C13.5432 1.93029 14.2865 1.67323 15.03 1.41637C15.4486 1.27173 15.8671 1.12691 16.2856 0.981921C16.6035 0.871798 16.9214 0.761814 17.2393 0.651923C17.4332 0.584899 17.6271 0.517785 17.8209 0.450552C18.0386 0.375063 18.2563 0.299809 18.4741 0.224609C18.5397 0.201806 18.6052 0.179002 18.6728 0.155507C18.7325 0.134926 18.7923 0.114345 18.8538 0.0931397C18.9061 0.0750601 18.9583 0.0569805 19.0121 0.038353C19.1383 0 19.1383 0 19.2613 0ZM13.5383 2.6875C13.5383 2.77 13.5383 2.8525 13.5383 2.9375C15.2238 2.9375 16.9093 2.9375 18.646 2.9375C18.646 2.855 18.646 2.7725 18.646 2.6875C16.9604 2.6875 15.2749 2.6875 13.5383 2.6875ZM13.5383 3.6875C13.5383 3.79063 13.5383 3.89375 13.5383 4C15.2238 4 16.9093 4 18.646 4C18.646 3.89688 18.646 3.79375 18.646 3.6875C16.9604 3.6875 15.2749 3.6875 13.5383 3.6875ZM14.8921 4.6875C14.8921 4.79063 14.8921 4.89375 14.8921 5C16.1309 5 17.3697 5 18.646 5C18.646 4.89688 18.646 4.79375 18.646 4.6875C17.4072 4.6875 16.1684 4.6875 14.8921 4.6875ZM14.8921 5.6875C14.8921 5.79063 14.8921 5.89375 14.8921 6C16.1309 6 17.3697 6 18.646 6C18.646 5.89688 18.646 5.79375 18.646 5.6875C17.4072 5.6875 16.1684 5.6875 14.8921 5.6875ZM14.8921 6.6875C14.8921 6.79063 14.8921 6.89375 14.8921 7C16.1309 7 17.3697 7 18.646 7C18.646 6.89688 18.646 6.79375 18.646 6.6875C17.4072 6.6875 16.1684 6.6875 14.8921 6.6875ZM14.8921 7.6875C14.8921 7.79063 14.8921 7.89375 14.8921 8C16.1309 8 17.3697 8 18.646 8C18.646 7.89688 18.646 7.79375 18.646 7.6875C17.4072 7.6875 16.1684 7.6875 14.8921 7.6875ZM14.8921 8.6875C14.8921 8.79063 14.8921 8.89375 14.8921 9C16.1309 9 17.3697 9 18.646 9C18.646 8.89688 18.646 8.79375 18.646 8.6875C17.4072 8.6875 16.1684 8.6875 14.8921 8.6875ZM14.8921 9.6875C14.8921 9.79063 14.8921 9.89375 14.8921 10C16.1309 10 17.3697 10 18.646 10C18.646 9.89688 18.646 9.79375 18.646 9.6875C17.4072 9.6875 16.1684 9.6875 14.8921 9.6875ZM14.8921 10.6875C14.8921 10.7906 14.8921 10.8938 14.8921 11C16.1309 11 17.3697 11 18.646 11C18.646 10.8969 18.646 10.7938 18.646 10.6875C17.4072 10.6875 16.1684 10.6875 14.8921 10.6875ZM17.846 11.75C17.846 11.8325 17.846 11.915 17.846 12C18.11 12 18.374 12 18.646 12C18.646 11.9175 18.646 11.835 18.646 11.75C18.382 11.75 18.118 11.75 17.846 11.75ZM17.846 12.75C17.846 12.8325 17.846 12.915 17.846 13C18.11 13 18.374 13 18.646 13C18.646 12.9175 18.646 12.835 18.646 12.75C18.382 12.75 18.118 12.75 17.846 12.75Z" fill="#FFFDF9"/>
<path d="M8.98438 4.75C10.7105 4.75 12.4367 4.75 14.2151 4.75C14.2151 7.10125 14.2151 9.4525 14.2151 11.875C13.9715 11.875 13.7278 11.875 13.4767 11.875C13.4767 11.7719 13.4767 11.6688 13.4767 11.5625C13.3548 11.5625 13.233 11.5625 13.1075 11.5625C13.1075 11.6656 13.1075 11.7688 13.1075 11.875C13.0059 11.875 12.9044 11.875 12.7998 11.875C12.7998 11.7719 12.7998 11.6688 12.7998 11.5625C12.6779 11.5625 12.5561 11.5625 12.4305 11.5625C12.4305 11.6656 12.4305 11.7688 12.4305 11.875C12.329 11.875 12.2275 11.875 12.1228 11.875C12.1228 11.7719 12.1228 11.6688 12.1228 11.5625C11.9807 11.5625 11.8385 11.5625 11.6921 11.5625C11.713 11.634 11.713 11.634 11.7344 11.707C11.7439 11.7902 11.7439 11.7902 11.7536 11.875C11.7093 11.9123 11.7093 11.9123 11.6642 11.9503C11.5181 12.1225 11.542 12.3086 11.5424 12.5256C11.5418 12.5725 11.5411 12.6195 11.5405 12.6679C11.5386 12.8231 11.5381 12.9783 11.5375 13.1335C11.5365 13.2412 11.5353 13.3488 11.5342 13.4564C11.5312 13.7397 11.5294 14.023 11.5278 14.3063C11.526 14.5953 11.5231 14.8844 11.5203 15.1735C11.515 15.7406 11.5109 16.3078 11.5075 16.875C11.3653 16.875 11.2231 16.875 11.0767 16.875C11.076 16.8394 11.0754 16.8038 11.0748 16.7671C11.0681 16.3971 11.0611 16.027 11.0538 15.657C11.0511 15.5188 11.0485 15.3806 11.0461 15.2425C11.0425 15.0441 11.0386 14.8456 11.0346 14.6472C11.0336 14.5853 11.0326 14.5234 11.0315 14.4596C11.0297 14.3733 11.0297 14.3733 11.0278 14.2852C11.0268 14.2345 11.0259 14.1839 11.0249 14.1317C11.0196 13.988 11.0196 13.988 10.9536 13.8125C10.3653 13.5138 9.6417 13.7098 8.98438 13.6875C8.98438 10.7381 8.98438 7.78875 8.98438 4.75ZM9.59976 5.5C9.59976 5.5825 9.59976 5.665 9.59976 5.75C9.72161 5.75 9.84345 5.75 9.96899 5.75C9.96899 5.6675 9.96899 5.585 9.96899 5.5C9.84714 5.5 9.7253 5.5 9.59976 5.5ZM10.2767 5.5C10.2767 5.5825 10.2767 5.665 10.2767 5.75C10.3985 5.75 10.5204 5.75 10.6459 5.75C10.6459 5.6675 10.6459 5.585 10.6459 5.5C10.5241 5.5 10.4022 5.5 10.2767 5.5ZM11.0151 5.5C11.0151 5.5825 11.0151 5.665 11.0151 5.75C11.137 5.75 11.2588 5.75 11.3844 5.75C11.3844 5.6675 11.3844 5.585 11.3844 5.5C11.2625 5.5 11.1407 5.5 11.0151 5.5ZM11.6921 5.5C11.6921 5.5825 11.6921 5.665 11.6921 5.75C11.8342 5.75 11.9764 5.75 12.1228 5.75C12.1228 5.6675 12.1228 5.585 12.1228 5.5C11.9807 5.5 11.8385 5.5 11.6921 5.5ZM12.4305 5.5C12.4305 5.5825 12.4305 5.665 12.4305 5.75C12.5524 5.75 12.6742 5.75 12.7998 5.75C12.7998 5.6675 12.7998 5.585 12.7998 5.5C12.6779 5.5 12.5561 5.5 12.4305 5.5ZM13.1075 5.5C13.1075 5.5825 13.1075 5.665 13.1075 5.75C13.2293 5.75 13.3511 5.75 13.4767 5.75C13.4767 5.6675 13.4767 5.585 13.4767 5.5C13.3548 5.5 13.233 5.5 13.1075 5.5ZM9.59976 6.25C9.59976 6.3325 9.59976 6.415 9.59976 6.5C9.72161 6.5 9.84345 6.5 9.96899 6.5C9.96899 6.4175 9.96899 6.335 9.96899 6.25C9.84714 6.25 9.7253 6.25 9.59976 6.25ZM10.2767 6.25C10.2767 6.3325 10.2767 6.415 10.2767 6.5C10.3985 6.5 10.5204 6.5 10.6459 6.5C10.6459 6.4175 10.6459 6.335 10.6459 6.25C10.5241 6.25 10.4022 6.25 10.2767 6.25ZM11.0151 6.25C11.0151 6.3325 11.0151 6.415 11.0151 6.5C11.137 6.5 11.2588 6.5 11.3844 6.5C11.3844 6.4175 11.3844 6.335 11.3844 6.25C11.2625 6.25 11.1407 6.25 11.0151 6.25ZM11.6921 6.25C11.6921 6.3325 11.6921 6.415 11.6921 6.5C11.8342 6.5 11.9764 6.5 12.1228 6.5C12.1228 6.4175 12.1228 6.335 12.1228 6.25C11.9807 6.25 11.8385 6.25 11.6921 6.25ZM12.4305 6.25C12.4305 6.3325 12.4305 6.415 12.4305 6.5C12.5524 6.5 12.6742 6.5 12.7998 6.5C12.7998 6.4175 12.7998 6.335 12.7998 6.25C12.6779 6.25 12.5561 6.25 12.4305 6.25ZM13.1075 6.25C13.1075 6.3325 13.1075 6.415 13.1075 6.5C13.2293 6.5 13.3511 6.5 13.4767 6.5C13.4767 6.4175 13.4767 6.335 13.4767 6.25C13.3548 6.25 13.233 6.25 13.1075 6.25ZM9.59976 7C9.59976 7.0825 9.59976 7.165 9.59976 7.25C9.72161 7.25 9.84345 7.25 9.96899 7.25C9.96899 7.1675 9.96899 7.085 9.96899 7C9.84714 7 9.7253 7 9.59976 7ZM10.2767 7C10.2767 7.0825 10.2767 7.165 10.2767 7.25C10.3985 7.25 10.5204 7.25 10.6459 7.25C10.6459 7.1675 10.6459 7.085 10.6459 7C10.5241 7 10.4022 7 10.2767 7ZM11.0151 7C11.0151 7.0825 11.0151 7.165 11.0151 7.25C11.137 7.25 11.2588 7.25 11.3844 7.25C11.3844 7.1675 11.3844 7.085 11.3844 7C11.2625 7 11.1407 7 11.0151 7ZM11.6921 7C11.6921 7.0825 11.6921 7.165 11.6921 7.25C11.8342 7.25 11.9764 7.25 12.1228 7.25C12.1228 7.1675 12.1228 7.085 12.1228 7C11.9807 7 11.8385 7 11.6921 7ZM12.4305 7C12.4305 7.0825 12.4305 7.165 12.4305 7.25C12.5524 7.25 12.6742 7.25 12.7998 7.25C12.7998 7.1675 12.7998 7.085 12.7998 7C12.6779 7 12.5561 7 12.4305 7ZM13.1075 7C13.1075 7.0825 13.1075 7.165 13.1075 7.25C13.2293 7.25 13.3511 7.25 13.4767 7.25C13.4767 7.1675 13.4767 7.085 13.4767 7C13.3548 7 13.233 7 13.1075 7ZM9.59976 7.75C9.59976 7.8325 9.59976 7.915 9.59976 8C9.72161 8 9.84345 8 9.96899 8C9.96899 7.9175 9.96899 7.835 9.96899 7.75C9.84714 7.75 9.7253 7.75 9.59976 7.75ZM10.2767 7.75C10.2767 7.8325 10.2767 7.915 10.2767 8C10.3985 8 10.5204 8 10.6459 8C10.6459 7.9175 10.6459 7.835 10.6459 7.75C10.5241 7.75 10.4022 7.75 10.2767 7.75ZM11.0151 7.75C11.0151 7.8325 11.0151 7.915 11.0151 8C11.137 8 11.2588 8 11.3844 8C11.3844 7.9175 11.3844 7.835 11.3844 7.75C11.2625 7.75 11.1407 7.75 11.0151 7.75ZM11.6921 7.75C11.6921 7.8325 11.6921 7.915 11.6921 8C11.8342 8 11.9764 8 12.1228 8C12.1228 7.9175 12.1228 7.835 12.1228 7.75C11.9807 7.75 11.8385 7.75 11.6921 7.75ZM12.4305 7.75C12.4305 7.8325 12.4305 7.915 12.4305 8C12.5524 8 12.6742 8 12.7998 8C12.7998 7.9175 12.7998 7.835 12.7998 7.75C12.6779 7.75 12.5561 7.75 12.4305 7.75ZM13.1075 7.75C13.1075 7.8325 13.1075 7.915 13.1075 8C13.2293 8 13.3511 8 13.4767 8C13.4767 7.9175 13.4767 7.835 13.4767 7.75C13.3548 7.75 13.233 7.75 13.1075 7.75ZM9.59976 8.5625C9.59976 8.62438 9.59976 8.68625 9.59976 8.75C9.72161 8.75 9.84345 8.75 9.96899 8.75C9.96899 8.68813 9.96899 8.62625 9.96899 8.5625C9.84714 8.5625 9.7253 8.5625 9.59976 8.5625ZM10.2767 8.5625C10.2767 8.62438 10.2767 8.68625 10.2767 8.75C10.3985 8.75 10.5204 8.75 10.6459 8.75C10.6459 8.68813 10.6459 8.62625 10.6459 8.5625C10.5241 8.5625 10.4022 8.5625 10.2767 8.5625ZM11.0151 8.5625C11.0151 8.62438 11.0151 8.68625 11.0151 8.75C11.137 8.75 11.2588 8.75 11.3844 8.75C11.3844 8.68813 11.3844 8.62625 11.3844 8.5625C11.2625 8.5625 11.1407 8.5625 11.0151 8.5625ZM11.6921 8.5625C11.6921 8.62438 11.6921 8.68625 11.6921 8.75C11.8342 8.75 11.9764 8.75 12.1228 8.75C12.1228 8.68813 12.1228 8.62625 12.1228 8.5625C11.9807 8.5625 11.8385 8.5625 11.6921 8.5625ZM12.4305 8.5625C12.4305 8.62438 12.4305 8.68625 12.4305 8.75C12.5524 8.75 12.6742 8.75 12.7998 8.75C12.7998 8.68813 12.7998 8.62625 12.7998 8.5625C12.6779 8.5625 12.5561 8.5625 12.4305 8.5625ZM13.1075 8.5625C13.1075 8.62438 13.1075 8.68625 13.1075 8.75C13.2293 8.75 13.3511 8.75 13.4767 8.75C13.4767 8.68813 13.4767 8.62625 13.4767 8.5625C13.3548 8.5625 13.233 8.5625 13.1075 8.5625ZM9.59976 9.3125C9.59976 9.37438 9.59976 9.43625 9.59976 9.5C9.72161 9.5 9.84345 9.5 9.96899 9.5C9.96899 9.43813 9.96899 9.37625 9.96899 9.3125C9.84714 9.3125 9.7253 9.3125 9.59976 9.3125ZM10.2767 9.3125C10.2767 9.37438 10.2767 9.43625 10.2767 9.5C10.3985 9.5 10.5204 9.5 10.6459 9.5C10.6459 9.43813 10.6459 9.37625 10.6459 9.3125C10.5241 9.3125 10.4022 9.3125 10.2767 9.3125ZM11.0151 9.3125C11.0151 9.37438 11.0151 9.43625 11.0151 9.5C11.137 9.5 11.2588 9.5 11.3844 9.5C11.3844 9.43813 11.3844 9.37625 11.3844 9.3125C11.2625 9.3125 11.1407 9.3125 11.0151 9.3125ZM11.6921 9.3125C11.6921 9.37438 11.6921 9.43625 11.6921 9.5C11.8342 9.5 11.9764 9.5 12.1228 9.5C12.1228 9.43813 12.1228 9.37625 12.1228 9.3125C11.9807 9.3125 11.8385 9.3125 11.6921 9.3125ZM12.4305 9.3125C12.4305 9.37438 12.4305 9.43625 12.4305 9.5C12.5524 9.5 12.6742 9.5 12.7998 9.5C12.7998 9.43813 12.7998 9.37625 12.7998 9.3125C12.6779 9.3125 12.5561 9.3125 12.4305 9.3125ZM13.1075 9.3125C13.1075 9.37438 13.1075 9.43625 13.1075 9.5C13.2293 9.5 13.3511 9.5 13.4767 9.5C13.4767 9.43813 13.4767 9.37625 13.4767 9.3125C13.3548 9.3125 13.233 9.3125 13.1075 9.3125ZM9.59976 10.0625C9.59976 10.145 9.59976 10.2275 9.59976 10.3125C9.72161 10.3125 9.84345 10.3125 9.96899 10.3125C9.96899 10.23 9.96899 10.1475 9.96899 10.0625C9.84714 10.0625 9.7253 10.0625 9.59976 10.0625ZM10.2767 10.0625C10.2767 10.145 10.2767 10.2275 10.2767 10.3125C10.3985 10.3125 10.5204 10.3125 10.6459 10.3125C10.6459 10.23 10.6459 10.1475 10.6459 10.0625C10.5241 10.0625 10.4022 10.0625 10.2767 10.0625ZM11.0151 10.0625C11.0151 10.145 11.0151 10.2275 11.0151 10.3125C11.137 10.3125 11.2588 10.3125 11.3844 10.3125C11.3844 10.23 11.3844 10.1475 11.3844 10.0625C11.2625 10.0625 11.1407 10.0625 11.0151 10.0625ZM11.6921 10.0625C11.6921 10.145 11.6921 10.2275 11.6921 10.3125C11.8342 10.3125 11.9764 10.3125 12.1228 10.3125C12.1228 10.23 12.1228 10.1475 12.1228 10.0625C11.9807 10.0625 11.8385 10.0625 11.6921 10.0625ZM12.4305 10.0625C12.4305 10.145 12.4305 10.2275 12.4305 10.3125C12.5524 10.3125 12.6742 10.3125 12.7998 10.3125C12.7998 10.23 12.7998 10.1475 12.7998 10.0625C12.6779 10.0625 12.5561 10.0625 12.4305 10.0625ZM13.1075 10.0625C13.1075 10.145 13.1075 10.2275 13.1075 10.3125C13.2293 10.3125 13.3511 10.3125 13.4767 10.3125C13.4767 10.23 13.4767 10.1475 13.4767 10.0625C13.3548 10.0625 13.233 10.0625 13.1075 10.0625ZM9.59976 10.8125C9.59976 10.895 9.59976 10.9775 9.59976 11.0625C9.72161 11.0625 9.84345 11.0625 9.96899 11.0625C9.96899 10.98 9.96899 10.8975 9.96899 10.8125C9.84714 10.8125 9.7253 10.8125 9.59976 10.8125ZM10.2767 10.8125C10.2767 10.895 10.2767 10.9775 10.2767 11.0625C10.3985 11.0625 10.5204 11.0625 10.6459 11.0625C10.6459 10.98 10.6459 10.8975 10.6459 10.8125C10.5241 10.8125 10.4022 10.8125 10.2767 10.8125ZM11.0151 10.8125C11.0151 10.895 11.0151 10.9775 11.0151 11.0625C11.137 11.0625 11.2588 11.0625 11.3844 11.0625C11.3844 10.98 11.3844 10.8975 11.3844 10.8125C11.2625 10.8125 11.1407 10.8125 11.0151 10.8125ZM11.6921 10.8125C11.6921 10.895 11.6921 10.9775 11.6921 11.0625C11.8342 11.0625 11.9764 11.0625 12.1228 11.0625C12.1228 10.98 12.1228 10.8975 12.1228 10.8125C11.9807 10.8125 11.8385 10.8125 11.6921 10.8125ZM12.4305 10.8125C12.4305 10.895 12.4305 10.9775 12.4305 11.0625C12.5524 11.0625 12.6742 11.0625 12.7998 11.0625C12.7998 10.98 12.7998 10.8975 12.7998 10.8125C12.6779 10.8125 12.5561 10.8125 12.4305 10.8125ZM13.1075 10.8125C13.1075 10.895 13.1075 10.9775 13.1075 11.0625C13.2293 11.0625 13.3511 11.0625 13.4767 11.0625C13.4767 10.98 13.4767 10.8975 13.4767 10.8125C13.3548 10.8125 13.233 10.8125 13.1075 10.8125ZM9.59976 11.5625C9.59976 11.645 9.59976 11.7275 9.59976 11.8125C9.72161 11.8125 9.84345 11.8125 9.96899 11.8125C9.96899 11.73 9.96899 11.6475 9.96899 11.5625C9.84714 11.5625 9.7253 11.5625 9.59976 11.5625ZM10.2767 11.5625C10.2767 11.645 10.2767 11.7275 10.2767 11.8125C10.3985 11.8125 10.5204 11.8125 10.6459 11.8125C10.6459 11.73 10.6459 11.6475 10.6459 11.5625C10.5241 11.5625 10.4022 11.5625 10.2767 11.5625ZM11.0151 11.5625C11.0151 11.645 11.0151 11.7275 11.0151 11.8125C11.137 11.8125 11.2588 11.8125 11.3844 11.8125C11.3844 11.73 11.3844 11.6475 11.3844 11.5625C11.2625 11.5625 11.1407 11.5625 11.0151 11.5625ZM9.59976 12.3125C9.59976 12.395 9.59976 12.4775 9.59976 12.5625C9.72161 12.5625 9.84345 12.5625 9.96899 12.5625C9.96899 12.48 9.96899 12.3975 9.96899 12.3125C9.84714 12.3125 9.7253 12.3125 9.59976 12.3125ZM10.2767 12.3125C10.2767 12.395 10.2767 12.4775 10.2767 12.5625C10.3985 12.5625 10.5204 12.5625 10.6459 12.5625C10.6459 12.48 10.6459 12.3975 10.6459 12.3125C10.5241 12.3125 10.4022 12.3125 10.2767 12.3125ZM11.0151 12.3125C11.0151 12.395 11.0151 12.4775 11.0151 12.5625C11.137 12.5625 11.2588 12.5625 11.3844 12.5625C11.3844 12.48 11.3844 12.3975 11.3844 12.3125C11.2625 12.3125 11.1407 12.3125 11.0151 12.3125ZM9.59976 13.125C9.59976 13.1869 9.59976 13.2488 9.59976 13.3125C9.72161 13.3125 9.84345 13.3125 9.96899 13.3125C9.96899 13.2506 9.96899 13.1888 9.96899 13.125C9.84714 13.125 9.7253 13.125 9.59976 13.125ZM10.2767 13.125C10.2767 13.1869 10.2767 13.2488 10.2767 13.3125C10.3985 13.3125 10.5204 13.3125 10.6459 13.3125C10.6459 13.2506 10.6459 13.1888 10.6459 13.125C10.5241 13.125 10.4022 13.125 10.2767 13.125ZM11.0151 13.125C11.0151 13.1869 11.0151 13.2488 11.0151 13.3125C11.137 13.3125 11.2588 13.3125 11.3844 13.3125C11.3844 13.2506 11.3844 13.1888 11.3844 13.125C11.2625 13.125 11.1407 13.125 11.0151 13.125Z" fill="#FFFDF9"/>
<path d="M3.44573 0.4375C3.58789 0.4375 3.73004 0.4375 3.8765 0.4375C3.8765 1.30375 3.8765 2.17 3.8765 3.0625C4.16081 3.0625 4.44512 3.0625 4.73804 3.0625C4.73804 3.61938 4.73804 4.17625 4.73804 4.75C4.96143 4.75 5.18481 4.75 5.41496 4.75C5.41496 7.69938 5.41496 10.6488 5.41496 13.6875C5.11035 13.7081 4.80573 13.7288 4.49189 13.75C4.32758 13.9169 4.35207 14.0002 4.34919 14.2334C4.34797 14.3085 4.34674 14.3836 4.34548 14.4609C4.34442 14.583 4.34442 14.583 4.34333 14.7075C4.34218 14.7914 4.34097 14.8753 4.33972 14.9592C4.33656 15.1801 4.33412 15.401 4.33183 15.6219C4.32937 15.8473 4.32623 16.0727 4.32314 16.2981C4.31718 16.7404 4.31198 17.1827 4.30727 17.625C4.14481 17.625 3.98235 17.625 3.81496 17.625C3.81433 17.5744 3.8137 17.5238 3.81304 17.4716C3.80702 16.9952 3.80071 16.5188 3.79408 16.0424C3.79068 15.7975 3.7874 15.5526 3.78436 15.3076C3.78143 15.0714 3.77821 14.8351 3.77478 14.5989C3.77353 14.5086 3.77237 14.4183 3.77133 14.3281C3.76985 14.2019 3.76796 14.0758 3.76606 13.9496C3.7651 13.8777 3.76415 13.8058 3.76316 13.7318C3.76453 13.5645 3.76453 13.5645 3.69189 13.4375C3.06795 13.2263 2.37996 13.3355 1.72266 13.3125C1.72266 10.4869 1.72266 7.66125 1.72266 4.75C2.00696 4.75 2.29127 4.75 2.58419 4.75C2.58419 4.19313 2.58419 3.63625 2.58419 3.0625C2.8685 3.0625 3.15281 3.0625 3.44573 3.0625C3.44573 2.19625 3.44573 1.33 3.44573 0.4375ZM1.96881 5.375C1.96881 5.43688 1.96881 5.49875 1.96881 5.5625C2.09066 5.5625 2.2125 5.5625 2.33804 5.5625C2.33804 5.50063 2.33804 5.43875 2.33804 5.375C2.21619 5.375 2.09435 5.375 1.96881 5.375ZM2.70727 5.375C2.70727 5.43688 2.70727 5.49875 2.70727 5.5625C2.82912 5.5625 2.95096 5.5625 3.0765 5.5625C3.0765 5.50063 3.0765 5.43875 3.0765 5.375C2.95466 5.375 2.83281 5.375 2.70727 5.375ZM3.38419 5.375C3.38419 5.43688 3.38419 5.49875 3.38419 5.5625C3.50604 5.5625 3.62789 5.5625 3.75343 5.5625C3.75343 5.50063 3.75343 5.43875 3.75343 5.375C3.63158 5.375 3.50973 5.375 3.38419 5.375ZM4.12266 5.375C4.12266 5.43688 4.12266 5.49875 4.12266 5.5625C4.2445 5.5625 4.36635 5.5625 4.49189 5.5625C4.49189 5.50063 4.49189 5.43875 4.49189 5.375C4.37004 5.375 4.24819 5.375 4.12266 5.375ZM4.79958 5.375C4.79958 5.43688 4.79958 5.49875 4.79958 5.5625C4.92143 5.5625 5.04327 5.5625 5.16881 5.5625C5.16881 5.50063 5.16881 5.43875 5.16881 5.375C5.04696 5.375 4.92512 5.375 4.79958 5.375ZM1.96881 5.9375C1.96881 6.02 1.96881 6.1025 1.96881 6.1875C2.09066 6.1875 2.2125 6.1875 2.33804 6.1875C2.33804 6.105 2.33804 6.0225 2.33804 5.9375C2.21619 5.9375 2.09435 5.9375 1.96881 5.9375ZM2.70727 5.9375C2.70727 6.02 2.70727 6.1025 2.70727 6.1875C2.82912 6.1875 2.95096 6.1875 3.0765 6.1875C3.0765 6.105 3.0765 6.0225 3.0765 5.9375C2.95466 5.9375 2.83281 5.9375 2.70727 5.9375ZM3.38419 5.9375C3.38419 6.02 3.38419 6.1025 3.38419 6.1875C3.50604 6.1875 3.62789 6.1875 3.75343 6.1875C3.75343 6.105 3.75343 6.0225 3.75343 5.9375C3.63158 5.9375 3.50973 5.9375 3.38419 5.9375ZM4.12266 5.9375C4.12266 6.02 4.12266 6.1025 4.12266 6.1875C4.2445 6.1875 4.36635 6.1875 4.49189 6.1875C4.49189 6.105 4.49189 6.0225 4.49189 5.9375C4.37004 5.9375 4.24819 5.9375 4.12266 5.9375ZM4.79958 5.9375C4.79958 6.02 4.79958 6.1025 4.79958 6.1875C4.92143 6.1875 5.04327 6.1875 5.16881 6.1875C5.16881 6.105 5.16881 6.0225 5.16881 5.9375C5.04696 5.9375 4.92512 5.9375 4.79958 5.9375ZM1.96881 6.5625C1.96881 6.645 1.96881 6.7275 1.96881 6.8125C2.09066 6.8125 2.2125 6.8125 2.33804 6.8125C2.33804 6.73 2.33804 6.6475 2.33804 6.5625C2.21619 6.5625 2.09435 6.5625 1.96881 6.5625ZM2.70727 6.5625C2.70727 6.645 2.70727 6.7275 2.70727 6.8125C2.82912 6.8125 2.95096 6.8125 3.0765 6.8125C3.0765 6.73 3.0765 6.6475 3.0765 6.5625C2.95466 6.5625 2.83281 6.5625 2.70727 6.5625ZM3.38419 6.5625C3.38419 6.645 3.38419 6.7275 3.38419 6.8125C3.50604 6.8125 3.62789 6.8125 3.75343 6.8125C3.75343 6.73 3.75343 6.6475 3.75343 6.5625C3.63158 6.5625 3.50973 6.5625 3.38419 6.5625ZM4.12266 6.5625C4.12266 6.645 4.12266 6.7275 4.12266 6.8125C4.2445 6.8125 4.36635 6.8125 4.49189 6.8125C4.49189 6.73 4.49189 6.6475 4.49189 6.5625C4.37004 6.5625 4.24819 6.5625 4.12266 6.5625ZM4.79958 6.5625C4.79958 6.645 4.79958 6.7275 4.79958 6.8125C4.92143 6.8125 5.04327 6.8125 5.16881 6.8125C5.16881 6.73 5.16881 6.6475 5.16881 6.5625C5.04696 6.5625 4.92512 6.5625 4.79958 6.5625ZM1.96881 7.1875C1.96881 7.27 1.96881 7.3525 1.96881 7.4375C2.09066 7.4375 2.2125 7.4375 2.33804 7.4375C2.33804 7.355 2.33804 7.2725 2.33804 7.1875C2.21619 7.1875 2.09435 7.1875 1.96881 7.1875ZM2.70727 7.1875C2.70727 7.27 2.70727 7.3525 2.70727 7.4375C2.82912 7.4375 2.95096 7.4375 3.0765 7.4375C3.0765 7.355 3.0765 7.2725 3.0765 7.1875C2.95466 7.1875 2.83281 7.1875 2.70727 7.1875ZM3.38419 7.1875C3.38419 7.27 3.38419 7.3525 3.38419 7.4375C3.50604 7.4375 3.62789 7.4375 3.75343 7.4375C3.75343 7.355 3.75343 7.2725 3.75343 7.1875C3.63158 7.1875 3.50973 7.1875 3.38419 7.1875ZM4.12266 7.1875C4.12266 7.27 4.12266 7.3525 4.12266 7.4375C4.2445 7.4375 4.36635 7.4375 4.49189 7.4375C4.49189 7.355 4.49189 7.2725 4.49189 7.1875C4.37004 7.1875 4.24819 7.1875 4.12266 7.1875ZM4.79958 7.1875C4.79958 7.27 4.79958 7.3525 4.79958 7.4375C4.92143 7.4375 5.04327 7.4375 5.16881 7.4375C5.16881 7.355 5.16881 7.2725 5.16881 7.1875C5.04696 7.1875 4.92512 7.1875 4.79958 7.1875ZM1.96881 7.8125C1.96881 7.895 1.96881 7.9775 1.96881 8.0625C2.09066 8.0625 2.2125 8.0625 2.33804 8.0625C2.33804 7.98 2.33804 7.8975 2.33804 7.8125C2.21619 7.8125 2.09435 7.8125 1.96881 7.8125ZM2.70727 7.8125C2.70727 7.895 2.70727 7.9775 2.70727 8.0625C2.82912 8.0625 2.95096 8.0625 3.0765 8.0625C3.0765 7.98 3.0765 7.8975 3.0765 7.8125C2.95466 7.8125 2.83281 7.8125 2.70727 7.8125ZM3.38419 7.8125C3.38419 7.895 3.38419 7.9775 3.38419 8.0625C3.50604 8.0625 3.62789 8.0625 3.75343 8.0625C3.75343 7.98 3.75343 7.8975 3.75343 7.8125C3.63158 7.8125 3.50973 7.8125 3.38419 7.8125ZM4.12266 7.8125C4.12266 7.895 4.12266 7.9775 4.12266 8.0625C4.2445 8.0625 4.36635 8.0625 4.49189 8.0625C4.49189 7.98 4.49189 7.8975 4.49189 7.8125C4.37004 7.8125 4.24819 7.8125 4.12266 7.8125ZM4.79958 7.8125C4.79958 7.895 4.79958 7.9775 4.79958 8.0625C4.92143 8.0625 5.04327 8.0625 5.16881 8.0625C5.16881 7.98 5.16881 7.8975 5.16881 7.8125C5.04696 7.8125 4.92512 7.8125 4.79958 7.8125ZM1.96881 8.4375C1.96881 8.52 1.96881 8.6025 1.96881 8.6875C2.09066 8.6875 2.2125 8.6875 2.33804 8.6875C2.33804 8.605 2.33804 8.5225 2.33804 8.4375C2.21619 8.4375 2.09435 8.4375 1.96881 8.4375ZM2.70727 8.4375C2.70727 8.52 2.70727 8.6025 2.70727 8.6875C2.82912 8.6875 2.95096 8.6875 3.0765 8.6875C3.0765 8.605 3.0765 8.5225 3.0765 8.4375C2.95466 8.4375 2.83281 8.4375 2.70727 8.4375ZM3.38419 8.4375C3.38419 8.52 3.38419 8.6025 3.38419 8.6875C3.50604 8.6875 3.62789 8.6875 3.75343 8.6875C3.75343 8.605 3.75343 8.5225 3.75343 8.4375C3.63158 8.4375 3.50973 8.4375 3.38419 8.4375ZM4.12266 8.4375C4.12266 8.52 4.12266 8.6025 4.12266 8.6875C4.2445 8.6875 4.36635 8.6875 4.49189 8.6875C4.49189 8.605 4.49189 8.5225 4.49189 8.4375C4.37004 8.4375 4.24819 8.4375 4.12266 8.4375ZM4.79958 8.4375C4.79958 8.52 4.79958 8.6025 4.79958 8.6875C4.92143 8.6875 5.04327 8.6875 5.16881 8.6875C5.16881 8.605 5.16881 8.5225 5.16881 8.4375C5.04696 8.4375 4.92512 8.4375 4.79958 8.4375ZM1.96881 9.0625C1.96881 9.145 1.96881 9.2275 1.96881 9.3125C2.09066 9.3125 2.2125 9.3125 2.33804 9.3125C2.33804 9.23 2.33804 9.1475 2.33804 9.0625C2.21619 9.0625 2.09435 9.0625 1.96881 9.0625ZM2.70727 9.0625C2.70727 9.145 2.70727 9.2275 2.70727 9.3125C2.82912 9.3125 2.95096 9.3125 3.0765 9.3125C3.0765 9.23 3.0765 9.1475 3.0765 9.0625C2.95466 9.0625 2.83281 9.0625 2.70727 9.0625ZM3.38419 9.0625C3.38419 9.145 3.38419 9.2275 3.38419 9.3125C3.50604 9.3125 3.62789 9.3125 3.75343 9.3125C3.75343 9.23 3.75343 9.1475 3.75343 9.0625C3.63158 9.0625 3.50973 9.0625 3.38419 9.0625ZM4.12266 9.0625C4.12266 9.145 4.12266 9.2275 4.12266 9.3125C4.2445 9.3125 4.36635 9.3125 4.49189 9.3125C4.49189 9.23 4.49189 9.1475 4.49189 9.0625C4.37004 9.0625 4.24819 9.0625 4.12266 9.0625ZM4.79958 9.0625C4.79958 9.145 4.79958 9.2275 4.79958 9.3125C4.92143 9.3125 5.04327 9.3125 5.16881 9.3125C5.16881 9.23 5.16881 9.1475 5.16881 9.0625C5.04696 9.0625 4.92512 9.0625 4.79958 9.0625ZM1.96881 10.3125C1.96881 10.395 1.96881 10.4775 1.96881 10.5625C2.09066 10.5625 2.2125 10.5625 2.33804 10.5625C2.33804 10.48 2.33804 10.3975 2.33804 10.3125C2.21619 10.3125 2.09435 10.3125 1.96881 10.3125ZM2.70727 10.3125C2.70727 10.395 2.70727 10.4775 2.70727 10.5625C2.82912 10.5625 2.95096 10.5625 3.0765 10.5625C3.0765 10.48 3.0765 10.3975 3.0765 10.3125C2.95466 10.3125 2.83281 10.3125 2.70727 10.3125ZM3.38419 10.3125C3.38419 10.395 3.38419 10.4775 3.38419 10.5625C3.50604 10.5625 3.62789 10.5625 3.75343 10.5625C3.75343 10.48 3.75343 10.3975 3.75343 10.3125C3.63158 10.3125 3.50973 10.3125 3.38419 10.3125ZM4.12266 10.3125C4.12266 10.395 4.12266 10.4775 4.12266 10.5625C4.2445 10.5625 4.36635 10.5625 4.49189 10.5625C4.49189 10.48 4.49189 10.3975 4.49189 10.3125C4.37004 10.3125 4.24819 10.3125 4.12266 10.3125ZM4.79958 10.3125C4.79958 10.395 4.79958 10.4775 4.79958 10.5625C4.92143 10.5625 5.04327 10.5625 5.16881 10.5625C5.16881 10.48 5.16881 10.3975 5.16881 10.3125C5.04696 10.3125 4.92512 10.3125 4.79958 10.3125ZM1.96881 10.9375C1.96881 11.02 1.96881 11.1025 1.96881 11.1875C2.09066 11.1875 2.2125 11.1875 2.33804 11.1875C2.33804 11.105 2.33804 11.0225 2.33804 10.9375C2.21619 10.9375 2.09435 10.9375 1.96881 10.9375ZM2.70727 10.9375C2.70727 11.02 2.70727 11.1025 2.70727 11.1875C2.82912 11.1875 2.95096 11.1875 3.0765 11.1875C3.0765 11.105 3.0765 11.0225 3.0765 10.9375C2.95466 10.9375 2.83281 10.9375 2.70727 10.9375ZM3.38419 10.9375C3.38419 11.02 3.38419 11.1025 3.38419 11.1875C3.50604 11.1875 3.62789 11.1875 3.75343 11.1875C3.75343 11.105 3.75343 11.0225 3.75343 10.9375C3.63158 10.9375 3.50973 10.9375 3.38419 10.9375ZM4.12266 10.9375C4.12266 11.02 4.12266 11.1025 4.12266 11.1875C4.2445 11.1875 4.36635 11.1875 4.49189 11.1875C4.49189 11.105 4.49189 11.0225 4.49189 10.9375C4.37004 10.9375 4.24819 10.9375 4.12266 10.9375ZM4.79958 10.9375C4.79958 11.02 4.79958 11.1025 4.79958 11.1875C4.92143 11.1875 5.04327 11.1875 5.16881 11.1875C5.16881 11.105 5.16881 11.0225 5.16881 10.9375C5.04696 10.9375 4.92512 10.9375 4.79958 10.9375ZM1.96881 11.5625C1.96881 11.645 1.96881 11.7275 1.96881 11.8125C2.09066 11.8125 2.2125 11.8125 2.33804 11.8125C2.33804 11.73 2.33804 11.6475 2.33804 11.5625C2.21619 11.5625 2.09435 11.5625 1.96881 11.5625ZM2.70727 11.5625C2.70727 11.645 2.70727 11.7275 2.70727 11.8125C2.82912 11.8125 2.95096 11.8125 3.0765 11.8125C3.0765 11.73 3.0765 11.6475 3.0765 11.5625C2.95466 11.5625 2.83281 11.5625 2.70727 11.5625ZM3.38419 11.5625C3.38419 11.645 3.38419 11.7275 3.38419 11.8125C3.50604 11.8125 3.62789 11.8125 3.75343 11.8125C3.75343 11.73 3.75343 11.6475 3.75343 11.5625C3.63158 11.5625 3.50973 11.5625 3.38419 11.5625ZM4.12266 11.5625C4.12266 11.645 4.12266 11.7275 4.12266 11.8125C4.2445 11.8125 4.36635 11.8125 4.49189 11.8125C4.49189 11.73 4.49189 11.6475 4.49189 11.5625C4.37004 11.5625 4.24819 11.5625 4.12266 11.5625ZM4.79958 11.5625C4.79958 11.645 4.79958 11.7275 4.79958 11.8125C4.92143 11.8125 5.04327 11.8125 5.16881 11.8125C5.16881 11.73 5.16881 11.6475 5.16881 11.5625C5.04696 11.5625 4.92512 11.5625 4.79958 11.5625ZM1.96881 12.1875C1.96881 12.27 1.96881 12.3525 1.96881 12.4375C2.09066 12.4375 2.2125 12.4375 2.33804 12.4375C2.33804 12.355 2.33804 12.2725 2.33804 12.1875C2.21619 12.1875 2.09435 12.1875 1.96881 12.1875ZM2.70727 12.1875C2.70727 12.27 2.70727 12.3525 2.70727 12.4375C2.82912 12.4375 2.95096 12.4375 3.0765 12.4375C3.0765 12.355 3.0765 12.2725 3.0765 12.1875C2.95466 12.1875 2.83281 12.1875 2.70727 12.1875ZM3.38419 12.1875C3.38419 12.27 3.38419 12.3525 3.38419 12.4375C3.50604 12.4375 3.62789 12.4375 3.75343 12.4375C3.75343 12.355 3.75343 12.2725 3.75343 12.1875C3.63158 12.1875 3.50973 12.1875 3.38419 12.1875ZM4.12266 12.1875C4.12266 12.27 4.12266 12.3525 4.12266 12.4375C4.2445 12.4375 4.36635 12.4375 4.49189 12.4375C4.49189 12.355 4.49189 12.2725 4.49189 12.1875C4.37004 12.1875 4.24819 12.1875 4.12266 12.1875ZM4.79958 12.1875C4.79958 12.27 4.79958 12.3525 4.79958 12.4375C4.92143 12.4375 5.04327 12.4375 5.16881 12.4375C5.16881 12.355 5.16881 12.2725 5.16881 12.1875C5.04696 12.1875 4.92512 12.1875 4.79958 12.1875ZM1.96881 12.8125C1.96881 12.895 1.96881 12.9775 1.96881 13.0625C2.09066 13.0625 2.2125 13.0625 2.33804 13.0625C2.33804 12.98 2.33804 12.8975 2.33804 12.8125C2.21619 12.8125 2.09435 12.8125 1.96881 12.8125ZM2.70727 12.8125C2.70727 12.895 2.70727 12.9775 2.70727 13.0625C2.82912 13.0625 2.95096 13.0625 3.0765 13.0625C3.0765 12.98 3.0765 12.8975 3.0765 12.8125C2.95466 12.8125 2.83281 12.8125 2.70727 12.8125ZM3.38419 12.8125C3.38419 12.895 3.38419 12.9775 3.38419 13.0625C3.50604 13.0625 3.62789 13.0625 3.75343 13.0625C3.75343 12.98 3.75343 12.8975 3.75343 12.8125C3.63158 12.8125 3.50973 12.8125 3.38419 12.8125ZM4.12266 12.8125C4.12266 12.895 4.12266 12.9775 4.12266 13.0625C4.2445 13.0625 4.36635 13.0625 4.49189 13.0625C4.49189 12.98 4.49189 12.8975 4.49189 12.8125C4.37004 12.8125 4.24819 12.8125 4.12266 12.8125ZM4.79958 12.8125C4.79958 12.895 4.79958 12.9775 4.79958 13.0625C4.92143 13.0625 5.04327 13.0625 5.16881 13.0625C5.16881 12.98 5.16881 12.8975 5.16881 12.8125C5.04696 12.8125 4.92512 12.8125 4.79958 12.8125Z" fill="#FFFDF9"/>
</svg>
