<svg width="24" height="24" viewBox="0 0 24 24" fill="none" xmlns="http://www.w3.org/2000/svg">
<g clip-path="url(#clip0_835_392)">
<path d="M9.48016 0.361338C9.53186 0.360865 9.53186 0.360865 9.5846 0.360384C9.6986 0.359493 9.81258 0.35931 9.92658 0.359209C10.0058 0.358908 10.085 0.358592 10.1642 0.358263C10.3303 0.357702 10.4964 0.357528 10.6625 0.357584C10.8754 0.357594 11.0882 0.356313 11.3011 0.354699C11.4647 0.353657 11.6283 0.353467 11.7919 0.353516C11.8704 0.353405 11.9489 0.352991 12.0274 0.352266C12.1371 0.351348 12.2468 0.351617 12.3566 0.352182C12.389 0.351656 12.4214 0.351129 12.4548 0.350586C12.6093 0.352609 12.6906 0.365927 12.8156 0.459509C12.9041 0.581777 12.9311 0.680135 12.9227 0.831438C12.8491 1.07081 12.6427 1.2355 12.4683 1.40621C12.4206 1.45428 12.373 1.50244 12.3254 1.55068C12.2021 1.6754 12.0777 1.79887 11.9526 1.92183C12.0193 2.0745 12.1001 2.17308 12.2196 2.28841C12.2699 2.33762 12.2699 2.33762 12.3212 2.38783C12.3562 2.42161 12.3912 2.45539 12.4273 2.49019C12.4969 2.55748 12.5664 2.62497 12.6356 2.6927C12.6665 2.72244 12.6973 2.75218 12.729 2.78282C12.7964 2.85933 12.7964 2.85933 12.7964 2.95308C12.8246 2.95507 12.8528 2.95706 12.8818 2.95911C13.1819 2.98417 13.4617 3.03947 13.7515 3.12007C13.7958 3.13231 13.8402 3.14455 13.8859 3.15715C14.5659 3.35136 15.2037 3.63907 15.8433 3.93746C15.8439 3.85836 15.8439 3.85836 15.8446 3.77766C15.8465 3.58152 15.8496 3.38542 15.853 3.1893C15.8543 3.10451 15.8553 3.01972 15.856 2.93492C15.857 2.81283 15.8592 2.69081 15.8616 2.56874C15.8616 2.53099 15.8617 2.49324 15.8618 2.45434C15.8679 2.2189 15.9006 2.09259 16.0776 1.92183C16.2176 1.85183 16.3456 1.86783 16.5018 1.86666C16.5358 1.86635 16.5698 1.86604 16.6048 1.86573C16.7176 1.8648 16.8303 1.86425 16.943 1.86379C16.9815 1.8636 17.0199 1.8634 17.0596 1.86321C17.2631 1.86223 17.4667 1.86156 17.6702 1.86112C17.8806 1.8606 18.091 1.85899 18.3013 1.85713C18.463 1.8559 18.6246 1.85551 18.7863 1.85534C18.8639 1.85511 18.9414 1.85457 19.019 1.8537C19.1275 1.85256 19.236 1.8526 19.3445 1.85293C19.4063 1.85265 19.468 1.85238 19.5316 1.85209C19.687 1.87496 19.687 1.87496 19.8002 1.9591C19.89 2.08395 19.9101 2.18461 19.9005 2.33803C19.847 2.54287 19.6941 2.66836 19.5464 2.81246C19.4938 2.86542 19.4413 2.91847 19.3889 2.97157C19.2393 3.12269 19.0884 3.27248 18.937 3.42183C19.0131 3.60606 19.1395 3.73852 19.2739 3.88179C19.2969 3.90679 19.3198 3.93179 19.3435 3.95755C19.4709 4.09535 19.6022 4.22298 19.7427 4.34761C19.8574 4.46042 19.8973 4.53457 19.9067 4.69624C19.872 4.889 19.8422 4.94837 19.687 5.06246C19.5811 5.11543 19.5196 5.11649 19.4019 5.11896C19.3625 5.11989 19.3231 5.12083 19.2825 5.12179C19.2399 5.12257 19.1973 5.12336 19.1535 5.12416C19.1099 5.12514 19.0663 5.12611 19.0214 5.12711C18.882 5.13018 18.7425 5.13294 18.603 5.1357C18.5086 5.13772 18.4142 5.13977 18.3198 5.14183C18.088 5.14686 17.8563 5.1516 17.6245 5.15621C17.6587 5.18374 17.6928 5.21127 17.728 5.23963C18.237 5.65236 18.6708 6.09453 19.0776 6.60933C19.1318 6.67531 19.1318 6.67531 19.1871 6.74263C19.2216 6.78469 19.256 6.82674 19.2915 6.87007C19.3225 6.90784 19.3535 6.9456 19.3854 6.98451C19.4526 7.07808 19.4526 7.07808 19.4526 7.17183C19.4836 7.17183 19.5145 7.17183 19.5464 7.17183C19.5599 7.14186 19.5735 7.11189 19.5874 7.08101C19.6401 6.98433 19.6401 6.98433 19.7339 6.93746C19.8437 6.93192 19.9536 6.92949 20.0635 6.92841C20.0975 6.92803 20.1314 6.92765 20.1664 6.92725C20.2789 6.92609 20.3913 6.92531 20.5039 6.92464C20.5615 6.92426 20.5615 6.92426 20.6202 6.92388C20.8235 6.92263 21.0268 6.92172 21.2301 6.92104C21.4401 6.92026 21.65 6.91817 21.86 6.91578C22.0214 6.9142 22.1829 6.91366 22.3444 6.91339C22.4217 6.91308 22.4991 6.91236 22.5765 6.91124C22.6849 6.90976 22.7933 6.90976 22.9017 6.9101C22.9633 6.90973 23.025 6.90935 23.0885 6.90896C23.2902 6.94466 23.3586 7.01307 23.4839 7.17183C23.5191 7.30367 23.5191 7.30367 23.4839 7.45308C23.3909 7.59294 23.2724 7.70779 23.1558 7.82808C23.0997 7.88809 23.0437 7.94822 22.9879 8.00844C22.8257 8.18325 22.6628 8.35739 22.4995 8.53121C22.6969 8.76738 22.9037 8.98688 23.1235 9.2021C23.1821 9.25943 23.2405 9.31686 23.2988 9.37441C23.3242 9.39932 23.3497 9.42423 23.3759 9.4499C23.4673 9.54809 23.4836 9.60634 23.4985 9.74117C23.4804 9.92671 23.4288 9.99618 23.2964 10.125C23.1618 10.1702 23.0353 10.1787 22.894 10.1815C22.8518 10.1824 22.8095 10.1833 22.766 10.1843C22.7209 10.1851 22.6757 10.1859 22.6292 10.1867C22.5826 10.1876 22.5361 10.1886 22.4881 10.1896C22.3396 10.1927 22.191 10.1954 22.0425 10.1982C21.9417 10.2002 21.841 10.2023 21.7402 10.2043C21.4933 10.2093 21.2464 10.2141 20.9995 10.2187C21.0075 10.2517 21.0156 10.2847 21.0238 10.3187C21.3343 11.6034 21.3343 11.6034 21.3745 12.1875C21.3776 12.2302 21.3807 12.2729 21.3838 12.3168C21.5705 15.1043 20.7788 17.8405 18.937 19.9687C18.9051 20.0059 18.8731 20.043 18.8402 20.0813C18.3415 20.6479 17.812 21.1634 17.2026 21.6093C17.1536 21.6453 17.1045 21.6814 17.054 21.7185C15.4589 22.8532 13.4911 23.6237 11.5154 23.6345C11.4547 23.635 11.4547 23.635 11.3928 23.6355C9.73793 23.6459 9.73793 23.6459 8.99952 23.4843C8.93277 23.4707 8.93277 23.4707 8.86466 23.4569C6.6741 23.0062 4.53024 21.8558 3.09327 20.1093C3.0584 20.0692 3.02354 20.0291 2.98762 19.9877C2.20906 19.0813 1.59012 18.0408 1.17139 16.9218C1.15849 16.8875 1.14558 16.8532 1.13228 16.8178C0.183367 14.2473 0.305471 11.3158 1.44585 8.82811C1.81797 8.03879 2.25362 7.27115 2.84046 6.61943C2.92593 6.48351 2.9235 6.39197 2.9238 6.23197C2.92428 6.17471 2.92475 6.11745 2.92524 6.05845C2.9251 5.99673 2.92496 5.93501 2.92481 5.87142C2.92525 5.8072 2.92576 5.74298 2.92635 5.67876C2.92807 5.47528 2.92872 5.2718 2.92921 5.06832C2.92977 4.83274 2.93079 4.59718 2.93296 4.36162C2.93359 4.26758 2.93339 4.17353 2.93317 4.07949C2.93365 4.02193 2.93412 3.96437 2.93461 3.90507C2.9347 3.85463 2.9348 3.80419 2.9349 3.75222C2.95564 3.58522 3.00702 3.47183 3.09327 3.32808C3.22328 3.26307 3.33342 3.27097 3.47889 3.26637C3.50907 3.26539 3.53924 3.26441 3.57034 3.2634C3.67107 3.26025 3.77181 3.2575 3.87257 3.25484C3.90712 3.25389 3.94168 3.25295 3.97728 3.25197C4.54413 3.2368 5.11113 3.22698 5.67817 3.22349C5.7613 3.22291 5.84443 3.22209 5.92756 3.22103C6.04463 3.21963 6.16168 3.21917 6.27876 3.21895C6.3135 3.21837 6.34825 3.2178 6.38405 3.2172C6.59269 3.21809 6.72505 3.24528 6.89014 3.37496C6.93655 3.44457 6.93655 3.44457 6.98389 3.51558C7.01904 3.50354 7.05419 3.49149 7.0904 3.47909C7.25304 3.42356 7.41583 3.36849 7.57862 3.31343C7.63388 3.29449 7.68914 3.27555 7.74607 3.25603C8.11322 3.13231 8.47973 3.03269 8.85889 2.95308C8.85946 2.91054 8.85946 2.91054 8.86004 2.86714C8.86408 2.5721 8.86874 2.27708 8.87377 1.98205C8.87557 1.87193 8.8772 1.76181 8.87867 1.65168C8.88081 1.49343 8.88353 1.3352 8.88636 1.17696C8.8869 1.12768 8.88744 1.07841 8.888 1.02764C8.88893 0.981673 8.88986 0.935702 8.89082 0.888338C8.89145 0.847951 8.89207 0.807563 8.89272 0.765952C8.90708 0.645189 8.93387 0.570785 8.99952 0.468706C9.16704 0.357026 9.28673 0.361085 9.48016 0.361338ZM9.70265 1.17183C9.70265 1.69777 9.70265 2.22371 9.70265 2.76558C10.2905 2.76558 10.8783 2.76558 11.4839 2.76558C11.281 2.52803 11.281 2.52803 11.0679 2.29976C10.963 2.14864 10.9437 2.06084 10.9487 1.87868C10.9842 1.70221 11.0995 1.60029 11.2261 1.47945C11.3936 1.34036 11.3936 1.34036 11.4839 1.17183C10.8961 1.17183 10.3083 1.17183 9.70265 1.17183ZM16.687 2.67183C16.687 3.21324 16.687 3.75464 16.687 4.31246C17.2903 4.31246 17.8936 4.31246 18.5151 4.31246C18.3341 4.09857 18.3341 4.09857 18.1449 3.89205C18.0176 3.76 17.9575 3.67685 17.9146 3.49507C17.9608 3.29215 18.0434 3.19808 18.1861 3.05104C18.3024 2.9307 18.408 2.8004 18.5151 2.67183C17.9119 2.67183 17.3086 2.67183 16.687 2.67183ZM9.70265 3.65621C9.70265 4.01199 9.70265 4.36777 9.70265 4.73433C9.85733 4.79621 10.012 4.85808 10.1714 4.92183C10.2891 4.99858 10.3982 5.0734 10.5083 5.15914C10.888 5.45117 11.2545 5.56108 11.7211 5.64244C12.0177 5.6991 12.2211 5.79378 12.4331 6.01753C12.7571 6.50358 12.6187 7.1843 12.514 7.72664C12.4485 8.02794 12.3613 8.29398 12.1099 8.48458C11.9412 8.58487 11.8046 8.62489 11.6132 8.66524C11.5474 8.67973 11.4816 8.69426 11.4159 8.70883C11.382 8.71616 11.348 8.72348 11.3131 8.73103C10.7196 8.86058 10.1758 9.00471 9.65577 9.32808C9.6067 9.35557 9.55764 9.38307 9.50709 9.41139C9.02644 9.69177 8.86728 9.97339 8.71699 10.5003C8.62928 10.7701 8.48951 10.9025 8.24 11.0366C7.92052 11.1929 7.58254 11.2487 7.23585 11.3115C7.17022 11.3239 7.10461 11.3364 7.03901 11.3489C6.88014 11.3792 6.72113 11.4086 6.56202 11.4375C6.51686 11.5843 6.51686 11.5843 6.55561 11.7313C6.91392 12.41 6.91392 12.41 7.40577 12.9843C7.54228 12.9882 7.66618 12.9846 7.80128 12.9726C7.85498 12.9689 7.85498 12.9689 7.90977 12.9651C8.07541 12.9527 8.22944 12.9341 8.39014 12.8906C8.39107 12.8634 8.392 12.8362 8.39296 12.8082C8.39744 12.6843 8.40258 12.5604 8.40772 12.4365C8.40917 12.3937 8.41062 12.351 8.41212 12.3069C8.43002 11.8966 8.43002 11.8966 8.53077 11.7187C8.9119 11.5281 9.53351 11.6175 9.9535 11.6171C10.0146 11.6169 10.0756 11.6168 10.1385 11.6166C10.2662 11.6163 10.3939 11.6162 10.5216 11.6163C10.685 11.6163 10.8484 11.6156 11.0118 11.6148C11.1688 11.6142 11.3258 11.6142 11.4828 11.6142C11.5705 11.6136 11.5705 11.6136 11.66 11.6131C11.7142 11.6133 11.7684 11.6134 11.8242 11.6136C11.8718 11.6135 11.9194 11.6134 11.9684 11.6134C12.0969 11.6253 12.1731 11.6486 12.2808 11.7187C12.3579 11.873 12.3641 12.022 12.3276 12.1875C12.2581 12.2825 12.1814 12.3539 12.0933 12.4319C11.9973 12.5176 11.9158 12.608 11.8325 12.706C11.6919 12.8692 11.5443 13.0214 11.3901 13.1718C11.459 13.3319 11.5479 13.4332 11.6727 13.554C11.7098 13.5904 11.7469 13.6268 11.7852 13.6643C11.8634 13.7401 11.9417 13.8159 12.0199 13.8917C12.0571 13.9282 12.0943 13.9646 12.1326 14.0022C12.1667 14.0351 12.2007 14.0681 12.2357 14.102C12.3314 14.2072 12.3976 14.3144 12.4683 14.4375C12.5293 14.5071 12.5919 14.5755 12.6558 14.6425C12.9458 14.9683 13.0113 15.2297 12.9998 15.6622C12.9145 16.6337 12.4344 17.4051 11.8076 18.1287C11.2332 18.7938 10.9316 19.4126 10.7872 20.2856C10.6953 20.8262 10.5206 21.4008 10.1245 21.7968C10.1245 21.8278 10.1245 21.8587 10.1245 21.8906C9.80689 22.0553 9.54682 22.1305 9.18702 22.0781C8.82613 21.9518 8.64235 21.6553 8.4762 21.327C8.17847 20.6991 8.04014 20.0266 7.90371 19.3492C7.71804 18.4399 7.465 17.6659 6.67921 17.1123C6.11729 16.7107 5.92579 16.2732 5.80886 15.6041C5.76762 15.3415 5.75177 15.0808 5.74171 14.8154C5.71931 14.2553 5.6182 13.8537 5.20191 13.4567C4.93151 13.2268 4.63404 13.0558 4.32733 12.8805C4.03045 12.7084 3.77165 12.5093 3.51514 12.2812C3.47641 12.2486 3.43768 12.2161 3.39777 12.1825C2.73368 11.6119 2.25579 10.9075 1.87452 10.125C1.77346 10.1625 1.77346 10.1625 1.74654 10.2577C1.73614 10.295 1.72575 10.3323 1.71503 10.3707C1.70335 10.4125 1.69167 10.4543 1.67964 10.4974C1.66757 10.5427 1.65551 10.588 1.64307 10.6347C1.62439 10.7042 1.62439 10.7042 1.60532 10.7751C1.49161 11.2109 1.41438 11.6471 1.35889 12.0937C1.35273 12.1402 1.34657 12.1866 1.34022 12.2345C1.08169 14.6346 1.79547 17.1812 3.29981 19.0711C3.34023 19.1204 3.38076 19.1696 3.42139 19.2187C3.44345 19.2455 3.4655 19.2723 3.48823 19.3C5.13547 21.2916 7.45022 22.5563 10.0308 22.8281C12.5607 23.0328 15.1089 22.3213 17.062 20.6718C17.0886 20.6497 17.1151 20.6275 17.1425 20.6047C17.2312 20.5307 17.3195 20.4563 17.4077 20.3818C17.4356 20.3584 17.4636 20.335 17.4923 20.3109C17.6492 20.1769 17.7821 20.0416 17.9058 19.875C17.8713 19.8664 17.8368 19.8579 17.8012 19.8491C17.4338 19.7545 17.1961 19.6767 16.9683 19.3593C16.8285 19.0798 16.9137 18.6715 16.9729 18.3733C17.0646 17.9078 17.0757 17.4618 17.0578 16.9889C17.0532 16.8688 17.05 16.7488 17.0469 16.6287C17.0498 15.6783 17.0498 15.6783 16.7339 14.8125C16.5461 14.6361 16.3649 14.6181 16.1144 14.6048C16.0561 14.6014 15.9978 14.5979 15.9377 14.5944C15.8158 14.5875 15.694 14.5809 15.5722 14.5746C14.7696 14.526 14.2494 14.3364 13.6861 13.7532C13.4287 13.4409 13.291 13.082 13.2994 12.6756C13.3604 12.1289 13.6373 11.6674 13.9279 11.2135C14.0367 11.0371 14.0824 10.9203 14.0649 10.7138C14.0536 10.3522 14.1429 10.1367 14.3696 9.85542C14.5678 9.64711 14.7598 9.51669 15.0464 9.46871C15.2391 9.47873 15.4208 9.52119 15.6089 9.56246C16.2352 9.66044 16.8594 9.70596 17.4927 9.71187C17.5309 9.71248 17.569 9.71309 17.6084 9.71372C17.8649 9.71668 17.8649 9.71668 18.0933 9.60933C18.2234 9.44015 18.1938 9.2504 18.187 9.04683C18.0479 8.9664 17.9559 8.9426 17.7959 8.95253C17.7571 8.95471 17.7183 8.95689 17.6784 8.95913C17.6374 8.96197 17.5964 8.96481 17.5542 8.96773C17.5117 8.97023 17.4692 8.97274 17.4255 8.97532C17.212 8.98831 16.9994 9.00511 16.7866 9.02632C16.5154 9.05003 16.2443 9.05531 15.9722 9.05855C15.9283 9.05955 15.8845 9.06055 15.8393 9.06158C15.5585 9.06296 15.3443 9.0372 15.0933 8.90621C15.0173 8.78957 15.0173 8.78957 14.979 8.65718C14.9588 8.5922 14.9588 8.5922 14.9382 8.5259C14.7951 7.92835 14.7817 7.26797 15.0464 6.70308C15.1688 6.50446 15.2931 6.36264 15.5104 6.2704C15.6819 6.19524 15.7733 6.14867 15.8901 5.99996C15.9579 5.64724 15.9212 5.27736 15.8901 4.92183C14.379 4.02138 12.7056 3.55117 10.9448 3.5566C10.886 3.55642 10.8272 3.55623 10.7667 3.55605C10.2215 3.53061 10.2215 3.53061 9.70265 3.65621ZM6.32764 4.73433C6.46747 4.82755 6.58505 4.87691 6.74366 4.93062C6.79188 4.94772 6.8401 4.96482 6.88978 4.98244C7.35109 5.09323 7.88071 4.94089 8.33448 4.84859C8.38986 4.83762 8.44524 4.82665 8.5023 4.81535C8.63685 4.78866 8.77132 4.76154 8.90577 4.73433C8.90577 4.42496 8.90577 4.11558 8.90577 3.79683C8.04904 3.79683 7.07048 4.3429 6.32764 4.73433ZM3.74952 4.07808C3.74952 4.60402 3.74952 5.12996 3.74952 5.67183C4.3528 5.67183 4.95608 5.67183 5.57764 5.67183C5.39657 5.45795 5.39657 5.45795 5.20741 5.25142C5.08388 5.12332 5.02033 5.03389 4.9712 4.86031C5.03115 4.62451 5.16315 4.49965 5.331 4.32802C5.42308 4.23308 5.49971 4.13757 5.57764 4.03121C5.39263 4.03003 5.20762 4.02919 5.02261 4.02863C4.9293 4.02828 4.83599 4.02769 4.74268 4.02709C4.68286 4.02693 4.62304 4.02678 4.56141 4.02663C4.50691 4.02638 4.45242 4.02614 4.39627 4.02588C4.18008 4.03235 3.96473 4.05656 3.74952 4.07808ZM16.687 5.48433C16.7025 5.54621 16.718 5.60808 16.7339 5.67183C16.7803 5.64089 16.8267 5.60996 16.8745 5.57808C16.8126 5.54714 16.7508 5.51621 16.687 5.48433ZM20.2964 7.73433C20.2964 8.27574 20.2964 8.81714 20.2964 9.37496C20.8997 9.37496 21.503 9.37496 22.1245 9.37496C21.8732 9.06897 21.8732 9.06897 21.688 8.90328C21.5494 8.75177 21.5109 8.68795 21.5151 8.48433C21.5975 8.21955 21.7945 8.05458 21.9903 7.86818C22.0191 7.83948 22.0479 7.81078 22.0776 7.78121C22.0776 7.76574 22.0776 7.75027 22.0776 7.73433C21.4898 7.73433 20.902 7.73433 20.2964 7.73433ZM9.18702 12.375C9.18702 12.9164 9.18702 13.4578 9.18702 14.0156C9.7903 14.0156 10.3936 14.0156 11.0151 14.0156C10.8341 13.8017 10.8341 13.8017 10.6449 13.5952C10.5214 13.4671 10.4578 13.3776 10.4087 13.2041C10.4686 12.9683 10.6007 12.8434 10.7685 12.6718C10.8865 12.5547 10.8865 12.5547 11.0151 12.375C10.4119 12.375 9.80858 12.375 9.18702 12.375Z" fill="#FFFDF9"/>
<path d="M8.95312 5.48438C8.95494 5.5471 8.95494 5.5471 8.95679 5.61108C8.95945 5.66595 8.9621 5.72082 8.96484 5.77734C8.96702 5.83173 8.96919 5.88611 8.97144 5.94214C9.00452 6.11771 9.04407 6.17722 9.1875 6.28125C9.35574 6.28902 9.35574 6.28902 9.51562 6.23438C9.65605 6.09133 9.67677 5.97397 9.68848 5.77734C9.6931 5.7081 9.6931 5.7081 9.69781 5.63745C9.69957 5.6024 9.70132 5.56736 9.70312 5.53125C9.93742 5.65587 10.1369 5.7975 10.3403 5.96796C10.6252 6.16728 10.9255 6.22446 11.2617 6.28418C11.345 6.29908 11.4283 6.31427 11.5115 6.32977C11.5479 6.33624 11.5844 6.34271 11.6219 6.34938C11.7188 6.375 11.7188 6.375 11.8594 6.46875C11.9112 6.86857 11.8825 7.34752 11.7656 7.73438C11.6222 7.91396 11.5011 7.95534 11.2786 7.99878C11.19 8.01717 11.19 8.01717 11.0997 8.03594C11.0687 8.04215 11.0377 8.04837 11.0058 8.05477C10.431 8.17163 9.92793 8.32264 9.42188 8.625C9.36296 8.65663 9.30387 8.68793 9.24463 8.71893C8.65576 9.03118 8.28287 9.39306 8.07623 10.0415C8.0688 10.07 8.06137 10.0985 8.05371 10.1279C8.01313 10.2747 7.99074 10.3137 7.875 10.4062C7.77118 10.4442 7.77118 10.4442 7.64355 10.4736C7.59407 10.4852 7.54458 10.4968 7.49359 10.5088C7.35593 10.5377 7.21839 10.565 7.08014 10.5908C7.01882 10.6025 7.01882 10.6025 6.95626 10.6144C6.87522 10.6296 6.79408 10.6443 6.71284 10.6584C6.39482 10.7177 6.1153 10.8066 5.88281 11.0391C5.74251 11.3664 5.7709 11.6962 5.89453 12.0264C6.15435 12.5909 6.53423 13.3166 7.07812 13.6406C7.22988 13.6912 7.33957 13.6929 7.49908 13.6921C7.58088 13.6919 7.58088 13.6919 7.66434 13.6916C7.74976 13.691 7.74976 13.691 7.83691 13.6904C7.92316 13.6901 7.92316 13.6901 8.01114 13.6898C8.15326 13.6892 8.29538 13.6885 8.4375 13.6875C8.43778 13.7323 8.43805 13.7771 8.43833 13.8233C8.44101 14.2454 8.44442 14.6675 8.44855 15.0896C8.45065 15.3066 8.45249 15.5236 8.45374 15.7406C8.45496 15.9501 8.45685 16.1595 8.45921 16.3689C8.45999 16.4488 8.46053 16.5287 8.46083 16.6086C8.46128 16.7205 8.46259 16.8324 8.46411 16.9443C8.46404 16.9773 8.46397 17.0104 8.4639 17.0445C8.46754 17.2342 8.48725 17.3493 8.625 17.4844C8.71567 17.5138 8.71567 17.5138 8.8125 17.5078C8.8444 17.5083 8.87631 17.5088 8.90918 17.5093C9.0398 17.4735 9.07082 17.411 9.14062 17.2969C9.16257 17.1779 9.16257 17.1779 9.16089 17.0475C9.16228 16.9729 9.16228 16.9729 9.1637 16.8968C9.164 16.8435 9.1643 16.7901 9.16461 16.7351C9.16545 16.6802 9.16629 16.6254 9.16716 16.5688C9.1697 16.3935 9.17129 16.2183 9.17285 16.043C9.17441 15.9241 9.17602 15.8053 9.1777 15.6865C9.18169 15.3951 9.18489 15.1038 9.1875 14.8125C9.54778 14.8042 9.90804 14.7984 10.2684 14.7945C10.3909 14.7928 10.5134 14.7906 10.6358 14.7877C10.8123 14.7838 10.9886 14.7819 11.165 14.7805C11.2467 14.7779 11.2467 14.7779 11.3301 14.7753C11.6028 14.7752 11.7736 14.7895 11.9848 14.9712C12.1534 15.1429 12.2751 15.2743 12.2902 15.5224C12.2802 15.7234 12.2421 15.8951 12.1846 16.0869C12.1689 16.1392 12.1689 16.1392 12.1528 16.1926C11.9805 16.7364 11.6622 17.1483 11.2969 17.5781C10.6544 18.3409 10.2946 19.0105 10.1038 19.9934C9.91794 20.9314 9.91794 20.9314 9.60938 21.2812C9.5083 21.338 9.5083 21.338 9.42188 21.375C8.94668 20.8862 8.80009 20.1202 8.6748 19.4707C8.44865 18.307 8.17095 17.2875 7.1759 16.5591C6.77631 16.2663 6.77631 16.2663 6.69434 16.0723C6.67304 16.0242 6.67304 16.0242 6.65131 15.9752C6.50618 15.5202 6.48888 15.0557 6.4671 14.5817C6.42408 13.8654 6.15882 13.3567 5.653 12.8572C5.45279 12.6809 5.22908 12.5535 4.99805 12.4219C4.61584 12.1959 4.26163 11.9775 3.9375 11.6719C3.91199 11.6482 3.88649 11.6246 3.86021 11.6002C3.14655 10.9338 2.53578 10.0864 2.25 9.14062C2.25107 8.87361 2.39243 8.66296 2.52246 8.4375C2.55332 8.38257 2.55332 8.38257 2.58481 8.32654C2.69982 8.12352 2.81759 7.92443 2.95312 7.73438C2.96859 7.73438 2.98406 7.73438 3 7.73438C3.00117 7.77031 3.00235 7.80625 3.00356 7.84328C3.009 8.0062 3.01475 8.16912 3.02051 8.33203C3.02235 8.38859 3.02419 8.44515 3.02609 8.50342C3.02806 8.5578 3.03002 8.61218 3.03204 8.66821C3.03376 8.71829 3.03548 8.76837 3.03725 8.81996C3.04546 8.93358 3.0615 9.03182 3.09375 9.14062C3.15079 9.15319 3.20783 9.16576 3.2666 9.17871C3.31473 9.18932 3.31473 9.18932 3.36383 9.20013C3.47923 9.19473 3.47923 9.19473 3.59094 9.10046C3.75196 8.88899 3.73319 8.71701 3.72803 8.45819C3.72818 8.41029 3.72833 8.36239 3.72849 8.31303C3.72911 8.10854 3.72701 7.9041 3.72517 7.69962C3.72421 7.55012 3.72462 7.40066 3.7251 7.25116C3.72418 7.20516 3.72326 7.15915 3.72231 7.11175C3.72304 6.91843 3.7267 6.74718 3.8313 6.5799C3.99363 6.41929 4.19569 6.43641 4.41229 6.43575C4.46879 6.43691 4.52529 6.43807 4.5835 6.43927C4.64191 6.43918 4.70033 6.4391 4.76052 6.43901C4.94714 6.43881 5.13371 6.44039 5.32031 6.44238C5.50692 6.44419 5.69349 6.44541 5.88011 6.44526C5.99619 6.44517 6.11228 6.44617 6.22834 6.44836C6.54449 6.45852 6.54449 6.45852 6.81107 6.31385C6.90615 6.18841 6.90615 6.18841 6.8877 6.01758C6.85139 5.855 6.85139 5.855 6.75 5.71875C6.81752 5.72201 6.81752 5.72201 6.88641 5.72534C7.59459 5.74792 8.26674 5.48438 8.95312 5.48438Z" fill="#DFE0E1"/>
<path d="M17.6718 6.23449C17.7646 6.31316 17.8481 6.39086 17.9326 6.47765C17.9571 6.50261 17.9817 6.52757 18.007 6.55329C18.421 6.98254 18.7945 7.46996 19.114 7.97375C19.1576 8.04078 19.2045 8.10574 19.2527 8.16951C19.5595 8.61535 19.5436 9.0191 19.5357 9.54339C19.5356 9.63135 19.5358 9.71932 19.5361 9.80728C19.5365 10.0372 19.5352 10.2671 19.5333 10.4971C19.5304 10.8662 19.5295 11.2353 19.53 11.6044C19.5298 11.7329 19.5284 11.8614 19.5269 11.9899C19.5267 12.0686 19.5265 12.1473 19.5265 12.2261C19.5257 12.2616 19.525 12.2971 19.5242 12.3337C19.5251 12.5048 19.5424 12.6023 19.6331 12.7492C19.7289 12.8563 19.7289 12.8563 19.875 12.8673C20.0387 12.84 20.0929 12.8276 20.2031 12.7032C20.2332 12.5489 20.2315 12.3952 20.2317 12.2383C20.2324 12.1928 20.2332 12.1472 20.234 12.1002C20.2363 11.9545 20.2373 11.8089 20.2382 11.6632C20.2396 11.5645 20.241 11.4657 20.2425 11.367C20.2459 11.1249 20.2482 10.8829 20.25 10.6407C20.3672 10.758 20.3716 10.8303 20.4025 10.9921C20.4176 11.0707 20.4176 11.0707 20.433 11.1508C20.4432 11.2058 20.4533 11.2608 20.4638 11.3175C20.4742 11.3709 20.4846 11.4243 20.4952 11.4793C20.9565 13.9196 20.405 16.4994 19.0338 18.559C18.8353 18.8313 18.6221 19.0151 18.2812 19.0782C18.1758 19.0814 18.0703 19.0822 17.9648 19.0812C17.9099 19.0807 17.8551 19.0803 17.7986 19.0799C17.7567 19.0793 17.7149 19.0788 17.6718 19.0782C17.6041 18.8966 17.6482 18.7621 17.6923 18.5773C17.7922 18.0997 17.7805 17.6256 17.7695 17.14C17.7667 17.02 17.7644 16.9 17.7626 16.78C17.7602 16.6148 17.7569 16.4495 17.7531 16.2843C17.751 16.1897 17.7494 16.0951 17.7478 16.0004C17.7311 15.4058 17.6763 14.7268 17.2688 14.2576C16.8216 13.841 16.2327 13.8654 15.6576 13.8509C15.0844 13.8318 14.7241 13.7496 14.3153 13.3289C14.1199 13.1036 14.0272 12.9118 14.0324 12.6139C14.0935 12.319 14.2732 12.0686 14.4274 11.8135C14.6659 11.417 14.8435 11.0947 14.8123 10.6177C14.8125 10.5001 14.8125 10.5001 14.8945 10.3507C15.0246 10.2459 15.1168 10.2138 15.2838 10.2257C15.3175 10.2315 15.3511 10.2374 15.3858 10.2434C15.4234 10.2497 15.4611 10.256 15.4999 10.2624C15.5389 10.2693 15.5779 10.2762 15.6181 10.2833C16.1477 10.374 16.6573 10.4151 17.1947 10.415C17.3028 10.4152 17.4109 10.416 17.5189 10.4169C17.5886 10.417 17.6582 10.4171 17.7279 10.4172C17.7756 10.4177 17.7756 10.4177 17.8244 10.4182C18.0972 10.4169 18.3329 10.385 18.5478 10.2101C18.8277 9.86967 18.963 9.51584 18.9521 9.07006C18.9198 8.81249 18.8054 8.61467 18.6123 8.44347C18.3434 8.2569 18.1341 8.23491 17.8154 8.23839C17.7746 8.23858 17.7339 8.23876 17.6919 8.23894C17.3358 8.24351 16.9839 8.2743 16.6299 8.31029C16.3036 8.34288 15.9843 8.355 15.6562 8.34386C15.5978 8.13541 15.5972 7.93512 15.5947 7.71984C15.5933 7.68096 15.592 7.64207 15.5906 7.60201C15.5877 7.3255 15.6322 7.16213 15.7968 6.93761C15.8432 6.92214 15.8897 6.90668 15.9375 6.89074C15.9401 6.96361 15.9401 6.96361 15.9428 7.03796C15.9459 7.10217 15.949 7.16637 15.9521 7.23058C15.9537 7.27853 15.9537 7.27853 15.9553 7.32745C15.9655 7.51863 15.9804 7.64894 16.125 7.78136C16.3011 7.79709 16.4259 7.79043 16.5937 7.73449C16.649 7.59184 16.6495 7.44451 16.6554 7.29284C16.6584 7.22078 16.6584 7.22078 16.6614 7.14727C16.6632 7.09742 16.6651 7.04757 16.667 6.99621C16.67 6.92034 16.67 6.92034 16.6731 6.84295C16.6781 6.71826 16.6828 6.59357 16.6875 6.46886C16.8162 6.42039 16.9451 6.37265 17.0742 6.32531C17.1106 6.3115 17.1471 6.29769 17.1846 6.28347C17.2199 6.27063 17.2553 6.25779 17.2917 6.24456C17.3241 6.23253 17.3565 6.2205 17.3899 6.20811C17.5025 6.18367 17.5644 6.1942 17.6718 6.23449Z" fill="#DFE0E1"/>
</g>
<defs>
<clipPath id="clip0_835_392">
<rect width="24" height="24" fill="white"/>
</clipPath>
</defs>
</svg>
