<svg width="72" height="76" viewBox="0 0 72 76" fill="none" xmlns="http://www.w3.org/2000/svg">
<path d="M22.2427 26.1075C21.7638 26.3363 21.4329 26.8162 21.4329 27.2665V27.4437H19.8486C18.0248 27.4437 17.8347 27.488 17.6587 27.9235C17.5742 28.1376 17.5671 28.2483 17.6305 28.4477C17.7854 28.9423 17.546 28.9201 23.4397 28.9201H28.7701L28.9743 29.1342C29.2067 29.3778 29.2349 29.6288 29.0729 29.9536C28.8405 30.4187 29.1996 30.3966 21.9469 30.3966C15.5603 30.3966 15.335 30.404 15.1237 30.5368C14.828 30.7214 14.6942 31.1274 14.8139 31.4375C14.997 31.8878 14.7505 31.873 21.0456 31.873H26.7915L26.9605 32.0576C27.2139 32.316 27.1999 32.7515 26.9323 33.069L26.7281 33.3126L21.7145 33.3347C16.8278 33.3495 16.694 33.3569 16.4968 33.4972C16.0321 33.8515 16.1025 34.5971 16.6236 34.7448C16.7996 34.7964 18.9402 34.826 23.1369 34.826H29.3757L29.5588 35.0548C29.763 35.3132 29.7911 35.5494 29.6362 35.8521C29.4039 36.3246 29.8193 36.3024 21.5174 36.3024H13.983L13.7647 36.4944C13.3563 36.8561 13.4338 37.5205 13.9055 37.6977C14.0605 37.7568 15.7434 37.7789 19.4754 37.7789C23.1721 37.7789 24.8691 37.801 24.9677 37.8601C25.0452 37.9044 25.1508 38.052 25.2071 38.1923C25.2916 38.4138 25.2916 38.4802 25.2071 38.7017C25.1508 38.842 24.9959 39.0265 24.8691 39.1077C24.6508 39.248 24.5171 39.2554 22.5454 39.2554C21.3906 39.2554 20.4471 39.2849 20.4471 39.3144C20.4471 39.3513 20.3555 40.4734 20.2358 41.8096C20.1232 43.1458 20.0246 44.4156 20.0246 44.6297C20.0246 45.0652 20.1302 45.331 20.4119 45.6042L20.602 45.7887L22.306 45.8109L24.0101 45.833L24.1298 45.2941C24.1932 44.9988 24.3903 44.4377 24.5734 44.0539C25.5099 42.0606 27.7702 40.8352 29.7278 41.2781C31.5726 41.6841 32.8542 43.2271 32.9668 45.1834L33.0021 45.8256H40.0928C47.8314 45.8256 47.2751 45.8552 47.2751 45.4344C47.2751 45.3458 47.3667 44.9988 47.4794 44.674C48.1131 42.7546 49.8875 41.3372 51.8169 41.1969C54.1406 41.0345 56.1404 42.9613 56.1474 45.3605V45.8256H56.6262C57.0276 45.8256 57.1544 45.7961 57.4008 45.6263C57.767 45.3753 58.0486 44.829 58.0486 44.3713C58.0486 44.1941 58.1613 42.7324 58.3021 41.1231C58.5838 37.8601 58.5767 37.6977 58.2035 36.8635C58.0345 36.5091 57.5557 35.9186 55.8587 33.977C53.873 31.7254 53.6829 31.5261 53.2322 31.2825L52.7464 31.0241L50.0002 31.0019L47.254 30.9798L47.2963 30.5221C47.3174 30.2711 47.3949 29.3483 47.4582 28.4698C47.5779 26.8974 47.5779 26.8678 47.4441 26.5873C47.3456 26.3954 47.1977 26.2477 46.9935 26.1296L46.6837 25.9672H34.6005C22.9961 25.9672 22.5102 25.9746 22.2427 26.1075ZM52.6408 32.3898C52.8872 32.5227 53.4224 33.0911 54.6687 34.5159C55.5982 35.5864 56.3587 36.4796 56.3587 36.4944C56.3587 36.5091 54.4786 36.5239 52.176 36.5239H47.9863L48.0215 36.1326C48.1201 34.9293 48.3314 32.2643 48.3314 32.22C48.3314 32.1831 49.2256 32.1683 50.3241 32.1831C52.2887 32.2053 52.3169 32.2053 52.6408 32.3898Z" fill="#FFFDF9"/>
<path d="M28.0162 42.2451C26.2417 42.6585 24.9531 44.3195 24.9531 46.1946C24.9602 48.5939 27.1289 50.1442 29.3893 49.3617C30.4948 48.9852 31.4383 48.0255 31.8679 46.8443C32.0721 46.2832 32.1143 45.2571 31.9664 44.6444C31.5299 42.8726 29.8118 41.8243 28.0162 42.2451ZM29.3752 44.194C30.4244 44.7551 30.5934 46.1799 29.7061 47.0953C29.1006 47.7228 28.2626 47.8778 27.5796 47.4939C27.1782 47.2651 26.967 46.9993 26.8121 46.549C26.6853 46.1651 26.6853 45.9436 26.8262 45.4638C26.9318 45.0725 27.2627 44.6222 27.65 44.3343C28.1359 43.9726 28.8541 43.9135 29.3752 44.194Z" fill="#FFFDF9"/>
<path d="M51.1693 42.2452C50.1553 42.474 49.1977 43.2197 48.6344 44.2015C48.5499 44.3418 48.395 44.7257 48.2964 45.0505C48.1274 45.5746 48.1063 45.7223 48.1344 46.3645C48.1696 47.0289 48.1908 47.1323 48.4654 47.7007C49.2329 49.3396 51.0214 49.9966 52.7818 49.2953C53.3029 49.0812 54.0352 48.498 54.4225 47.9886C55.366 46.7189 55.5069 44.9324 54.7464 43.6995C53.9789 42.4667 52.6269 41.913 51.1693 42.2452ZM52.6269 44.2237C52.8241 44.327 53.0283 44.5189 53.1691 44.7404C53.8592 45.8182 53.1902 47.3685 51.9016 47.6712C50.7468 47.937 49.7329 46.9034 49.9511 45.678C50.0356 45.1981 50.1624 44.9619 50.4933 44.6371C51.1482 43.98 51.9016 43.8398 52.6269 44.2237Z" fill="#FFFDF9"/>
</svg>
