<svg width="16" height="16" viewBox="0 0 16 16" fill="none" xmlns="http://www.w3.org/2000/svg">
<path opacity="0.5" d="M13.8989 5.80864C14.1424 5.56516 14.3355 5.27613 14.4672 4.95804C14.5989 4.63994 14.6667 4.29902 14.6667 3.95473C14.6666 3.61044 14.5988 3.26953 14.467 2.95146C14.3352 2.63339 14.1421 2.3444 13.8986 2.10097C13.6551 1.85754 13.3661 1.66445 13.048 1.53273C12.7299 1.401 12.389 1.33322 12.0447 1.33325C11.3494 1.33331 10.6826 1.60959 10.1909 2.1013L9.59961 2.69263L9.62494 2.76663C9.91646 3.60055 10.3936 4.35736 11.0203 4.97997C11.6614 5.62509 12.4444 6.11137 13.3069 6.39997L13.8989 5.80864Z" fill="#FFFBF4"/>
<path d="M9.62609 2.66663L9.60009 2.69196L9.62542 2.76663C9.91694 3.60054 10.394 4.35735 11.0208 4.97996C11.6619 5.62508 12.4449 6.11136 13.3074 6.39996L7.60075 12.1066C7.21542 12.4913 7.02275 12.684 6.81075 12.8493C6.56041 13.0441 6.28972 13.2113 6.00342 13.348C5.76075 13.464 5.50275 13.55 4.98609 13.722L2.26409 14.6293C2.13953 14.671 2.0058 14.6772 1.87793 14.6471C1.75005 14.617 1.63309 14.5519 1.54017 14.4591C1.44725 14.3662 1.38205 14.2493 1.35189 14.1215C1.32173 13.9936 1.3278 13.8599 1.36942 13.7353L2.27742 11.0126C2.44942 10.4966 2.53542 10.2386 2.65075 9.99596C2.78809 9.70885 2.95453 9.43951 3.15009 9.18796C3.31542 8.97596 3.50809 8.78396 3.89275 8.39929L9.62609 2.66663Z" fill="#FFFBF4"/>
</svg>
