<svg width="24" height="21" viewBox="0 0 24 21" fill="none" xmlns="http://www.w3.org/2000/svg">
<path d="M9.84 5.0799C10.518 4.76914 11.2542 4.60555 12 4.5999C13.4322 4.5999 14.8057 5.16883 15.8184 6.18153C16.8311 7.19422 17.4 8.56773 17.4 9.9999C17.3996 10.6361 17.2817 11.2667 17.052 11.8599L20.4 14.9679C21.8948 13.5469 23.1151 11.8628 24 9.9999C24 9.9999 20.4 1.5999 12 1.5999C10.3453 1.59123 8.70818 1.93912 7.2 2.6199L9.84 5.0799ZM2.4 0.399902L1.2 1.5999L4.26 4.4799C2.46698 5.99924 1.01527 7.88034 0 9.9999C0 9.9999 3.6 18.3999 12 18.3999C13.9431 18.4079 15.8573 17.9294 17.568 17.0079L21.6 20.7999L22.8 19.5999L2.4 0.399902ZM12 15.3999C10.5678 15.3999 9.19432 14.831 8.18162 13.8183C7.16893 12.8056 6.6 11.4321 6.6 9.9999C6.60663 9.0723 6.85477 8.16243 7.32 7.3599L9.156 9.0879C9.05715 9.382 9.00453 9.68966 9 9.9999C8.99878 10.4883 9.11731 10.9696 9.3452 11.4015C9.57309 11.8335 9.9034 12.2031 10.3072 12.4778C10.711 12.7525 11.176 12.9241 11.6615 12.9774C12.147 13.0308 12.6382 12.9644 13.092 12.7839L14.94 14.5239C14.0662 15.0959 13.0444 15.4003 12 15.3999Z" fill="#FFFDF9"/>
</svg>
