<svg width="24" height="18" viewBox="0 0 24 18" fill="none" xmlns="http://www.w3.org/2000/svg">
<path d="M12 14.4001C10.932 14.4001 9.88795 14.0834 8.99992 13.49C8.1119 12.8967 7.41976 12.0533 7.01105 11.0666C6.60234 10.0799 6.4954 8.99411 6.70376 7.94661C6.91212 6.89911 7.42642 5.93692 8.18162 5.18172C8.93683 4.42652 9.89901 3.91222 10.9465 3.70386C11.994 3.4955 13.0798 3.60243 14.0665 4.01115C15.0532 4.41986 15.8966 5.11199 16.4899 6.00002C17.0833 6.88804 17.4 7.93208 17.4 9.0001C17.4 10.4323 16.8311 11.8058 15.8184 12.8185C14.8057 13.8312 13.4322 14.4001 12 14.4001ZM12 0.600098C3.6 0.600098 0 9.0001 0 9.0001C0 9.0001 3.6 17.4001 12 17.4001C20.4 17.4001 24 9.0001 24 9.0001C24 9.0001 20.4 0.600098 12 0.600098Z" fill="#FFFDF9"/>
</svg>
