<svg width="16" height="10" viewBox="0 0 16 10" fill="none" xmlns="http://www.w3.org/2000/svg">
<path d="M15.3384 4.45625C14.5115 3.1775 13.4387 2.09125 12.2362 1.31469C10.9059 0.454688 9.43715 0 7.98902 0C6.66027 0 5.35371 0.379688 4.10558 1.12844C2.83277 1.89188 1.67965 3.00719 0.678084 4.44312C0.565017 4.60541 0.502746 4.79764 0.499185 4.9954C0.495624 5.19315 0.550933 5.3875 0.658084 5.55375C1.4834 6.84531 2.54558 7.93312 3.72933 8.69906C5.06215 9.5625 6.49652 10 7.98902 10C9.44871 10 10.9206 9.54906 12.2453 8.69625C13.4471 7.92219 14.5178 6.83187 15.3415 5.5425C15.445 5.38012 15.4997 5.19146 15.4991 4.99892C15.4986 4.80638 15.4428 4.61804 15.3384 4.45625ZM7.99965 8C7.4063 8 6.82628 7.82405 6.33294 7.49441C5.83959 7.16476 5.45507 6.69623 5.22801 6.14805C5.00095 5.59987 4.94154 4.99667 5.05729 4.41473C5.17305 3.83279 5.45877 3.29824 5.87833 2.87868C6.29788 2.45912 6.83243 2.1734 7.41438 2.05764C7.99632 1.94189 8.59952 2.0013 9.1477 2.22836C9.69588 2.45542 10.1644 2.83994 10.4941 3.33329C10.8237 3.82664 10.9996 4.40666 10.9996 5C10.9987 5.79537 10.6824 6.5579 10.12 7.12032C9.55755 7.68273 8.79502 7.99909 7.99965 8Z" fill="#EA9507"/>
</svg>
