<svg width="23" height="16" viewBox="0 0 23 16" fill="none" xmlns="http://www.w3.org/2000/svg">
<path d="M0.5 9.325L1 7.325H6.5L6 9.325H0.5ZM7 16C6.16667 16 5.45833 15.7083 4.875 15.125C4.29167 14.5417 4 13.8333 4 13H1.5L2 10.825H7.175L8.075 7.175H10.175L11.425 2.175H4.5L4.65 1.575C4.75 1.10833 4.97933 0.729334 5.338 0.438C5.69667 0.146667 6.11733 0.000666667 6.6 0H18L17.075 4H20L23 8L22 13H20C20 13.8333 19.7083 14.5417 19.125 15.125C18.5417 15.7083 17.8333 16 17 16C16.1667 16 15.4583 15.7083 14.875 15.125C14.2917 14.5417 14 13.8333 14 13H10C10 13.8333 9.70833 14.5417 9.125 15.125C8.54167 15.7083 7.83333 16 7 16ZM2.5 5.675L3 3.675H9.5L9 5.675H2.5ZM7 14C7.28333 14 7.521 13.904 7.713 13.712C7.905 13.52 8.00067 13.2827 8 13C7.99933 12.7173 7.90333 12.48 7.712 12.288C7.52067 12.096 7.28333 12 7 12C6.71667 12 6.47933 12.096 6.288 12.288C6.09667 12.48 6.00067 12.7173 6 13C5.99933 13.2827 6.09533 13.5203 6.288 13.713C6.48067 13.9057 6.718 14.0013 7 14ZM17 14C17.2833 14 17.521 13.904 17.713 13.712C17.905 13.52 18.0007 13.2827 18 13C17.9993 12.7173 17.9033 12.48 17.712 12.288C17.5207 12.096 17.2833 12 17 12C16.7167 12 16.4793 12.096 16.288 12.288C16.0967 12.48 16.0007 12.7173 16 13C15.9993 13.2827 16.0953 13.5203 16.288 13.713C16.4807 13.9057 16.718 14.0013 17 14ZM15.925 9H20.75L20.85 8.475L19 6H16.625L15.925 9Z" fill="#C1C2C3"/>
</svg>
