<svg width="40" height="30" viewBox="0 0 40 30" fill="none" xmlns="http://www.w3.org/2000/svg">
<path d="M15.4574 0.824106C14.1879 1.29994 13.4478 2.34162 13.4415 3.6598C13.4351 4.86867 14.0858 5.87178 15.2214 6.40548C15.636 6.60482 15.7062 6.61768 16.3952 6.61768C17.1161 6.61768 17.1416 6.61125 17.6328 6.37333C18.3282 6.03896 18.8577 5.4924 19.1448 4.80437C19.3298 4.35426 19.3489 4.23852 19.3489 3.6598C19.3489 3.08109 19.3298 2.96535 19.1448 2.53453C18.7939 1.69218 18.1687 1.11346 17.2501 0.798385C16.7333 0.61834 15.9805 0.631201 15.4574 0.824106Z" fill="#FFFDF9"/>
<path d="M23.3167 1.51199C22.4937 1.62773 21.8494 2.00068 21.3645 2.64369C20.1396 4.26409 20.9052 6.5468 22.8892 7.19624C23.3486 7.34414 24.2034 7.30556 24.701 7.10622C26.0918 6.55966 26.8318 5.02285 26.4172 3.55678C26.0344 2.21287 24.6819 1.31908 23.3167 1.51199Z" fill="#FFFDF9"/>
<path d="M0.841786 4.68855C0.580223 4.87503 0.46539 5.51805 0.286762 7.77503C0.229346 8.48235 0.15917 9.36328 0.127272 9.7298C0.0889949 10.1027 0.0634766 10.7586 0.0634766 11.1959C0.0634766 12.1025 0.146411 12.4498 0.714194 13.8194C1.40957 15.5041 1.81786 16.4107 2.47496 17.7739C3.1512 19.1628 3.49569 19.7673 3.82105 20.1145C4.32504 20.6611 5.74769 21.6127 8.98214 23.5675C10.6855 24.6027 10.9662 24.7957 11.3362 25.1879C11.5978 25.4708 11.8274 25.7988 11.955 26.0624L12.1528 26.4868L12.1719 27.9786L12.1974 29.4768H15.5276H18.8641L18.9024 27.985C18.9279 27.162 18.9789 26.2167 19.03 25.8888C19.3043 23.934 18.3729 21.5613 16.5866 19.6708C16.1911 19.2464 15.5212 18.6098 15.2788 18.4298C14.9152 18.1597 14.5451 17.9025 14.5132 17.9025C14.5005 17.9025 14.3346 17.8318 14.1432 17.7482C13.7732 17.5746 12.7397 17.2338 12.3761 17.1631C11.3809 16.9766 11.03 16.9187 10.2836 16.8415C9.45423 16.758 9.43509 16.7515 9.00766 16.4686C8.5866 16.1857 7.91675 15.5234 7.55949 15.0347C7.45742 14.8996 7.34258 14.7517 7.31069 14.7196C7.27241 14.681 7.1193 14.4945 6.97257 14.3016C6.63445 13.8515 5.69027 12.9256 5.23094 12.5912C4.45263 12.0254 3.54673 11.601 3.10016 11.601C2.76842 11.601 2.42392 11.7746 2.30271 11.9996C2.2134 12.154 2.21978 12.1925 2.36013 12.4562C2.44944 12.6169 2.58341 12.8291 2.65997 12.9256C2.8067 13.1185 3.54035 14.1345 3.68708 14.3466C4.63764 15.7356 4.9949 16.2114 5.35215 16.5843C5.5882 16.8287 5.837 17.1052 5.9008 17.1888L6.02839 17.3431L5.77321 17.2081C4.97576 16.803 4.54833 16.4236 4.17193 15.8063C3.79553 15.1761 3.47018 14.7196 2.60255 13.62C2.22616 13.1442 1.88804 12.6491 1.84338 12.5205C1.8051 12.3983 1.78596 12.1475 1.8051 11.9675C1.83062 11.691 1.8689 11.6074 2.04753 11.4595C2.16874 11.3566 2.37289 11.2409 2.50686 11.2023C2.65359 11.1573 2.7429 11.093 2.7429 11.0287C2.7429 10.8422 2.36651 7.47924 2.26443 6.7462C2.09218 5.50518 1.8051 4.90075 1.28836 4.68855C1.01403 4.57281 1.01403 4.57281 0.841786 4.68855Z" fill="#FFFDF9"/>
<path d="M38.7491 4.68855C38.2515 4.90718 37.9708 5.52448 37.7986 6.7462C37.6965 7.47924 37.3201 10.8486 37.3201 11.0223C37.3201 11.0801 37.4541 11.1702 37.6518 11.2473C38.0729 11.4081 38.277 11.691 38.277 12.0961C38.277 12.5141 38.1558 12.7391 37.4668 13.6072C37.1223 14.0444 36.797 14.4624 36.7459 14.5331C36.242 15.2597 35.8528 15.8513 35.7635 16.0314C35.6997 16.1535 35.5721 16.3207 35.4828 16.4107C35.2659 16.6101 34.4748 17.1438 34.226 17.2531L34.0346 17.3367L34.1622 17.1823C34.2324 17.1052 34.5067 16.803 34.7683 16.52C35.0362 16.2371 35.419 15.7613 35.6168 15.4591C36.2802 14.4688 37.2818 13.0606 37.4477 12.8741C37.4987 12.8163 37.6136 12.6362 37.7029 12.469C37.8496 12.199 37.856 12.1668 37.7667 11.9996C37.6391 11.7746 37.2946 11.601 36.9692 11.601C36.8289 11.601 36.5227 11.6781 36.2802 11.7682C35.0873 12.2311 33.9198 13.2085 32.7396 14.7453C32.2228 15.4141 31.4892 16.1664 31.0873 16.4429C30.6343 16.7515 30.6343 16.7515 29.8177 16.8415C27.3999 17.0988 25.7348 17.626 24.7715 18.4362C24.1207 18.9828 23.3169 19.7994 22.864 20.3781C22.73 20.5518 22.6024 20.7125 22.5833 20.7318C22.5641 20.7511 22.4046 21.0083 22.2196 21.3105C21.2053 23.0081 20.8289 24.442 21.033 25.8759C21.0777 26.2103 21.1351 27.162 21.1606 27.985L21.1989 29.4768H24.5354H27.8719L27.8911 27.985L27.9102 26.4868L28.108 26.0624C28.2356 25.7988 28.4716 25.4644 28.7332 25.1879C29.0968 24.7957 29.3648 24.6092 30.7938 23.754C31.6997 23.2074 32.5099 22.7187 32.5992 22.6608C32.6885 22.603 32.8735 22.4808 33.0139 22.3908C35.6933 20.6932 36.2356 20.2624 36.714 19.4651C37.0841 18.8413 38.36 16.2178 38.6534 15.4719C38.7236 15.3047 38.864 14.9575 38.9724 14.7003C39.4573 13.5557 39.5721 13.2664 39.7762 12.6362C39.9804 12.0254 39.9995 11.9096 39.9995 11.183C39.9995 10.7522 39.974 10.1027 39.9357 9.7298C39.9038 9.36328 39.8337 8.48235 39.7762 7.77503C39.5976 5.51805 39.4828 4.87503 39.2212 4.68855C39.0554 4.57281 39.0107 4.57281 38.7491 4.68855Z" fill="#FFFDF9"/>
<path d="M15.1516 7.13836C14.5965 7.41486 14.3733 7.55632 13.78 8.01286C12.2935 9.14457 11.4323 10.5785 10.8071 12.9512C10.5838 13.7871 10.2648 15.5426 10.3222 15.594C10.3477 15.6197 10.8262 15.7033 11.3812 15.7805C11.9426 15.8512 12.4211 15.9284 12.4466 15.9477C12.5296 15.9927 12.5551 15.8962 12.6954 15.0989C12.8422 14.2758 13.0973 13.1506 13.2058 12.8548C13.3525 12.4754 13.3972 12.829 13.4099 14.488L13.4291 16.1792L14.067 16.4235C14.8262 16.7129 15.5535 17.1115 15.8214 17.388C15.9618 17.5359 16.5997 18.0439 16.6125 18.0246C16.6253 18.0118 16.7146 17.851 16.8166 17.6774C17.3908 16.6678 18.1691 15.9927 19.1579 15.6455L19.5599 15.4976L19.7959 15.7548L20.032 16.0055L20.2552 15.7612C20.3765 15.6326 20.5232 15.5233 20.5806 15.5233C20.7337 15.5233 21.3015 15.7805 21.6906 16.0248C22.1946 16.3463 22.6348 16.7257 22.8262 17.0215C23.1005 17.433 23.4131 17.9282 23.4323 17.9989C23.445 18.031 23.5726 17.9603 23.713 17.8381C24.7209 16.9443 25.2505 16.655 26.8326 16.1341C26.8772 16.1213 26.8645 15.8641 26.7879 15.3239C26.7241 14.8867 26.6731 14.1215 26.6731 13.6264C26.6667 12.8162 26.6731 12.7455 26.7624 12.8676C26.8709 13.022 27.2664 14.4559 27.3685 15.0732C27.4068 15.3047 27.4642 15.594 27.5024 15.7226C27.5599 15.9541 27.5662 15.9605 27.8023 15.9091C27.9299 15.8769 28.3956 15.8062 28.8358 15.7483C29.276 15.6905 29.6524 15.6262 29.6715 15.6004C29.7289 15.5426 29.4737 14.1279 29.2824 13.4335C28.8549 11.8452 28.1914 10.4177 27.5726 9.74257C27.343 9.4918 26.9219 9.05454 26.7497 8.89379C26.2903 8.46297 25.1867 7.79423 24.6635 7.61419L24.4211 7.53703L24.0894 7.86497C23.9107 8.04501 23.7321 8.1929 23.6938 8.1929C23.6556 8.1929 23.4833 8.05144 23.3111 7.8714C23.1388 7.69778 22.9666 7.54989 22.9219 7.54989C22.705 7.54989 21.5822 8.23792 20.906 8.78448C20.6954 8.95166 20.4913 9.09313 20.453 9.09313C20.4147 9.09313 20.2297 8.93237 20.0383 8.73304C19.5471 8.23149 18.6922 7.5949 18.0543 7.26696C17.2441 6.849 17.2441 6.849 16.8422 7.26053C16.6508 7.45344 16.4658 7.61419 16.4275 7.61419C16.3892 7.61419 16.217 7.45344 16.0447 7.26053C15.8661 7.06763 15.7002 6.90687 15.6619 6.9133C15.63 6.9133 15.4004 7.01619 15.1516 7.13836ZM20.7592 11.4787C21.2505 11.6716 21.5822 11.9803 21.8246 12.4754C22.3095 13.4656 21.9458 14.5845 20.9506 15.1761C20.6699 15.3432 20.5806 15.3625 20.0639 15.3625C19.3876 15.3625 19.0367 15.2211 18.6157 14.7902C17.6013 13.7486 17.9586 12.0124 19.2855 11.4851C19.7321 11.3051 20.2999 11.3051 20.7592 11.4787Z" fill="#FFFDF9"/>
</svg>
