<svg width="50" height="51" viewBox="0 0 50 51" fill="none" xmlns="http://www.w3.org/2000/svg">
<path d="M24.3899 7.30176C23.7209 7.42383 23.0959 7.7461 22.5783 8.24414C20.5373 10.1777 21.426 13.5859 24.1408 14.2842C24.6633 14.416 25.386 14.416 25.9035 14.2842C27.1633 13.9619 28.1203 13.0244 28.4768 11.7598C28.6086 11.2764 28.6184 10.4707 28.4963 9.96289C28.2033 8.76172 27.2707 7.78028 26.05 7.39942C25.6594 7.28223 24.7951 7.22852 24.3899 7.30176Z" fill="#FFFDF9"/>
<path d="M16.3378 17.9902L11.2646 23.0684L9.55072 23.083L7.83685 23.0977L7.51947 23.2539C7.09955 23.4639 6.86029 23.669 6.64056 24.0107C6.26947 24.582 6.29388 23.9033 6.30853 33.376L6.32318 41.8477L6.4306 42.1162C6.66986 42.7021 7.16302 43.1563 7.75384 43.3369C8.06146 43.4346 8.27142 43.4346 25.0243 43.4346C41.5331 43.4346 41.9921 43.4297 42.2802 43.3418C42.871 43.1563 43.2812 42.7998 43.5693 42.2139L43.7255 41.8965V33.2539V24.6113L43.5693 24.2793C43.3642 23.8447 42.9784 23.459 42.5439 23.2539L42.2118 23.0977L40.498 23.083L38.7841 23.0684L33.706 17.9854L28.6279 12.9072L28.4081 13.2197C28.1249 13.6104 27.6464 14.0742 27.2704 14.3086C27.1093 14.4111 26.9677 14.5039 26.9531 14.5137C26.9433 14.5234 28.8525 16.4522 31.2011 18.8008L35.4736 23.0732H25.0243H14.5751L18.8476 18.8008C21.1962 16.4522 23.1054 14.5234 23.0956 14.5137C23.081 14.5039 22.9394 14.4111 22.7783 14.3086C22.4072 14.0742 21.9238 13.6104 21.6454 13.2197C21.5234 13.0537 21.4208 12.917 21.4208 12.917C21.416 12.917 19.1259 15.2022 16.3378 17.9902ZM16.3915 29.7676C17.1093 29.8652 17.5244 30.085 17.8222 30.5147C18.3788 31.3252 18.2372 32.6191 17.5292 33.1807C17.3046 33.3564 16.8847 33.5518 16.621 33.6006C16.5136 33.6152 16.416 33.6445 16.3915 33.6543C16.372 33.6641 16.4843 33.7715 16.6357 33.8838C16.997 34.1475 17.207 34.3818 17.5634 34.9189C17.9492 35.5 18.6376 36.6084 18.6816 36.7109C18.7109 36.7891 18.6425 36.7939 17.8857 36.7939H17.0605L16.2841 35.6367C15.8544 34.9971 15.4199 34.377 15.3076 34.2598C15.0439 33.9717 14.8095 33.874 14.2675 33.835L13.8183 33.8008V35.2998V36.7939H13.1103H12.4023V33.2539V29.7139H14.204C15.2343 29.7139 16.1718 29.7383 16.3915 29.7676ZM24.7558 30.2998V30.8857H22.8515H20.9472V31.6914V32.4971H22.7294H24.5117V33.083V33.6689H22.7294H20.9472V34.6211V35.5732H22.9247H24.9023V36.1836V36.7939H22.2167H19.5312V33.2539V29.7139H22.1435H24.7558V30.2998ZM28.955 32.0625L30.3954 34.4111L30.4101 32.0625L30.4199 29.7139H31.079H31.7382V33.2539V36.7939H31.0351H30.332L28.8964 34.4697L27.4658 32.1406L27.4511 34.4697L27.4413 36.7939H26.7822H26.123V33.2539V29.7139H26.8212H27.5146L28.955 32.0625ZM38.3788 30.2998V30.8857H37.329H36.2792V33.8398V36.7939H35.5712H34.8632V33.8398V30.8857H33.8134H32.7636V30.2998V29.7139H35.5712H38.3788V30.2998Z" fill="#FFFDF9"/>
<path d="M13.8184 31.7939V32.7021L14.9561 32.6826C16.25 32.668 16.3818 32.6338 16.5869 32.2725C16.7432 32.0039 16.7432 31.5498 16.5918 31.3252C16.333 30.9492 16.0889 30.8955 14.6143 30.8906L13.8184 30.8857V31.7939Z" fill="#FFFDF9"/>
</svg>
