<svg width="280" height="280" viewBox="0 0 280 280" fill="none" xmlns="http://www.w3.org/2000/svg">
<path d="M267.867 194.057C267.867 214.091 253.792 232.418 230.623 245.793C207.48 259.152 175.442 267.447 140 267.447C104.558 267.447 72.5199 259.152 49.3771 245.793C26.2078 232.418 12.1328 214.091 12.1328 194.057C12.1328 174.023 26.2078 155.696 49.3771 142.321C72.5199 128.961 104.558 120.667 140 120.667C175.442 120.667 207.48 128.961 230.623 142.321C253.792 155.696 267.867 174.023 267.867 194.057Z" fill="#A85C00" stroke="#FDB133" stroke-width="2"/>
<path d="M225.182 227.741C242.974 227.741 257.398 219.412 257.398 209.137C257.398 198.863 242.974 190.534 225.182 190.534C207.389 190.534 192.965 198.863 192.965 209.137C192.965 219.412 207.389 227.741 225.182 227.741Z" fill="#FDB133"/>
<path d="M109.838 249.329L29.9096 203.185C28.5992 202.429 28.5992 201.202 29.9096 200.441L145.46 133.733C146.195 133.358 147.009 133.162 147.834 133.162C148.66 133.162 149.474 133.358 150.209 133.733L230.115 179.866C231.426 180.622 231.426 181.849 230.115 182.605L114.587 249.329C113.851 249.702 113.038 249.896 112.213 249.896C111.388 249.896 110.574 249.702 109.838 249.329Z" fill="#FDB133"/>
<path d="M241.444 198.47C240.755 193.743 242.519 175.739 246.523 168.885C250.527 162.03 257.163 154.84 262.942 155.915C268.296 156.912 268.721 163.688 263.177 169.025C257.633 174.362 249.144 181.289 247.542 189.353L243.174 203.078L241.444 198.47Z" fill="#FDB133"/>
<path opacity="0.1" d="M241.444 198.47C240.755 193.743 242.519 175.739 246.523 168.885C250.527 162.03 257.163 154.84 262.942 155.915C268.296 156.912 268.721 163.688 263.177 169.025C257.633 174.362 249.144 181.289 247.542 189.353L243.174 203.078L241.444 198.47Z" fill="#002533"/>
<path d="M242.726 196.986C242.799 196.966 242.864 196.923 242.91 196.864C242.957 196.804 242.982 196.731 242.983 196.655C243.23 180.046 253.853 164.657 261.099 160.373C261.179 160.326 261.237 160.25 261.26 160.16C261.283 160.071 261.269 159.976 261.223 159.897C261.176 159.817 261.099 159.76 261.01 159.737C260.921 159.714 260.826 159.727 260.747 159.774C253.36 164.142 242.535 179.782 242.267 196.644C242.266 196.69 242.274 196.735 242.291 196.777C242.308 196.82 242.333 196.858 242.364 196.891C242.396 196.924 242.434 196.95 242.476 196.968C242.518 196.986 242.563 196.996 242.608 196.997C242.648 197.002 242.688 196.998 242.726 196.986Z" fill="#FDB133"/>
<path d="M245.325 205.655C245.694 202.888 247.632 198.117 252.011 193.391C257.376 187.6 266.28 184.431 267.523 181.071C269.007 177.027 265.613 174.267 259.823 176.109C252.045 178.584 243.365 188.295 243.477 200.788L245.325 205.655Z" fill="#FDB133"/>
<path d="M243.762 203.039C243.827 203.023 243.886 202.988 243.933 202.94C243.98 202.891 244.011 202.831 244.025 202.765C246.96 188.205 258.697 180.393 263.491 179.049C263.58 179.029 263.657 178.975 263.708 178.899C263.758 178.822 263.776 178.73 263.76 178.64C263.748 178.595 263.728 178.553 263.699 178.517C263.671 178.48 263.636 178.45 263.595 178.427C263.555 178.405 263.511 178.391 263.465 178.386C263.419 178.381 263.373 178.386 263.328 178.399C258.031 179.883 246.36 187.807 243.37 202.653C243.361 202.698 243.361 202.744 243.37 202.789C243.379 202.834 243.397 202.876 243.422 202.914C243.448 202.952 243.48 202.985 243.519 203.01C243.557 203.035 243.599 203.053 243.644 203.062C243.685 203.062 243.725 203.054 243.762 203.039Z" fill="#FDB133"/>
<path d="M81.9336 41.6752L77.672 44.1392C77.6939 43.9533 77.7052 43.7663 77.7056 43.5792V42.3472C77.7056 40.1464 76.16 39.256 74.256 40.3536C73.439 40.8599 72.7385 41.5337 72.2008 42.3304C71.8928 39.564 69.72 38.5336 67.088 40.0568C64.2376 41.7032 61.9248 45.7016 61.9248 49.0168V50.8648C61.9084 51.6015 62.0577 52.3326 62.3616 53.004L58.8 55.02C58.2424 55.3829 57.7784 55.8723 57.4456 56.4484C57.1128 57.0244 56.9207 57.6709 56.8848 58.3352C56.8848 59.556 57.7416 60.0488 58.8 59.4552L81.9112 46.1104C82.468 45.748 82.9315 45.2595 83.2643 44.6845C83.597 44.1094 83.7896 43.4641 83.8264 42.8008C83.8488 41.5632 82.992 41.0648 81.9336 41.6752Z" fill="#FDB133"/>
<path d="M28.0781 47.18L30.4301 45.36V40.1856C30.4301 36.0752 33.7061 31.304 37.2621 29.2488C40.8237 27.1936 43.7077 28.8624 43.7077 32.9728V33.7232C44.4567 32.506 45.481 31.4817 46.6981 30.7328C49.2573 29.2544 51.3349 30.4528 51.3349 33.4096V33.7512L54.6165 31.8584C56.2965 30.884 57.6685 31.6736 57.6685 33.6224C57.6106 34.6813 57.3041 35.7116 56.7738 36.63C56.2436 37.5485 55.5046 38.3291 54.6165 38.9088L28.0781 54.2304C26.3981 55.2048 25.0205 54.4152 25.0205 52.4664C25.0764 51.4063 25.3826 50.3746 25.9141 49.4558C26.4456 48.5369 27.1872 47.757 28.0781 47.18Z" fill="#FDB133"/>
<path d="M34.8438 196.834C34.9077 197.704 35.1751 198.546 35.6245 199.293C36.074 200.04 36.6927 200.671 37.4309 201.135L109.945 243.001C110.748 243.407 111.636 243.618 112.535 243.618C113.435 243.618 114.322 243.407 115.125 243.001L222.595 180.958C223.375 180.544 224.028 179.925 224.483 179.168C224.939 178.411 225.179 177.544 225.179 176.66C225.179 175.777 224.939 174.91 224.483 174.153C224.028 173.396 223.375 172.777 222.595 172.362L150.081 130.48C149.278 130.071 148.391 129.858 147.491 129.858C146.59 129.858 145.703 130.071 144.901 130.48L37.4309 192.539C36.6929 193.002 36.0741 193.632 35.6246 194.378C35.1751 195.124 34.9076 195.966 34.8438 196.834Z" fill="#37474F"/>
<path d="M112.56 238V243.6C111.659 243.62 110.768 243.408 109.973 242.984L37.4305 201.135C36.6728 200.735 36.0346 200.142 35.5808 199.415C35.127 198.688 34.8738 197.854 34.8471 196.998C34.8203 196.141 35.021 195.293 35.4285 194.539C35.8361 193.786 36.436 193.153 37.1673 192.707C36.0081 193.536 36.0977 194.757 37.4305 195.507L109.951 237.378C110.752 237.808 111.651 238.022 112.56 238Z" fill="#263238"/>
<path d="M32.4131 192.64C31.6926 192.15 31.0977 191.497 30.6764 190.734C30.2551 189.972 30.0194 189.12 29.9883 188.25V101.702C30.0375 100.804 30.2973 99.9309 30.7468 99.1525C31.1963 98.3742 31.8227 97.7127 32.5755 97.2215L140.045 35.1791C140.818 34.7679 141.678 34.5449 142.554 34.5283C143.429 34.5118 144.297 34.7022 145.085 35.084C145.805 35.575 146.399 36.228 146.82 36.9906C147.241 37.7531 147.477 38.6038 147.51 39.4743V126C147.461 126.897 147.201 127.771 146.752 128.549C146.302 129.328 145.676 129.989 144.923 130.48L37.4307 192.539C36.6608 192.948 35.8055 193.17 34.9339 193.188C34.0623 193.205 33.1988 193.018 32.4131 192.64Z" fill="#455A64"/>
<path d="M37.1283 192.696C36.3847 193.028 35.5776 193.194 34.7633 193.183C33.9489 193.171 33.1469 192.982 32.4131 192.629C31.6926 192.139 31.0977 191.486 30.6764 190.723C30.2551 189.96 30.0194 189.109 29.9883 188.238V101.702C30.0169 100.801 30.2793 99.9225 30.7499 99.1536L35.5995 101.954C35.1362 102.723 34.8761 103.598 34.8435 104.496V191.044C34.8435 192.573 35.8403 193.262 37.1283 192.696Z" fill="#263238"/>
<path d="M34.8438 104.507V191.044C34.8438 192.724 36.0029 193.362 37.4309 192.539L144.901 130.48C145.654 129.989 146.28 129.328 146.73 128.549C147.179 127.771 147.439 126.898 147.488 126V39.4744C147.488 37.828 146.334 37.156 144.901 37.9848L37.4309 100.022C36.6781 100.514 36.0516 101.176 35.6022 101.956C35.1528 102.735 34.8929 103.609 34.8438 104.507Z" fill="#37474F"/>
<path d="M37.4304 195.524L109.945 237.395C110.748 237.801 111.635 238.013 112.535 238.013C113.435 238.013 114.322 237.801 115.125 237.395L222.594 175.353C224.022 174.524 224.022 173.186 222.594 172.362L150.08 130.48C149.278 130.071 148.39 129.858 147.49 129.858C146.59 129.858 145.702 130.071 144.9 130.48L37.4304 192.539C36.0024 193.362 36.0024 194.701 37.4304 195.524Z" fill="#455A64"/>
<path d="M38.8254 103.348L142.733 43.3719C143.59 42.8791 144.29 43.2823 144.29 44.2735V124.113C144.26 124.652 144.104 125.176 143.833 125.643C143.563 126.11 143.186 126.507 142.733 126.801L38.8254 186.777C37.9686 187.27 37.2686 186.866 37.2686 185.875V106.036C37.2985 105.497 37.455 104.973 37.7255 104.506C37.996 104.039 38.3728 103.642 38.8254 103.348Z" fill="#FDB133"/>
<path opacity="0.4" d="M38.8254 103.348L142.733 43.3719C143.59 42.8791 144.29 43.2823 144.29 44.2735V124.113C144.26 124.652 144.104 125.176 143.833 125.643C143.563 126.11 143.186 126.507 142.733 126.801L38.8254 186.777C37.9686 187.27 37.2686 186.866 37.2686 185.875V106.036C37.2985 105.497 37.455 104.973 37.7255 104.506C37.996 104.039 38.3728 103.642 38.8254 103.348Z" fill="#002533"/>
<path d="M45.8479 193.284L146.2 135.358C146.6 135.153 147.044 135.046 147.493 135.046C147.943 135.046 148.387 135.153 148.787 135.358L153.497 138.074C154.208 138.488 154.208 139.154 153.497 139.569L53.1335 197.49C52.7329 197.694 52.2896 197.801 51.8399 197.801C51.3901 197.801 50.9468 197.694 50.5463 197.49L45.8479 194.779C45.1367 194.365 45.1367 193.698 45.8479 193.284Z" fill="#37474F"/>
<path d="M57.9879 200.295L158.334 142.363C158.735 142.159 159.178 142.052 159.628 142.052C160.078 142.052 160.521 142.159 160.922 142.363L189.896 159.09C190.613 159.505 190.613 160.177 189.896 160.586L89.6559 218.445C89.2539 218.648 88.8098 218.753 88.3595 218.753C87.9092 218.753 87.4652 218.648 87.0631 218.445L57.9935 201.785C57.2767 201.376 57.2711 200.704 57.9879 200.295Z" fill="#263238"/>
<path d="M146.161 166.998L149.319 165.172C149.453 165.094 149.459 164.97 149.319 164.892L146.004 162.96C145.929 162.924 145.846 162.906 145.763 162.906C145.68 162.906 145.597 162.924 145.522 162.96L142.358 164.786C142.229 164.864 142.224 164.987 142.358 165.06L145.718 166.986C145.787 167.018 145.862 167.036 145.938 167.038C146.014 167.039 146.09 167.026 146.161 166.998ZM140.745 160.222L137.587 162.047C137.559 162.057 137.534 162.076 137.517 162.1C137.5 162.125 137.49 162.154 137.49 162.184C137.49 162.214 137.5 162.244 137.517 162.268C137.534 162.293 137.559 162.312 137.587 162.322L140.947 164.248C141.022 164.284 141.105 164.302 141.188 164.302C141.271 164.302 141.353 164.284 141.429 164.248L144.593 162.422C144.623 162.414 144.65 162.395 144.669 162.37C144.688 162.345 144.698 162.314 144.698 162.282C144.698 162.251 144.688 162.22 144.669 162.195C144.65 162.169 144.623 162.151 144.593 162.142L141.233 160.216C141.158 160.182 141.076 160.165 140.994 160.166C140.912 160.167 140.831 160.186 140.757 160.222H140.745ZM130.537 166.113L125.194 169.198C125.06 169.277 125.054 169.406 125.194 169.478L128.554 171.405C128.629 171.441 128.712 171.459 128.795 171.459C128.878 171.459 128.961 171.441 129.036 171.405L134.384 168.319C134.518 168.241 134.518 168.118 134.384 168.039L131.024 166.118C130.951 166.08 130.869 166.059 130.787 166.058C130.704 166.057 130.622 166.076 130.548 166.113H130.537ZM136.137 162.887L132.973 164.713C132.838 164.791 132.838 164.914 132.973 164.987L136.333 166.914C136.408 166.949 136.49 166.968 136.573 166.968C136.657 166.968 136.739 166.949 136.814 166.914L139.973 165.088C140.107 165.01 140.107 164.886 139.973 164.808L136.613 162.882C136.539 162.846 136.458 162.828 136.377 162.829C136.295 162.83 136.215 162.85 136.142 162.887H136.137ZM123.761 170.044L120.602 171.864C120.468 171.942 120.468 172.071 120.602 172.144L123.962 174.07C124.037 174.106 124.12 174.125 124.203 174.125C124.286 174.125 124.369 174.106 124.444 174.07L127.602 172.25C127.737 172.172 127.737 172.049 127.602 171.97L124.242 170.044C124.167 170.008 124.085 169.99 124.001 169.99C123.918 169.99 123.836 170.008 123.761 170.044ZM119.146 172.71L115.982 174.535C115.954 174.545 115.929 174.564 115.912 174.588C115.895 174.613 115.885 174.642 115.885 174.672C115.885 174.702 115.895 174.732 115.912 174.756C115.929 174.781 115.954 174.8 115.982 174.81L119.281 176.736C119.355 176.775 119.438 176.795 119.521 176.795C119.605 176.795 119.688 176.775 119.762 176.736L122.921 174.916C123.055 174.838 123.055 174.714 122.921 174.636L119.589 172.71C119.516 172.677 119.438 172.66 119.359 172.66C119.28 172.66 119.202 172.677 119.129 172.71H119.146ZM132.239 180.55L135.397 178.724C135.532 178.646 135.532 178.522 135.397 178.45L132.065 176.523C131.99 176.487 131.908 176.469 131.825 176.469C131.741 176.469 131.659 176.487 131.584 176.523L128.42 178.349C128.389 178.358 128.363 178.376 128.344 178.401C128.325 178.426 128.314 178.457 128.314 178.489C128.314 178.52 128.325 178.551 128.344 178.576C128.363 178.602 128.389 178.62 128.42 178.629L131.752 180.555C131.826 180.588 131.906 180.605 131.988 180.604C132.069 180.603 132.149 180.585 132.222 180.55H132.239ZM127.619 183.215L130.783 181.39C130.917 181.311 130.917 181.188 130.783 181.115L127.434 179.2C127.359 179.164 127.277 179.146 127.193 179.146C127.11 179.146 127.028 179.164 126.953 179.2L123.794 181.026C123.66 181.104 123.66 181.227 123.794 181.306L127.126 183.232C127.202 183.264 127.284 183.28 127.366 183.277C127.448 183.274 127.529 183.253 127.602 183.215H127.619ZM123.005 185.881L126.163 184.055C126.191 184.045 126.216 184.027 126.233 184.002C126.251 183.977 126.26 183.948 126.26 183.918C126.26 183.888 126.251 183.859 126.233 183.834C126.216 183.809 126.191 183.791 126.163 183.781L122.803 181.854C122.729 181.816 122.646 181.795 122.562 181.795C122.478 181.795 122.396 181.816 122.321 181.854L119.174 183.68C119.04 183.758 119.04 183.882 119.174 183.96L122.534 185.886C122.606 185.917 122.684 185.933 122.762 185.932C122.84 185.931 122.917 185.913 122.988 185.881H123.005ZM118.385 188.546L121.543 186.721C121.677 186.648 121.683 186.519 121.543 186.446L118.183 184.52C118.108 184.484 118.026 184.466 117.942 184.466C117.859 184.466 117.777 184.484 117.701 184.52L114.543 186.34C114.409 186.418 114.403 186.542 114.543 186.62L117.875 188.546C117.952 188.584 118.036 188.604 118.121 188.604C118.207 188.604 118.291 188.584 118.368 188.546H118.385ZM141.552 169.68L144.716 167.854C144.746 167.846 144.773 167.827 144.792 167.802C144.811 167.777 144.821 167.746 144.821 167.714C144.821 167.683 144.811 167.652 144.792 167.627C144.773 167.601 144.746 167.583 144.716 167.574L141.356 165.654C141.282 165.615 141.199 165.595 141.115 165.595C141.031 165.595 140.949 165.615 140.874 165.654L137.761 167.44C137.626 167.518 137.626 167.642 137.761 167.714L141.093 169.641C141.162 169.68 141.239 169.703 141.318 169.71C141.397 169.717 141.477 169.706 141.552 169.68ZM136.842 177.901L143.887 173.83C144.021 173.751 144.021 173.628 143.887 173.555L135.789 168.879C135.714 168.843 135.632 168.825 135.549 168.825C135.465 168.825 135.383 168.843 135.308 168.879L131.662 170.985C131.528 171.063 131.528 171.186 131.662 171.265L135.952 173.74C135.98 173.75 136.005 173.769 136.022 173.793C136.039 173.818 136.049 173.847 136.049 173.877C136.049 173.907 136.039 173.937 136.022 173.961C136.005 173.986 135.98 174.004 135.952 174.014L133.034 175.694C132.9 175.773 132.9 175.896 133.034 175.974L136.394 177.895C136.465 177.927 136.542 177.942 136.62 177.94C136.697 177.938 136.773 177.919 136.842 177.884V177.901ZM114.509 175.392L111.351 177.218C111.323 177.228 111.298 177.246 111.281 177.271C111.264 177.295 111.254 177.325 111.254 177.355C111.254 177.385 111.264 177.414 111.281 177.439C111.298 177.463 111.323 177.482 111.351 177.492L114.683 179.418C114.758 179.454 114.841 179.473 114.924 179.473C115.007 179.473 115.089 179.454 115.165 179.418L118.329 177.593C118.359 177.584 118.386 177.566 118.405 177.541C118.424 177.515 118.434 177.484 118.434 177.453C118.434 177.421 118.424 177.39 118.405 177.365C118.386 177.34 118.359 177.322 118.329 177.313L114.997 175.386C114.922 175.348 114.839 175.327 114.754 175.325C114.67 175.323 114.586 175.34 114.509 175.375V175.392ZM109.895 178.058L106.731 179.883C106.597 179.962 106.597 180.085 106.731 180.158L110.091 182.084C110.166 182.12 110.249 182.138 110.332 182.138C110.415 182.138 110.497 182.12 110.573 182.084L113.731 180.258C113.865 180.18 113.865 180.057 113.731 179.978L110.371 178.052C110.298 178.013 110.217 177.991 110.134 177.99C110.052 177.988 109.97 178.005 109.895 178.041V178.058ZM85.5631 207.2C85.6383 207.236 85.7205 207.254 85.8039 207.254C85.8872 207.254 85.9694 207.236 86.0447 207.2L89.2031 205.374C89.3375 205.296 89.3431 205.173 89.2031 205.094L85.8431 203.174C85.7687 203.135 85.6861 203.115 85.6023 203.115C85.5184 203.115 85.4358 203.135 85.3615 203.174L82.2031 204.999C82.0687 205.078 82.0631 205.201 82.2031 205.274L85.5631 207.2ZM72.9519 199.36L69.7935 201.18C69.6591 201.258 69.6535 201.382 69.7935 201.46L73.1255 203.386C73.2007 203.422 73.2829 203.441 73.3663 203.441C73.4496 203.441 73.5318 203.422 73.6071 203.386L76.7655 201.561C76.8999 201.488 76.9055 201.359 76.7655 201.286L73.4055 199.36C73.3348 199.326 73.2572 199.308 73.1787 199.308C73.1001 199.308 73.0226 199.326 72.9519 199.36ZM79.5879 205.15C79.6622 205.189 79.7448 205.209 79.8287 205.209C79.9125 205.209 79.9951 205.189 80.0695 205.15L83.2279 203.325C83.3623 203.246 83.3623 203.123 83.2279 203.05L79.8679 201.124C79.7935 201.085 79.7109 201.065 79.6271 201.065C79.5432 201.065 79.4606 201.085 79.3863 201.124L76.2279 202.95C76.0935 203.028 76.0935 203.151 76.2279 203.23L79.5879 205.15ZM93.2407 208.544L96.3991 206.718C96.4274 206.708 96.4519 206.69 96.4693 206.665C96.4866 206.641 96.4959 206.611 96.4959 206.581C96.4959 206.551 96.4866 206.522 96.4693 206.497C96.4519 206.473 96.4274 206.454 96.3991 206.444L93.0391 204.518C92.9638 204.482 92.8816 204.463 92.7983 204.463C92.715 204.463 92.6327 204.482 92.5575 204.518L89.3991 206.338C89.2647 206.416 89.2647 206.539 89.3991 206.618L92.7591 208.544C92.8334 208.582 92.9153 208.602 92.9986 208.604C93.0819 208.606 93.1646 208.589 93.2407 208.555V208.544ZM88.1391 211.215C88.2143 211.251 88.2966 211.27 88.3799 211.27C88.4632 211.27 88.5454 211.251 88.6207 211.215L91.7791 209.39C91.9135 209.317 91.9191 209.188 91.7791 209.115L88.4807 207.2C88.4054 207.164 88.3232 207.146 88.2399 207.146C88.1566 207.146 88.0743 207.164 87.9991 207.2L84.8407 209.02C84.7063 209.098 84.7007 209.222 84.8407 209.3L88.1391 211.215ZM77.5719 196.689L74.4079 198.514C74.3774 198.523 74.3507 198.541 74.3316 198.567C74.3126 198.592 74.3023 198.623 74.3023 198.654C74.3023 198.686 74.3126 198.717 74.3316 198.742C74.3507 198.767 74.3774 198.786 74.4079 198.794L77.7399 200.721C77.8151 200.757 77.8973 200.775 77.9807 200.775C78.064 200.775 78.1462 200.757 78.2215 200.721L81.3799 198.895C81.5143 198.817 81.5143 198.694 81.3799 198.621L78.0199 196.694C77.9494 196.662 77.8727 196.646 77.7952 196.647C77.7178 196.648 77.6415 196.666 77.5719 196.7V196.689ZM100.655 183.361L97.4967 185.186C97.3623 185.265 97.3623 185.388 97.4967 185.461L100.857 187.387C100.931 187.426 101.014 187.446 101.097 187.446C101.181 187.446 101.264 187.426 101.338 187.387L104.497 185.562C104.631 185.483 104.631 185.36 104.497 185.282L101.137 183.361C101.061 183.324 100.978 183.305 100.894 183.307C100.811 183.309 100.729 183.332 100.655 183.372V183.361ZM82.1751 194.001L79.0167 195.826C78.8823 195.905 78.8823 196.028 79.0167 196.106L82.3487 198.027C82.423 198.066 82.5056 198.086 82.5895 198.086C82.6733 198.086 82.7559 198.066 82.8303 198.027L85.9943 196.202C86.1287 196.123 86.1287 196 85.9943 195.927L82.6623 194.001C82.5853 193.971 82.5028 193.959 82.4205 193.964C82.3382 193.97 82.2582 193.994 82.1863 194.034L82.1751 194.001ZM105.281 180.706L102.117 182.56C101.982 182.638 101.977 182.762 102.117 182.834L105.449 184.761C105.523 184.8 105.606 184.82 105.689 184.82C105.773 184.82 105.856 184.8 105.93 184.761L109.089 182.935C109.223 182.857 109.229 182.734 109.089 182.655L105.729 180.734C105.661 180.697 105.585 180.675 105.508 180.67C105.43 180.665 105.353 180.677 105.281 180.706ZM96.0463 186.038L92.8879 187.863C92.7535 187.942 92.7479 188.065 92.8879 188.143L96.2479 190.064C96.3222 190.103 96.4048 190.123 96.4887 190.123C96.5725 190.123 96.6551 190.103 96.7295 190.064L99.8879 188.238C100.022 188.16 100.028 188.037 99.8879 187.958L96.5559 186.038C96.4774 185.993 96.3886 185.969 96.2983 185.969C96.2079 185.969 96.1192 185.993 96.0407 186.038H96.0463ZM91.4207 188.72L88.2623 190.546C88.1279 190.624 88.1279 190.747 88.2623 190.826L91.6223 192.746C91.6966 192.785 91.7792 192.805 91.8631 192.805C91.9469 192.805 92.0295 192.785 92.1039 192.746L95.2623 190.921C95.3967 190.842 95.3967 190.719 95.2623 190.646L91.9023 188.72C91.8279 188.681 91.7453 188.661 91.6615 188.661C91.5776 188.661 91.495 188.681 91.4207 188.72ZM86.8007 191.369L83.6479 193.2C83.5135 193.278 83.5079 193.402 83.6479 193.48L86.9799 195.401C87.0542 195.44 87.1368 195.46 87.2207 195.46C87.3045 195.46 87.3871 195.44 87.4615 195.401L90.6199 193.575C90.7543 193.497 90.7599 193.374 90.6199 193.301L87.2879 191.374C87.2123 191.337 87.1293 191.317 87.0449 191.316C86.9605 191.315 86.877 191.333 86.8007 191.369ZM109.128 193.878L112.286 192.058C112.421 191.979 112.426 191.856 112.286 191.778L108.965 189.84C108.89 189.804 108.808 189.786 108.725 189.786C108.641 189.786 108.559 189.804 108.484 189.84L105.325 191.66C105.191 191.738 105.185 191.862 105.325 191.94L108.685 193.866C108.755 193.899 108.831 193.917 108.908 193.919C108.985 193.921 109.062 193.907 109.133 193.878H109.128ZM150.96 154.33L147.801 156.15C147.667 156.229 147.661 156.352 147.801 156.43L151.133 158.357C151.209 158.393 151.291 158.411 151.374 158.411C151.458 158.411 151.54 158.393 151.615 158.357L154.773 156.531C154.908 156.458 154.913 156.33 154.773 156.257L151.441 154.33C151.368 154.293 151.286 154.273 151.203 154.273C151.121 154.273 151.039 154.293 150.965 154.33H150.96ZM145.36 157.556L142.241 159.382C142.212 159.392 142.188 159.41 142.17 159.435C142.153 159.459 142.144 159.489 142.144 159.519C142.144 159.549 142.153 159.578 142.17 159.603C142.188 159.627 142.212 159.646 142.241 159.656L145.573 161.582C145.648 161.618 145.73 161.637 145.813 161.637C145.897 161.637 145.979 161.618 146.054 161.582L149.213 159.762C149.347 159.684 149.347 159.561 149.213 159.482L145.853 157.556C145.778 157.521 145.697 157.503 145.615 157.503C145.532 157.503 145.451 157.521 145.377 157.556H145.36ZM155.563 151.659L152.405 153.485C152.27 153.563 152.27 153.686 152.405 153.765L155.765 155.691C155.84 155.727 155.922 155.746 156.005 155.746C156.089 155.746 156.171 155.727 156.246 155.691L159.405 153.866C159.539 153.787 159.539 153.664 159.405 153.591L156.045 151.665C155.972 151.631 155.893 151.612 155.813 151.612C155.733 151.611 155.653 151.627 155.58 151.659H155.563ZM130.861 175.84L134.02 174.014C134.048 174.004 134.073 173.986 134.09 173.961C134.107 173.937 134.117 173.907 134.117 173.877C134.117 173.847 134.107 173.818 134.09 173.793C134.073 173.769 134.048 173.75 134.02 173.74L130.66 171.814C130.585 171.778 130.502 171.759 130.419 171.759C130.336 171.759 130.253 171.778 130.178 171.814L127.014 173.639C126.984 173.648 126.957 173.666 126.938 173.692C126.919 173.717 126.909 173.748 126.909 173.779C126.909 173.811 126.919 173.842 126.938 173.867C126.957 173.892 126.984 173.911 127.014 173.919L130.346 175.846C130.426 175.886 130.515 175.907 130.605 175.906C130.694 175.905 130.782 175.882 130.861 175.84ZM160.681 148.999C160.606 148.963 160.524 148.945 160.441 148.945C160.357 148.945 160.275 148.963 160.2 148.999L157.041 150.825C156.907 150.903 156.901 151.026 157.041 151.105L160.373 153.031C160.449 153.067 160.531 153.086 160.614 153.086C160.698 153.086 160.78 153.067 160.855 153.031L164.013 151.206C164.148 151.127 164.153 151.004 164.013 150.931L160.681 148.999ZM113.753 191.218L116.912 189.398C117.046 189.319 117.046 189.19 116.912 189.118L113.552 187.191C113.477 187.155 113.394 187.137 113.311 187.137C113.228 187.137 113.145 187.155 113.07 187.191L109.912 189.011C109.777 189.09 109.777 189.213 109.912 189.291L113.272 191.218C113.347 191.253 113.43 191.27 113.513 191.269C113.597 191.268 113.679 191.249 113.753 191.212V191.218ZM170.375 158.525L173.539 156.699C173.567 156.689 173.592 156.671 173.609 156.646C173.627 156.621 173.636 156.592 173.636 156.562C173.636 156.532 173.627 156.503 173.609 156.478C173.592 156.453 173.567 156.435 173.539 156.425L170.179 154.498C170.104 154.463 170.022 154.444 169.938 154.444C169.855 154.444 169.773 154.463 169.697 154.498L166.539 156.318C166.405 156.397 166.405 156.52 166.539 156.598L169.899 158.525C169.973 158.561 170.055 158.58 170.138 158.579C170.22 158.578 170.302 158.557 170.375 158.519V158.525ZM160.995 158.441L164.159 156.615C164.187 156.605 164.212 156.587 164.229 156.562C164.247 156.537 164.256 156.508 164.256 156.478C164.256 156.448 164.247 156.419 164.229 156.394C164.212 156.369 164.187 156.351 164.159 156.341L160.827 154.414C160.752 154.379 160.67 154.36 160.586 154.36C160.503 154.36 160.421 154.379 160.345 154.414L157.187 156.24C157.053 156.318 157.047 156.442 157.187 156.52L160.519 158.446C160.594 158.48 160.676 158.496 160.758 158.494C160.841 158.492 160.921 158.472 160.995 158.435V158.441ZM165.441 151.76C165.368 151.723 165.286 151.703 165.203 151.703C165.121 151.703 165.039 151.723 164.965 151.76L161.801 153.586C161.771 153.594 161.744 153.613 161.725 153.638C161.706 153.663 161.696 153.694 161.696 153.726C161.696 153.757 161.706 153.788 161.725 153.813C161.744 153.839 161.771 153.857 161.801 153.866L165.133 155.792C165.209 155.828 165.291 155.846 165.374 155.846C165.458 155.846 165.54 155.828 165.615 155.792L168.773 153.966C168.802 153.956 168.826 153.938 168.844 153.913C168.861 153.889 168.87 153.859 168.87 153.829C168.87 153.799 168.861 153.77 168.844 153.745C168.826 153.721 168.802 153.702 168.773 153.692L165.441 151.76ZM166.416 151.2L174.513 155.876C174.589 155.912 174.671 155.93 174.754 155.93C174.838 155.93 174.92 155.912 174.995 155.876L178.153 154.05C178.288 153.978 178.293 153.849 178.153 153.776L170.056 149.1C169.981 149.064 169.898 149.046 169.815 149.046C169.732 149.046 169.649 149.064 169.574 149.1L166.416 150.926C166.287 150.982 166.287 151.105 166.416 151.2ZM155.725 157.08L152.567 158.9C152.433 158.978 152.433 159.102 152.567 159.18L155.927 161.106C156.002 161.142 156.085 161.161 156.168 161.161C156.251 161.161 156.333 161.142 156.409 161.106L159.567 159.286C159.701 159.208 159.701 159.079 159.567 159.006L156.207 157.08C156.132 157.044 156.05 157.026 155.966 157.026C155.883 157.026 155.801 157.044 155.725 157.08ZM120.961 177.145L117.802 178.965C117.668 179.043 117.668 179.166 117.802 179.245L121.162 181.171C121.237 181.207 121.32 181.226 121.403 181.226C121.486 181.226 121.569 181.207 121.644 181.171L124.802 179.351C124.937 179.273 124.937 179.144 124.802 179.071L121.442 177.145C121.367 177.109 121.285 177.09 121.201 177.09C121.118 177.09 121.036 177.109 120.961 177.145ZM165.268 161.19C165.343 161.226 165.425 161.245 165.509 161.245C165.592 161.245 165.674 161.226 165.749 161.19L168.908 159.37C169.042 159.292 169.042 159.163 168.908 159.09L165.576 157.164C165.501 157.128 165.418 157.11 165.335 157.11C165.252 157.11 165.169 157.128 165.094 157.164L161.93 158.984C161.9 158.993 161.873 159.011 161.854 159.036C161.835 159.062 161.825 159.092 161.825 159.124C161.825 159.156 161.835 159.186 161.854 159.212C161.873 159.237 161.9 159.255 161.93 159.264L165.268 161.19ZM125.581 174.479L122.422 176.299C122.288 176.378 122.288 176.501 122.422 176.579L125.754 178.506C125.829 178.541 125.912 178.56 125.995 178.56C126.078 178.56 126.161 178.541 126.236 178.506L129.4 176.68C129.428 176.67 129.453 176.651 129.47 176.627C129.487 176.602 129.497 176.573 129.497 176.543C129.497 176.513 129.487 176.483 129.47 176.459C129.453 176.434 129.428 176.416 129.4 176.406L126.04 174.479C125.97 174.446 125.893 174.429 125.816 174.429C125.738 174.429 125.662 174.446 125.592 174.479H125.581ZM90.1607 204.546C90.2359 204.581 90.3181 204.6 90.4015 204.6C90.4848 204.6 90.567 204.581 90.6423 204.546L93.8007 202.72C93.9351 202.642 93.9351 202.518 93.8007 202.44L90.4407 200.514C90.3669 200.476 90.2854 200.457 90.2027 200.457C90.12 200.457 90.0384 200.476 89.9647 200.514L86.8007 202.339C86.6663 202.418 86.6663 202.541 86.8007 202.614L90.1607 204.546ZM84.0007 198.47L80.8423 200.295C80.7079 200.374 80.7023 200.497 80.8423 200.57L84.2023 202.496C84.2766 202.535 84.3592 202.555 84.4431 202.555C84.5269 202.555 84.6095 202.535 84.6839 202.496L87.8423 200.67C87.9767 200.592 87.9823 200.469 87.8423 200.39L84.4823 198.47C84.4123 198.436 84.3358 198.419 84.2583 198.419C84.1808 198.419 84.1042 198.436 84.0343 198.47H84.0007ZM95.2455 201.874L98.4095 200.054C98.4399 200.046 98.4667 200.027 98.4857 200.002C98.5048 199.977 98.5151 199.946 98.5151 199.914C98.5151 199.883 98.5048 199.852 98.4857 199.827C98.4667 199.801 98.4399 199.783 98.4095 199.774L95.0775 197.848C95.0022 197.812 94.92 197.794 94.8367 197.794C94.7533 197.794 94.6711 197.812 94.5959 197.848L91.4375 199.674C91.4091 199.684 91.3846 199.702 91.3673 199.727C91.3499 199.751 91.3406 199.781 91.3406 199.811C91.3406 199.841 91.3499 199.87 91.3673 199.895C91.3846 199.919 91.4091 199.938 91.4375 199.948L94.7695 201.874C94.8473 201.918 94.935 201.941 95.0243 201.941C95.1135 201.941 95.2012 201.918 95.2791 201.874H95.2455ZM99.8655 199.209L103.024 197.389C103.158 197.31 103.164 197.187 103.024 197.109L99.6919 195.182C99.6166 195.147 99.5344 195.128 99.4511 195.128C99.3677 195.128 99.2855 195.147 99.2103 195.182L96.0463 197.008C96.0179 197.018 95.9934 197.037 95.9761 197.061C95.9587 197.086 95.9494 197.115 95.9494 197.145C95.9494 197.175 95.9587 197.205 95.9761 197.229C95.9934 197.254 96.0179 197.272 96.0463 197.282L99.3783 199.209C99.4574 199.255 99.5472 199.279 99.6387 199.279C99.7301 199.279 99.8199 199.255 99.8991 199.209H99.8655ZM104.485 196.543L107.644 194.723C107.778 194.645 107.778 194.522 107.644 194.443L104.284 192.517C104.209 192.481 104.126 192.462 104.043 192.462C103.96 192.462 103.877 192.481 103.802 192.517L100.705 194.32C100.571 194.398 100.571 194.527 100.705 194.6L104.065 196.526C104.135 196.563 104.211 196.586 104.289 196.591C104.367 196.597 104.445 196.586 104.519 196.56L104.485 196.543ZM88.6151 195.804L85.4567 197.63C85.3223 197.708 85.3223 197.831 85.4567 197.904L88.8167 199.83C88.891 199.869 88.9736 199.889 89.0575 199.889C89.1413 199.889 89.2239 199.869 89.2983 199.83L92.4567 198.005C92.5911 197.926 92.5911 197.803 92.4567 197.725L89.0967 195.804C89.0267 195.771 88.9502 195.753 88.8727 195.753C88.7952 195.753 88.7186 195.771 88.6487 195.804H88.6151ZM93.2351 193.138L90.0767 194.964C89.9423 195.042 89.9367 195.166 90.0767 195.238L93.4087 197.165C93.4839 197.201 93.5661 197.219 93.6495 197.219C93.7328 197.219 93.815 197.201 93.8903 197.165L97.0543 195.339C97.1831 195.261 97.1887 195.138 97.0543 195.059L93.6943 193.138C93.6273 193.108 93.5548 193.093 93.4815 193.093C93.4081 193.093 93.3356 193.108 93.2687 193.138H93.2351ZM111.715 182.498L108.557 184.318C108.422 184.397 108.422 184.526 108.557 184.598L111.917 186.525C111.992 186.561 112.074 186.579 112.157 186.579C112.241 186.579 112.323 186.561 112.398 186.525L115.557 184.705C115.691 184.626 115.691 184.503 115.557 184.425L112.197 182.498C112.126 182.462 112.049 182.442 111.969 182.438C111.89 182.434 111.811 182.447 111.737 182.476L111.715 182.498ZM107.101 185.164L103.942 186.99C103.808 187.062 103.802 187.191 103.942 187.264L107.302 189.19C107.377 189.229 107.459 189.249 107.543 189.249C107.627 189.249 107.71 189.229 107.784 189.19L110.942 187.37C111.077 187.292 111.082 187.169 110.942 187.09L107.61 185.164C107.536 185.124 107.454 185.101 107.369 185.097C107.285 185.093 107.201 185.108 107.123 185.142L107.101 185.164ZM116.335 179.833L113.177 181.653C113.042 181.731 113.037 181.854 113.177 181.933L116.537 183.859C116.612 183.895 116.694 183.914 116.777 183.914C116.861 183.914 116.943 183.895 117.018 183.859L120.177 182.039C120.311 181.961 120.317 181.838 120.177 181.759L116.817 179.833C116.746 179.797 116.669 179.776 116.589 179.772C116.51 179.768 116.431 179.781 116.357 179.81L116.335 179.833ZM97.8551 190.473L94.6911 192.298C94.5567 192.377 94.5567 192.5 94.6911 192.573L98.0231 194.499C98.0983 194.535 98.1805 194.554 98.2639 194.554C98.3472 194.554 98.4294 194.535 98.5047 194.499L101.663 192.674C101.797 192.595 101.797 192.472 101.663 192.394L98.3031 190.467C98.1693 190.416 98.021 190.418 97.8887 190.473H97.8551ZM102.469 187.807L99.3111 189.633C99.2827 189.643 99.2582 189.661 99.2409 189.686C99.2235 189.711 99.2142 189.74 99.2142 189.77C99.2142 189.8 99.2235 189.829 99.2409 189.854C99.2582 189.879 99.2827 189.897 99.3111 189.907L102.671 191.834C102.745 191.871 102.826 191.89 102.909 191.89C102.992 191.89 103.073 191.871 103.147 191.834L106.311 190.008C106.445 189.93 106.445 189.806 106.311 189.728L102.951 187.802C102.877 187.768 102.796 187.752 102.715 187.753C102.634 187.754 102.554 187.772 102.481 187.807H102.469ZM97.8215 205.89L100.985 204.064C101.014 204.054 101.038 204.035 101.056 204.011C101.073 203.986 101.082 203.957 101.082 203.927C101.082 203.897 101.073 203.867 101.056 203.843C101.038 203.818 101.014 203.8 100.985 203.79L97.6535 201.863C97.5791 201.824 97.4965 201.804 97.4127 201.804C97.3288 201.804 97.2462 201.824 97.1719 201.863L94.0135 203.683C93.8791 203.762 93.8791 203.885 94.0135 203.963L97.3455 205.89C97.4244 205.93 97.5117 205.951 97.6003 205.951C97.6889 205.951 97.7762 205.93 97.8551 205.89H97.8215ZM72.1175 203.958L68.7575 202.031C68.6822 201.995 68.6 201.977 68.5167 201.977C68.4333 201.977 68.3511 201.995 68.2759 202.031L65.1735 203.84C65.0391 203.918 65.0391 204.042 65.1735 204.12L68.5335 206.046C68.6087 206.082 68.6909 206.101 68.7743 206.101C68.8576 206.101 68.9398 206.082 69.0151 206.046L72.1735 204.221C72.1976 204.207 72.2172 204.187 72.2301 204.162C72.243 204.137 72.2486 204.11 72.2463 204.082C72.2439 204.054 72.2337 204.028 72.2168 204.006C72.2 203.984 72.1771 203.967 72.1511 203.958H72.1175ZM78.5799 205.727L75.2479 203.801C75.1735 203.762 75.0909 203.742 75.0071 203.742C74.9232 203.742 74.8406 203.762 74.7663 203.801L69.9055 206.601C69.7711 206.679 69.7655 206.802 69.9055 206.881L73.2655 208.807C73.3407 208.843 73.4229 208.862 73.5063 208.862C73.5896 208.862 73.6718 208.843 73.7471 208.807L78.6079 206.007C78.7423 205.923 78.7479 205.8 78.6135 205.727H78.5799ZM67.0663 200.2L63.7063 198.274C63.631 198.238 63.5488 198.219 63.4655 198.219C63.3821 198.219 63.2999 198.238 63.2247 198.274L59.3383 200.514C59.2039 200.592 59.1983 200.715 59.3383 200.794L62.6983 202.72C62.7735 202.756 62.8557 202.774 62.9391 202.774C63.0224 202.774 63.1046 202.756 63.1799 202.72L67.0999 200.48C67.2287 200.396 67.2287 200.273 67.0999 200.2H67.0663ZM70.0455 198.475C70.1198 198.514 70.2024 198.534 70.2863 198.534C70.3701 198.534 70.4527 198.514 70.5271 198.475L73.6855 196.65C73.8199 196.571 73.8199 196.448 73.6855 196.37L70.3255 194.449C70.2521 194.41 70.1704 194.39 70.0875 194.39C70.0045 194.39 69.9228 194.41 69.8495 194.449L66.6855 196.274C66.5511 196.353 66.5511 196.476 66.6855 196.549L70.0455 198.475ZM84.5943 207.76L81.2343 205.839C81.1599 205.8 81.0773 205.78 80.9935 205.78C80.9096 205.78 80.827 205.8 80.7527 205.839L74.6767 209.345C74.5423 209.423 74.5423 209.552 74.6767 209.625L78.0367 211.551C78.1119 211.587 78.1941 211.606 78.2775 211.606C78.3608 211.606 78.443 211.587 78.5183 211.551L84.5943 208.046C84.7231 207.973 84.7231 207.85 84.5943 207.76ZM87.1703 211.775L83.8103 209.849C83.735 209.813 83.6528 209.794 83.5695 209.794C83.4861 209.794 83.4039 209.813 83.3287 209.849L79.4423 212.089C79.4139 212.099 79.3894 212.117 79.3721 212.142C79.3547 212.167 79.3454 212.196 79.3454 212.226C79.3454 212.256 79.3547 212.285 79.3721 212.31C79.3894 212.335 79.4139 212.353 79.4423 212.363L82.8023 214.29C82.8766 214.328 82.9592 214.349 83.0431 214.349C83.1269 214.349 83.2095 214.328 83.2839 214.29L87.1703 212.05C87.2991 211.988 87.2991 211.865 87.1703 211.786V211.775ZM104.413 178.64C104.488 178.676 104.57 178.694 104.653 178.694C104.737 178.694 104.819 178.676 104.894 178.64L108.053 176.814C108.081 176.804 108.106 176.786 108.123 176.761C108.14 176.737 108.15 176.707 108.15 176.677C108.15 176.647 108.14 176.618 108.123 176.593C108.106 176.569 108.081 176.55 108.053 176.54L104.693 174.614C104.617 174.578 104.535 174.559 104.452 174.559C104.369 174.559 104.286 174.578 104.211 174.614L101.053 176.434C100.918 176.512 100.918 176.635 101.053 176.714L104.413 178.64ZM95.2007 183.988C95.2744 184.025 95.356 184.045 95.4387 184.045C95.5214 184.045 95.6029 184.025 95.6767 183.988L98.8407 182.168C98.8711 182.159 98.8979 182.141 98.9169 182.116C98.936 182.09 98.9463 182.06 98.9463 182.028C98.9463 181.996 98.936 181.966 98.9169 181.94C98.8979 181.915 98.8711 181.897 98.8407 181.888L95.4807 179.962C95.4054 179.926 95.3232 179.907 95.2399 179.907C95.1566 179.907 95.0743 179.926 94.9991 179.962L91.8407 181.782C91.7063 181.86 91.7063 181.983 91.8407 182.062L95.2007 183.988ZM74.7159 195.81C74.7902 195.848 74.8728 195.869 74.9567 195.869C75.0405 195.869 75.1231 195.848 75.1975 195.81L78.3615 193.984C78.3919 193.975 78.4186 193.957 78.4377 193.932C78.4568 193.906 78.4671 193.876 78.4671 193.844C78.4671 193.812 78.4568 193.782 78.4377 193.756C78.4186 193.731 78.3919 193.713 78.3615 193.704L75.0295 191.783C74.9551 191.744 74.8725 191.724 74.7887 191.724C74.7048 191.724 74.6222 191.744 74.5479 191.783L71.3895 193.609C71.2551 193.687 71.2551 193.81 71.3895 193.883L74.7159 195.81ZM99.8151 181.322C99.8903 181.358 99.9725 181.377 100.056 181.377C100.139 181.377 100.221 181.358 100.297 181.322L103.455 179.502C103.589 179.424 103.595 179.295 103.455 179.222L100.095 177.296C100.02 177.26 99.9376 177.242 99.8543 177.242C99.7709 177.242 99.6887 177.26 99.6135 177.296L96.4551 179.116C96.3207 179.194 96.3151 179.318 96.4551 179.396L99.8151 181.322ZM90.5807 186.654C90.6559 186.689 90.7381 186.708 90.8215 186.708C90.9048 186.708 90.987 186.689 91.0623 186.654L94.2207 184.834C94.3551 184.755 94.3551 184.632 94.2207 184.554L90.8887 182.627C90.8134 182.591 90.7312 182.573 90.6479 182.573C90.5645 182.573 90.4823 182.591 90.4071 182.627L87.2431 184.453C87.2147 184.463 87.1902 184.481 87.1729 184.506C87.1555 184.531 87.1462 184.56 87.1462 184.59C87.1462 184.62 87.1555 184.649 87.1729 184.674C87.1902 184.699 87.2147 184.717 87.2431 184.727L90.5807 186.654ZM89.6007 212.05C89.5254 212.014 89.4432 211.995 89.3599 211.995C89.2766 211.995 89.1943 212.014 89.1191 212.05L84.2583 214.85C84.1239 214.928 84.1183 215.051 84.2583 215.124L87.5903 217.05C87.6655 217.086 87.7477 217.105 87.8311 217.105C87.9144 217.105 87.9966 217.086 88.0719 217.05L92.9327 214.25C92.961 214.24 92.9855 214.222 93.0029 214.197C93.0202 214.173 93.0295 214.143 93.0295 214.113C93.0295 214.083 93.0202 214.054 93.0029 214.029C92.9855 214.005 92.961 213.986 92.9327 213.976L89.6007 212.05ZM83.9615 190.478C84.0367 190.514 84.1189 190.533 84.2023 190.533C84.2856 190.533 84.3678 190.514 84.4431 190.478L87.6015 188.653C87.7359 188.574 87.7359 188.451 87.6015 188.373L84.2415 186.446C84.1662 186.411 84.084 186.392 84.0007 186.392C83.9173 186.392 83.8351 186.411 83.7599 186.446L80.6015 188.272C80.4671 188.35 80.4671 188.474 80.6015 188.546L83.9615 190.478ZM79.3415 193.144C79.4158 193.183 79.4984 193.203 79.5823 193.203C79.6661 193.203 79.7487 193.183 79.8231 193.144L82.9815 191.318C83.1159 191.24 83.1215 191.117 82.9815 191.038L79.6495 189.118C79.5751 189.079 79.4925 189.059 79.4087 189.059C79.3248 189.059 79.2422 189.079 79.1679 189.118L75.9815 190.96C75.8527 191.038 75.8471 191.162 75.9815 191.234L79.3415 193.144ZM175.146 162.658C175.071 162.622 174.989 162.603 174.905 162.603C174.822 162.603 174.74 162.622 174.665 162.658L166.886 167.138C166.858 167.148 166.833 167.166 166.816 167.191C166.799 167.215 166.789 167.245 166.789 167.275C166.789 167.305 166.799 167.334 166.816 167.359C166.833 167.383 166.858 167.402 166.886 167.412L170.246 169.338C170.321 169.377 170.403 169.397 170.487 169.397C170.571 169.397 170.654 169.377 170.728 169.338L178.501 164.858C178.635 164.78 178.641 164.657 178.501 164.578L175.146 162.658ZM164.909 168.56C164.835 168.521 164.753 168.501 164.669 168.501C164.585 168.501 164.502 168.521 164.428 168.56L161.281 170.38C161.146 170.458 161.146 170.582 161.281 170.66L164.613 172.581C164.687 172.62 164.77 172.64 164.853 172.64C164.937 172.64 165.02 172.62 165.094 172.581L168.258 170.755C168.289 170.747 168.315 170.728 168.335 170.703C168.354 170.678 168.364 170.647 168.364 170.615C168.364 170.584 168.354 170.553 168.335 170.528C168.315 170.502 168.289 170.484 168.258 170.475L164.909 168.56ZM102.481 203.224L105.639 201.398C105.773 201.32 105.779 201.197 105.639 201.124L102.307 199.198C102.232 199.162 102.15 199.143 102.066 199.143C101.983 199.143 101.901 199.162 101.825 199.198L98.6615 201.04C98.5327 201.118 98.5271 201.242 98.6615 201.32L101.993 203.246C102.071 203.28 102.155 203.295 102.24 203.291C102.324 203.287 102.406 203.264 102.481 203.224ZM155.681 173.886C155.605 173.85 155.523 173.831 155.44 173.831C155.357 173.831 155.274 173.85 155.199 173.886L152.041 175.711C151.906 175.79 151.901 175.913 152.041 175.991L155.373 177.912C155.447 177.951 155.53 177.971 155.613 177.971C155.697 177.971 155.78 177.951 155.854 177.912L159.013 176.086C159.147 176.008 159.153 175.885 159.013 175.812L155.681 173.886ZM179.761 159.992C179.685 159.956 179.603 159.938 179.52 159.938C179.437 159.938 179.354 159.956 179.279 159.992L176.093 161.84C176.064 161.85 176.04 161.869 176.022 161.893C176.005 161.918 175.996 161.947 175.996 161.977C175.996 162.007 176.005 162.037 176.022 162.061C176.04 162.086 176.064 162.104 176.093 162.114L179.453 164.041C179.528 164.077 179.61 164.095 179.693 164.095C179.777 164.095 179.859 164.077 179.934 164.041L183.093 162.221C183.227 162.142 183.227 162.019 183.093 161.941L179.761 159.992ZM187.713 159.253L179.587 154.56C179.512 154.524 179.43 154.506 179.346 154.506C179.263 154.506 179.181 154.524 179.105 154.56L175.947 156.38C175.813 156.458 175.813 156.582 175.947 156.66L184.045 161.336C184.12 161.372 184.202 161.39 184.285 161.39C184.369 161.39 184.451 161.372 184.526 161.336L187.685 159.516C187.813 159.454 187.819 159.331 187.685 159.253H187.713ZM138.433 183.848C138.358 183.809 138.276 183.789 138.192 183.789C138.108 183.789 138.025 183.809 137.951 183.848L134.059 186.088C133.925 186.166 133.925 186.29 134.059 186.368L137.419 188.294C137.494 188.33 137.577 188.349 137.66 188.349C137.743 188.349 137.825 188.33 137.901 188.294L141.787 186.054C141.921 185.976 141.927 185.853 141.787 185.78L138.433 183.848ZM150.097 177.128C150.022 177.092 149.94 177.074 149.857 177.074C149.773 177.074 149.691 177.092 149.616 177.128L144.755 179.928C144.621 180.006 144.615 180.13 144.755 180.202L148.115 182.129C148.19 182.165 148.273 182.183 148.356 182.183C148.439 182.183 148.521 182.165 148.597 182.129L153.457 179.329C153.592 179.256 153.597 179.127 153.457 179.054L150.097 177.128ZM127.737 190.036C127.661 190 127.579 189.982 127.496 189.982C127.413 189.982 127.33 190 127.255 190.036L101.254 205.05C101.12 205.128 101.114 205.251 101.254 205.324L104.586 207.25C104.661 207.289 104.743 207.309 104.827 207.309C104.911 207.309 104.994 207.289 105.068 207.25L131.041 192.226C131.071 192.217 131.098 192.199 131.117 192.173C131.136 192.148 131.146 192.117 131.146 192.086C131.146 192.054 131.136 192.023 131.117 191.998C131.098 191.973 131.071 191.954 131.041 191.946L127.737 190.036ZM100.297 205.895C100.222 205.856 100.14 205.836 100.056 205.836C99.972 205.836 99.8894 205.856 99.8151 205.895L95.9287 208.135C95.7943 208.214 95.7887 208.337 95.9287 208.415L99.2887 210.336C99.363 210.375 99.4456 210.395 99.5295 210.395C99.6133 210.395 99.6959 210.375 99.7703 210.336L103.69 208.096C103.721 208.087 103.747 208.069 103.767 208.044C103.786 208.018 103.796 207.988 103.796 207.956C103.796 207.924 103.786 207.894 103.767 207.868C103.747 207.843 103.721 207.825 103.69 207.816L100.297 205.895ZM133.107 186.95C133.033 186.912 132.95 186.891 132.866 186.891C132.782 186.891 132.7 186.912 132.625 186.95L128.739 189.19C128.605 189.269 128.599 189.392 128.739 189.47L132.099 191.397C132.174 191.433 132.257 191.451 132.34 191.451C132.423 191.451 132.505 191.433 132.581 191.397L136.467 189.157C136.601 189.084 136.607 188.955 136.467 188.882L133.107 186.95ZM94.9487 208.981C94.8734 208.945 94.7912 208.926 94.7079 208.926C94.6245 208.926 94.5423 208.945 94.4671 208.981L90.5807 211.221C90.4463 211.299 90.4463 211.422 90.5807 211.501L93.9407 213.427C94.0144 213.465 94.096 213.484 94.1787 213.484C94.2614 213.484 94.3429 213.465 94.4167 213.427L98.3087 211.187C98.4431 211.109 98.4431 210.986 98.3087 210.913L94.9487 208.981ZM143.797 180.779C143.723 180.74 143.641 180.72 143.557 180.72C143.473 180.72 143.39 180.74 143.316 180.779L139.429 183.019C139.295 183.098 139.295 183.221 139.429 183.299L142.789 185.22C142.864 185.259 142.946 185.279 143.03 185.279C143.114 185.279 143.197 185.259 143.271 185.22L147.157 182.98C147.292 182.902 147.292 182.778 147.157 182.7L143.797 180.779ZM160.323 171.259C160.249 171.22 160.166 171.2 160.082 171.2C159.998 171.2 159.916 171.22 159.841 171.259L156.649 173.04C156.515 173.118 156.515 173.242 156.649 173.32L160.009 175.241C160.084 175.28 160.166 175.3 160.25 175.3C160.334 175.3 160.417 175.28 160.491 175.241L163.649 173.415C163.784 173.337 163.784 173.214 163.649 173.141L160.323 171.259ZM170.554 163.979L173.718 162.159C173.853 162.081 173.853 161.958 173.718 161.879L170.358 159.953C170.283 159.917 170.201 159.898 170.117 159.898C170.034 159.898 169.952 159.917 169.877 159.953L166.718 161.773C166.584 161.851 166.584 161.98 166.718 162.053L170.078 163.979C170.151 164.004 170.228 164.014 170.304 164.006C170.381 163.998 170.455 163.974 170.521 163.934L170.554 163.979ZM150.825 164.371L153.984 162.551C154.118 162.473 154.118 162.35 153.984 162.271L150.624 160.345C150.549 160.309 150.466 160.29 150.383 160.29C150.3 160.29 150.217 160.309 150.142 160.345L146.984 162.17C146.849 162.249 146.849 162.372 146.984 162.445L150.344 164.371C150.417 164.398 150.495 164.407 150.573 164.4C150.65 164.392 150.725 164.367 150.792 164.326L150.825 164.371ZM139.441 181.899L148.675 176.562C148.703 176.552 148.728 176.534 148.745 176.509C148.763 176.485 148.772 176.455 148.772 176.425C148.772 176.395 148.763 176.366 148.745 176.341C148.728 176.317 148.703 176.298 148.675 176.288L145.315 174.362C145.241 174.323 145.158 174.303 145.074 174.303C144.99 174.303 144.908 174.323 144.833 174.362L135.599 179.693C135.571 179.703 135.546 179.721 135.529 179.746C135.512 179.771 135.502 179.8 135.502 179.83C135.502 179.86 135.512 179.889 135.529 179.914C135.546 179.939 135.571 179.957 135.599 179.967L138.959 181.894C139.034 181.93 139.116 181.95 139.199 181.951C139.283 181.952 139.365 181.934 139.441 181.899ZM165.447 166.606C165.522 166.641 165.605 166.66 165.688 166.66C165.771 166.66 165.853 166.641 165.929 166.606L169.087 164.786C169.221 164.707 169.221 164.584 169.087 164.506L165.727 162.579C165.652 162.543 165.57 162.525 165.486 162.525C165.403 162.525 165.321 162.543 165.245 162.579L162.081 164.405C162.053 164.415 162.029 164.433 162.011 164.458C161.994 164.483 161.985 164.512 161.985 164.542C161.985 164.572 161.994 164.601 162.011 164.626C162.029 164.651 162.053 164.669 162.081 164.679L165.447 166.606ZM161.163 163.85L164.327 162.03C164.456 161.952 164.461 161.829 164.327 161.75L160.995 159.824C160.92 159.788 160.838 159.77 160.754 159.77C160.671 159.77 160.589 159.788 160.513 159.824L157.361 161.65C157.226 161.728 157.221 161.851 157.361 161.93L160.693 163.856C160.764 163.886 160.84 163.901 160.917 163.9C160.994 163.899 161.07 163.882 161.141 163.85H161.163ZM134.843 184.57L138.001 182.745C138.136 182.666 138.136 182.543 138.001 182.465L134.641 180.538C134.566 180.503 134.484 180.484 134.401 180.484C134.317 180.484 134.235 180.503 134.16 180.538L130.996 182.364C130.861 182.442 130.861 182.566 130.996 182.638L134.328 184.565C134.402 184.599 134.482 184.617 134.563 184.617C134.644 184.617 134.725 184.599 134.798 184.565L134.843 184.57ZM155.216 172.48C155.29 172.519 155.373 172.539 155.457 172.539C155.541 172.539 155.623 172.519 155.697 172.48L158.856 170.654C158.99 170.576 158.996 170.453 158.856 170.374L155.524 168.454C155.45 168.415 155.367 168.395 155.283 168.395C155.199 168.395 155.117 168.415 155.042 168.454L151.884 170.279C151.749 170.358 151.744 170.481 151.884 170.559L155.216 172.48ZM111.709 197.876L114.868 196.05C115.002 195.972 115.008 195.849 114.868 195.776L111.536 193.85C111.462 193.811 111.379 193.791 111.295 193.791C111.211 193.791 111.129 193.811 111.054 193.85L107.896 195.675C107.761 195.754 107.756 195.877 107.896 195.955L111.256 197.876C111.325 197.913 111.402 197.934 111.481 197.936C111.559 197.939 111.637 197.924 111.709 197.893V197.876ZM116.329 195.21L119.488 193.385C119.622 193.306 119.622 193.183 119.488 193.11L116.128 191.184C116.054 191.145 115.971 191.125 115.887 191.125C115.803 191.125 115.721 191.145 115.646 191.184L112.488 193.01C112.353 193.088 112.353 193.211 112.488 193.29L115.848 195.21C115.921 195.252 116.003 195.275 116.087 195.278C116.17 195.281 116.254 195.263 116.329 195.227V195.21ZM107.095 200.542L110.253 198.716C110.388 198.638 110.388 198.514 110.253 198.442L106.893 196.515C106.818 196.479 106.736 196.461 106.653 196.461C106.569 196.461 106.487 196.479 106.412 196.515L103.253 198.341C103.119 198.419 103.119 198.542 103.253 198.621L106.613 200.547C106.688 200.585 106.77 200.605 106.853 200.607C106.936 200.609 107.019 200.593 107.095 200.558V200.542ZM125.575 189.902L128.733 188.076C128.868 187.998 128.868 187.874 128.733 187.796L125.373 185.875C125.3 185.836 125.218 185.816 125.135 185.816C125.053 185.816 124.971 185.836 124.897 185.875L121.733 187.701C121.599 187.779 121.599 187.902 121.733 187.975L125.093 189.902C125.167 189.938 125.248 189.956 125.329 189.955C125.411 189.954 125.491 189.934 125.564 189.896L125.575 189.902ZM120.961 192.562L124.119 190.736C124.253 190.658 124.259 190.534 124.119 190.456L120.759 188.535C120.685 188.496 120.602 188.476 120.518 188.476C120.434 188.476 120.352 188.496 120.277 188.535L117.119 190.361C116.985 190.439 116.979 190.562 117.119 190.641L120.479 192.562C120.553 192.6 120.636 192.621 120.72 192.621C120.804 192.621 120.886 192.6 120.961 192.562ZM130.195 187.23L133.359 185.405C133.389 185.396 133.416 185.378 133.435 185.352C133.454 185.327 133.465 185.296 133.465 185.265C133.465 185.233 133.454 185.202 133.435 185.177C133.416 185.152 133.389 185.133 133.359 185.125L129.999 183.204C129.925 183.165 129.842 183.145 129.758 183.145C129.674 183.145 129.592 183.165 129.517 183.204L126.359 185.03C126.225 185.108 126.225 185.231 126.359 185.304L129.691 187.23C129.766 187.27 129.85 187.291 129.935 187.291C130.02 187.291 130.103 187.27 130.178 187.23H130.195ZM153.362 148.96C153.437 148.999 153.519 149.019 153.603 149.019C153.687 149.019 153.77 148.999 153.844 148.96L157.008 147.134C157.142 147.056 157.142 146.933 157.008 146.86L156.123 146.345C156.048 146.309 155.966 146.29 155.882 146.29C155.799 146.29 155.717 146.309 155.641 146.345L152.483 148.17C152.349 148.249 152.349 148.372 152.483 148.45L153.362 148.96ZM130.531 163.576C130.605 163.613 130.686 163.633 130.769 163.633C130.852 163.633 130.933 163.613 131.007 163.576L134.171 161.75C134.305 161.672 134.305 161.549 134.171 161.47L130.811 159.544C130.736 159.508 130.654 159.49 130.57 159.49C130.487 159.49 130.405 159.508 130.329 159.544L127.171 161.37C127.143 161.38 127.118 161.398 127.101 161.423C127.084 161.447 127.074 161.477 127.074 161.507C127.074 161.537 127.084 161.566 127.101 161.591C127.118 161.615 127.143 161.634 127.171 161.644L130.531 163.576ZM139.765 158.245C139.841 158.281 139.923 158.299 140.006 158.299C140.09 158.299 140.172 158.281 140.247 158.245L143.405 156.425C143.54 156.346 143.54 156.223 143.405 156.145L140.045 154.218C139.97 154.183 139.888 154.164 139.805 154.164C139.721 154.164 139.639 154.183 139.564 154.218L136.405 156.044C136.377 156.054 136.353 156.073 136.335 156.097C136.318 156.122 136.309 156.151 136.309 156.181C136.309 156.211 136.318 156.241 136.335 156.265C136.353 156.29 136.377 156.308 136.405 156.318L139.765 158.245ZM124.881 166.83C124.955 166.868 125.038 166.889 125.121 166.889C125.205 166.889 125.288 166.868 125.362 166.83L128.521 165.004C128.655 164.926 128.655 164.802 128.521 164.724L125.161 162.803C125.086 162.764 125.004 162.744 124.92 162.744C124.836 162.744 124.753 162.764 124.679 162.803L121.56 164.64C121.425 164.718 121.425 164.842 121.56 164.92L124.881 166.83ZM135.134 160.91C135.209 160.949 135.291 160.969 135.375 160.969C135.459 160.969 135.542 160.949 135.616 160.91L138.774 159.09C138.909 159.012 138.914 158.889 138.774 158.81L135.414 156.884C135.339 156.848 135.257 156.83 135.173 156.83C135.09 156.83 135.008 156.848 134.933 156.884L131.774 158.71C131.64 158.782 131.634 158.911 131.774 158.984L135.134 160.91ZM115.646 172.161C115.72 172.2 115.801 172.22 115.884 172.22C115.967 172.22 116.049 172.2 116.122 172.161L119.286 170.335C119.421 170.257 119.421 170.134 119.286 170.061L115.926 168.134C115.852 168.096 115.769 168.075 115.685 168.075C115.602 168.075 115.519 168.096 115.445 168.134L112.286 169.96C112.152 170.038 112.152 170.162 112.286 170.24L115.646 172.161ZM120.261 169.495C120.335 169.534 120.418 169.554 120.501 169.554C120.585 169.554 120.668 169.534 120.742 169.495L123.901 167.67C124.035 167.591 124.041 167.468 123.901 167.395L120.569 165.469C120.494 165.43 120.412 165.41 120.328 165.41C120.244 165.41 120.161 165.43 120.087 165.469L116.929 167.294C116.794 167.373 116.789 167.496 116.929 167.574L120.261 169.495ZM144.117 154.308C144.191 154.347 144.274 154.367 144.357 154.367C144.441 154.367 144.524 154.347 144.598 154.308L147.762 152.482C147.891 152.404 147.897 152.281 147.762 152.208L146.877 151.693C146.802 151.657 146.72 151.638 146.637 151.638C146.553 151.638 146.471 151.657 146.396 151.693L143.237 153.513C143.103 153.591 143.097 153.714 143.237 153.793L144.117 154.308ZM157.971 146.311C158.045 146.35 158.128 146.37 158.212 146.37C158.296 146.37 158.378 146.35 158.453 146.311L161.611 144.486C161.745 144.407 161.751 144.284 161.611 144.206L160.721 143.696C160.645 143.66 160.563 143.642 160.48 143.642C160.397 143.642 160.314 143.66 160.239 143.696L157.075 145.522C157.045 145.53 157.018 145.549 156.999 145.574C156.98 145.599 156.969 145.63 156.969 145.662C156.969 145.693 156.98 145.724 156.999 145.749C157.018 145.775 157.045 145.793 157.075 145.802L157.971 146.311ZM164.977 150.354C165.051 150.393 165.134 150.413 165.217 150.413C165.301 150.413 165.384 150.393 165.458 150.354L168.617 148.529C168.751 148.45 168.751 148.327 168.617 148.254L165.257 146.328C165.183 146.289 165.102 146.269 165.019 146.269C164.936 146.269 164.854 146.289 164.781 146.328L161.617 148.154C161.482 148.232 161.482 148.355 161.617 148.434L164.977 150.354ZM175.141 161.28L178.299 159.46C178.433 159.382 178.439 159.258 178.299 159.18L174.967 157.254C174.892 157.218 174.81 157.199 174.726 157.199C174.643 157.199 174.561 157.218 174.485 157.254L171.361 159.068C171.226 159.146 171.221 159.27 171.361 159.348L174.693 161.274C174.763 161.306 174.839 161.323 174.916 161.324C174.993 161.325 175.07 161.31 175.141 161.28ZM148.748 151.654C148.822 151.692 148.905 151.713 148.989 151.713C149.073 151.713 149.155 151.692 149.229 151.654L152.388 149.828C152.522 149.75 152.522 149.626 152.388 149.554L151.497 149.038C151.423 149 151.341 148.979 151.257 148.979C151.173 148.979 151.09 149 151.016 149.038L147.841 150.853C147.706 150.931 147.706 151.054 147.841 151.133L148.748 151.654ZM111.037 174.838C111.112 174.876 111.194 174.897 111.278 174.897C111.362 174.897 111.445 174.876 111.519 174.838L114.677 173.012C114.812 172.934 114.812 172.81 114.677 172.738L111.351 170.8C111.276 170.764 111.194 170.746 111.11 170.746C111.027 170.746 110.945 170.764 110.869 170.8L107.705 172.626C107.577 172.704 107.571 172.827 107.705 172.906L111.037 174.838Z" fill="#455A64"/>
<path d="M127.949 201.975L156.409 185.545C156.889 185.302 157.421 185.175 157.96 185.175C158.499 185.175 159.03 185.302 159.511 185.545L175.841 194.964C176.697 195.462 176.697 196.263 175.841 196.762L147.387 213.186C146.906 213.432 146.373 213.56 145.833 213.56C145.293 213.56 144.76 213.432 144.279 213.186L127.961 203.767C127.121 203.28 127.121 202.468 127.949 201.975Z" fill="#263238"/>
<path d="M123.132 77.4144C114.24 85.4056 106.556 84.9856 101.752 81.284C96.9524 90.5352 89.2692 99.82 80.3764 102.099L75.2973 115.819C75.2973 115.819 78.0189 118.955 78.0189 126.459C77.992 129.604 77.5687 132.733 76.7589 135.772C75.8349 139.474 74.642 143.304 74.642 149.705C74.642 154.039 75.202 158.256 77.4084 162.092C78.74 164.413 80.6575 166.344 82.9692 167.692L75.2468 163.212C72.8116 161.865 70.7887 159.881 69.3948 157.472C67.1996 153.63 66.6396 149.419 66.6396 145.079C66.6396 138.684 67.8324 134.848 68.7564 131.141C69.5618 128.103 69.9795 124.976 69.9996 121.834C69.9996 114.33 67.278 111.194 67.278 111.194L72.3516 97.4736C81.2444 95.1944 88.9276 85.9096 93.7268 76.6584C98.5316 80.36 106.215 80.78 115.108 72.7888L123.132 77.4144Z" fill="#FDB133"/>
<path opacity="0.8" d="M96.5549 78.288L93.7549 76.6584C94.6124 77.3225 95.5539 77.8705 96.5549 78.288Z" fill="#FDB133"/>
<path opacity="0.85" d="M115.12 72.8C107.8 79.3744 101.304 80.2537 96.5557 78.2993L101.752 81.2952C106.557 84.9968 114.24 85.4168 123.133 77.4256L115.12 72.8Z" fill="#FDB133"/>
<path opacity="0.65" d="M93.7385 76.6584C88.9393 85.9096 81.2561 95.1944 72.3633 97.4736L80.3769 102.099C89.2697 99.8201 96.9529 90.5352 101.752 81.284L93.7385 76.6584Z" fill="#FDB133"/>
<path opacity="0.55" d="M72.3636 97.4736L67.29 111.194L75.298 115.819L80.3772 102.099L72.3636 97.4736Z" fill="#FDB133"/>
<path opacity="0.4" d="M77.4089 162.092C75.2137 158.256 74.6425 154.039 74.6425 149.705C74.6425 143.304 75.8353 139.474 76.7593 135.772C77.5691 132.733 77.9925 129.604 78.0193 126.459C78.0193 118.955 75.2977 115.819 75.2977 115.819L67.2897 111.194C67.2897 111.194 70.0113 114.33 70.0113 121.834C69.9838 124.977 69.5586 128.104 68.7457 131.141C67.8217 134.848 66.6289 138.684 66.6289 145.079C66.6289 149.419 67.1889 153.63 69.3953 157.466C70.7891 159.875 72.812 161.859 75.2473 163.206L82.9697 167.686C80.6587 166.34 78.7412 164.411 77.4089 162.092Z" fill="#FDB133"/>
<path opacity="0.05" d="M77.4089 162.092C75.2137 158.256 74.6425 154.039 74.6425 149.705C74.6425 143.304 75.8353 139.474 76.7593 135.772C77.5691 132.733 77.9925 129.604 78.0193 126.459C78.0193 118.955 75.2977 115.819 75.2977 115.819L67.2897 111.194C67.2897 111.194 70.0113 114.33 70.0113 121.834C69.9838 124.977 69.5586 128.104 68.7457 131.141C67.8217 134.848 66.6289 138.684 66.6289 145.079C66.6289 149.419 67.1889 153.63 69.3953 157.466C70.7891 159.875 72.812 161.859 75.2473 163.206L82.9697 167.686C80.6587 166.34 78.7412 164.411 77.4089 162.092Z" fill="#002533"/>
<path d="M101.752 171.489C88.469 171.64 80.8586 168.129 77.4034 162.092C75.2138 158.256 74.6426 154.039 74.6426 149.699C74.6426 143.304 75.8298 139.479 76.7594 135.772C77.5692 132.735 77.9925 129.608 78.0194 126.465C78.0194 118.961 75.2978 115.825 75.2978 115.825L80.377 102.099C89.2698 99.82 96.953 90.5296 101.752 81.284C106.557 84.9856 114.24 85.4056 123.133 77.4144L128.212 85.2544C126.467 89.6425 125.542 94.3139 125.485 99.036C125.438 101.704 125.867 104.359 126.751 106.876C127.675 109.508 128.867 111.966 128.867 118.362C128.853 123.677 127.917 128.95 126.101 133.946C122.64 144.004 115.041 156.296 101.752 171.489Z" fill="#FDB133"/>
<path opacity="0.75" d="M101.752 171.489C88.469 171.64 80.8586 168.129 77.4034 162.092C75.2138 158.256 74.6426 154.039 74.6426 149.699C74.6426 143.304 75.8298 139.479 76.7594 135.772C77.5692 132.735 77.9925 129.608 78.0194 126.465C78.0194 118.961 75.2978 115.825 75.2978 115.825L80.377 102.099C89.2698 99.82 96.953 90.5296 101.752 81.284C106.557 84.9856 114.24 85.4056 123.133 77.4144L128.212 85.2544C126.467 89.6425 125.542 94.3139 125.485 99.036C125.438 101.704 125.867 104.359 126.751 106.876C127.675 109.508 128.867 111.966 128.867 118.362C128.853 123.677 127.917 128.95 126.101 133.946C122.64 144.004 115.041 156.296 101.752 171.489Z" fill="#FDB133"/>
<path d="M100.178 168.039C89.891 167.916 83.2382 165.34 80.4046 160.384C78.803 157.584 78.0918 154.291 78.0918 149.699C78.0914 145.696 78.657 141.712 79.7718 137.867C79.8782 137.441 79.9902 137.027 80.091 136.607C80.9762 133.298 81.4354 129.89 81.4574 126.465C81.4574 120.994 80.147 117.415 79.1054 115.433L83.0254 104.905C92.5454 101.595 99.4278 92.1929 103.073 86.0273C105.037 86.8622 107.15 87.289 109.284 87.2817C113.585 87.2817 117.958 85.6801 122.326 82.5161L124.37 85.6857C122.882 89.9896 122.095 94.5048 122.041 99.0585C121.991 102.121 122.484 105.167 123.497 108.058C123.603 108.36 123.715 108.663 123.827 108.965C124.645 111.205 125.417 113.316 125.417 118.395C125.399 123.327 124.527 128.219 122.841 132.855C119.442 142.722 111.821 154.56 100.178 168.039Z" fill="#FDB133"/>
<path opacity="0.4" d="M100.178 168.039C89.891 167.916 83.2382 165.34 80.4046 160.384C78.803 157.584 78.0918 154.291 78.0918 149.699C78.0914 145.696 78.657 141.712 79.7718 137.867C79.8782 137.441 79.9902 137.027 80.091 136.607C80.9762 133.298 81.4354 129.89 81.4574 126.465C81.4574 120.994 80.147 117.415 79.1054 115.433L83.0254 104.905C92.5454 101.595 99.4278 92.1929 103.073 86.0273C105.037 86.8622 107.15 87.289 109.284 87.2817C113.585 87.2817 117.958 85.6801 122.326 82.5161L124.37 85.6857C122.882 89.9896 122.095 94.5048 122.041 99.0585C121.991 102.121 122.484 105.167 123.497 108.058C123.603 108.36 123.715 108.663 123.827 108.965C124.645 111.205 125.417 113.316 125.417 118.395C125.399 123.327 124.527 128.219 122.841 132.855C119.442 142.722 111.821 154.56 100.178 168.039Z" fill="#FDB133"/>
<path opacity="0.15" d="M100.178 168.039C89.891 167.916 83.2382 165.34 80.4046 160.384C78.803 157.584 78.0918 154.291 78.0918 149.699C78.0914 145.696 78.657 141.712 79.7718 137.867C79.8782 137.441 79.9902 137.027 80.091 136.607C80.9762 133.298 81.4354 129.89 81.4574 126.465C81.4574 120.994 80.147 117.415 79.1054 115.433L83.0254 104.905C92.5454 101.595 99.4278 92.1929 103.073 86.0273C105.037 86.8622 107.15 87.289 109.284 87.2817C113.585 87.2817 117.958 85.6801 122.326 82.5161L124.37 85.6857C122.882 89.9896 122.095 94.5048 122.041 99.0585C121.991 102.121 122.484 105.167 123.497 108.058C123.603 108.36 123.715 108.663 123.827 108.965C124.645 111.205 125.417 113.316 125.417 118.395C125.399 123.327 124.527 128.219 122.841 132.855C119.442 142.722 111.821 154.56 100.178 168.039Z" fill="#002533"/>
<path opacity="0.8" d="M82.7627 163.234C86.2683 166.326 92.0923 167.944 100.179 168.039L95.0211 165.099C90.8602 165.156 86.7185 164.526 82.7627 163.234Z" fill="#FDB133"/>
<path opacity="0.15" d="M121.677 84.1345L124.365 85.6857L122.321 82.5161L121.15 83.3225L121.677 84.1345Z" fill="#002533"/>
<path d="M120.804 106.507C119.791 103.616 119.298 100.569 119.348 97.5073C119.402 92.9536 120.189 88.4384 121.677 84.1345L121.151 83.3225C117.175 85.9489 113.199 87.2817 109.279 87.2817C107.145 87.289 105.032 86.8622 103.069 86.0273C99.4229 92.1873 92.5405 101.595 83.0205 104.905L79.1005 115.433C80.1421 117.415 81.4525 120.994 81.4525 126.465C81.4305 129.89 80.9714 133.298 80.0861 136.607C79.9853 137.027 79.8733 137.441 79.7669 137.867C78.6521 141.712 78.0865 145.696 78.0869 149.699C78.0869 154.291 78.7981 157.584 80.3997 160.384C81.2431 161.826 82.3895 163.068 83.7597 164.024C87.1981 165.592 91.7789 166.413 97.5021 166.488C109.139 153.003 116.761 141.171 120.16 131.303C121.846 126.668 122.717 121.776 122.736 116.844C122.736 111.765 121.957 109.654 121.14 107.414C121.022 107.111 120.91 106.809 120.804 106.507Z" fill="#455A64"/>
<path d="M83.0205 104.905L79.1005 115.433C80.1421 117.415 81.4525 120.994 81.4525 126.465C81.4305 129.89 80.9714 133.298 80.0861 136.606C79.9853 137.026 79.8733 137.441 79.7669 137.866C78.6521 141.712 78.0865 145.695 78.0869 149.699C78.0869 154.291 78.7981 157.584 80.3997 160.384C81.2431 161.826 82.3895 163.068 83.7597 164.024C87.1981 165.592 91.7789 166.413 97.5021 166.488V127.68L103.102 126V86.0271C101.449 88.8289 99.5764 91.4954 97.5021 94.0015C93.7669 98.4983 88.8949 102.861 83.0205 104.905Z" fill="#37474F"/>
<path d="M110.947 113.355C110.887 113.245 110.816 113.142 110.735 113.047L110.707 113.014C110.543 112.836 110.354 112.683 110.147 112.56L108.282 111.485C107.945 111.296 107.583 111.157 107.207 111.07C106.981 111.021 106.753 110.985 106.523 110.964V105.442C106.523 102.67 105.476 100.481 103.651 99.428C101.825 98.3752 99.7305 98.5544 97.5857 99.8088C93.5985 102.11 90.4793 107.727 90.4793 112.594V119.112L86.7609 121.257C86.6503 121.321 86.5454 121.394 86.4473 121.475L86.3465 121.554C86.1944 121.675 86.0701 121.828 85.9822 122.002C85.8943 122.176 85.8447 122.367 85.8369 122.562V144.922C85.839 145.019 85.8521 145.115 85.8761 145.208C85.9933 145.584 86.2417 145.906 86.5761 146.115L86.7833 146.25L87.6961 146.776L88.6537 147.336C89.0276 147.543 89.4322 147.688 89.8521 147.767C90.9979 148.02 92.1961 147.866 93.2401 147.33L110.169 137.558C110.431 137.442 110.657 137.259 110.824 137.027C110.991 136.794 111.094 136.522 111.121 136.237V113.887C111.108 113.698 111.048 113.516 110.947 113.355ZM94.1193 112.594C94.1193 109.032 96.5385 104.63 99.4001 102.978C100.375 102.418 101.248 102.273 101.803 102.598C102.458 102.973 102.844 104.037 102.844 105.442V111.961L98.0337 114.761L94.1137 117.001L94.1193 112.594Z" fill="#263238"/>
<path d="M113.053 114.873C113.026 114.588 112.924 114.315 112.756 114.082C112.589 113.85 112.363 113.667 112.101 113.551L110.236 112.47C109.526 112.108 108.74 111.918 107.943 111.918C107.145 111.918 106.359 112.108 105.649 112.47L88.7206 122.242C88.4584 122.359 88.2321 122.544 88.0648 122.777C87.8976 123.01 87.7953 123.284 87.7686 123.57V145.93C87.7936 146.217 87.8952 146.491 88.0627 146.724C88.2302 146.958 88.4574 147.142 88.7206 147.258L90.5854 148.338C91.2965 148.697 92.082 148.884 92.8786 148.884C93.6751 148.884 94.4606 148.697 95.1718 148.338L112.101 138.561C112.362 138.445 112.588 138.261 112.756 138.029C112.923 137.797 113.025 137.524 113.053 137.239V114.873Z" fill="#FDB133"/>
<path opacity="0.4" d="M90.5858 126L88.721 124.88C87.4498 124.152 87.4498 122.965 88.721 122.231L105.65 112.459C106.36 112.096 107.146 111.907 107.943 111.907C108.74 111.907 109.526 112.096 110.236 112.459L112.101 113.54C113.367 114.268 113.367 115.455 112.101 116.183L95.2002 126C94.4854 126.363 93.6949 126.553 92.893 126.553C92.0911 126.553 91.3006 126.363 90.5858 126Z" fill="#FDB133"/>
<path opacity="0.1" d="M92.8814 126.521V148.882C92.0808 148.894 91.2905 148.701 90.5854 148.322L88.715 147.28C88.4517 147.164 88.2248 146.979 88.0582 146.744C87.8916 146.509 87.7915 146.234 87.7686 145.947V123.57C87.794 123.854 87.8952 124.127 88.0616 124.359C88.228 124.592 88.4536 124.775 88.715 124.891L90.5854 125.972C91.2906 126.35 92.0815 126.539 92.8814 126.521Z" fill="#002533"/>
<path d="M105.202 137.581L101.158 139.916L101.786 132.602C101.304 132.345 100.996 131.718 100.996 130.816C100.996 129.203 101.97 127.333 103.18 126.638C104.39 125.944 105.364 126.678 105.364 128.318C105.339 129.271 105.067 130.202 104.574 131.018L105.202 137.581Z" fill="#455A64"/>
<path d="M105.201 137.581L101.539 135.47L101.158 139.916L105.201 137.581Z" fill="#37474F"/>
<path d="M103.18 126.639C102.3 127.233 101.644 128.104 101.315 129.114L104.575 130.995C105.067 130.179 105.339 129.249 105.364 128.296C105.364 126.678 104.39 125.939 103.18 126.639Z" fill="#37474F"/>
<path d="M108.478 115.36V106.4C108.478 103.6 107.43 101.438 105.605 100.386C103.779 99.3328 101.685 99.5176 99.54 100.766C95.5528 103.068 92.4336 108.685 92.4336 113.551V122.539C92.4499 122.703 92.5106 122.86 92.6093 122.992C92.708 123.124 92.8408 123.227 92.9936 123.29C93.3941 123.491 93.8361 123.596 94.2844 123.596C94.7327 123.596 95.1747 123.491 95.5752 123.29C95.7279 123.227 95.8608 123.124 95.9595 122.992C96.0582 122.86 96.1189 122.703 96.1352 122.539V113.579C96.1352 110.018 98.5544 105.616 101.416 103.964C102.39 103.404 103.27 103.264 103.824 103.583C104.474 103.958 104.866 105.022 104.866 106.428V115.388C104.883 115.55 104.945 115.705 105.043 115.835C105.142 115.965 105.274 116.066 105.426 116.127C105.826 116.329 106.268 116.434 106.716 116.434C107.165 116.434 107.607 116.329 108.007 116.127C108.157 116.064 108.288 115.963 108.387 115.833C108.485 115.703 108.547 115.55 108.567 115.388L108.478 115.36Z" fill="#FDB133"/>
<path d="M130.239 154.677L132.703 153.255L133.678 152.068L131.214 153.49L130.239 154.677Z" fill="#FDB133"/>
<path opacity="0.4" d="M130.239 154.677L132.703 153.255L133.678 152.068L131.214 153.49L130.239 154.677Z" fill="#002533"/>
<path d="M136.942 158.547L139.406 157.125L141.467 155.299L139.003 156.721L136.942 158.547Z" fill="#FDB133"/>
<path opacity="0.4" d="M136.942 158.547L139.406 157.125L141.467 155.299L139.003 156.721L136.942 158.547Z" fill="#002533"/>
<path d="M157.92 163.464C158.503 164.246 158.856 165.175 158.939 166.146C158.361 165.362 158.008 164.434 157.92 163.464ZM163.649 163.537C162.82 157.892 159.79 152.337 156.173 150.22C154.437 149.218 152.813 149.184 151.547 149.934L149.229 151.273L149.094 151.351C148.991 151.407 148.892 151.471 148.798 151.542C148.599 151.672 148.412 151.818 148.238 151.978L148.159 152.051C148.086 152.124 148.014 152.208 147.946 152.286C147.879 152.365 147.773 152.488 147.7 152.589C147.533 152.809 147.381 153.041 147.246 153.283C147.179 153.406 147.106 153.535 147.045 153.67L126.778 141.971L124.314 143.388V144.962L124.527 145.079L124.723 145.197V145.527L124.314 145.762V146.675L127.294 152.975L130.239 154.655L131.214 153.468L133.812 155.025L135.302 157.578L136.948 158.525L139.003 156.699L141.529 158.161L142.38 161.661L146.614 164.108C146.829 165 147.096 165.879 147.414 166.74L147.51 167.014C148.921 170.71 151.161 173.88 153.67 175.342C153.975 175.517 154.293 175.668 154.622 175.795C154.796 175.864 154.973 175.924 155.154 175.974C155.309 176.018 155.466 176.053 155.624 176.081C156.12 176.173 156.629 176.173 157.125 176.081L157.332 176.03C157.43 176.014 157.526 175.985 157.618 175.946L157.836 175.862C157.915 175.833 157.992 175.797 158.066 175.756L158.273 175.65L158.379 175.588L158.43 175.56L160.754 174.222C162.624 173.135 163.839 170.391 163.839 166.51C163.841 165.51 163.768 164.51 163.621 163.52L163.649 163.537Z" fill="#FDB133"/>
<path d="M157.17 168.224C156.201 167.664 155.412 165.984 155.412 164.5C155.412 163.016 156.201 162.26 157.17 162.82C158.139 163.38 158.934 165.06 158.934 166.55C158.934 168.039 158.144 168.784 157.17 168.224ZM161.163 164.959C160.334 159.314 157.299 153.731 153.681 151.642C152.001 150.679 150.461 150.606 149.201 151.273L149.067 151.351C148.963 151.407 148.864 151.471 148.77 151.542C148.572 151.672 148.384 151.818 148.21 151.978L148.132 152.051C148.059 152.124 147.986 152.208 147.919 152.286C147.852 152.365 147.745 152.488 147.672 152.589C147.505 152.809 147.354 153.041 147.219 153.283C147.152 153.406 147.079 153.535 147.017 153.67C146.654 154.431 146.39 155.237 146.233 156.066L124.32 143.388V144.962L124.533 145.079L124.729 145.197V145.527L124.32 145.762V146.675L127.3 152.975L130.245 154.655L131.22 153.468L133.818 155.025L135.308 157.578L136.954 158.525L139.009 156.699L141.535 158.161L142.386 161.661L146.62 164.108C146.835 165 147.102 165.879 147.42 166.74L147.516 167.014C148.927 170.71 151.167 173.88 153.676 175.342C153.981 175.517 154.299 175.668 154.628 175.795C154.802 175.864 154.979 175.924 155.16 175.974C155.314 176.018 155.471 176.053 155.63 176.081C156.126 176.173 156.635 176.173 157.131 176.081L157.338 176.03C157.436 176.014 157.532 175.985 157.624 175.946L157.842 175.862C157.921 175.833 157.998 175.797 158.072 175.756L158.279 175.65L158.385 175.588L158.436 175.56C160.228 174.44 161.381 171.724 161.381 167.933C161.379 166.938 161.306 165.944 161.163 164.959Z" fill="#FDB133"/>
<path opacity="0.4" d="M158.934 166.527C158.934 168.028 158.144 168.767 157.175 168.207C156.206 167.647 155.411 165.967 155.411 164.483C155.411 162.999 156.201 162.243 157.175 162.803C157.464 162.973 157.717 163.197 157.92 163.464C158.006 164.435 158.358 165.364 158.939 166.146C158.945 166.273 158.944 166.401 158.934 166.527Z" fill="#002533"/>
<path opacity="0.4" d="M163.851 166.527C163.851 170.408 162.636 173.152 160.765 174.238L158.441 175.577C160.233 174.457 161.387 171.741 161.387 167.949C161.384 166.949 161.309 165.949 161.163 164.959C160.334 159.314 157.299 153.731 153.681 151.642C152.001 150.679 150.461 150.606 149.201 151.273L151.52 149.934C152.808 149.184 154.409 149.217 156.145 150.22C159.763 152.32 162.792 157.92 163.621 163.52C163.773 164.515 163.85 165.52 163.851 166.527Z" fill="#FDB133"/>
<path d="M161.386 167.95C161.386 171.741 160.232 174.446 158.44 175.577L160.764 174.238C162.635 173.152 163.85 170.408 163.85 166.527C163.85 166.382 163.85 166.236 163.85 166.096L161.392 167.518C161.38 167.658 161.386 167.804 161.386 167.95Z" fill="#FDB133"/>
<path opacity="0.1" d="M161.386 167.95C161.386 171.741 160.232 174.446 158.44 175.577L160.764 174.238C162.635 173.152 163.85 170.408 163.85 166.527C163.85 166.382 163.85 166.236 163.85 166.096L161.392 167.518C161.38 167.658 161.386 167.804 161.386 167.95Z" fill="#002533"/>
<path opacity="0.15" d="M146.35 157.679V158.48L124.314 145.762L124.723 145.527V145.191L146.35 157.679Z" fill="#002533"/>
<path opacity="0.15" d="M146.35 158.015V158.48L124.314 145.762L124.723 145.527V145.521L146.35 158.015Z" fill="#002533"/>
<path opacity="0.15" d="M155.938 174.261C155.103 174.238 154.29 173.994 153.58 173.555C149.985 171.478 147.062 165.306 147.062 159.796C147.062 156.582 148.036 154.196 149.733 153.199C150.92 152.516 152.32 152.6 153.787 153.446C157.377 155.523 160.3 161.694 160.3 167.205C160.3 170.419 159.326 172.805 157.629 173.802C157.117 174.104 156.532 174.262 155.938 174.261ZM151.458 153.154C150.935 153.153 150.421 153.291 149.968 153.552C148.422 154.442 147.504 156.778 147.504 159.796C147.504 165.178 150.304 171.186 153.815 173.197C155.148 173.97 156.402 174.054 157.455 173.449C159.001 172.558 159.919 170.223 159.919 167.205C159.919 161.823 157.119 155.809 153.608 153.804C152.953 153.398 152.201 153.173 151.43 153.154H151.458Z" fill="#002533"/>
<path opacity="0.5" d="M147.045 153.67C146.682 154.431 146.418 155.237 146.261 156.066L124.32 143.388L126.784 141.971L147.045 153.67Z" fill="#FDB133"/>
<path d="M230.721 215.6C230.805 216.367 230.911 218.518 234.809 219.055C238.706 219.593 241.159 218.299 242.201 216.423C243.242 214.547 243.002 213.018 243.164 211.282C243.326 209.546 244.766 208.622 245.18 207.726C245.785 206.41 244.9 204.366 244.9 204.366L230.721 215.6Z" fill="#263238"/>
<path d="M202.256 209.518C202.164 209.832 202.139 210.162 202.183 210.486C202.226 210.81 202.337 211.121 202.508 211.4C203.38 212.09 204.385 212.595 205.459 212.884C206.534 213.173 207.656 213.24 208.757 213.08C211.135 212.756 213.401 211.867 215.365 210.487C216.872 209.478 218.655 208.964 220.467 209.014C222.343 208.953 223.715 208.538 223.86 208.045C224.107 207.177 224.107 206.634 223.698 206.657L202.256 209.518Z" fill="#263238"/>
<path d="M243.97 201.365C243.483 204.921 236.589 204.635 237.149 201.796L235.923 193.167L243.724 193.407L243.97 201.365Z" fill="#FFA8A7"/>
<path d="M230.978 213.853C231.325 213.209 232.327 212.29 232.77 211.714C235.107 208.738 236.517 205.141 236.824 201.37C236.824 201.163 236.863 200.76 237.076 200.631C237.289 200.502 237.496 200.682 237.72 200.782C238.106 200.946 238.513 201.051 238.93 201.096C240.307 201.253 241.836 200.922 242.178 200.967C242.519 201.012 242.53 201.835 242.508 202.731C243.001 202.423 243.163 201.807 243.6 201.449C243.841 201.253 243.947 201.247 243.942 200.928C243.942 200.721 243.942 200.53 243.942 200.323C244.3 200.222 244.597 201.578 244.888 202.614C245.224 203.818 245.644 205.173 245.174 206.394C244.868 207.059 244.493 207.69 244.054 208.275C243.309 209.293 242.825 210.477 242.643 211.725C242.587 212.285 242.643 212.845 242.553 213.371C242.424 214.287 242.035 215.147 241.433 215.848C240.83 216.55 240.039 217.064 239.154 217.33C236.774 218.07 233.207 217.952 231.112 216.294C230.384 215.718 230.63 214.48 230.978 213.853Z" fill="#37474F"/>
<path d="M222.108 200.771C220.215 202.238 217.942 203.101 215.618 202.042L215.058 187.521L222.898 188.927L222.108 200.771Z" fill="#FFA8A7"/>
<path d="M203.84 207.01C204.361 206.842 204.871 206.657 205.375 206.45C206.783 205.876 208.142 205.191 209.44 204.4C210 204.053 210.56 203.689 211.12 203.28C211.68 202.871 212.24 202.429 212.8 201.981C213.092 201.725 213.357 201.44 213.59 201.13C214.062 200.552 214.457 199.916 214.766 199.237C214.813 199.077 214.916 198.939 215.057 198.85C215.152 198.817 215.254 198.81 215.353 198.83C215.451 198.849 215.543 198.895 215.617 198.962C215.752 199.072 215.896 199.17 216.048 199.254L216.508 199.444C216.998 199.644 217.515 199.771 218.042 199.819C220.024 199.993 220.086 199.595 220.17 200.234C220.189 200.472 220.189 200.712 220.17 200.95C221.217 200.777 222.04 200.441 222.085 200.043L222.208 198.778C223.25 198.682 223.328 200.547 223.664 202.642C223.939 204.322 224.348 205.559 223.877 206.808C222.304 208.18 219.526 207.85 217.947 208.107C215.707 208.477 214.66 210.134 211.552 211.21C206.512 212.946 203.37 210.946 202.429 210.09C201.819 209.009 201.696 207.693 203.84 207.01Z" fill="#37474F"/>
<path d="M241.769 114.901C242.167 121.061 242.889 130.082 243.141 137.2C243.612 150.573 243.427 165.822 243.427 165.822C244.175 168.626 244.657 171.495 244.866 174.39C245.185 182.935 245.129 202.121 245.129 202.121C245.129 202.121 241.584 205.688 236.287 202.888C236.287 202.888 231.588 176.008 230.278 167.563C229.024 159.527 226.576 143.483 226.576 143.483L225.456 166.286C226.306 169.87 226.588 173.564 226.291 177.234C226.005 181.154 223.771 200.48 223.771 200.48C221.732 202.39 215.796 201.348 214.497 199.83C214.497 199.83 212.42 171.27 212.184 167.138C211.686 158.217 210.359 124.947 211.025 119.784C211.692 114.621 241.769 114.901 241.769 114.901Z" fill="#263238"/>
<path d="M226.576 143.461L225.02 133.168C225.02 133.168 220.747 132.362 217.622 130.043C217.622 130.043 218.837 132.793 223.564 134.753L225.12 144.34L225.49 166.264L226.576 143.461Z" fill="#002533"/>
<path d="M235.307 73.6008C235.593 74.76 237.547 74.5808 238.421 74.3624C238.939 74.2536 239.399 73.9588 239.715 73.5337C240.031 73.1087 240.18 72.5827 240.135 72.0552C240.577 71.9371 240.975 71.6941 241.283 71.3552C241.489 71.0821 241.608 70.7522 241.622 70.4099C241.636 70.0676 241.545 69.7292 241.361 69.44C241.716 69.1877 241.994 68.8426 242.166 68.4426C242.338 68.0426 242.396 67.6031 242.335 67.172C242.216 66.5481 241.873 65.9889 241.372 65.5984C240.887 65.2057 240.283 64.9903 239.659 64.988C239.457 64.988 239.255 65.3912 239.547 65.4248C240 65.5128 240.428 65.7045 240.795 65.9848C241.178 66.2524 241.474 66.6262 241.647 67.06C241.754 67.4045 241.754 67.7736 241.646 68.118C241.538 68.4623 241.327 68.7653 241.042 68.9864C240.939 68.8581 240.825 68.74 240.7 68.6336C240.311 68.2852 239.8 68.1042 239.278 68.1296C239.085 68.1249 238.895 68.175 238.729 68.2741C238.563 68.3732 238.429 68.5173 238.343 68.6896C238.208 69.1264 238.662 69.496 238.998 69.6864C239.242 69.8243 239.512 69.9086 239.791 69.9338C240.07 69.9589 240.352 69.9242 240.616 69.832C240.66 69.8177 240.703 69.8009 240.745 69.7816C240.774 69.8398 240.801 69.8997 240.823 69.9608C241.126 70.7616 240.639 71.26 239.983 71.484C239.586 70.6608 238.511 70.0616 237.648 70.4928C237.539 70.5406 237.443 70.6147 237.369 70.7086C237.295 70.8024 237.246 70.9131 237.225 71.0307C237.205 71.1483 237.214 71.2692 237.251 71.3825C237.289 71.4958 237.354 71.598 237.441 71.68C237.8 72.019 238.275 72.2074 238.768 72.2064C238.994 72.223 239.22 72.223 239.446 72.2064C239.496 72.5653 239.412 72.93 239.211 73.2312C239.008 73.4609 238.756 73.6423 238.474 73.7625C238.192 73.8826 237.887 73.9383 237.581 73.9256C236.885 73.9814 236.196 73.7622 235.66 73.3152C235.498 73.1752 235.263 73.4272 235.307 73.6008ZM240.42 69.3C240.238 69.3518 240.047 69.3626 239.86 69.3317C239.673 69.3007 239.495 69.2287 239.339 69.1208C239.104 68.964 238.841 68.7344 239.261 68.7064C239.487 68.709 239.709 68.764 239.91 68.867C240.111 68.97 240.286 69.1182 240.42 69.3ZM239.25 71.624C239.013 71.6339 238.775 71.6113 238.544 71.5568C238.376 71.5176 237.643 71.1424 238.018 70.9968C238.303 70.868 238.807 71.1536 239.009 71.3328C239.102 71.4188 239.183 71.5167 239.25 71.624Z" fill="#263238"/>
<path d="M236.668 51.9399C236.79 51.9573 236.912 51.9816 237.032 52.0127C236.946 51.6432 236.988 51.2556 237.151 50.9129C237.313 50.5703 237.587 50.2927 237.928 50.1255C238.363 49.9509 238.849 49.9527 239.283 50.1304C239.716 50.3081 240.064 50.6479 240.252 51.0775L237.715 52.2367C238.539 52.5301 239.226 53.116 239.647 53.8831C240.341 55.3167 239.423 58.3631 238.499 62.1151C237.978 64.4814 237.295 66.809 236.455 69.0815C236.029 70.2015 235.262 70.2015 235.262 70.2015V66.4551L235.424 63.3471C235.424 63.3471 233.431 60.6199 233.212 58.3855C232.927 55.5127 233.532 54.3367 233.532 54.3367L236.668 51.9399Z" fill="#263238"/>
<path d="M222.88 48.72C224.132 48.7222 225.356 49.0958 226.395 49.7935C227.435 50.4911 228.244 51.4815 228.721 52.6393C229.197 53.7971 229.32 55.0703 229.072 56.2976C228.825 57.525 228.219 58.6515 227.332 59.5344C226.444 60.4174 225.314 61.0172 224.086 61.2579C222.857 61.4986 221.585 61.3695 220.429 60.8868C219.274 60.404 218.288 59.5895 217.596 58.5462C216.904 57.5028 216.537 56.2776 216.541 55.0256C216.543 54.1953 216.709 53.3736 217.029 52.6074C217.349 51.8412 217.816 51.1454 218.405 50.5599C218.993 49.9744 219.692 49.5105 220.46 49.1948C221.227 48.8791 222.05 48.7178 222.88 48.72Z" fill="#263238"/>
<path d="M235.307 62.8544C236.057 63.504 236.667 61.824 237.3 61.1744C237.933 60.5248 239.983 59.6232 241.002 61.7848C242.021 63.9464 240.061 66.976 238.521 67.6872C236.281 68.7344 235.262 66.4664 235.262 66.4664V75.8464C232.893 80.1136 227.769 79.1168 225.344 79.716C224.982 78.6252 224.982 77.4468 225.344 76.356V73.304C224.324 73.4999 223.282 73.5545 222.247 73.4664C220.198 73.1416 219.1 71.456 218.49 69.2384C217.504 65.6768 217.297 59.6904 218.669 52.7744C220.965 51.0048 228.721 51.296 233.52 54.32C233.184 60.48 234.556 62.2048 235.307 62.8544Z" fill="#FFA8A7"/>
<path d="M225.35 73.304C225.35 73.304 229.919 72.4024 231.51 71.5568C232.461 71.0765 233.243 70.3163 233.75 69.3784C233.506 70.3136 233.075 71.1898 232.484 71.9544C231.314 73.444 225.355 74.5248 225.355 74.5248L225.35 73.304Z" fill="#F28F8F"/>
<path d="M215.538 59.1527C215.577 59.5141 215.723 59.8555 215.958 60.1327C216.036 60.2386 216.093 60.3583 216.126 60.4855C216.244 61.3798 216.432 62.2635 216.686 63.1287C216.892 63.7031 217.273 64.1985 217.776 64.5451C218.278 64.8916 218.876 65.072 219.486 65.0607C219.809 65.0764 220.132 65.0557 220.45 64.9991C220.474 65.0029 220.498 65.0029 220.522 64.9991C220.801 64.9441 221.069 64.8458 221.318 64.7079H221.362L221.435 64.6631L221.514 64.6015C221.543 64.5881 221.57 64.5691 221.592 64.5455C221.625 64.5282 221.656 64.5055 221.682 64.4783L221.76 64.3999L221.917 64.2487C222.182 63.9543 222.4 63.6198 222.561 63.2575C222.992 62.3447 222.908 61.0511 223.58 60.9223C223.608 60.925 223.636 60.925 223.664 60.9223H223.754C224.672 60.9559 224.538 62.3559 225.03 63.3695C225.303 64.0113 225.766 64.5539 226.357 64.9244C226.948 65.2949 227.638 65.4754 228.334 65.4415H228.586H228.794C228.953 65.4328 229.112 65.4141 229.27 65.3855L229.421 65.3519L229.566 65.3127H229.656C229.85 65.25 230.037 65.1694 230.216 65.0719C230.278 65.0271 230.339 64.9935 230.401 64.9543C230.51 64.8708 230.615 64.7811 230.714 64.6855C230.977 64.4198 231.186 64.1061 231.33 63.7615C231.603 62.9139 231.804 62.0447 231.93 61.1631C231.959 61.0296 232.012 60.9024 232.086 60.7879C232.331 60.5316 232.493 60.2077 232.551 59.8583C232.566 59.6757 232.519 59.4932 232.418 59.3407C232.316 59.1882 232.166 59.0746 231.991 59.0183L231.51 58.9399C229.947 58.7215 227.909 58.5983 226.682 58.9063C225.137 59.2927 224.594 59.7743 223.742 59.7463C222.891 59.7183 222.443 59.1863 220.993 58.6879C219.873 58.2847 217.935 58.2679 216.479 58.3687C216.317 58.3687 216.177 58.3687 216.026 58.4023C215.785 58.3575 215.516 58.7327 215.538 59.1527ZM225.59 60.3063C225.711 60.1615 225.862 60.0449 226.033 59.9647C226.06 59.9476 226.088 59.9327 226.117 59.9199H226.156C226.23 59.8919 226.303 59.8601 226.374 59.8247C226.436 59.8247 226.509 59.7799 226.576 59.7519C226.792 59.6726 227.013 59.6071 227.237 59.5559L227.5 59.4999C227.718 59.4607 227.948 59.4271 228.172 59.4047H228.334C229.807 59.3151 230.72 59.6791 231.045 59.9647C231.37 60.2503 231.202 61.6447 231.045 62.3279C231.045 62.3279 231.045 62.3671 231.045 62.3783C231.05 62.3967 231.05 62.416 231.045 62.4343C231.029 62.5273 231.007 62.619 230.978 62.7087C230.966 62.768 230.949 62.8261 230.927 62.8823C230.894 62.9775 230.86 63.0727 230.821 63.1735C230.812 63.2077 230.796 63.2399 230.776 63.2687C230.771 63.2911 230.762 63.3122 230.748 63.3303C230.748 63.3303 230.748 63.3695 230.748 63.3919L230.703 63.4759C230.703 63.5095 230.67 63.5375 230.647 63.5655C230.632 63.6004 230.611 63.6326 230.586 63.6607C230.568 63.6945 230.548 63.7264 230.524 63.7559C230.288 64.0783 229.973 64.334 229.609 64.4979C229.245 64.6618 228.844 64.7284 228.446 64.6911C228.039 64.7165 227.631 64.6536 227.25 64.5067C226.869 64.3598 226.525 64.1324 226.24 63.8399C225.891 63.4381 225.653 62.9514 225.551 62.4287C225.383 61.6279 225.294 60.7207 225.59 60.3063ZM216.938 59.4215C217.042 59.3213 217.166 59.2448 217.302 59.1975L217.459 59.1359H217.554H217.638H217.694H217.778C217.891 59.1129 218.005 59.096 218.12 59.0855H218.305H218.411C218.441 59.091 218.471 59.091 218.501 59.0855C218.579 59.08 218.658 59.08 218.736 59.0855H218.904C219.131 59.0974 219.357 59.1217 219.582 59.1583C220.629 59.3319 221.721 59.8415 221.995 60.2783C222.27 60.7151 222.191 61.6055 222.04 62.3783C222.005 62.5511 221.958 62.7214 221.9 62.8879C221.896 62.9007 221.896 62.9144 221.9 62.9271C221.902 62.9457 221.902 62.9645 221.9 62.9831C221.9 62.9831 221.9 62.9831 221.9 63.0167C221.892 63.0377 221.882 63.0583 221.872 63.0783C221.872 63.1231 221.833 63.1623 221.81 63.2015C221.794 63.24 221.775 63.2774 221.754 63.3135V63.3471L221.71 63.4255L221.665 63.4871C221.421 63.8342 221.086 64.1073 220.696 64.2762C220.307 64.4451 219.879 64.5035 219.458 64.4447C219.068 64.4353 218.684 64.3356 218.338 64.1535C217.308 63.5935 217.067 62.4287 216.95 61.9135C216.793 61.0847 216.619 59.7071 216.938 59.4215Z" fill="#263238"/>
<path d="M231.896 58.968L238.616 60.4744C238.01 60.6306 237.47 60.9782 237.076 61.4656L231.891 60.48L231.896 58.968Z" fill="#263238"/>
<path d="M216.939 61.7904C217.057 62.3504 217.298 63.5096 218.328 64.0304C218.674 64.2124 219.057 64.3121 219.448 64.3216C219.868 64.3803 220.297 64.322 220.686 64.153C221.075 63.9841 221.41 63.7111 221.654 63.364L221.699 63.3024L221.744 63.224V63.1904C221.765 63.1542 221.784 63.1168 221.8 63.0784C221.8 63.0392 221.839 63 221.862 62.9552C221.872 62.9351 221.881 62.9146 221.89 62.8936C221.89 62.8936 221.89 62.8936 221.89 62.86C221.892 62.8414 221.892 62.8226 221.89 62.804C221.885 62.7913 221.885 62.7775 221.89 62.7648C221.948 62.5982 221.994 62.428 222.03 62.2552C222.181 61.4824 222.265 60.5752 221.985 60.1552C221.705 59.7352 220.618 59.2032 219.571 59.0352C219.347 58.9986 219.121 58.9743 218.894 58.9624H218.726C218.647 58.9569 218.569 58.9569 218.49 58.9624C218.461 58.9678 218.43 58.9678 218.401 58.9624H218.294H218.11C217.995 58.9729 217.881 58.9897 217.768 59.0128H217.684H217.628H217.544H217.449L217.292 59.0744C217.156 59.1217 217.032 59.1981 216.928 59.2984C216.62 59.7072 216.794 61.0848 216.939 61.7904Z" fill="#37474F"/>
<path d="M225.552 62.4064C225.65 62.937 225.888 63.4318 226.241 63.84C226.518 64.1306 226.855 64.3588 227.228 64.5094C227.6 64.66 228.001 64.7296 228.402 64.7136C228.8 64.7508 229.2 64.6842 229.565 64.5203C229.929 64.3564 230.244 64.1007 230.48 63.7784C230.504 63.7488 230.524 63.7169 230.542 63.6832C230.567 63.655 230.588 63.6229 230.603 63.588C230.603 63.56 230.637 63.532 230.659 63.4984L230.704 63.4144C230.704 63.4144 230.704 63.3752 230.704 63.3528C230.718 63.3346 230.727 63.3135 230.732 63.2912C230.752 63.2623 230.768 63.2301 230.777 63.196C230.816 63.0952 230.85 63 230.883 62.9048C230.905 62.8485 230.922 62.7904 230.934 62.7312C230.963 62.6414 230.985 62.5497 231.001 62.4568C231.006 62.4384 231.006 62.4191 231.001 62.4008C231.001 62.4008 231.001 62.3672 231.001 62.3504C231.152 61.6672 231.337 60.3008 231.001 59.9872C230.665 59.6736 229.763 59.3096 228.29 59.4272H228.128C227.904 59.4272 227.674 59.4832 227.456 59.5224L227.193 59.5784C226.969 59.6295 226.748 59.695 226.532 59.7744C226.465 59.7744 226.392 59.8192 226.33 59.8472C226.259 59.8826 226.186 59.9143 226.112 59.9424H226.073C226.044 59.9551 226.016 59.9701 225.989 59.9872C225.818 60.0673 225.667 60.1839 225.546 60.3288C225.294 60.7208 225.384 61.628 225.552 62.4064Z" fill="#37474F"/>
<path d="M217.119 47.8856C217.119 47.8128 217.119 47.7344 217.147 47.656C217.156 47.5113 217.209 47.3727 217.298 47.2584C217.606 46.9392 218.222 47.7456 218.418 47.9304C218.627 48.113 218.846 48.285 219.073 48.4456C219.287 48.552 219.493 48.6736 219.689 48.8096C219.552 48.0485 219.552 47.269 219.689 46.508C219.784 46.004 219.924 44.828 220.551 44.7104C220.921 44.632 221.246 44.9456 221.52 45.2032C224.023 47.544 227.294 46.4632 230.307 46.5584C232.832 46.6368 235.873 47.6784 237.027 50.12C237.547 51.24 237.637 52.4216 236.607 53.1944C235.946 53.6984 235.296 53.676 234.927 54.4768C234.837 54.6728 234.26 57.0584 234.602 57.036C233.983 57.099 233.362 56.9406 232.85 56.5889C232.337 56.2372 231.966 55.715 231.802 55.1152C231.74 54.852 231.6 54.376 231.544 54.1072C231.53 54.0284 231.5 53.9535 231.455 53.8875C231.41 53.8214 231.351 53.7659 231.282 53.7245C231.214 53.6831 231.137 53.6569 231.058 53.6475C230.978 53.6382 230.898 53.646 230.822 53.6704C230.055 53.8384 229.556 54.152 228.834 54.348C226.771 54.9413 224.602 55.0694 222.483 54.7232C220.967 54.4353 219.575 53.6885 218.496 52.584C217.949 51.942 217.543 51.1916 217.306 50.3819C217.068 49.5722 217.004 48.7216 217.119 47.8856Z" fill="#263238"/>
<path d="M226.957 57.7303L229.197 58.0719C229.236 57.7722 229.158 57.4689 228.978 57.2257C228.799 56.9825 228.532 56.8181 228.234 56.7672C228.087 56.7451 227.936 56.7526 227.792 56.7892C227.648 56.8259 227.512 56.891 227.393 56.9806C227.274 57.0703 227.174 57.1828 227.1 57.3116C227.025 57.4403 226.976 57.5827 226.957 57.7303Z" fill="#263238"/>
<path d="M226.442 68.0232L224.577 68.5104C224.603 68.6346 224.655 68.7523 224.727 68.8564C224.8 68.9605 224.893 69.0489 225.001 69.1163C225.108 69.1837 225.228 69.2288 225.354 69.2488C225.479 69.2688 225.607 69.2634 225.731 69.2328C225.982 69.1618 226.197 68.9964 226.329 68.771C226.462 68.5455 226.502 68.2776 226.442 68.0232Z" fill="#F28F8F"/>
<path d="M218.568 57.8591L220.808 57.6127C220.799 57.4658 220.761 57.3223 220.694 57.1908C220.628 57.0593 220.536 56.9426 220.424 56.8478C220.311 56.753 220.18 56.6821 220.039 56.6394C219.899 56.5966 219.751 56.5829 219.604 56.5991C219.303 56.637 219.028 56.7887 218.836 57.023C218.643 57.2573 218.547 57.5565 218.568 57.8591Z" fill="#263238"/>
<path d="M224.001 60.9392L223.698 66.164L220.786 65.4024L223.693 60.8776C223.799 60.8741 223.904 60.8952 224.001 60.9392Z" fill="#F28F8F"/>
<path d="M236.511 64.568C236.51 64.8384 236.589 65.1032 236.738 65.3286C236.888 65.5541 237.101 65.7301 237.35 65.8343C237.6 65.9386 237.875 65.9665 238.14 65.9144C238.406 65.8623 238.65 65.7326 238.841 65.5417C239.033 65.3509 239.164 65.1074 239.217 64.8422C239.27 64.577 239.243 64.302 239.14 64.052C239.037 63.802 238.862 63.5882 238.637 63.4378C238.412 63.2874 238.148 63.2072 237.877 63.2072C237.698 63.2064 237.52 63.2411 237.355 63.3091C237.189 63.3772 237.038 63.4773 236.911 63.6037C236.784 63.7302 236.684 63.8804 236.615 64.0459C236.546 64.2114 236.511 64.3888 236.511 64.568Z" fill="#263238"/>
<path d="M236.365 62.076C236.483 61.6629 236.689 61.2806 236.97 60.956C237.113 60.8197 237.283 60.7161 237.47 60.6523C237.657 60.5885 237.855 60.566 238.051 60.5864C238.051 60.5864 238.09 60.6312 238.051 60.6424C237.9 60.732 237.793 60.7824 237.642 60.8888C237.492 60.9908 237.353 61.1091 237.228 61.2416C237.118 61.3687 237.029 61.5123 236.965 61.6672C236.884 61.8448 236.831 62.0337 236.808 62.2272C236.771 62.532 236.815 62.8411 236.937 63.1232C236.999 63.2796 237.086 63.4251 237.194 63.5544C237.311 63.6492 237.412 63.7605 237.497 63.8848C237.581 64.0584 237.34 64.3552 237.155 64.2544C236.805 64.0343 236.542 63.6999 236.41 63.308C236.246 62.9164 236.23 62.4785 236.365 62.076Z" fill="#263238"/>
<path d="M216.956 80.6792C215.063 81.9224 212.448 83.5352 211.809 85.288C211.171 87.0408 209.329 97.2048 209.127 100.481C210.805 101.271 212.603 101.778 214.447 101.982L216.956 80.6792Z" fill="#455A64"/>
<path d="M239.316 75.8352C244.11 78.4672 248.836 82.3984 249.856 83.9104C249.856 83.9104 247.056 93.2456 244.586 97.6752C242.116 102.105 240.795 115.203 240.795 115.203C240.795 115.203 223.905 120.803 218.613 121.246C213.321 121.688 212.649 119.437 212.649 119.437C212.649 119.437 212.537 104.793 213.769 95.0208C215.001 85.2488 214.732 82.3424 216.972 80.6792C218.423 79.6096 224.672 76.8992 224.672 76.8992V79.6992C228.088 79.7664 239.316 75.8352 239.316 75.8352Z" fill="#37474F"/>
<path d="M223.357 81.1999C223.047 80.5681 222.922 79.8612 222.998 79.1615L224.409 78.1367V79.9119L223.357 81.1999Z" fill="#FDB133"/>
<path opacity="0.25" d="M223.357 81.1999C223.047 80.5681 222.922 79.8612 222.998 79.1615L224.409 78.1367V79.9119L223.357 81.1999Z" fill="#002533"/>
<path d="M226.101 80.1192L229.752 78.036L232.496 80.2088L226.952 82.5104L226.101 80.1192Z" fill="#FDB133"/>
<path opacity="0.25" d="M226.101 80.1192L229.752 78.036L232.496 80.2088L226.952 82.5104L226.101 80.1192Z" fill="#002533"/>
<path d="M235.262 71.8704V72.6096C235.122 73.3096 233.745 74.9336 230.267 76.4904C226.79 78.0472 225.345 79.7104 225.345 79.7104C226.284 79.7355 227.214 79.9075 228.1 80.22C229.685 80.78 232.317 82.796 233.067 82.7736C233.818 82.7512 234.854 80.6792 236.819 78.6128C238.499 76.8768 239.317 75.8128 239.317 75.8128C239.317 75.8128 236.618 71.8872 235.262 71.8704Z" fill="#455A64"/>
<path d="M225.345 79.7104C224.085 79.8504 222.903 80.724 222.595 80.2704C222.287 79.8168 223.357 75.6 225.334 74.3176L225.345 79.7104Z" fill="#455A64"/>
<path d="M213.137 101.808C213.137 101.808 212.986 104.423 212.947 105.319C212.907 106.215 214.403 121.559 214.403 121.559L209.127 123.799C209.127 123.799 208.489 117.885 208.282 114.593C208.111 111.202 208.263 107.802 208.735 104.44C209.15 101.64 209.295 100.565 209.295 100.565C210.53 101.11 211.817 101.526 213.137 101.808Z" fill="#F28F8F"/>
<path d="M209.552 131.298C209.552 131.298 209.552 131.533 209.552 132.418C209.684 133.898 209.981 135.36 210.437 136.774C210.767 137.603 211.557 139.423 211.971 139.636C212.363 139.854 212.816 139.935 213.259 139.866C214.094 139.787 214.967 140.218 215.757 139.838C216.063 139.671 216.386 139.538 216.72 139.44C217.207 139.322 217.767 139.468 218.204 139.21C218.484 139.048 218.658 138.746 218.932 138.578C219.335 138.331 219.867 138.421 220.298 138.225C220.468 138.138 220.619 138.018 220.741 137.872C220.863 137.725 220.954 137.556 221.01 137.374C221.256 136.634 221.01 135.8 220.864 135.061C221.123 134.697 221.255 134.258 221.239 133.812C221.256 132.855 221.145 131.9 220.909 130.973C220.724 130.413 216.894 128.234 216.894 128.234L216.138 127.736C214.531 127.378 212.848 127.649 211.434 128.492C209.188 129.92 209.552 131.298 209.552 131.298Z" fill="#FFA8A7"/>
<path d="M210.588 131.191C209.575 132.871 210.168 135.901 210.174 135.934C209.857 134.788 209.649 133.614 209.553 132.429C209.553 131.533 209.553 131.309 209.553 131.309C209.553 131.309 209.189 129.909 211.406 128.509C212.82 127.665 214.503 127.395 216.11 127.753C216.11 127.753 211.602 129.494 210.588 131.191Z" fill="#F28F8F"/>
<path d="M220.836 135.044C220.479 133.951 219.927 132.933 219.207 132.037C218.781 131.645 218.423 131.146 218.848 131.314C219.274 131.482 219.868 131.578 220.103 131.281C220.338 130.984 220.388 131.499 220.103 131.902C219.817 132.306 220.058 132.614 220.366 133.274C220.602 133.84 220.761 134.435 220.836 135.044Z" fill="#F28F8F"/>
<path d="M248.394 84.0952C249.99 84.6552 250.203 89.0232 249.855 92.9432C249.508 96.8632 246.451 106.131 245.056 109.357C243.494 112.98 242.547 115.069 241.506 116.206C240.464 117.342 238.286 118.278 235.497 119.722C232.977 121.027 231.252 121.688 226.951 123.021C222.102 124.527 220.231 124.617 219.201 125.339C218.171 126.062 217.879 127.63 216.866 128.218L216.11 127.719C214.405 128.129 212.777 128.809 211.288 129.735C210.621 130.149 210.033 130.678 209.552 131.298V132.418C209.552 132.418 208.326 132.933 207.284 130.738C206.243 128.542 205.767 125.25 206.965 123.81C208.163 122.371 211.96 120.4 215.04 119.437C218.12 118.474 219.649 117.466 223.244 115.293C227.075 112.98 229.735 111.44 231.644 110.398C232.367 109.978 232.854 109.469 233.179 108.158C233.436 107.106 234.203 103.992 234.674 101.651C235.424 97.7368 237.11 85.8984 248.394 84.0952Z" fill="#FFA8A7"/>
<path d="M249.855 83.9103C249.855 83.9103 250.6 84.0391 250.701 87.1415C250.834 90.077 250.693 93.0185 250.281 95.9279C249.872 98.3079 247.481 105.336 247.481 105.336C247.481 105.336 240.61 107.576 233.576 104.905C233.576 104.905 235.228 94.7687 235.85 92.0807C236.471 89.3927 245.179 81.0991 249.855 83.9103Z" fill="#455A64"/>
<path d="M225.54 84.1119C225.148 86.6319 224.611 92.6183 224.611 101.069C224.611 103.141 221.587 107.346 220.876 107.257C220.164 107.167 218.86 103.214 218.675 100.918C218.96 95.3623 222.32 86.7439 223.788 83.7983L225.54 84.1119Z" fill="#FDB133"/>
<path opacity="0.15" d="M223.676 84.0391C223.709 83.9569 223.746 83.8765 223.788 83.7983L225.541 84.1119L225.434 84.8511C224.775 84.781 224.157 84.4956 223.676 84.0391Z" fill="#002533"/>
<path d="M226.101 80.1192C225.55 79.9897 224.986 79.9221 224.421 79.9176C223.974 80.2652 223.608 80.7044 223.345 81.2056C223.296 82.0911 223.443 82.9766 223.777 83.7984C224.028 83.9752 224.315 84.0949 224.618 84.149C224.921 84.2032 225.232 84.1906 225.529 84.112C226.147 83.728 226.637 83.1711 226.941 82.5104C226.983 81.6342 226.682 80.7761 226.101 80.1192Z" fill="#FDB133"/>
</svg>
