<svg width="36" height="47" viewBox="0 0 36 47" fill="none" xmlns="http://www.w3.org/2000/svg">
<path d="M15.4496 0.261621C15.119 0.260171 14.7874 0.260586 14.4549 0.262346C12.8545 0.27156 11.2284 0.323634 9.58854 0.399002L10.063 2.97611C11.7708 2.73696 13.643 2.55889 15.5151 2.46986C16.5294 2.42162 17.5374 2.39615 18.5152 2.40257C21.4487 2.42151 24.1103 2.72661 25.8517 3.56228L26.5963 3.91986L26.2639 4.819C23.8347 11.3914 23.2729 17.7322 23.6536 23.9535C23.8415 16.5702 26.3194 10.0032 29.5724 1.5846C25.146 0.673556 20.4084 0.282015 15.4496 0.261517V0.261621ZM17.7929 4.27745C17.0623 4.27817 16.3176 4.2965 15.5729 4.3319C12.0896 4.49755 8.61851 5.00379 6.35622 5.58417C8.88332 11.3899 10.9276 17.2089 12.2477 22.8817C12.4119 22.8749 12.5763 22.8765 12.7404 22.8864C13.0762 22.9068 13.4084 22.9632 13.733 23.051C12.3893 17.73 10.8588 12.8225 8.95629 7.92244L8.5264 6.81532L9.5032 6.60122C11.957 6.06309 14.4897 5.85479 16.9002 5.85386C17.0608 5.85386 17.2211 5.85458 17.3806 5.85634C18.9123 5.87291 20.3884 5.97105 21.7561 6.11878L22.6801 6.21869L22.4106 7.31784C20.8475 13.6913 20.5413 20.536 21.4251 27.0483C21.4398 27.0652 21.4547 27.0819 21.469 27.099C21.7878 26.9607 22.0859 26.8197 22.3638 26.669C21.6739 19.6918 21.9796 12.4937 24.5563 5.01094C23.1184 4.55718 20.9265 4.32 18.518 4.28273C18.2763 4.27902 18.0346 4.27719 17.7929 4.27745ZM29.9084 5.042C27.3209 11.8288 25.4831 17.2675 25.1818 23.1389C26.8567 16.2231 30.0942 10.0235 33.7833 6.04052C32.5027 5.6449 31.2101 5.31181 29.9084 5.042ZM5.25346 6.96025C3.68536 7.3607 2.15354 7.86902 0.671875 8.57135C1.3929 9.34573 2.69636 10.7863 4.27783 12.7009C5.00571 11.773 5.74804 10.8563 6.52231 10.0227C6.11222 8.99379 5.68922 7.97285 5.25346 6.96025ZM17.1248 7.73485C15.9863 7.72801 14.8209 7.76839 13.6514 7.86871C13.5287 9.28517 12.8523 10.6103 12.0444 11.9135C13.3343 15.6891 14.4482 19.5417 15.4511 23.6322C16.987 24.1933 18.5065 24.8566 19.7374 25.6514C19.2802 21.2558 19.3428 16.7519 19.9364 12.3473C18.8594 10.9694 18.2983 9.43922 18.2534 7.7569C17.8772 7.74448 17.501 7.73713 17.1248 7.73485ZM32.3391 10.5285C30.272 13.5619 28.4506 17.361 27.2094 21.4933C29.4883 17.4783 32.2907 14.3466 35.2736 12.1344C34.3018 11.5815 33.3235 11.0462 32.3391 10.5285ZM7.20112 11.7666C5.98125 13.1319 4.77592 14.7707 3.52069 16.3319C6.21964 18.3187 8.51846 20.6715 10.3937 23.3365C10.5102 23.2821 10.6278 23.2331 10.7461 23.1885C9.86856 19.4516 8.66599 15.6276 7.20112 11.7666ZM26.7093 24.6819C25.3387 26.7305 24.0484 27.812 22.2716 28.6749C22.4715 29.6294 22.1747 30.7253 21.4914 31.5634C21.0896 32.0563 20.5845 32.6182 19.8461 32.9833C19.9526 33.0614 20.0614 33.1349 20.1721 33.2035C21.2056 33.8423 23.0314 33.6363 24.7276 32.6808C26.4186 31.7283 27.9292 30.0831 28.489 28.4164C28.7696 27.4795 28.5693 26.9908 28.078 26.2742C27.7283 25.7643 27.2175 25.2503 26.7093 24.682V24.6819ZM12.4929 24.7425C11.5972 24.7324 10.6876 25.0525 9.93593 25.753C8.86685 26.7492 8.04268 28.5258 8.03532 31.5437V31.5644L8.03449 31.5851C7.79041 37.9397 8.16823 40.8715 8.91675 42.4622C9.57742 43.8662 10.6763 44.5383 12.2836 45.7744C12.3602 45.5253 12.44 45.219 12.5148 44.8325C12.7051 43.8491 12.8626 42.4985 12.9624 41.0046C13.1621 38.017 13.1329 34.4296 12.799 31.8481L12.6225 30.4826L13.7105 30.7927C16.3531 31.5456 17.8648 31.6346 18.7424 31.4428C19.6203 31.2509 19.9177 30.871 20.4326 30.2394C20.9166 29.646 20.9076 29.4324 20.8051 29.0984C20.7025 28.7644 20.2911 28.2138 19.5931 27.6871C18.1969 26.6336 15.8246 25.6568 13.6071 24.9284C13.2434 24.8091 12.8691 24.7467 12.4929 24.7425ZM28.2992 31.929C27.4622 32.9388 26.4323 33.7677 25.3505 34.3771C23.5966 35.365 21.6674 35.8168 20.0669 35.159C19.5018 35.4195 19.1736 35.7188 19.008 35.9665C18.7808 36.3065 18.7666 36.5567 18.8436 36.9149C18.9205 37.2731 19.1499 37.6984 19.4336 38.0044C19.7172 38.3104 20.0543 38.4694 20.1825 38.4769C24.0938 38.7069 25.7867 37.3167 27.8956 35.7041C28.5107 35.2339 28.7461 34.2813 28.6871 33.3301C28.6576 32.8545 28.5459 32.4076 28.4169 32.1261C28.3848 32.0543 28.3453 31.988 28.2992 31.929ZM14.4081 32.8707C14.636 35.4659 14.6398 38.4937 14.4618 41.1583C14.3575 42.7187 14.1964 44.1378 13.9779 45.2668C13.8828 45.7582 13.7783 46.1938 13.6519 46.5774L25.9139 45.9081C25.7755 45.2715 25.6344 44.6322 25.4933 43.9926C25.0222 44.1868 24.5407 44.3399 24.0523 44.4506L24.056 44.5262L23.3609 44.5798C22.9328 44.6434 22.4872 44.6785 22.0249 44.6825L15.0153 45.2219L15.2237 44.0203C15.8879 40.1891 15.9492 36.8159 15.5394 33.1257C15.161 33.0498 14.7838 32.9647 14.408 32.8707H14.4081ZM17.0805 33.3556C17.4105 36.6615 17.3708 39.8167 16.8794 43.2114L18.4897 43.0876C18.2372 42.6261 18.0636 42.1054 17.9798 41.5576C17.8715 40.8454 17.9317 40.0526 18.3079 39.397C18.3246 39.3679 18.3425 39.3401 18.3603 39.312C17.9219 38.8104 17.5556 38.1668 17.3896 37.3943C17.2129 36.5719 17.3232 35.565 17.849 34.7782C18.0228 34.5183 18.2329 34.2837 18.4795 34.0725C18.2614 33.8572 18.0701 33.6289 17.905 33.3911C17.6489 33.3933 17.3746 33.3815 17.0805 33.3556ZM28.1697 37.6815C26.2091 39.1571 24.0062 40.5674 20.1111 40.3384C19.984 40.3307 19.8576 40.3094 19.7334 40.2747C19.6304 40.332 19.5754 40.4048 19.5343 40.4763C19.4538 40.6166 19.4063 40.8697 19.4584 41.2127C19.5627 41.8988 20.0873 42.6506 20.5759 42.721C24.0352 43.2193 26.4253 41.8176 27.8765 40.1869C28.5452 39.4355 28.5509 38.955 28.4524 38.4321C28.4031 38.1709 28.2944 37.9176 28.1697 37.6815ZM27.6111 42.7607C27.3789 42.941 27.1405 43.1089 26.8967 43.2639C27.0346 43.8903 27.1729 44.5168 27.3094 45.1433L28.9744 44.7735C28.5448 44.3193 28.2086 43.8465 27.9388 43.3763C27.8182 43.1663 27.712 42.9621 27.6111 42.7607Z" fill="#FFFDF9"/>
</svg>
