<svg width="70" height="71" viewBox="0 0 70 71" fill="none" xmlns="http://www.w3.org/2000/svg">
<path d="M35.0136 18.2705C33.2529 18.2705 31.4851 18.4966 30.2268 18.9119C29.5977 19.1194 29.1005 19.3773 28.802 19.6298C28.5035 19.8822 28.4105 20.0771 28.4091 20.3028L28.4048 20.9744H18.7121V22.0259H51.2879V20.9744H41.5884L41.5909 20.2959C41.5917 20.0705 41.5023 19.8791 41.2078 19.6278C40.9133 19.3767 40.4194 19.1191 39.7929 18.9117C38.5397 18.4969 36.7742 18.2705 35.0136 18.2705ZM18.5058 23.3778L17.7147 30.4379H23.8435L25.377 23.9516L24.9098 30.4379H31.0515L32.348 23.9276L32.1135 30.4379H37.8521L37.5011 23.9398L38.9162 30.4379H45.0902L44.623 23.9516L46.1565 30.4379H52.2853L51.4942 23.3778H18.5058ZM17.5632 31.7898L17.5245 32.1344C18.6229 33.7009 19.6188 34.3435 20.4545 34.3435C21.3121 34.3435 22.3373 33.6758 23.4697 32.0181L23.5238 31.7898H17.5632ZM24.8122 31.7898L24.788 32.1277C25.8904 33.7047 26.889 34.3435 27.7273 34.3435C28.5828 34.3435 29.6052 33.6788 30.7343 32.0299L30.782 31.7898H24.8122ZM32.0649 31.7898L32.0531 32.1167C33.1583 33.7017 34.1597 34.3435 35 34.3435C35.8394 34.3435 36.8394 33.7032 37.9432 32.1221L37.9252 31.7898H32.0648H32.0649ZM39.2107 31.7898L39.2617 32.0242C40.3981 33.6909 41.4211 34.3558 42.2749 34.3535C43.1105 34.3512 44.1091 33.706 45.2121 32.1275L45.1879 31.7898H39.2106H39.2107ZM46.4763 31.7898L46.5303 32.0181C47.6627 33.6758 48.6879 34.3435 49.5455 34.3435C50.3812 34.3435 51.3771 33.7009 52.4755 32.1344L52.4368 31.7898H46.4762H46.4763ZM24.0909 33.4655C22.9783 34.8775 21.7797 35.6954 20.4545 35.6954C19.3961 35.6954 18.4179 35.1767 17.5 34.2485V53.2705H41.5909V37.6482H50.2273V53.2705H52.5V34.2485C51.5821 35.1767 50.6039 35.6954 49.5455 35.6954C48.2205 35.6954 47.022 34.8776 45.9094 33.4659C44.7985 34.8785 43.6039 35.7019 42.2786 35.7054C40.9523 35.709 39.752 34.889 38.6353 33.4667C37.523 34.8779 36.3247 35.6954 35 35.6954C33.6748 35.6954 32.4763 34.8775 31.3636 33.4655C30.251 34.8775 29.0524 35.6954 27.7273 35.6954C26.4021 35.6954 25.2036 34.8775 24.0909 33.4655ZM19.7727 37.6482H39.3182V51.0173H19.7727V37.6482ZM21.1364 39.0001V49.6654H37.9545V39.0001H21.1364ZM42.9545 39.0001V44.3375L48.8636 44.3806V39.0001H42.9545ZM22.2727 40.1267H31.9697C23.7701 40.7276 23.1583 41.9293 22.2727 48.6221V40.1267ZM42.9545 45.6896V46.741L48.8636 46.784V45.7324L42.9545 45.6896V45.6896ZM42.9545 48.0931V53.2705H48.8636V48.1358L42.9545 48.093V48.0931Z" fill="#FFFDF9"/>
</svg>
