<svg width="254" height="250" viewBox="0 0 254 250" fill="none" xmlns="http://www.w3.org/2000/svg">
<path d="M42.0443 125.596C65.2507 112.323 95.8542 105.629 126.606 105.629C157.357 105.629 188.04 112.323 211.401 125.599C234.78 138.884 246.059 156.007 246.155 172.705C246.251 189.397 235.175 206.516 211.955 219.809C188.749 233.094 158.146 239.789 127.394 239.786C96.6426 239.782 65.9601 233.082 42.5983 219.806C19.2203 206.521 7.94036 189.392 7.84437 172.691C7.74841 155.995 18.8245 138.877 42.0443 125.596Z" fill="#A85C00" stroke="#FDB133" stroke-width="4"/>
<path d="M202.651 169.23L163.027 146.73L114.884 174.075C114.597 174.238 114.359 174.473 114.193 174.756C114.028 175.038 113.941 175.359 113.941 175.685C113.941 176.011 114.028 176.332 114.193 176.614C114.359 176.897 114.597 177.132 114.884 177.295L127.889 184.675C119.878 183.735 111.231 185.03 105.029 188.575C95.2447 194.17 95.2955 203.24 105.141 208.835C114.986 214.43 130.901 214.43 140.701 208.835C146.898 205.29 149.144 200.335 147.457 195.78L149.819 197.125C151.253 197.939 152.88 198.368 154.536 198.368C156.192 198.368 157.818 197.939 159.253 197.125L202.661 172.46C202.95 172.296 203.19 172.061 203.356 171.777C203.523 171.492 203.61 171.17 203.609 170.842C203.608 170.514 203.518 170.192 203.35 169.909C203.182 169.626 202.941 169.392 202.651 169.23Z" fill="#FDB133"/>
<path d="M206.619 210.86L180.203 195.86C180.023 195.76 179.874 195.614 179.77 195.438C179.666 195.263 179.611 195.063 179.611 194.86C179.611 194.657 179.666 194.457 179.77 194.281C179.874 194.106 180.023 193.96 180.203 193.86L203.479 180.5C203.658 180.399 203.86 180.346 204.066 180.346C204.272 180.346 204.474 180.399 204.653 180.5L231.673 195.855C231.853 195.955 232.002 196.101 232.106 196.276C232.21 196.452 232.265 196.652 232.265 196.855C232.265 197.058 232.21 197.258 232.106 197.433C232.002 197.609 231.853 197.755 231.673 197.855L208.961 210.855C208.605 211.058 208.202 211.166 207.79 211.167C207.379 211.168 206.975 211.062 206.619 210.86Z" fill="#FDB133"/>
<g opacity="0.1">
<path d="M27.7621 188.135C26.4972 188.85 26.4921 190.015 27.7621 190.73L32.9183 193.66C33.6258 194.017 34.4094 194.203 35.2043 194.203C35.9993 194.203 36.7828 194.017 37.4903 193.66L94.0256 161.5C95.2855 160.785 95.2956 159.62 94.0256 158.9L88.8999 156C88.1919 155.645 87.4086 155.46 86.6139 155.46C85.8193 155.46 85.0359 155.645 84.3279 156L27.7621 188.135Z" fill="#FDB133"/>
</g>
<g opacity="0.1">
<path d="M43.6274 192.75C42.3624 193.465 42.3574 194.63 43.6274 195.345L48.7683 198.275C49.4756 198.632 50.2592 198.819 51.0543 198.819C51.8494 198.819 52.633 198.632 53.3403 198.275L101.646 170.815C102.906 170.1 102.916 168.935 101.646 168.215L96.4898 165.285C95.7816 164.931 94.9983 164.746 94.2038 164.746C93.4093 164.746 92.6261 164.931 91.9178 165.285L43.6274 192.75Z" fill="#FDB133"/>
</g>
<path d="M167.716 68.72L167.655 89.715L168.844 90.39L168.905 69.395L167.716 68.72Z" fill="#FDB133"/>
<path d="M168.905 69.3899V69.3949L168.844 90.3899L169.875 89.7999L169.931 69.9749L168.905 69.3899Z" fill="#A85C00"/>
<path opacity="0.2" d="M168.905 70.335V69.395L167.716 68.72V69.66L168.905 70.335Z" fill="black"/>
<path opacity="0.2" d="M168.905 70.3349L169.733 69.8649L168.905 69.3899V69.3949V70.3349Z" fill="black"/>
<path d="M167.716 46.22L167.655 67.215L168.844 67.885L168.905 46.89L167.716 46.22Z" fill="#FDB133"/>
<path d="M168.905 46.8899L168.844 67.8849L169.875 67.2949L169.931 47.4749L168.905 46.8899Z" fill="#A85C00"/>
<path opacity="0.2" d="M168.905 47.835V46.89L167.716 46.22V47.16L168.905 47.835Z" fill="black"/>
<path opacity="0.2" d="M168.905 47.8349L169.733 47.3649L168.905 46.8899V47.8349Z" fill="black"/>
<path d="M167.716 23.7151L167.655 44.7101L168.844 45.3851L168.905 24.3901L167.716 23.7151Z" fill="#FDB133"/>
<path d="M168.905 24.3899L168.844 45.3849L169.875 44.7949L169.931 24.9749L168.905 24.3899Z" fill="#A85C00"/>
<path opacity="0.2" d="M168.905 25.3351V24.3901L167.716 23.7151V24.6601L168.905 25.3351Z" fill="black"/>
<path opacity="0.2" d="M168.905 25.3349L169.733 24.8599L168.905 24.3899V25.3349Z" fill="black"/>
<path d="M192.669 83.1L193.701 82.51L193.645 103.505L192.608 104.095L192.669 83.1Z" fill="#A85C00"/>
<path d="M192.608 104.095L193.645 103.505L223.398 120.415L222.367 121.005L192.608 104.095Z" fill="#A85C00"/>
<path d="M191.486 81.0852L223.617 99.3452L223.551 123.025L191.42 104.765L191.486 81.0852ZM222.367 121L222.428 100L192.67 83.1002L192.609 104.1L222.367 121Z" fill="#FDB133"/>
<path d="M191.486 81.0851L192.523 80.4951L224.654 98.7551L223.617 99.3451L191.486 81.0851Z" fill="#A85C00"/>
<path d="M223.617 99.3451L224.653 98.7551L224.582 122.435L223.551 123.025L223.617 99.3451Z" fill="#A85C00"/>
<path d="M206.955 91.22L206.894 112.215L208.082 112.89L208.143 91.895L206.955 91.22Z" fill="#FDB133"/>
<path d="M208.143 91.895L208.082 112.89L209.113 112.3L209.169 92.48L208.143 91.895Z" fill="#A85C00"/>
<path opacity="0.2" d="M208.138 92.835L208.143 91.895L206.954 91.22V92.16L208.138 92.835Z" fill="black"/>
<path opacity="0.2" d="M208.138 92.835L208.971 92.365L208.143 91.895L208.138 92.835Z" fill="black"/>
<path d="M192.669 60.5998L193.701 60.0098L193.645 81.0048L192.608 81.5948L192.669 60.5998Z" fill="#A85C00"/>
<path d="M192.608 81.5949L193.645 81.0049L223.398 97.9149L222.367 98.5049L192.608 81.5949Z" fill="#A85C00"/>
<path d="M191.486 58.585L223.617 76.84L223.551 100.525L191.42 82.265L191.486 58.585ZM222.367 98.5L222.428 77.5L192.67 60.6L192.609 81.6L222.367 98.5Z" fill="#FDB133"/>
<path d="M191.486 58.5849L192.523 57.9949L224.654 76.2499L223.617 76.8449L191.486 58.5849Z" fill="#A85C00"/>
<path d="M223.617 76.8448L224.653 76.2498L224.582 99.9348L223.551 100.52L223.617 76.8448Z" fill="#A85C00"/>
<path d="M206.955 68.72L206.894 89.715L208.082 90.39L208.143 69.395L206.955 68.72Z" fill="#FDB133"/>
<path d="M208.143 69.3899V69.3949L208.082 90.3899L209.113 89.7999L209.169 69.9749L208.143 69.3899Z" fill="#A85C00"/>
<path opacity="0.2" d="M208.138 70.335L208.143 69.395L206.954 68.72V69.66L208.138 70.335Z" fill="black"/>
<path opacity="0.2" d="M208.138 70.3349L208.971 69.8649L208.143 69.3899V69.3949L208.138 70.3349Z" fill="black"/>
<path d="M192.669 38.1L193.701 37.51L193.645 58.505L192.608 59.095L192.669 38.1Z" fill="#A85C00"/>
<path d="M192.608 59.0949L193.645 58.5049L223.398 75.4149L222.367 76.0049L192.608 59.0949Z" fill="#A85C00"/>
<path d="M191.486 36.085L223.617 54.34L223.551 78L191.42 59.745L191.486 36.085ZM222.367 76L222.428 55L192.67 38.1L192.609 59.1L222.367 76Z" fill="#FDB133"/>
<path d="M191.486 36.085L192.523 35.49L224.654 53.75L223.617 54.34L191.486 36.085Z" fill="#A85C00"/>
<path d="M223.617 54.34L224.653 53.75L224.582 77.43L223.551 78.02L223.617 54.34Z" fill="#A85C00"/>
<path d="M206.955 46.22L206.894 67.215L208.082 67.885L208.143 46.89L206.955 46.22Z" fill="#FDB133"/>
<path d="M208.143 46.8899L208.082 67.8849L209.113 67.2949L209.169 47.4749L208.143 46.8899Z" fill="#A85C00"/>
<path opacity="0.2" d="M208.138 47.835L208.143 46.89L206.954 46.22V47.16L208.138 47.835Z" fill="black"/>
<path opacity="0.2" d="M208.138 47.8349L208.971 47.3649L208.143 46.8899L208.138 47.8349Z" fill="black"/>
<path d="M153.436 60.6L154.467 60.01L154.406 81.005L153.375 81.595L153.436 60.6Z" fill="#A85C00"/>
<path d="M153.375 81.5949L154.406 81.0049L184.16 97.9149L183.129 98.5049L153.375 81.5949Z" fill="#A85C00"/>
<path d="M152.253 58.585L184.404 76.84L184.333 100.525L152.202 82.265L152.253 58.585ZM183.129 98.5L183.19 77.5L153.416 60.6L153.355 81.6L183.129 98.5Z" fill="#FDB133"/>
<path d="M152.253 58.5849L153.284 57.9949L185.415 76.2499L184.384 76.8449L152.253 58.5849Z" fill="#A85C00"/>
<path d="M184.384 76.845L185.415 76.25L185.344 99.935L184.312 100.52L184.384 76.845Z" fill="#A85C00"/>
<path d="M153.436 38.1L154.467 37.51L154.406 58.505L153.375 59.095L153.436 38.1Z" fill="#A85C00"/>
<path d="M153.375 59.0949L154.406 58.5049L184.16 75.4149L183.129 76.0049L153.375 59.0949Z" fill="#A85C00"/>
<path d="M152.253 36.085L184.404 54.34L184.313 78L152.182 59.745L152.253 36.085ZM183.129 76L183.19 55L153.416 38.1L153.355 59.1L183.129 76Z" fill="#FDB133"/>
<path d="M152.253 36.085L153.284 35.49L185.415 53.75L184.384 54.34L152.253 36.085Z" fill="#A85C00"/>
<path d="M184.384 54.34L185.415 53.75L185.344 77.43L184.312 78.02L184.384 54.34Z" fill="#A85C00"/>
<path d="M153.436 15.6L154.467 15.01L154.406 36.005L153.375 36.595L153.436 15.6Z" fill="#A85C00"/>
<path d="M153.375 36.5949L154.406 36.0049L184.16 52.9149L183.129 53.5049L153.375 36.5949Z" fill="#A85C00"/>
<path d="M152.253 13.5801L184.404 31.8401L184.313 55.5001L152.182 37.2601L152.253 13.5801ZM183.129 53.5001L183.19 32.5001L153.416 15.6001L153.355 36.6001L183.129 53.5001Z" fill="#FDB133"/>
<path d="M152.253 13.58L153.284 12.99L185.415 31.25L184.384 31.84L152.253 13.58Z" fill="#A85C00"/>
<path d="M184.384 31.84L185.415 31.25L185.344 54.93L184.312 55.52L184.384 31.84Z" fill="#A85C00"/>
<path d="M90.1446 33.5549C89.7484 32.1899 86.9392 29.5999 84.1401 29.6549C83.8709 29.661 83.6047 29.7118 83.3527 29.8049L28.9967 60.2499C28.2043 60.7041 27.5453 61.353 27.0841 62.133C26.6228 62.913 26.3751 63.7975 26.3652 64.6999V180.45C26.3652 183.4 29.8196 186.21 33.0658 184.86C33.138 184.839 33.2079 184.81 33.274 184.775L87.63 154.275C88.4266 153.826 89.0886 153.179 89.549 152.397C90.0093 151.616 90.2516 150.728 90.2513 149.825V34.1099C90.2587 33.9194 90.2222 33.7296 90.1446 33.5549Z" fill="#455A64"/>
<path d="M33.9453 76.93C33.9444 76.4782 34.0652 76.0342 34.2955 75.6433C34.5257 75.2525 34.8571 74.9287 35.256 74.705L85.741 46.435C85.939 46.3236 86.1634 46.2655 86.3915 46.2664C86.6196 46.2673 86.8434 46.3272 87.0405 46.4402C87.2376 46.5532 87.4011 46.7152 87.5145 46.91C87.6279 47.1047 87.6873 47.3255 87.6866 47.55V140.89C87.685 141.342 87.5625 141.785 87.3316 142.176C87.1006 142.566 86.7693 142.89 86.3709 143.115L35.8859 171.43C35.688 171.54 35.4642 171.597 35.2368 171.596C35.0095 171.594 34.7865 171.534 34.5902 171.421C34.3938 171.308 34.2309 171.147 34.1178 170.953C34.0046 170.759 33.9452 170.539 33.9453 170.315V76.93Z" fill="#FDB133"/>
<path opacity="0.2" d="M33.9453 76.93C33.9444 76.4782 34.0652 76.0342 34.2955 75.6433C34.5257 75.2525 34.8571 74.9287 35.256 74.705L85.741 46.435C85.939 46.3236 86.1634 46.2655 86.3915 46.2664C86.6196 46.2673 86.8434 46.3272 87.0405 46.4402C87.2376 46.5532 87.4011 46.7152 87.5145 46.91C87.6279 47.1047 87.6873 47.3255 87.6866 47.55V140.89C87.685 141.342 87.5625 141.785 87.3316 142.176C87.1006 142.566 86.7693 142.89 86.3709 143.115L35.8859 171.43C35.688 171.54 35.4642 171.597 35.2368 171.596C35.0095 171.594 34.7865 171.534 34.5902 171.421C34.3938 171.308 34.2309 171.147 34.1178 170.953C34.0046 170.759 33.9452 170.539 33.9453 170.315V76.93Z" fill="black"/>
<path opacity="0.3" d="M26.3555 64.695V180.45C26.3555 183.4 29.8099 186.21 33.056 184.86C32.8609 184.93 32.6515 184.953 32.4457 184.926C32.2398 184.899 32.0435 184.824 31.8735 184.707C31.7034 184.589 31.5646 184.434 31.4689 184.252C31.3732 184.071 31.3234 183.869 31.3237 183.665V67.8949C31.3275 66.8878 31.6313 65.9039 32.1975 65.065L26.9244 62.45C26.5613 63.1451 26.3666 63.9134 26.3555 64.695Z" fill="black"/>
<path opacity="0.1" d="M84.1459 29.65C83.8768 29.6562 83.6106 29.7069 83.3585 29.8L29.0025 60.245C28.1009 60.7583 27.377 61.5265 26.9248 62.45L32.2436 65.065C32.6922 64.3986 33.2922 63.844 33.9962 63.445L88.342 33C88.496 32.9136 88.6665 32.8592 88.8427 32.8405C89.019 32.8217 89.1973 32.8389 89.3665 32.891C89.5357 32.9431 89.6922 33.0289 89.8262 33.1432C89.9602 33.2574 90.0689 33.3976 90.1454 33.555C89.7542 32.185 86.945 29.595 84.1459 29.65Z" fill="#A85C00"/>
<path d="M67.514 52.115C67.895 51.895 68.215 52.065 68.215 52.495C68.2028 52.7327 68.1334 52.9642 68.0123 53.1702C67.8913 53.3763 67.7222 53.551 67.519 53.68L56.851 59.745C56.47 59.96 56.1602 59.78 56.1602 59.345C56.1736 59.1108 56.2426 58.8829 56.3617 58.6797C56.4808 58.4765 56.6467 58.3037 56.846 58.175L67.514 52.115Z" fill="#263238"/>
<path d="M54.1071 59.7301C54.4881 59.5151 54.798 59.6901 54.798 60.1201C54.7861 60.3561 54.7179 60.5859 54.5987 60.791C54.4795 60.996 54.3128 61.1705 54.1122 61.3001C53.7312 61.5151 53.4111 61.3401 53.4111 60.9051C53.4249 60.6692 53.4951 60.4397 53.616 60.2355C53.737 60.0313 53.9052 59.8582 54.1071 59.7301Z" fill="#263238"/>
<path d="M60.9601 51.2301C61.7221 50.8001 62.3368 51.1451 62.3418 52.0051C62.3182 52.477 62.1816 52.9367 61.9433 53.3468C61.7049 53.7569 61.3715 54.1058 60.9702 54.3651C60.2082 54.8001 59.5732 54.4451 59.5732 53.5801C59.6002 53.1086 59.7398 52.65 59.9808 52.2417C60.2218 51.8333 60.5573 51.4867 60.9601 51.2301Z" fill="#263238"/>
<path d="M60.9604 160.205C62.5149 159.32 63.7697 160.025 63.7747 161.785C63.7243 162.745 63.445 163.679 62.9597 164.513C62.4743 165.347 61.7964 166.057 60.9807 166.585C59.4263 167.47 58.1359 166.745 58.1309 164.99C58.1868 164.03 58.4723 163.096 58.9639 162.264C59.4556 161.433 60.1396 160.727 60.9604 160.205Z" fill="#263238"/>
<path d="M100.076 53.41C99.715 52.17 97.1648 49.815 94.6248 49.865C94.3798 49.8725 94.1378 49.9198 93.9085 50.005L44.5817 77.64C43.8616 78.051 43.263 78.6399 42.8451 79.3485C42.4272 80.0571 42.2046 80.8608 42.1992 81.68V186.745C42.1992 189.425 45.3336 191.98 48.2952 190.745C48.362 190.727 48.4267 190.701 48.4883 190.67L97.8405 163C98.5644 162.593 99.1661 162.005 99.5845 161.296C100.003 160.586 100.223 159.78 100.223 158.96V53.96C100.223 53.7673 100.172 53.5779 100.076 53.41Z" fill="#FDB133"/>
<path opacity="0.2" d="M42.1992 81.6801V186.745C42.1992 189.425 45.3336 191.98 48.2952 190.745C48.118 190.806 47.9286 190.824 47.7429 190.798C47.5571 190.772 47.3804 190.702 47.2277 190.595C47.0749 190.487 46.9505 190.346 46.8649 190.181C46.7793 190.017 46.735 189.835 46.7357 189.65V84.5801C46.7329 83.6631 47.005 82.7656 47.518 82.0001L42.6717 79.6401C42.3583 80.2758 42.1967 80.9736 42.1992 81.6801Z" fill="#A85C00"/>
<path opacity="0.4" d="M94.6498 49.865C94.4049 49.8725 94.1628 49.9198 93.9336 50.005L44.5814 77.64C43.76 78.1042 43.0997 78.8012 42.6865 79.64L47.5176 82C47.9224 81.3934 48.4672 80.8897 49.1076 80.53L98.4599 52.895C98.5994 52.8169 98.7538 52.7679 98.9134 52.7508C99.073 52.7338 99.2345 52.7492 99.3878 52.7961C99.5412 52.843 99.6831 52.9203 99.8048 53.0233C99.9266 53.1263 100.026 53.2529 100.096 53.395C99.74 52.17 97.1898 49.815 94.6498 49.865Z" fill="#A85C00"/>
<path opacity="0.3" d="M100.076 53.4099C99.715 52.1749 97.1648 49.8199 94.6248 49.8699C94.3798 49.8774 94.1378 49.9247 93.9085 50.0099L44.5817 77.6399C43.8616 78.0509 43.263 78.6398 42.8451 79.3484C42.4272 80.0569 42.2046 80.8606 42.1992 81.6799V186.745C42.1992 189.425 45.3336 191.98 48.2952 190.745C48.362 190.726 48.4267 190.701 48.4883 190.67L97.8405 163C98.5644 162.593 99.1661 162.005 99.5845 161.296C100.003 160.586 100.223 159.78 100.223 158.96V53.9599C100.223 53.7672 100.172 53.5778 100.076 53.4099Z" fill="#A85C00"/>
<g opacity="0.4">
<path d="M92.4557 72.7151C94.5588 71.5201 96.2708 72.4801 96.2759 74.8601L96.3978 117.335C96.3286 118.632 95.9488 119.894 95.2892 121.018C94.6297 122.143 93.7092 123.098 92.603 123.805L55.0212 145.15C52.9181 146.345 51.2061 145.38 51.201 143.005L51.0791 100.53C51.1475 99.2344 51.526 97.973 52.1837 96.8487C52.8414 95.7243 53.7597 94.7688 54.8637 94.0601L92.4557 72.7151Z" fill="#A85C00"/>
</g>
<path d="M84.1393 104.925C84.2256 105.365 84.5914 105.49 84.9978 105.305L85.1299 105.235L85.2467 105.155C85.4226 105.014 85.5736 104.845 85.6938 104.655L87.2787 102.27C87.9553 101.305 88.3409 100.171 88.3912 99.0001L88.3608 87.1851L84.0986 89.6051L84.1444 104.72C84.137 104.788 84.1354 104.857 84.1393 104.925Z" fill="#FDB133"/>
<path opacity="0.3" d="M84.1393 104.925C84.2256 105.365 84.5914 105.49 84.9978 105.305L85.1299 105.235L85.2467 105.155C85.4226 105.014 85.5736 104.845 85.6938 104.655L87.2787 102.27C87.9553 101.305 88.3409 100.171 88.3912 99.0001L88.3608 87.1851L84.0986 89.6051L84.1444 104.72C84.137 104.788 84.1354 104.857 84.1393 104.925Z" fill="black"/>
<path d="M94.8075 96.8C94.8075 96.87 94.7923 96.93 94.7618 96.98C94.6201 97.4456 94.3492 97.8629 93.9795 98.185L93.6391 98.495L93.3242 98.78L92.9889 99.11C92.8822 99.215 92.7755 99.315 92.6739 99.42C92.5723 99.525 92.4453 99.665 92.3285 99.79C92.2116 99.915 92.1202 100.01 92.0186 100.125L91.6681 100.535C91.5665 100.65 91.4649 100.765 91.3633 100.89L91.0229 101.32C90.9162 101.455 90.8096 101.575 90.708 101.715C90.6064 101.855 90.4794 102.02 90.3625 102.175C90.2457 102.33 90.1542 102.45 90.0476 102.6L89.6971 103.1L89.3872 103.54L89.0417 104.07C88.9401 104.235 88.8334 104.39 88.7318 104.57C88.6302 104.75 88.4982 104.94 88.3864 105.125L88.0664 105.625C87.9444 105.83 87.8225 106.05 87.6955 106.26C87.5685 106.47 87.4974 106.59 87.4009 106.76C87.3044 106.93 87.1316 107.26 86.9996 107.485C86.9132 107.645 86.8218 107.8 86.7354 107.985L86.2985 108.81C86.2223 108.96 86.141 109.1 86.0648 109.255L85.628 110.13C85.5162 110.35 85.4095 110.565 85.2978 110.795C85.1098 111.185 84.9168 111.585 84.7237 112L84.6221 112.21C84.4342 112.62 84.2411 113.04 84.0481 113.47C83.9617 113.655 83.8754 113.855 83.7941 114.05L83.5045 114.695L83.3674 115.02C82.2263 117.665 80.6393 120.101 78.6734 122.225L78.6277 122.275C78.5668 122.345 78.5007 122.405 78.4398 122.47C77.4005 123.568 76.2343 124.543 74.9651 125.375C74.7263 125.525 74.4977 125.66 74.2691 125.79L73.1921 126.405C71.6309 127.292 70.073 128.107 68.5185 128.85C66.9641 129.593 65.4146 130.26 63.8703 130.85C62.8543 131.25 61.8383 131.615 60.8223 131.945L59.0291 132.5L58.5211 132.67C58.3588 133.682 58.279 134.705 58.2823 135.73L60.8223 134.91C65.1339 133.481 69.2856 131.621 73.2124 129.36L74.2894 128.75C77.9724 126.655 81.4014 122.595 83.3928 117.97C84.6531 114.986 86.0915 112.077 87.7006 109.26L87.0504 119.36L92.7603 116.115C93.0295 112.555 93.6391 105.505 94.584 100.68C95.0367 99.4349 95.1143 98.0876 94.8075 96.8Z" fill="#455A64"/>
<path d="M63.871 130.85C65.4085 130.253 66.9579 129.587 68.5192 128.85C70.0805 128.113 71.6383 127.298 73.1928 126.405L74.2698 125.79C74.4984 125.66 74.727 125.525 74.9657 125.375C76.235 124.543 77.4011 123.568 78.4404 122.47C78.5014 122.405 78.5674 122.345 78.6284 122.275L78.6741 122.225C80.6419 120.095 82.229 117.652 83.368 115L83.5052 114.685L83.7948 114.04C83.876 113.845 83.9624 113.645 84.0488 113.46C84.2418 113.03 84.4348 112.61 84.6228 112.2L84.7244 111.99C84.9174 111.575 85.1105 111.175 85.2984 110.785C85.4102 110.555 85.5169 110.34 85.6286 110.12L86.0655 109.245C86.1417 109.09 86.223 108.95 86.2992 108.8L86.7361 107.975C86.8224 107.81 86.9139 107.655 87.0002 107.475C87.1323 107.23 87.2695 106.975 87.4016 106.75C87.5336 106.525 87.5997 106.41 87.6962 106.25C87.7927 106.09 87.9451 105.82 88.067 105.615L88.3871 105.115C88.4988 104.93 88.6157 104.74 88.7325 104.56C88.8494 104.38 88.9408 104.24 89.0424 104.06L89.3878 103.53L89.6977 103.09L90.0482 102.59C90.1549 102.44 90.2616 102.305 90.3632 102.165C90.4648 102.025 90.5918 101.85 90.7086 101.705C90.8255 101.56 90.9169 101.445 91.0236 101.31L91.364 100.88C91.4656 100.755 91.5672 100.64 91.6688 100.525L92.0193 100.115C92.1209 100 92.2276 99.895 92.3292 99.78C92.4308 99.665 92.5578 99.53 92.6746 99.41C92.7914 99.29 92.8829 99.205 92.9896 99.1L93.3248 98.77L93.6398 98.485L93.97 98.185C94.3379 97.8554 94.6112 97.4364 94.7625 96.97C94.7625 96.92 94.7777 96.86 94.8082 96.79V96.755C95.7226 92.515 92.6644 91.125 92.0396 87.16C92.0633 87.1023 92.0633 87.0377 92.0396 86.98C91.9105 85.983 91.9241 84.9732 92.0802 83.98L89.3116 85.555C89.0326 85.7328 88.8006 85.9733 88.6345 86.2567C88.4685 86.5401 88.3732 86.8582 88.3566 87.185L88.3922 99C88.3498 100.173 87.9711 101.31 87.3 102.28L85.715 104.665C85.5949 104.855 85.4439 105.024 85.268 105.165L85.1511 105.245L85.019 105.315C84.6126 105.5 84.2469 105.375 84.1605 104.935C84.1549 104.867 84.1549 104.798 84.1605 104.73L84.1148 89.615C84.1148 89.015 83.6779 88.775 83.1496 89.075L75.5296 93.405C75.0724 101.635 73.6703 114.14 70.536 118.215C69.6095 119.355 68.4565 120.298 67.1476 120.985C66.5075 121.35 65.8471 121.685 65.1867 122.015C64.5263 122.345 63.8761 122.675 63.2512 123.015C61.5037 124.015 59.9746 125.205 59.1872 127.24C58.6575 128.718 58.3627 130.268 58.3135 131.835C58.3135 132.375 58.6081 132.66 59.0602 132.51L60.8332 131.94C61.8187 131.615 62.8448 131.25 63.871 130.85Z" fill="#FDB133"/>
<path d="M86.8682 121.595L92.573 118.355C92.573 118.31 92.6238 117.5 92.7254 116.13L87.0155 119.375L86.8682 121.595Z" fill="#37474F"/>
<path d="M93.6801 60C95.58 58.92 97.1243 59.785 97.1294 61.93C97.0666 63.1008 96.7237 64.2405 96.1287 65.2562C95.5338 66.2719 94.7035 67.1349 93.7055 67.775L53.7767 90.465C51.8767 91.545 50.3273 90.675 50.3223 88.53C50.3856 87.3595 50.7293 86.2202 51.3252 85.2053C51.9211 84.1904 52.7524 83.3285 53.7513 82.69L93.6801 60Z" fill="#A85C00"/>
<path d="M96.677 151.22L86.3545 157.08L86.3596 158.635L96.677 152.77V151.22Z" fill="#A85C00"/>
<path d="M83.1496 157.325L96.6726 149.64L96.6675 148.085L83.1445 155.77L83.1496 157.325Z" fill="#A85C00"/>
<path d="M78.0588 157.08L96.6618 146.51L96.6567 144.955L78.0537 155.53L78.0588 157.08Z" fill="#A85C00"/>
<path d="M85.7193 142.48L84.8811 141.04L84.048 143.43L82.1836 144.8L83.54 145.52L83.225 147.805L84.8912 145.86L86.5626 145.905L86.2374 143.985L87.5887 141.73L85.7193 142.48Z" fill="#FDB133"/>
<path d="M88.0716 130.34L52.2627 150.69L52.2678 153.56L88.0818 133.215L88.0716 130.34Z" fill="#A85C00"/>
<path d="M74.6602 163.725L74.6652 165.28L83.8194 160.08L83.8143 158.525L74.6602 163.725Z" fill="#A85C00"/>
<path d="M66.3594 163.725L75.5135 158.525L75.5085 156.97L66.3594 162.175V163.725Z" fill="#A85C00"/>
<path d="M52.3389 176.415V177.97L71.6581 166.99V165.435L52.3389 176.415Z" fill="#A85C00"/>
<path d="M52.3438 179.545L52.3488 181.1L63.3978 174.82V173.265L52.3438 179.545Z" fill="#A85C00"/>
<path d="M80.706 157.155L52.3291 173.28L52.3342 174.835L80.7111 158.71L80.706 157.155Z" fill="#A85C00"/>
<path d="M63.3674 163.875L52.3184 170.15L52.3234 171.705L63.3724 165.425L63.3674 163.875Z" fill="#A85C00"/>
<path d="M53.3394 164.79L55.0057 162.845L56.677 162.89L56.3519 160.97L57.6981 158.715L55.8286 159.465L54.9904 158.025L54.1624 160.415L52.293 161.785L53.6493 162.505L53.3394 164.79Z" fill="#FDB133"/>
<path d="M77.4186 150.11L79.0899 150.155L78.7699 148.23L80.1161 145.975L78.2466 146.73L77.4033 145.29L76.5753 147.675L74.7109 149.045L76.0673 149.765L75.7523 152.05L77.4186 150.11Z" fill="#FDB133"/>
<path d="M63.3013 155.22L62.4631 153.78L61.6351 156.17L59.7656 157.535L61.122 158.255L60.8121 160.54L62.4783 158.6L64.1497 158.645L63.8245 156.72L65.1707 154.465L63.3013 155.22Z" fill="#FDB133"/>
<path d="M79.8678 140L52.2783 155.68L52.2834 157.47L79.8729 141.79L79.8678 140Z" fill="#A85C00"/>
<path d="M70.774 150.975L69.9358 149.535L69.1026 151.925L67.2383 153.29L68.5946 154.01L68.2797 156.295L69.951 154.355L71.6223 154.4L71.2921 152.475L72.6434 150.22L70.774 150.975Z" fill="#FDB133"/>
<path opacity="0.2" d="M53.3394 164.79L55.0057 162.845L56.677 162.89L56.3519 160.97L57.6981 158.715L55.8286 159.465L54.9904 158.025L54.1624 160.415L52.293 161.785L53.6493 162.505L53.3394 164.79Z" fill="black"/>
<path opacity="0.2" d="M77.4186 150.11L79.0899 150.155L78.7699 148.23L80.1161 145.975L78.2466 146.73L77.4033 145.29L76.5753 147.675L74.7109 149.045L76.0673 149.765L75.7523 152.05L77.4186 150.11Z" fill="black"/>
<path opacity="0.2" d="M63.3013 155.22L62.4631 153.78L61.6351 156.17L59.7656 157.535L61.122 158.255L60.8121 160.54L62.4783 158.6L64.1497 158.645L63.8245 156.72L65.1707 154.465L63.3013 155.22Z" fill="black"/>
<path opacity="0.2" d="M70.774 150.975L69.9358 149.535L69.1026 151.925L67.2383 153.29L68.5946 154.01L68.2797 156.295L69.951 154.355L71.6223 154.4L71.2921 152.475L72.6434 150.22L70.774 150.975Z" fill="black"/>
<path d="M73.9035 101.835L71.5006 104.87L72.5928 107.2L69.7937 109.2L69.7328 112.435L67.0251 113.06L65.8212 116.63L63.6723 115.77L61.5337 119.065L60.3145 116.875L57.6119 119.32L57.5357 116.17L54.7315 117.35L55.8085 113.785L53.3955 113.49L55.4377 110.13L53.8273 108.41L56.4892 105.835L55.9609 102.995L58.7752 101.65L59.4204 98.17L61.9045 98.29L63.6114 94.78L65.3335 96.34L67.8075 93.405L68.4729 96.14L71.2873 94.285L70.7742 97.72L73.4412 97.265L71.8461 100.805L73.9035 101.835Z" fill="#FDB133"/>
<g opacity="0.1">
<path d="M73.9035 101.835L71.5006 104.87L72.5928 107.2L69.7937 109.2L69.7328 112.435L67.0251 113.06L65.8212 116.63L63.6723 115.77L61.5337 119.065L60.3145 116.875L57.6119 119.32L57.5357 116.17L54.7315 117.35L55.8085 113.785L53.3955 113.49L55.4377 110.13L53.8273 108.41L56.4892 105.835L55.9609 102.995L58.7752 101.65L59.4204 98.17L61.9045 98.29L63.6114 94.78L65.3335 96.34L67.8075 93.405L68.4729 96.14L71.2873 94.285L70.7742 97.72L73.4412 97.265L71.8461 100.805L73.9035 101.835Z" fill="black"/>
</g>
<path d="M62.6364 100.92C63.5609 100.395 64.0639 100.73 64.0689 101.81V105.31C64.0854 105.815 63.9616 106.314 63.7109 106.755C63.4603 107.195 63.0923 107.56 62.6465 107.81C61.722 108.31 61.2191 108 61.214 106.92V103.42C61.1998 102.916 61.3245 102.417 61.5749 101.977C61.8254 101.537 62.1921 101.172 62.6364 100.92ZM63.1444 105.92V102.27C63.1444 101.77 62.9564 101.705 62.6364 101.875C62.4695 101.969 62.3332 102.108 62.2433 102.275C62.1534 102.442 62.1135 102.631 62.1284 102.82V106.47C62.1284 106.97 62.3214 107.035 62.6364 106.865C62.8032 106.771 62.9395 106.632 63.0295 106.465C63.1194 106.298 63.1592 106.109 63.1444 105.92Z" fill="#A85C00"/>
<path d="M60.0551 109.745C61.2997 109.04 62.2141 109.49 62.2192 110.805C62.179 111.517 61.9621 112.208 61.5875 112.818C61.2129 113.429 60.6919 113.939 60.0703 114.305C58.8257 115.01 57.9062 114.565 57.9062 113.25C57.946 112.537 58.1627 111.845 58.5373 111.234C58.9119 110.623 59.4331 110.112 60.0551 109.745ZM60.0551 113.285C60.3719 113.087 60.6335 112.813 60.8163 112.49C60.999 112.167 61.097 111.805 61.1016 111.435C61.1016 110.675 60.6342 110.435 60.05 110.775C59.7332 110.974 59.4716 111.247 59.2889 111.57C59.1061 111.893 59.0081 112.255 59.0035 112.625C59.0035 113.385 59.4658 113.625 60.0551 113.285Z" fill="#A85C00"/>
<path d="M60.5074 102.205V103.175L58.8666 104.105L58.7955 105.765C58.9475 105.365 59.2344 105.028 59.6083 104.81C60.2991 104.415 60.6497 104.765 60.6547 105.76V107.26C60.6765 107.763 60.5577 108.262 60.3114 108.702C60.0651 109.143 59.7007 109.509 59.2577 109.76C58.3332 110.285 57.8557 109.94 57.8506 108.855V108.295L58.7396 107.795V108.425C58.7396 108.925 58.9326 108.975 59.2476 108.805C59.4128 108.712 59.548 108.575 59.6379 108.409C59.7277 108.244 59.7685 108.057 59.7556 107.87V106.37C59.7556 105.87 59.5676 105.81 59.2476 105.98C59.0816 106.074 58.9458 106.212 58.8559 106.378C58.766 106.544 58.7257 106.732 58.7396 106.92V107.125L57.8557 107.625L58.0131 103.625L60.5074 102.205Z" fill="#A85C00"/>
<path d="M67.8839 98.015L68.4376 97.7L66.1008 105.805L65.542 106.12L67.8839 98.015Z" fill="#A85C00"/>
<path d="M69.4025 104.525V105.485L67.4569 106.59V107.555L69.1739 106.58L69.179 107.545L67.4619 108.515L67.467 110.025L66.3697 110.645L66.3545 106.255L69.4025 104.525Z" fill="#A85C00"/>
<path d="M68.4978 100.1C69.0871 99.765 69.402 99.97 69.402 100.665V102.89C69.414 103.212 69.336 103.531 69.1766 103.812C69.0171 104.093 68.7824 104.326 68.4978 104.485C67.9085 104.82 67.5885 104.61 67.5885 103.92V101.695C67.5747 101.372 67.6524 101.052 67.813 100.77C67.9736 100.489 68.2107 100.257 68.4978 100.1ZM68.8128 103.275V100.955C68.8128 100.66 68.6908 100.6 68.5029 100.705C68.399 100.766 68.315 100.855 68.2609 100.961C68.2069 101.067 68.1851 101.187 68.1981 101.305V103.625C68.1981 103.925 68.3098 103.985 68.508 103.875C68.6106 103.813 68.6936 103.724 68.7474 103.618C68.8013 103.512 68.8239 103.393 68.8128 103.275Z" fill="#A85C00"/>
<path d="M66.4407 102.1C66.4527 102.422 66.3747 102.741 66.2153 103.022C66.0558 103.303 65.8211 103.536 65.5365 103.695C64.9472 104.03 64.6323 103.825 64.6272 103.125V100.905C64.6152 100.583 64.6932 100.264 64.8526 99.983C65.0121 99.7018 65.2468 99.469 65.5314 99.31C66.1207 98.975 66.4357 99.18 66.4357 99.875L66.4407 102.1ZM65.2266 102.835C65.2266 103.135 65.3384 103.2 65.5365 103.085C65.6391 103.023 65.7221 102.934 65.776 102.828C65.8298 102.722 65.8525 102.603 65.8413 102.485V100.17C65.8413 99.87 65.7194 99.81 65.5314 99.92C65.427 99.9802 65.3427 100.069 65.2886 100.175C65.2345 100.282 65.2129 100.402 65.2266 100.52V102.835Z" fill="#A85C00"/>
<path d="M65.8369 106.55L65.8419 107.51L63.8963 108.615V109.58L65.6083 108.61L65.6133 109.565L63.9014 110.54L63.9065 112.045L62.8041 112.67L62.7939 108.28L65.8369 106.55Z" fill="#A85C00"/>
<path d="M161.951 175.69L191.654 158.59C192.596 158.048 193.308 157.188 193.656 156.17C194.005 155.151 193.966 154.043 193.548 153.05L192.024 149.5L192.832 151.405C193.216 152.315 193.249 153.333 192.923 154.265C192.597 155.197 191.936 155.98 191.064 156.465L158.766 174.465C158.86 174.776 159.025 175.062 159.248 175.3C159.472 175.539 159.747 175.724 160.055 175.842C160.362 175.961 160.692 176.008 161.021 175.982C161.349 175.955 161.667 175.856 161.951 175.69Z" fill="#37474F"/>
<path d="M191.399 140.14L188.748 141.71L192.024 149.5L193.548 153.045C193.967 154.037 194.007 155.144 193.661 156.162C193.314 157.181 192.605 158.041 191.664 158.585L161.961 175.685C161.678 175.848 161.361 175.945 161.034 175.97C160.708 175.995 160.379 175.946 160.074 175.829C159.769 175.711 159.495 175.526 159.273 175.289C159.051 175.052 158.886 174.769 158.791 174.46L156.688 175.63L116.81 152.945L115.52 166.24L117.612 166.545L117.77 165.645C117.831 165.287 117.98 164.95 118.203 164.661C118.425 164.372 118.716 164.14 119.049 163.985C119.382 163.831 119.749 163.758 120.117 163.772C120.485 163.787 120.844 163.889 121.163 164.07L150.546 180.72C151.746 181.4 152.721 182.406 153.356 183.617C153.991 184.828 154.259 186.193 154.128 187.55L154.026 188.58H156.144L156.576 186.055C156.754 185.023 157.161 184.042 157.769 183.183C158.377 182.324 159.17 181.607 160.091 181.085L194.056 161.84C194.379 161.657 194.737 161.541 195.108 161.501C195.478 161.46 195.853 161.495 196.209 161.604C196.565 161.713 196.894 161.893 197.176 162.134C197.457 162.374 197.686 162.669 197.846 163L201.062 169.645C201.062 169.645 202.113 170.2 202.525 169.2L191.399 140.14Z" fill="#455A64"/>
<path d="M153.635 107.37L121.717 131.7C120.743 132.442 119.933 133.372 119.339 134.434C118.745 135.497 118.379 136.668 118.263 137.875L114.682 174.795C114.879 174.976 115.132 175.086 115.401 175.11C115.669 175.134 115.938 175.068 116.165 174.925L122.525 137.86C122.634 137.227 122.88 136.625 123.247 136.095C123.615 135.565 124.095 135.12 124.654 134.79L152.863 118.155C156.546 116 157.196 108.34 153.635 107.37Z" fill="#455A64"/>
<path opacity="0.3" d="M153.635 107.37L121.717 131.7C120.743 132.442 119.933 133.372 119.339 134.434C118.745 135.497 118.379 136.668 118.263 137.875L114.682 174.795C114.879 174.976 115.132 175.086 115.401 175.11C115.669 175.134 115.938 175.068 116.165 174.925L122.525 137.86C122.634 137.227 122.88 136.625 123.247 136.095C123.615 135.565 124.095 135.12 124.654 134.79L152.863 118.155C156.546 116 157.196 108.34 153.635 107.37Z" fill="#A85C00"/>
<path d="M190.19 149.375C190.046 149 189.773 148.687 189.418 148.49L157.414 130.3C156.736 129.914 155.967 129.711 155.184 129.711C154.401 129.711 153.632 129.914 152.954 130.3L121.189 148.5C120.834 148.703 120.563 149.021 120.421 149.4C119.507 151.055 119.202 154.82 120.472 157.22C120.642 157.532 120.893 157.794 121.199 157.98L153.203 176.165C153.88 176.551 154.648 176.754 155.43 176.754C156.213 176.754 156.981 176.551 157.658 176.165L189.428 157.99C189.743 157.813 189.993 157.544 190.144 157.22C191.409 154.795 191.105 151.03 190.19 149.375Z" fill="#FDB133"/>
<path opacity="0.3" d="M190.19 149.375C190.046 149 189.773 148.687 189.418 148.49L157.414 130.3C156.736 129.914 155.967 129.711 155.184 129.711C154.401 129.711 153.632 129.914 152.954 130.3L121.189 148.5C120.834 148.703 120.563 149.021 120.421 149.4C119.507 151.055 119.202 154.82 120.472 157.22C120.642 157.532 120.893 157.794 121.199 157.98L153.203 176.165C153.88 176.551 154.648 176.754 155.43 176.754C156.213 176.754 156.981 176.551 157.658 176.165L189.428 157.99C189.743 157.813 189.993 157.544 190.144 157.22C191.409 154.795 191.105 151.03 190.19 149.375Z" fill="#A85C00"/>
<path opacity="0.3" d="M190.19 149.375C190.342 149.763 190.347 150.192 190.207 150.584C190.066 150.976 189.788 151.306 189.423 151.515L157.653 169.69C156.976 170.076 156.207 170.279 155.425 170.279C154.643 170.279 153.875 170.076 153.198 169.69L121.194 151.505C120.828 151.299 120.55 150.971 120.408 150.58C120.266 150.19 120.271 149.762 120.421 149.375C119.507 151.03 119.202 154.795 120.472 157.195C120.642 157.507 120.893 157.769 121.199 157.955L153.203 176.14C153.88 176.526 154.648 176.729 155.43 176.729C156.213 176.729 156.981 176.526 157.658 176.14L189.428 157.965C189.743 157.788 189.993 157.519 190.144 157.195C191.409 154.795 191.105 151.03 190.19 149.375Z" fill="black"/>
<path d="M192.837 114.815L162.56 97.6249C162.29 97.4737 161.987 97.3896 161.676 97.3799H161.544C158.781 97.3799 156.617 99.0299 155.006 100.93C154.981 100.954 154.959 100.981 154.94 101.01C154.777 101.207 154.658 101.435 154.59 101.68L145.903 133.5C145.657 134.399 145.721 135.354 146.083 136.214C146.444 137.075 147.085 137.794 147.904 138.26L178.161 155.5C178.484 155.683 178.856 155.765 179.228 155.735C182.687 155.385 184.729 153.275 185.75 152.165C185.945 151.95 186.086 151.693 186.162 151.415L194.839 119.595C195.087 118.692 195.026 117.734 194.664 116.87C194.302 116.005 193.659 115.283 192.837 114.815Z" fill="#FDB133"/>
<path opacity="0.2" d="M192.837 114.815L162.56 97.6249C162.29 97.4737 161.987 97.3896 161.676 97.3799H161.544C158.781 97.3799 156.617 99.0299 155.006 100.93C154.981 100.954 154.959 100.981 154.94 101.01C154.777 101.207 154.658 101.435 154.59 101.68L145.903 133.5C145.657 134.399 145.721 135.354 146.083 136.214C146.444 137.075 147.085 137.794 147.904 138.26L178.161 155.5C178.484 155.683 178.856 155.765 179.228 155.735C182.687 155.385 184.729 153.275 185.75 152.165C185.945 151.95 186.086 151.693 186.162 151.415L194.839 119.595C195.087 118.692 195.026 117.734 194.664 116.87C194.302 116.005 193.659 115.283 192.837 114.815Z" fill="#A85C00"/>
<path opacity="0.1" d="M192.838 114.815L162.561 97.6249C162.291 97.4737 161.987 97.3896 161.677 97.3799H161.545C158.781 97.3799 156.617 99.0299 155.007 100.93C155.29 100.627 155.67 100.428 156.084 100.366C156.498 100.304 156.921 100.383 157.283 100.59L187.539 117.785C188.404 118.274 189.067 119.045 189.414 119.965L194.697 116.965C194.344 116.061 193.688 115.302 192.838 114.815Z" fill="black"/>
<path opacity="0.2" d="M189.414 119.97C189.73 120.795 189.775 121.698 189.541 122.55L180.849 154.375C180.749 154.736 180.539 155.059 180.246 155.298C179.953 155.537 179.592 155.681 179.213 155.71C182.672 155.36 184.715 153.25 185.736 152.14C185.93 151.925 186.071 151.668 186.147 151.39L194.824 119.57C195.061 118.706 195.011 117.789 194.681 116.955L189.414 119.97Z" fill="black"/>
<path d="M138.334 186.61L139.624 189.11C141.453 187.445 141.783 186.11 141.783 186.11C141.194 184.05 140.503 181.955 140.163 180.935C139.985 182.355 139.005 183.575 138.588 184.96C138.434 185.497 138.349 186.052 138.334 186.61Z" fill="#FDB133"/>
<path opacity="0.2" d="M138.334 186.61L139.624 189.11C141.453 187.445 141.783 186.11 141.783 186.11C141.194 184.05 140.503 181.955 140.163 180.935C139.985 182.355 139.005 183.575 138.588 184.96C138.434 185.497 138.349 186.052 138.334 186.61Z" fill="#A85C00"/>
<path d="M138.394 189.19L139.624 189.13L138.334 186.63C138.293 187.46 138.364 188.33 138.394 189.19Z" fill="#FDB133"/>
<path d="M139.33 177.97C138.885 177.335 138.374 176.746 137.806 176.215C138.128 177.316 138.128 178.484 137.806 179.585C137.42 181.045 136.724 182.415 136.373 183.89C135.952 185.68 136.048 187.605 135.276 189.28C134.893 190.094 134.323 190.81 133.611 191.37C132.898 191.929 132.063 192.318 131.171 192.505C130.515 192.682 129.814 192.597 129.221 192.27C128.966 192.096 128.777 191.845 128.682 191.555C128.297 192.353 127.827 193.109 127.28 193.81C126.671 194.585 125.914 195.435 126.081 196.4C126.183 196.794 126.4 197.151 126.705 197.425C127.01 197.7 127.39 197.88 127.798 197.945C128.618 198.06 129.453 197.992 130.242 197.745C131.974 197.376 133.628 196.713 135.129 195.785C136.636 194.839 137.738 193.382 138.228 191.69C138.406 190.869 138.471 190.028 138.421 189.19C138.39 188.33 138.319 187.46 138.36 186.61C138.375 186.057 138.461 185.507 138.614 184.975C139.03 183.59 140.011 182.37 140.188 180.95C140.188 180.875 140.188 180.8 140.219 180.725C140.23 179.737 139.918 178.771 139.33 177.97Z" fill="#FDB133"/>
<path d="M139.33 177.97C138.885 177.335 138.374 176.746 137.806 176.215C138.128 177.316 138.128 178.484 137.806 179.585C137.42 181.045 136.724 182.415 136.373 183.89C135.952 185.68 136.048 187.605 135.276 189.28C134.893 190.094 134.323 190.81 133.611 191.37C132.898 191.929 132.063 192.318 131.171 192.505C130.515 192.682 129.814 192.597 129.221 192.27C128.966 192.096 128.777 191.845 128.682 191.555C128.297 192.353 127.827 193.109 127.28 193.81C126.671 194.585 125.914 195.435 126.081 196.4C126.183 196.794 126.4 197.151 126.705 197.425C127.01 197.7 127.39 197.88 127.798 197.945C128.618 198.06 129.453 197.992 130.242 197.745C131.974 197.376 133.628 196.713 135.129 195.785C136.636 194.839 137.738 193.382 138.228 191.69C138.406 190.869 138.471 190.028 138.421 189.19C138.39 188.33 138.319 187.46 138.36 186.61C138.375 186.057 138.461 185.507 138.614 184.975C139.03 183.59 140.011 182.37 140.188 180.95C140.188 180.875 140.188 180.8 140.219 180.725C140.23 179.737 139.918 178.771 139.33 177.97Z" fill="#A85C00"/>
<path d="M131.146 192.5C132.038 192.313 132.873 191.924 133.585 191.365C134.298 190.805 134.868 190.089 135.251 189.275C136.023 187.6 135.926 185.675 136.348 183.885C136.698 182.41 137.394 181.04 137.781 179.58C138.103 178.479 138.103 177.311 137.781 176.21L137.339 175.78C135.134 176.905 132.624 177.83 130.618 179.28C130.655 181.812 130.485 184.344 130.11 186.85C129.837 188.481 129.335 190.066 128.616 191.56C128.711 191.85 128.9 192.101 129.155 192.275C129.455 192.441 129.785 192.546 130.127 192.585C130.469 192.623 130.816 192.594 131.146 192.5Z" fill="#F28F8F"/>
<path opacity="0.3" d="M138.394 189.19L139.624 189.13L138.334 186.63C138.293 187.46 138.364 188.33 138.394 189.19Z" fill="black"/>
<path d="M123.657 185.82C123.292 187.92 121.666 192.185 121.666 192.185C121.666 192.185 129.286 192.49 129.474 192.145L131.719 188.725L123.657 185.82Z" fill="#FFA8A7"/>
<path d="M146.533 136L127.046 146.685C125.279 147.653 123.865 149.143 123.005 150.944C122.145 152.746 121.881 154.768 122.251 156.725L126.03 176.775L122.937 186.45C125.609 189.985 131.756 190.165 131.756 190.165C135.185 183.395 137.699 180.525 139.645 174.855C141.591 169.185 142.886 165.275 142.886 165.275L159.076 160.92C162.777 159.93 166.091 157.87 168.59 155.007C171.089 152.145 172.659 148.61 173.097 144.86C173.376 142.45 173.386 140.805 173.386 140.805L146.533 136Z" fill="#263238"/>
<path opacity="0.2" d="M145.207 142.29C145.214 144.431 145.987 146.5 147.392 148.135L135.129 155.685C133.11 156.927 131.614 158.844 130.917 161.085L126.051 176.75L130.44 159.305C130.94 157.301 132.216 155.569 133.996 154.48L145.223 147.68C143.927 144.5 145.207 142.29 145.207 142.29Z" fill="black"/>
<path d="M125.807 201.905L125.99 204.725C128.336 203.905 129.175 202.795 129.175 202.795C129.454 200.675 129.657 198.48 129.749 197.415C129.022 198.65 127.63 199.39 126.701 200.505C126.345 200.933 126.044 201.403 125.807 201.905Z" fill="#FDB133"/>
<path opacity="0.1" d="M125.807 201.905L125.99 204.725C128.336 203.905 129.175 202.795 129.175 202.795C129.454 200.675 129.657 198.48 129.749 197.415C129.022 198.65 127.63 199.39 126.701 200.505C126.345 200.933 126.044 201.403 125.807 201.905Z" fill="#A85C00"/>
<path d="M124.831 204.305L125.989 204.725L125.806 201.905C125.436 202.675 125.151 203.5 124.831 204.305Z" fill="#FDB133"/>
<path opacity="0.2" d="M124.831 204.305L125.989 204.725L125.806 201.905C125.436 202.675 125.151 203.5 124.831 204.305Z" fill="black"/>
<path d="M130.175 194.35C130.021 193.593 129.786 192.854 129.474 192.145C129.318 193.279 128.845 194.349 128.108 195.235C127.168 196.43 125.979 197.42 125.06 198.64C123.957 200.14 123.277 201.93 121.9 203.17C121.221 203.773 120.408 204.211 119.526 204.45C118.644 204.689 117.717 204.721 116.82 204.545C116.145 204.454 115.534 204.106 115.118 203.575C114.954 203.317 114.881 203.013 114.91 202.71C114.237 203.294 113.503 203.807 112.72 204.24C111.852 204.715 110.815 205.205 110.582 206.16C110.518 206.562 110.575 206.973 110.746 207.343C110.917 207.713 111.193 208.027 111.542 208.245C112.259 208.666 113.062 208.924 113.894 209C115.635 209.332 117.421 209.362 119.172 209.09C120.936 208.804 122.532 207.891 123.658 206.525C124.152 205.84 124.547 205.091 124.831 204.3C125.151 203.495 125.436 202.67 125.807 201.9C126.043 201.399 126.341 200.928 126.696 200.5C127.63 199.385 129.022 198.645 129.744 197.41C129.784 197.34 129.83 197.28 129.865 197.21C130.276 196.313 130.385 195.311 130.175 194.35Z" fill="#A85C00"/>
<path d="M116.84 204.545C117.737 204.721 118.664 204.689 119.546 204.45C120.428 204.211 121.241 203.773 121.92 203.17C123.297 201.93 123.978 200.12 125.08 198.64C125.989 197.42 127.178 196.43 128.128 195.235C128.865 194.349 129.338 193.279 129.495 192.145L129.256 191.575C126.782 191.755 124.105 191.64 121.687 192.185C120.714 194.53 119.55 196.794 118.207 198.955C117.308 200.351 116.213 201.615 114.956 202.71C114.926 203.013 114.999 203.317 115.164 203.575C115.573 204.1 116.175 204.448 116.84 204.545Z" fill="#FFA8A7"/>
<path d="M146.482 94.5449C159.355 106.77 162.707 106.35 162.707 106.35C167.371 99.6099 169.885 92.0949 167.051 84.7949C165.872 81.7649 164.216 79.0449 161.321 77.3299C159.054 75.9879 156.411 75.3924 153.777 75.6299C152.596 75.826 151.48 76.2956 150.52 76.9999C150.282 77.1649 147.98 79.4049 148.123 79.4749C146.431 78.7249 144.14 79.8949 143.165 81.4499C142.189 83.0049 142.149 84.9499 142.484 86.7649C143.002 89.4999 144.45 92.6149 146.482 94.5449Z" fill="#263238"/>
<path d="M148.443 102.81H147.935C144.612 102.85 140.411 105.075 138.359 110.775L130.394 126L139.502 130L144.485 115.645L148.443 102.81Z" fill="#FDB133"/>
<path opacity="0.2" d="M142.047 112.905C141.412 114.7 141.372 116.64 141.275 118.54C141.179 120.44 140.95 122.73 140.066 124.42C139.092 123.758 137.927 123.423 136.745 123.465C135.562 123.508 134.425 123.925 133.503 124.655C132.841 125.202 132.333 125.906 132.024 126.7L139.502 129.965L144.486 115.61L146.934 107.695C145.809 108.2 144.797 108.921 143.958 109.816C143.119 110.71 142.469 111.76 142.047 112.905Z" fill="black"/>
<path opacity="0.4" d="M148.443 102.81H147.935C144.612 102.85 140.411 105.075 138.359 110.775L130.394 126L139.502 130L144.485 115.645L146.934 107.73L148.443 102.81Z" fill="black"/>
<path d="M139.588 127.22C139.242 126.373 138.682 125.627 137.961 125.053C137.24 124.479 136.382 124.096 135.468 123.94C133.645 123.65 131.572 124.59 130.388 125.99C129.372 127.17 129.555 128.77 130.18 130.17C130.705 131.265 131.599 132.146 132.712 132.663C133.824 133.181 135.084 133.301 136.276 133.005C138.613 132.36 140.472 129.46 139.588 127.22Z" fill="#FFA8A7"/>
<path d="M149.286 102.535C145.766 103.08 143.592 111.835 142.449 115.155C141.265 118.585 142.87 121.075 144.658 123.155C144.983 123.532 145.224 123.971 145.365 124.444C145.507 124.918 145.547 125.415 145.481 125.905L141.783 139.405C151.877 146.78 168.794 143.205 173.381 140.795C173.433 136.073 172.42 131.399 170.414 127.11C169.065 124.34 168.305 121.329 168.179 118.26L168.006 113.295L169.225 104.735L160.462 102.685L152.741 102.345C151.587 102.344 150.433 102.408 149.286 102.535Z" fill="#FDB133"/>
<path opacity="0.2" d="M149.286 102.535C145.766 103.08 143.592 111.835 142.449 115.155C141.265 118.585 142.87 121.075 144.658 123.155C144.983 123.532 145.224 123.971 145.365 124.444C145.507 124.918 145.547 125.415 145.481 125.905L141.783 139.405C151.877 146.78 168.794 143.205 173.381 140.795C173.433 136.073 172.42 131.399 170.414 127.11C169.065 124.34 168.305 121.329 168.179 118.26L168.006 113.295L169.225 104.735L160.462 102.685L152.741 102.345C151.587 102.344 150.433 102.408 149.286 102.535Z" fill="black"/>
<path d="M149.205 141.585C149.205 141.585 149.205 141.585 149.205 141.555C149.207 141.545 149.207 141.535 149.205 141.525V141.5C149.203 141.49 149.203 141.48 149.205 141.47V141.44V141.405L143.246 130.48V130.45C143.245 130.44 143.245 130.43 143.246 130.42L143.221 130.385V130.35L143.195 130.315L143.17 130.28L143.144 130.245C143.133 130.235 143.124 130.223 143.119 130.21L143.089 130.18V130.15L143.063 130.125V130.1H143.038L142.951 130.025H142.921H142.895H142.86H142.824H142.789L142.748 130L135.89 126.205H135.85H135.814H135.773H135.738H135.702H135.667H135.631H135.596H135.555H135.428C135.409 126.205 135.39 126.208 135.373 126.215C135.356 126.222 135.34 126.232 135.326 126.245L133.604 126.22C133.538 126.27 133.533 126.375 133.63 126.555L139.609 137.5C139.94 138.005 140.389 138.425 140.919 138.725L147.777 142.5C148.128 142.695 148.341 142.7 148.372 142.56C148.372 142.56 148.372 142.605 148.372 142.62L149.19 141.7C149.201 141.688 149.21 141.675 149.215 141.66C149.215 141.66 149.215 141.635 149.215 141.62L149.205 141.585ZM133.751 126.195C133.751 126.195 133.751 126.195 133.797 126.195H133.823H133.751ZM141.605 130.55C141.671 130.6 141.737 130.65 141.798 130.705C141.732 130.65 141.671 130.6 141.605 130.55ZM148.382 142.5C148.373 142.422 148.347 142.347 148.306 142.28C148.345 142.341 148.371 142.409 148.382 142.48V142.5Z" fill="#455A64"/>
<path opacity="0.15" d="M149.205 141.585C149.205 141.585 149.205 141.585 149.205 141.555C149.208 141.545 149.208 141.535 149.205 141.525V141.5C149.203 141.49 149.203 141.48 149.205 141.47V141.44V141.405L143.247 130.48L142.429 131.405L148.388 142.325C148.427 142.386 148.453 142.454 148.464 142.525C148.473 142.544 148.478 142.564 148.478 142.585C148.478 142.606 148.473 142.626 148.464 142.645L149.282 141.725C149.293 141.714 149.302 141.7 149.307 141.685C149.307 141.685 149.307 141.66 149.307 141.645L149.205 141.585Z" fill="#A85C00"/>
<path opacity="0.2" d="M143.15 130.415C143.148 130.405 143.148 130.395 143.15 130.385L143.124 130.35V130.315L143.099 130.28L143.074 130.245L143.048 130.21C143.037 130.2 143.028 130.188 143.023 130.175L142.992 130.145V130.115L142.967 130.09V130.065H142.942L142.855 129.99H142.825H142.799H142.764H142.728H142.693L142.652 129.965L135.794 126.17H135.753H135.718H135.677H135.642H135.606H135.57H135.535H135.499H135.459H135.332C135.313 126.17 135.294 126.173 135.277 126.18C135.259 126.187 135.244 126.197 135.23 126.21L133.604 126.22C133.64 126.175 133.711 126.165 133.808 126.185C133.941 126.216 134.068 126.269 134.184 126.34L141.042 130.135C141.176 130.211 141.305 130.296 141.428 130.39C141.56 130.49 141.687 130.595 141.809 130.705C141.926 130.82 142.037 130.935 142.129 131.045C142.215 131.146 142.292 131.255 142.357 131.37L143.175 130.445L143.15 130.415Z" fill="#A85C00"/>
<path d="M172.614 107.61C171.644 105.965 170.369 104.705 168.443 104.56C168.443 104.56 165.284 106.165 165.284 113.455L165.492 131.68L164.13 132.235C160.308 133.856 156.312 135.045 152.218 135.78C150.083 134.116 147.427 133.233 144.705 133.28L145.721 135.135C143.8 136.34 139.477 134.165 139.477 134.165C139.157 136.82 140.91 139.58 143.226 140.975C145.543 142.37 167.681 140.32 172.38 137.33C175.464 135.36 174.738 116.57 174.738 116.57C174.955 113.441 174.215 110.321 172.614 107.61Z" fill="#FFA8A7"/>
<path d="M134.803 128.655C134.653 129.373 134.568 130.102 134.549 130.835C134.721 132.577 135.471 134.214 136.682 135.495C136.936 135.773 137.251 135.992 137.602 136.135C137.779 136.202 137.971 136.222 138.159 136.192C138.346 136.162 138.522 136.084 138.669 135.965C138.93 135.66 139.063 135.268 139.04 134.87C139.097 134.28 139.064 133.685 138.943 133.105C138.818 132.52 138.483 132 137.998 131.64C137.621 131.426 137.218 131.258 136.799 131.14C136.388 130.967 136.022 130.706 135.727 130.375L134.803 128.655Z" fill="#FFA8A7"/>
<path d="M168.443 104.56C164.659 106.56 165.045 111.805 165.045 117.515C165.045 123.785 165.492 131.68 165.492 131.68C165.492 131.68 162.444 132.345 161.428 132.945C161.29 133.082 161.172 133.236 161.077 133.405L161.611 133.215C163.891 134.755 164.079 137.955 163.338 139.89L162.703 139.995C162.887 140.121 163.096 140.209 163.316 140.254C163.535 140.3 163.762 140.302 163.983 140.26C169.51 139.225 170.694 138.965 172.136 137.91C176.144 135.09 175.184 128.375 175.184 122.29C175.205 116.785 175.809 104.82 168.443 104.56Z" fill="#FDB133"/>
<path opacity="0.4" d="M168.443 104.56C164.659 106.56 165.045 111.805 165.045 117.515C165.045 123.785 165.492 131.68 165.492 131.68C165.492 131.68 162.444 132.345 161.428 132.945C161.29 133.082 161.172 133.236 161.077 133.405L161.611 133.215C163.891 134.755 164.079 137.955 163.338 139.89L162.703 139.995C162.887 140.121 163.096 140.209 163.316 140.254C163.535 140.3 163.762 140.302 163.983 140.26C169.51 139.225 170.694 138.965 172.136 137.91C176.144 135.09 175.184 128.375 175.184 122.29C175.205 116.785 175.809 104.82 168.443 104.56Z" fill="black"/>
<path opacity="0.2" d="M165.491 131.68C168.509 131.085 170.79 134.21 170.79 134.21C169.85 129.3 166.655 130.335 165.491 131.24V131.68Z" fill="black"/>
<path d="M152.741 98.97V105.855C152.055 106.49 151.4 107.22 151.339 108.13C151.326 108.566 151.435 108.998 151.654 109.377C151.874 109.756 152.195 110.069 152.584 110.28C153.375 110.689 154.298 110.777 155.154 110.525C156.003 110.268 156.782 109.823 157.43 109.225C158.353 108.39 159.098 107.383 159.621 106.262C160.144 105.14 160.436 103.928 160.478 102.695V95.72L152.741 98.97Z" fill="#FFA8A7"/>
<path opacity="0.2" d="M160.162 95.72C159.436 99.51 157.932 102.79 152.74 103.97V98.97L160.162 95.72Z" fill="black"/>
<path d="M158.354 91.7249C158.275 92.3325 158.275 92.9474 158.354 93.5549C158.432 94.0126 158.66 94.4324 159.004 94.7499C159.171 94.9008 159.374 95.0082 159.594 95.0623C159.814 95.1164 160.044 95.1156 160.264 95.0599C160.087 94.4532 160.162 93.8021 160.472 93.2498C160.783 92.6976 161.304 92.2893 161.92 92.1149C162.536 91.9405 163.198 92.0143 163.759 92.32C164.32 92.6257 164.735 93.1383 164.912 93.7449C165.034 94.1653 165.062 94.6068 164.992 95.0386C164.923 95.4705 164.759 95.8822 164.511 96.2449C164.007 96.9707 163.34 97.5715 162.56 97.9999C162.112 98.1701 161.617 98.1786 161.163 98.024C160.71 97.8693 160.326 97.5614 160.081 97.1549C157.851 100.185 153.843 102.55 149.987 102.39C148.932 102.377 147.902 102.066 147.02 101.495C145.522 100.445 145.344 98.7799 145.09 97.1349C144.734 95.057 144.664 92.9413 144.882 90.8449C145.094 88.9355 145.71 87.091 146.69 85.4299C149.657 89.1799 157.129 85.0349 158.354 91.7249Z" fill="#FFA8A7"/>
<path d="M150.323 91.3398L147.823 94.6348L150.307 95.3648L150.323 91.3398Z" fill="#F28F8F"/>
<path d="M152.614 96.8298L150.582 97.5498C150.725 97.7818 150.94 97.9619 151.196 98.063C151.451 98.164 151.733 98.1804 151.999 98.1098C152.237 97.9995 152.427 97.8116 152.54 97.5782C152.652 97.3447 152.678 97.0802 152.614 96.8298Z" fill="#F28F8F"/>
<path opacity="0.3" d="M152.614 96.8298L150.582 97.5498C150.725 97.7818 150.94 97.9619 151.196 98.063C151.451 98.164 151.733 98.1804 151.999 98.1098C152.237 97.9995 152.427 97.8116 152.54 97.5782C152.652 97.3447 152.678 97.0802 152.614 96.8298Z" fill="black"/>
<path d="M151.334 98.105C151.555 98.1673 151.789 98.1673 152.01 98.105C152.197 98.0268 152.357 97.8949 152.467 97.7264C152.578 97.5578 152.634 97.3605 152.629 97.16C152.332 97.1246 152.033 97.2022 151.792 97.377C151.551 97.5517 151.388 97.8103 151.334 98.1V98.105Z" fill="#F28F8F"/>
<path d="M153.975 91.8548C153.975 92.0457 153.898 92.2289 153.76 92.3639C153.623 92.4989 153.437 92.5748 153.243 92.5748C153.049 92.5748 152.863 92.4989 152.726 92.3639C152.589 92.2289 152.512 92.0457 152.512 91.8548C152.512 91.6638 152.589 91.4807 152.726 91.3456C152.863 91.2106 153.049 91.1348 153.243 91.1348C153.437 91.1348 153.623 91.2106 153.76 91.3456C153.898 91.4807 153.975 91.6638 153.975 91.8548Z" fill="#263238"/>
<path d="M147.828 91.6C147.827 91.7422 147.784 91.8809 147.703 91.9986C147.622 92.1164 147.507 92.2079 147.373 92.2616C147.239 92.3153 147.092 92.3289 146.951 92.3006C146.809 92.2722 146.679 92.2032 146.578 92.1024C146.476 92.0015 146.407 91.8732 146.379 91.7336C146.351 91.5941 146.366 91.4496 146.421 91.3183C146.477 91.1871 146.571 91.0749 146.691 90.996C146.811 90.9171 146.952 90.875 147.097 90.875C147.291 90.8763 147.477 90.9533 147.614 91.0891C147.751 91.2249 147.828 91.4086 147.828 91.6Z" fill="#263238"/>
<path d="M147.137 88.7299C146.599 89.0999 146.055 89.4649 145.512 89.8299C145.443 89.6314 145.437 89.4168 145.495 89.2149C145.553 89.0129 145.672 88.8333 145.837 88.6999C146.035 88.5859 146.262 88.5282 146.491 88.5335C146.721 88.5388 146.945 88.6068 147.137 88.7299Z" fill="#263238"/>
<path d="M153.416 88.67L155.031 89.78C155.103 89.583 155.112 89.3692 155.057 89.1672C155.001 88.9652 154.884 88.7847 154.722 88.65C154.523 88.534 154.296 88.4744 154.066 88.4779C153.835 88.4815 153.61 88.5479 153.416 88.67Z" fill="#263238"/>
<path d="M166.075 103.25C166.075 103.825 165.902 104.388 165.577 104.867C165.252 105.345 164.79 105.718 164.25 105.938C163.71 106.159 163.115 106.216 162.542 106.104C161.968 105.992 161.442 105.714 161.028 105.308C160.615 104.901 160.333 104.382 160.219 103.818C160.105 103.253 160.163 102.668 160.387 102.136C160.611 101.605 160.99 101.15 161.476 100.83C161.962 100.511 162.534 100.34 163.119 100.34C163.902 100.341 164.654 100.648 165.208 101.194C165.762 101.739 166.074 102.478 166.075 103.25Z" fill="#263238"/>
<path d="M164.252 106.89C164.252 107.411 164.095 107.92 163.801 108.354C163.506 108.787 163.088 109.125 162.599 109.324C162.11 109.524 161.572 109.576 161.052 109.474C160.533 109.373 160.056 109.122 159.682 108.753C159.307 108.385 159.052 107.915 158.949 107.404C158.846 106.893 158.899 106.363 159.101 105.882C159.304 105.4 159.647 104.988 160.087 104.699C160.528 104.409 161.045 104.255 161.575 104.255C161.926 104.255 162.274 104.323 162.599 104.455C162.924 104.588 163.219 104.782 163.468 105.027C163.716 105.271 163.913 105.562 164.048 105.882C164.183 106.201 164.252 106.544 164.252 106.89Z" fill="#263238"/>
<path d="M159.944 111.975C161.277 111.975 162.357 110.912 162.357 109.6C162.357 108.288 161.277 107.225 159.944 107.225C158.612 107.225 157.531 108.288 157.531 109.6C157.531 110.912 158.612 111.975 159.944 111.975Z" fill="#263238"/>
<path d="M160.599 111.97C160.599 112.373 160.478 112.768 160.25 113.103C160.022 113.439 159.699 113.7 159.32 113.855C158.941 114.009 158.524 114.049 158.122 113.971C157.72 113.892 157.351 113.698 157.061 113.412C156.771 113.127 156.574 112.764 156.494 112.368C156.414 111.972 156.455 111.562 156.612 111.189C156.769 110.816 157.034 110.498 157.375 110.274C157.716 110.05 158.117 109.93 158.527 109.93C159.076 109.931 159.602 110.147 159.991 110.529C160.379 110.911 160.598 111.429 160.599 111.97Z" fill="#263238"/>
<path d="M159.929 114.58C159.929 114.938 159.821 115.288 159.619 115.585C159.417 115.883 159.13 116.115 158.794 116.252C158.458 116.389 158.088 116.425 157.731 116.355C157.374 116.285 157.047 116.113 156.79 115.86C156.532 115.607 156.357 115.284 156.286 114.933C156.215 114.582 156.252 114.218 156.391 113.887C156.53 113.556 156.766 113.274 157.068 113.075C157.371 112.876 157.726 112.77 158.09 112.77C158.578 112.77 159.045 112.96 159.39 113.3C159.735 113.639 159.929 114.1 159.929 114.58Z" fill="#263238"/>
<path d="M158.303 115.27C157.85 115.477 157.498 115.85 157.322 116.311C157.146 116.771 157.161 117.28 157.363 117.73C157.577 118.2 157.983 118.575 158.156 119.06C158.254 119.358 158.261 119.679 158.175 119.981C158.089 120.284 157.915 120.555 157.673 120.76C158.378 120.606 159.041 120.306 159.619 119.88C160.194 119.428 160.606 118.805 160.792 118.105C160.884 117.756 160.898 117.392 160.833 117.037C160.768 116.682 160.626 116.345 160.416 116.05C159.985 115.47 158.969 114.97 158.303 115.27Z" fill="#263238"/>
<path d="M192.171 129.355L160.254 153.69C159.281 154.433 158.473 155.363 157.879 156.424C157.285 157.485 156.917 158.654 156.799 159.86L153.243 196.785C153.441 196.965 153.695 197.075 153.963 197.098C154.232 197.12 154.5 197.054 154.727 196.91L161.087 159.845C161.194 159.213 161.441 158.611 161.808 158.082C162.176 157.553 162.656 157.108 163.215 156.78L191.419 140.14C195.072 138 195.737 130.33 192.171 129.355Z" fill="#455A64"/>
<path opacity="0.3" d="M192.171 129.355L160.254 153.69C159.281 154.433 158.473 155.363 157.879 156.424C157.285 157.485 156.917 158.654 156.799 159.86L153.243 196.785C153.441 196.965 153.695 197.075 153.963 197.098C154.232 197.12 154.5 197.054 154.727 196.91L161.087 159.845C161.194 159.213 161.441 158.611 161.808 158.082C162.176 157.553 162.656 157.108 163.215 156.78L191.419 140.14C195.072 138 195.737 130.33 192.171 129.355Z" fill="#A85C00"/>
<path d="M186.07 193.945L183.814 195.24L183.82 192.665L186.07 193.945Z" fill="#E6E6E6"/>
<path d="M183.911 167.72L205.882 180.205L183.911 167.72Z" fill="#CFCFCF"/>
<path d="M186.07 193.945L205.831 205.175V207.745L208.183 209.08L208.275 178.87L181.559 163.69L181.473 193.9L183.825 195.24V192.67L186.07 193.945ZM205.852 190L183.896 177.5V167.7L205.867 180.2L205.852 190ZM205.816 202.5L183.85 190V180.235V180.205L205.821 192.705L205.816 202.5Z" fill="#FDB133"/>
<path d="M183.845 189.995L183.875 180.23V180.2L205.846 192.685L205.816 202.48L183.845 189.995Z" fill="#FDB133"/>
<path d="M183.886 177.52L183.911 167.72L205.882 180.205L205.852 190.005L183.886 177.52Z" fill="#FDB133"/>
<path d="M208.259 178.87L231.581 165.53L231.495 195.74L208.173 209.08L208.259 178.87Z" fill="#FDB133"/>
<path d="M208.259 178.87L181.549 163.69L204.871 150.35L231.582 165.53L208.259 178.87Z" fill="#FDB133"/>
<path d="M186.07 193.945L183.814 195.24L183.82 192.665L186.07 193.945Z" fill="#A85C00"/>
<path d="M183.911 167.72L205.882 180.205L183.911 167.72Z" fill="#CFCFCF"/>
<path opacity="0.8" d="M183.845 189.995L183.875 180.23V180.2L205.846 192.685L205.816 202.48L183.845 189.995Z" fill="#A85C00"/>
<path opacity="0.8" d="M183.886 177.52L183.911 167.72L205.882 180.205L205.852 190.005L183.886 177.52Z" fill="#A85C00"/>
<path d="M191.074 175.435L191.084 174.08L198.694 178.405L198.684 179.76L191.074 175.435Z" fill="#FDB133"/>
<path d="M191.074 187.74L191.084 186.385L198.694 190.71L198.684 192.065L191.074 187.74Z" fill="#FDB133"/>
<path opacity="0.2" d="M208.259 178.87L231.581 165.53L231.495 195.74L208.173 209.08L208.259 178.87Z" fill="#A85C00"/>
<path opacity="0.4" d="M208.259 178.87L181.549 163.69L204.871 150.35L231.582 165.53L208.259 178.87Z" fill="#A85C00"/>
<path opacity="0.05" d="M213.441 158.145C210.48 156.46 205.684 156.46 202.738 158.145C199.791 159.83 199.807 162.565 202.773 164.25C205.74 165.935 210.53 165.935 213.477 164.25C216.423 162.565 216.408 159.83 213.441 158.145Z" fill="black"/>
<path d="M216.016 147.54L207.888 147.77L199.76 147.54C199.41 152.95 200.482 158.46 201.96 161.15C202.309 161.843 202.873 162.409 203.57 162.765C205.968 164.13 209.849 164.13 212.237 162.765C212.942 162.4 213.507 161.819 213.847 161.11C215.3 158.405 216.362 152.92 216.016 147.54Z" fill="#A85C00"/>
<path d="M213.613 144.26C216.799 146.07 216.819 149.01 213.649 150.82C210.479 152.63 205.328 152.63 202.143 150.82C198.958 149.01 198.937 146.07 202.102 144.26C205.267 142.45 210.423 142.445 213.613 144.26Z" fill="#FDB133"/>
<path d="M212.344 145C214.828 146.415 214.843 148.705 212.369 150.12C209.895 151.535 205.882 151.53 203.393 150.12C200.904 148.71 200.894 146.415 203.363 145C205.832 143.585 209.865 143.565 212.344 145Z" fill="#FDB133"/>
<g opacity="0.15">
<path d="M212.344 145C214.828 146.415 214.843 148.705 212.369 150.12C209.895 151.535 205.882 151.53 203.393 150.12C200.904 148.71 200.894 146.415 203.363 145C205.832 143.585 209.865 143.565 212.344 145Z" fill="black"/>
</g>
<path d="M207.197 147.765C207.85 148.303 208.624 148.68 209.454 148.866C210.284 149.052 211.147 149.042 211.973 148.835C212.767 148.597 213.489 148.168 214.072 147.586C214.656 147.005 215.083 146.29 215.315 145.505C214.352 145.054 213.47 144.451 212.704 143.72C213.925 143.421 215.206 143.466 216.402 143.85C216.733 143.338 216.932 142.754 216.981 142.149C217.029 141.544 216.927 140.937 216.682 140.38C215.292 139.772 213.73 139.664 212.267 140.075C212.876 139.556 213.586 139.165 214.354 138.928C215.122 138.69 215.932 138.611 216.733 138.695C216.847 136.398 216.482 134.103 215.661 131.95C212.613 132.105 209.682 133.39 208.691 134.315C208.645 135.384 208.758 136.453 209.026 137.49C208.634 137.294 208.3 137.002 208.054 136.644C207.808 136.285 207.658 135.871 207.619 135.44C205.719 135.905 204.906 136.84 204.612 137.55C204.884 138.879 205.504 140.114 206.41 141.135C204.627 140.605 203.901 138.635 203.901 138.635C202.148 142.74 202.483 147.365 207.197 147.765Z" fill="#FDB133"/>
<path opacity="0.2" d="M207.197 147.765C207.85 148.303 208.624 148.68 209.454 148.866C210.284 149.052 211.147 149.042 211.973 148.835C212.767 148.597 213.489 148.168 214.072 147.586C214.656 147.005 215.083 146.29 215.315 145.505C214.352 145.054 213.47 144.451 212.704 143.72C213.925 143.421 215.206 143.466 216.402 143.85C216.733 143.338 216.932 142.754 216.981 142.149C217.029 141.544 216.927 140.937 216.682 140.38C215.292 139.772 213.73 139.664 212.267 140.075C212.876 139.556 213.586 139.165 214.354 138.928C215.122 138.69 215.932 138.611 216.733 138.695C216.847 136.398 216.482 134.103 215.661 131.95C212.613 132.105 209.682 133.39 208.691 134.315C208.645 135.384 208.758 136.453 209.026 137.49C208.634 137.294 208.3 137.002 208.054 136.644C207.808 136.285 207.658 135.871 207.619 135.44C205.719 135.905 204.906 136.84 204.612 137.55C204.884 138.879 205.504 140.114 206.41 141.135C204.627 140.605 203.901 138.635 203.901 138.635C202.148 142.74 202.483 147.365 207.197 147.765Z" fill="black"/>
<path opacity="0.3" d="M207.197 147.765C207.85 148.303 208.624 148.68 209.454 148.866C210.284 149.052 211.147 149.042 211.973 148.835C212.767 148.597 213.489 148.168 214.072 147.586C214.656 147.005 215.083 146.29 215.315 145.505C214.352 145.054 213.47 144.451 212.704 143.72C213.925 143.421 215.206 143.466 216.402 143.85C216.733 143.338 216.932 142.754 216.981 142.149C217.029 141.544 216.927 140.937 216.682 140.38C215.292 139.772 213.73 139.664 212.267 140.075C212.876 139.556 213.586 139.165 214.354 138.928C215.122 138.69 215.932 138.611 216.733 138.695C216.847 136.398 216.482 134.103 215.661 131.95C212.613 132.105 209.682 133.39 208.691 134.315C208.645 135.384 208.758 136.453 209.026 137.49C208.634 137.294 208.3 137.002 208.054 136.644C207.808 136.285 207.658 135.871 207.619 135.44C205.719 135.905 204.906 136.84 204.612 137.55C204.884 138.879 205.504 140.114 206.41 141.135C204.627 140.605 203.901 138.635 203.901 138.635C202.148 142.74 202.483 147.365 207.197 147.765Z" fill="#A85C00"/>
<path d="M207.091 148.21C207.044 148.206 207.001 148.185 206.971 148.15C206.941 148.116 206.925 148.071 206.928 148.025C207.218 144.25 209.407 138.025 214.634 132.89C214.669 132.865 214.711 132.852 214.754 132.855C214.796 132.858 214.837 132.876 214.867 132.906C214.897 132.936 214.915 132.976 214.918 133.018C214.921 133.06 214.909 133.101 214.883 133.135C209.722 138.205 207.563 144.335 207.263 148.05C207.259 148.093 207.239 148.132 207.207 148.161C207.175 148.191 207.134 148.208 207.091 148.21Z" fill="#A85C00"/>
<path d="M208.524 149.785C207.916 150.273 207.2 150.613 206.434 150.778C205.668 150.942 204.873 150.926 204.114 150.732C203.355 150.537 202.654 150.168 202.067 149.656C201.48 149.144 201.024 148.503 200.736 147.785C201.607 147.396 202.404 146.863 203.093 146.21C201.94 145.938 200.734 145.972 199.598 146.31C199.25 145.881 199.021 145.37 198.932 144.828C198.843 144.286 198.897 143.73 199.09 143.215C200.41 142.678 201.875 142.592 203.251 142.97C202.025 142.027 200.482 141.577 198.933 141.71C198.671 139.692 198.871 137.642 199.517 135.71C202.407 135.88 205.273 137.06 206.263 137.895C206.375 138.834 206.335 139.783 206.146 140.71C206.496 140.546 206.793 140.291 207.005 139.971C207.216 139.652 207.334 139.281 207.345 138.9C209.154 139.33 209.972 140.165 210.297 140.795C210.122 141.965 209.615 143.062 208.834 143.96C210.469 143.5 211.023 141.775 211.023 141.775C212.928 145.355 212.903 149.435 208.524 149.785Z" fill="#FDB133"/>
<path opacity="0.3" d="M208.524 149.785C207.916 150.273 207.2 150.613 206.434 150.778C205.668 150.942 204.873 150.926 204.114 150.732C203.355 150.537 202.654 150.168 202.067 149.656C201.48 149.144 201.024 148.503 200.736 147.785C201.607 147.396 202.404 146.863 203.093 146.21C201.94 145.938 200.734 145.972 199.598 146.31C199.25 145.881 199.021 145.37 198.932 144.828C198.843 144.286 198.897 143.73 199.09 143.215C200.41 142.678 201.875 142.592 203.251 142.97C202.025 142.027 200.482 141.577 198.933 141.71C198.671 139.692 198.871 137.642 199.517 135.71C202.407 135.88 205.273 137.06 206.263 137.895C206.375 138.834 206.335 139.783 206.146 140.71C206.496 140.546 206.793 140.291 207.005 139.971C207.216 139.652 207.334 139.281 207.345 138.9C209.154 139.33 209.972 140.165 210.297 140.795C210.122 141.965 209.615 143.062 208.834 143.96C210.469 143.5 211.023 141.775 211.023 141.775C212.928 145.355 212.903 149.435 208.524 149.785Z" fill="#A85C00"/>
<path d="M208.641 150.195C208.599 150.194 208.559 150.18 208.528 150.153C208.496 150.127 208.475 150.09 208.468 150.05C207.96 146.765 205.547 141.315 200.34 136.76C200.307 136.727 200.289 136.683 200.289 136.637C200.289 136.592 200.307 136.548 200.34 136.515C200.374 136.484 200.418 136.467 200.464 136.467C200.511 136.467 200.555 136.484 200.589 136.515C205.852 141.135 208.31 146.67 208.818 150.015C208.823 150.06 208.811 150.106 208.784 150.143C208.756 150.18 208.716 150.205 208.671 150.215L208.641 150.195Z" fill="#A85C00"/>
<path d="M141.803 39.9448C141.804 39.854 141.78 39.7646 141.734 39.6862C141.687 39.6078 141.62 39.5434 141.539 39.4998L139.192 38.2198C139.115 38.1759 139.027 38.1528 138.938 38.1528C138.849 38.1528 138.761 38.1759 138.684 38.2198L109.956 54.5698C109.672 54.7324 109.446 54.979 109.311 55.2748C109.222 55.475 109.175 55.6911 109.174 55.9098V64.3748L103.632 69.9998C103.124 70.4998 103.083 71.2698 103.469 71.3898L105.679 72.5898C105.718 72.6295 105.766 72.6594 105.819 72.6768C105.872 72.6942 105.929 72.6987 105.984 72.6898L109.205 72.3048V79.1048C109.204 79.1943 109.227 79.2823 109.273 79.3597C109.319 79.437 109.384 79.501 109.464 79.5448L111.79 80.8148H111.826H111.851C111.924 80.8525 112.005 80.8722 112.087 80.8722C112.17 80.8722 112.251 80.8525 112.324 80.8148L141.071 64.4998C141.311 64.3645 141.509 64.1692 141.646 63.9338C141.784 63.6984 141.855 63.4313 141.854 63.1598L141.803 39.9448ZM111.775 56.3348C111.76 56.3522 111.747 56.3706 111.734 56.3898C111.742 56.371 111.75 56.3526 111.76 56.3348H111.775Z" fill="#FDB133"/>
<path opacity="0.1" d="M111.561 80.405C111.561 80.4918 111.584 80.5771 111.628 80.6525C111.672 80.7279 111.735 80.7908 111.81 80.835L109.484 79.565C109.404 79.5212 109.339 79.4573 109.293 79.3799C109.248 79.3025 109.224 79.2145 109.225 79.125V72.325L111.567 72.04L111.561 80.405Z" fill="black"/>
<path opacity="0.2" d="M109.947 54.5649L138.684 38.2149C138.761 38.1711 138.849 38.1479 138.938 38.1479C139.027 38.1479 139.115 38.1711 139.192 38.2149L141.539 39.4999C141.462 39.4561 141.374 39.4329 141.285 39.4329C141.196 39.4329 141.108 39.4561 141.031 39.4999L112.304 55.8499C112.004 56.0186 111.77 56.2808 111.638 56.5949L109.312 55.2699C109.443 54.9756 109.665 54.7291 109.947 54.5649Z" fill="#A85C00"/>
<path opacity="0.1" d="M109.179 64.37V55.905C109.18 55.6863 109.226 55.4701 109.316 55.27L111.643 56.595C111.565 56.7824 111.526 56.9828 111.526 57.185V65.65L109.179 64.37Z" fill="#A85C00"/>
<path opacity="0.05" d="M103.632 70L109.179 64.355L111.526 65.635L105.979 71.285C105.552 71.72 105.471 72.35 105.679 72.59L103.469 71.39C103.083 71.285 103.124 70.5 103.632 70Z" fill="#A85C00"/>
<path d="M116.819 64.175L116.83 67.555L116.134 67.955L114.808 66.9L114.813 68.705L113.985 69.175L113.975 65.79L114.671 65.395L115.996 66.45L115.991 64.645L116.819 64.175Z" fill="#A85C00"/>
<path d="M118.932 62.905C119.893 62.36 120.599 62.705 120.599 63.72C120.57 64.2702 120.404 64.805 120.115 65.2769C119.827 65.7488 119.424 66.1432 118.943 66.425C117.988 66.97 117.276 66.625 117.276 65.61C117.306 65.0599 117.472 64.5254 117.761 64.0537C118.05 63.5819 118.452 63.1874 118.932 62.905ZM118.932 65.635C119.176 65.4808 119.377 65.2694 119.517 65.0197C119.657 64.7701 119.732 64.4901 119.735 64.205C119.735 63.62 119.374 63.445 118.922 63.705C118.678 63.8573 118.476 64.0677 118.336 64.3166C118.196 64.5656 118.122 64.8453 118.12 65.13C118.12 65.715 118.475 65.895 118.932 65.63" fill="#A85C00"/>
<path d="M123.84 65.45C124.795 64.91 125.496 65.32 125.496 66.72C125.52 67.338 125.381 67.9516 125.094 68.5016C124.806 69.0516 124.38 69.5194 123.855 69.86C122.9 70.4 122.199 69.99 122.194 68.595C122.171 67.9758 122.31 67.361 122.598 66.8101C122.886 66.2592 123.314 65.7908 123.84 65.45ZM123.84 68.88C124.18 68.685 124.424 68.215 124.424 67.325C124.424 66.435 124.17 66.24 123.835 66.43C123.5 66.62 123.251 67.1 123.251 67.99C123.251 68.88 123.5 69.07 123.84 68.88Z" fill="#A85C00"/>
<path d="M125.639 59.165L124.673 63.1L123.769 63.615L123.19 61.885L122.601 64.28L121.691 64.795L120.711 61.965L121.585 61.47L122.189 63.285L122.819 60.765L123.596 60.325L124.206 62.165L124.826 59.625L125.639 59.165Z" fill="#A85C00"/>
<path d="M128.763 57.32C129.718 56.775 130.429 57.12 130.429 58.135C130.4 58.685 130.233 59.2195 129.945 59.6913C129.656 60.163 129.253 60.5576 128.773 60.84C127.813 61.385 127.107 61.04 127.102 60.025C127.132 59.4746 127.299 58.94 127.589 58.4682C127.879 57.9965 128.282 57.6022 128.763 57.32ZM128.763 60.05C129.007 59.8961 129.208 59.6848 129.348 59.4351C129.488 59.1854 129.563 58.9052 129.565 58.62C129.565 58.035 129.21 57.855 128.753 58.12C128.509 58.273 128.308 58.4835 128.168 58.7324C128.028 58.9812 127.953 59.2605 127.95 59.545C127.95 60.13 128.306 60.315 128.763 60.045" fill="#A85C00"/>
<path d="M134.168 59.585C135.118 59.045 135.814 59.455 135.819 60.855C135.842 61.4723 135.704 62.085 135.416 62.6341C135.129 63.1833 134.702 63.6502 134.178 63.99C133.218 64.535 132.522 64.125 132.522 62.73C132.498 62.1106 132.637 61.4955 132.925 60.9445C133.213 60.3934 133.642 59.9251 134.168 59.585ZM134.168 63.01C134.503 62.82 134.747 62.35 134.742 61.46C134.737 60.57 134.498 60.375 134.158 60.565C133.818 60.755 133.574 61.235 133.574 62.125C133.574 63.015 133.823 63.205 134.168 63.01Z" fill="#A85C00"/>
<path d="M133.721 54.5698L133.731 57.9548L133.035 58.3498L131.709 57.2948L131.714 59.0998L130.881 59.5748L130.871 56.1898L131.572 55.7898L132.898 56.8448L132.888 55.0448L133.721 54.5698Z" fill="#A85C00"/>
<path d="M139.379 51.355L138.236 54.18L138.242 55.39L137.393 55.875L137.388 54.645L136.245 53.14L137.134 52.63L137.85 53.57L138.557 51.82L139.379 51.355Z" fill="#A85C00"/>
<path d="M137.83 57.4999C138.78 56.9599 139.481 57.3699 139.481 58.7649C139.506 59.3832 139.368 59.9973 139.081 60.5475C138.793 61.0978 138.366 61.5654 137.84 61.9049C136.885 62.4499 136.184 62.0399 136.179 60.6399C136.157 60.021 136.297 59.407 136.587 58.857C136.876 58.3071 137.304 57.8397 137.83 57.4999ZM137.83 60.9249C138.17 60.7349 138.414 60.2599 138.414 59.3699C138.414 58.4799 138.16 58.2899 137.825 58.4799C137.49 58.6699 137.241 59.1449 137.241 60.0349C137.241 60.9249 137.49 61.1199 137.83 60.9249Z" fill="#A85C00"/>
<path d="M135.169 53.75L135.179 56.375L136.606 55.56V56.32L134.33 57.61L134.32 54.23L135.169 53.75Z" fill="#A85C00"/>
<path d="M115.895 69.325V70C116.228 69.821 116.603 69.7313 116.982 69.74L116.657 70.815C116.3 70.8054 115.948 70.8956 115.641 71.075C115.194 71.33 115.036 71.575 115.036 71.8C115.036 72.445 117.16 70.755 117.165 72.3C117.129 72.7103 116.999 73.1071 116.784 73.4606C116.569 73.814 116.275 74.1147 115.925 74.34V75L115.28 75.365V74.72C114.872 74.9553 114.4 75.0618 113.929 75.025L114.269 73.95C114.703 73.9902 115.138 73.8902 115.509 73.665C115.945 73.415 116.118 73.165 116.118 72.97C116.118 72.3 113.99 74 113.985 72.43C114.019 72.0086 114.153 71.6009 114.375 71.2391C114.597 70.8773 114.902 70.5712 115.265 70.345V69.68L115.895 69.325Z" fill="#A85C00"/>
<path d="M120.33 67.4499C121.194 66.9499 121.788 67.1249 121.788 67.9099C121.753 68.5277 121.532 69.1214 121.153 69.6149L120.452 70.7549L121.895 69.9349V70.8849L118.984 72.5399V71.7899L120.396 69.4999C120.592 69.2463 120.708 68.9423 120.731 68.6249C120.731 68.3549 120.569 68.2799 120.249 68.4649C119.947 68.6511 119.713 68.9281 119.583 69.2549L118.796 69.2049C119.094 68.4678 119.634 67.85 120.33 67.4499Z" fill="#A85C00"/>
<path d="M127.508 63.37C128.458 62.83 129.154 63.24 129.159 64.635C129.184 65.2533 129.046 65.8674 128.758 66.4177C128.471 66.9679 128.043 67.4355 127.518 67.775C126.563 68.32 125.867 67.91 125.862 66.51C125.839 65.8915 125.978 65.2776 126.266 64.7276C126.555 64.1776 126.982 63.71 127.508 63.37ZM127.508 66.795C127.843 66.605 128.092 66.13 128.087 65.24C128.082 64.35 127.838 64.16 127.498 64.35C127.157 64.54 126.913 65.015 126.913 65.905C126.913 66.795 127.162 66.99 127.508 66.795Z" fill="#A85C00"/>
<path d="M130.048 64.9548C130.398 64.7548 130.657 64.8798 130.657 65.2898C130.644 65.5623 130.586 65.8309 130.485 66.0848L130.149 67.1598L129.509 67.5198L129.758 66.3898C129.565 66.3898 129.443 66.2648 129.443 65.9798C129.448 65.7726 129.506 65.5699 129.611 65.3906C129.717 65.2113 129.867 65.0614 130.048 64.9548Z" fill="#A85C00"/>
<path d="M116.905 57.5V58.46L115.341 59.35L115.315 60L115.574 59.855C116.723 59.2 117.175 59.545 117.175 60.325C117.134 60.8443 116.956 61.3442 116.66 61.7755C116.363 62.2069 115.958 62.5548 115.483 62.785C115.032 63.0777 114.499 63.2261 113.959 63.21L114.355 62.05C114.733 62.0936 115.114 62.0051 115.432 61.8C115.597 61.7263 115.74 61.6129 115.848 61.4705C115.956 61.3281 116.026 61.1611 116.052 60.985C116.052 60.715 115.889 60.63 115.295 60.985L114.238 61.585L114.426 58.91L116.905 57.5Z" fill="#A85C00"/>
<path d="M119.181 56.1051C120.167 55.5451 120.893 55.9651 120.898 57.4151C120.922 58.0562 120.777 58.6925 120.478 59.2626C120.179 59.8328 119.736 60.3175 119.191 60.6701C118.201 61.2351 117.474 60.8101 117.474 59.3601C117.45 58.7187 117.594 58.0821 117.893 57.5118C118.192 56.9415 118.636 56.4569 119.181 56.1051ZM119.181 59.6551C119.532 59.4551 119.786 58.9651 119.781 58.0451C119.776 57.1251 119.522 56.9201 119.171 57.1201C118.821 57.3201 118.561 57.8101 118.567 58.7351C118.572 59.6601 118.826 59.8551 119.181 59.6551Z" fill="#A85C00"/>
<path d="M124.968 54.9349C125.542 54.6099 125.984 54.8249 125.984 55.5849C125.986 55.9435 125.893 56.2964 125.715 56.6092C125.537 56.922 125.28 57.1841 124.968 57.3699C124.389 57.6999 123.952 57.4799 123.952 56.7149C123.951 56.3572 124.044 56.0053 124.222 55.6934C124.4 55.3815 124.657 55.1202 124.968 54.9349ZM124.968 56.7749C125.089 56.6792 125.183 56.5543 125.24 56.4123C125.297 56.2702 125.315 56.1161 125.293 55.9649C125.293 55.5249 125.146 55.4249 124.963 55.5299C124.843 55.6259 124.749 55.7509 124.692 55.8928C124.635 56.0347 124.617 56.1887 124.638 56.3399C124.638 56.7849 124.785 56.8799 124.968 56.7749Z" fill="#A85C00"/>
<path d="M124.49 53.175L125.288 52.72L122.651 58.62L121.849 59.075L124.49 53.175Z" fill="#A85C00"/>
<path d="M123.195 55.0749C123.197 55.4328 123.104 55.7851 122.926 56.0971C122.748 56.4092 122.491 56.6703 122.179 56.8549C121.61 57.1799 121.163 56.9699 121.163 56.2049C121.16 55.8496 121.25 55.4995 121.423 55.1879C121.596 54.8763 121.848 54.6136 122.154 54.4249C122.774 54.0949 123.195 54.3149 123.195 55.0749ZM121.869 55.8249C121.869 56.2749 122.022 56.3599 122.199 56.2599C122.377 56.1599 122.525 55.8999 122.525 55.4549C122.525 55.0099 122.382 54.9099 122.194 55.0199C122.074 55.1151 121.981 55.2392 121.924 55.3803C121.867 55.5213 121.848 55.6745 121.869 55.8249Z" fill="#A85C00"/>
<path d="M130.017 49.9448C131.257 49.2398 132.176 49.6848 132.181 51.0048C132.142 51.7169 131.925 52.4085 131.551 53.0189C131.176 53.6292 130.655 54.1395 130.032 54.5048C128.783 55.2148 127.868 54.7698 127.863 53.4498C127.903 52.7367 128.12 52.044 128.496 51.4329C128.872 50.8217 129.394 50.3107 130.017 49.9448ZM130.017 53.4848C130.329 53.2838 130.586 53.0094 130.763 52.6864C130.94 52.3634 131.033 52.002 131.033 51.6348C131.033 50.8748 130.571 50.6348 129.987 50.9748C129.669 51.172 129.406 51.4448 129.223 51.7681C129.04 52.0914 128.943 52.4548 128.94 52.8248C128.94 53.5848 129.403 53.8248 129.992 53.4848" fill="#A85C00"/>
<path d="M135.798 46.75V47.71L133.852 48.82L133.857 49.785L135.569 48.81V49.765L133.857 50.74L133.863 52.25L132.765 52.87L132.75 48.48L135.798 46.75Z" fill="#A85C00"/>
<path d="M139.36 44.7249L139.365 45.6849L137.414 46.7949L137.419 47.7599L139.131 46.7849L139.136 47.7449L137.419 48.7149L137.424 50.2249L136.327 50.8449L136.312 46.4549L139.36 44.7249Z" fill="#A85C00"/>
<path d="M166.822 51.2349L153.757 58.6099C153.359 58.8361 153.03 59.1645 152.807 59.5599C152.592 59.9356 152.479 60.359 152.477 60.7899V70.1449C152.494 70.579 152.627 71.0011 152.861 71.3696C153.094 71.738 153.422 72.0401 153.811 72.246C154.199 72.452 154.636 72.5546 155.077 72.5439C155.518 72.5332 155.949 72.4095 156.327 72.1849L158.598 70.9099L158.806 71.2349C158.806 71.2349 158.806 71.2349 158.837 71.2649H158.862C159.238 71.5099 159.878 71.8549 160.041 71.9299C160.075 71.941 160.112 71.9383 160.145 71.9224C160.177 71.9065 160.202 71.8786 160.213 71.8449L161.052 69.5149L169.388 64.8249C169.779 64.6061 170.104 64.289 170.33 63.906C170.556 63.523 170.674 63.0878 170.673 62.6449V53.2749C170.688 51.4649 167.965 50.5899 166.822 51.2349Z" fill="#FDB133"/>
<path opacity="0.2" d="M158.806 71.2349C158.806 71.2349 158.806 71.2349 158.836 71.2649H158.862C159.238 71.5099 159.878 71.8549 160.04 71.9299C160.008 71.9213 159.979 71.9019 159.959 71.8749L159.151 70.5849L159.309 70.4949L158.598 70.8949L158.806 71.2349Z" fill="#A85C00"/>
<path opacity="0.4" d="M155.342 60.9998C155.508 60.6759 155.742 60.3898 156.027 60.1598C156.126 60.083 156.229 60.0129 156.337 59.9498L169.403 52.5748C169.532 52.5021 169.678 52.464 169.827 52.4644C169.976 52.4648 170.122 52.5037 170.25 52.5771C170.379 52.6505 170.486 52.7559 170.56 52.8828C170.634 53.0096 170.673 53.1535 170.673 53.2998C170.673 51.4898 167.965 50.6148 166.822 51.2598L153.757 58.6348C153.358 58.861 153.03 59.1894 152.807 59.5848L155.342 60.9998Z" fill="#A85C00"/>
<path opacity="0.2" d="M155.057 71.4598V62.1048C155.049 62.005 155.049 61.9047 155.057 61.8048C155.099 61.5158 155.188 61.2354 155.321 60.9748L152.781 59.5598C152.567 59.9355 152.453 60.3589 152.451 60.7898V70.1448C152.469 70.5789 152.601 71.001 152.835 71.3695C153.069 71.7379 153.397 72.04 153.785 72.2459C154.174 72.4518 154.61 72.5545 155.052 72.5438C155.493 72.5331 155.924 72.4094 156.302 72.1848C156.174 72.2515 156.03 72.2847 155.885 72.2813C155.74 72.2779 155.598 72.2379 155.473 72.1651C155.349 72.0924 155.245 71.9894 155.172 71.8659C155.099 71.7424 155.06 71.6026 155.057 71.4598Z" fill="#A85C00"/>
<path d="M161.453 62.4598C161.651 62.3498 161.814 62.4598 161.814 62.6598V62.7648V65.6648V66.1648C161.807 66.2868 161.771 66.4055 161.71 66.5115C161.648 66.6174 161.562 66.7076 161.458 66.7748L159.68 67.7748C159.482 67.8848 159.324 67.7748 159.319 67.5698V64.0698C159.325 63.9482 159.36 63.8297 159.422 63.7244C159.484 63.619 159.571 63.53 159.675 63.4648L161.453 62.4598ZM160.787 66.6698C160.897 66.6012 160.988 66.5078 161.054 66.3973C161.119 66.2868 161.157 66.1625 161.163 66.0348C161.163 65.7998 160.996 65.7048 160.787 65.8248C160.678 65.8934 160.586 65.9868 160.521 66.0973C160.456 66.2078 160.418 66.3321 160.412 66.4598C160.412 66.6948 160.584 66.7898 160.787 66.6698Z" fill="#FDB133"/>
<g opacity="0.5">
<path d="M161.453 62.4598C161.651 62.3498 161.814 62.4598 161.814 62.6598V62.7648V65.6648V66.1648C161.807 66.2868 161.771 66.4055 161.71 66.5115C161.648 66.6174 161.562 66.7076 161.458 66.7748L159.68 67.7748C159.482 67.8848 159.324 67.7748 159.319 67.5698V64.0698C159.325 63.9482 159.36 63.8297 159.422 63.7244C159.484 63.619 159.571 63.53 159.675 63.4648L161.453 62.4598ZM160.787 66.6698C160.897 66.6012 160.988 66.5078 161.054 66.3973C161.119 66.2868 161.157 66.1625 161.163 66.0348C161.163 65.7998 160.996 65.7048 160.787 65.8248C160.678 65.8934 160.586 65.9868 160.521 66.0973C160.456 66.2078 160.418 66.3321 160.412 66.4598C160.412 66.6948 160.584 66.7898 160.787 66.6698Z" fill="#A85C00"/>
</g>
<path d="M163.261 57.575C164.039 57.135 164.658 57.53 164.613 58.43L164.542 59.865L166.604 58.69C167.31 58.29 167.463 59.215 166.985 59.87C167.493 60.005 167.325 60.815 166.894 61.33C167.295 61.51 166.939 62.42 166.447 62.8C166.767 62.93 166.492 63.91 165.939 64.23L163.907 65.38L162.626 66.11C162.19 66.36 161.834 66.16 161.834 65.665V62.765L162.647 60.825C163.047 59.8988 163.264 58.9061 163.287 57.9L163.261 57.575Z" fill="#A85C00"/>
<path d="M194.321 78.5849C194.321 78.5277 194.305 78.4716 194.276 78.4224C194.246 78.3731 194.204 78.3326 194.153 78.3049L192.665 77.4999C192.615 77.4727 192.559 77.4585 192.502 77.4585C192.445 77.4585 192.389 77.4727 192.34 77.4999L179.421 84.7999C179.24 84.9044 179.096 85.0616 179.01 85.2499C178.953 85.3759 178.924 85.5121 178.923 85.6499V89.3799L175.398 92.9699C175.078 93.2899 175.047 93.7749 175.291 93.8499L176.698 94.6149C176.723 94.6395 176.754 94.6578 176.787 94.6682C176.821 94.6787 176.857 94.681 176.891 94.6749L178.923 94.4299V97.1699C178.924 97.2263 178.939 97.2817 178.967 97.3308C178.996 97.3798 179.037 97.4208 179.086 97.4499L180.564 98.2549C180.611 98.2781 180.662 98.2903 180.714 98.2903C180.766 98.2903 180.817 98.2781 180.864 98.2549L193.777 90.9449C193.929 90.8585 194.056 90.7348 194.145 90.5858C194.234 90.4368 194.282 90.2677 194.285 90.0949L194.321 78.5849Z" fill="#FDB133"/>
<path opacity="0.1" d="M180.447 97.9999C180.447 98.0553 180.461 98.1099 180.488 98.1582C180.516 98.2065 180.556 98.2468 180.605 98.2749L179.126 97.4699C179.077 97.4408 179.036 97.3998 179.008 97.3508C178.98 97.3018 178.964 97.2464 178.964 97.1899V94.4499L180.452 94.2749L180.447 97.9999Z" fill="black"/>
<path opacity="0.2" d="M179.421 84.7999L192.329 77.4999C192.379 77.4727 192.435 77.4585 192.492 77.4585C192.548 77.4585 192.604 77.4727 192.654 77.4999L194.143 78.3149C194.092 78.2864 194.035 78.2713 193.977 78.2713C193.919 78.2713 193.863 78.2864 193.812 78.3149L180.904 85.6249C180.709 85.7399 180.559 85.9159 180.477 86.1249L178.999 85.2849C179.082 85.0822 179.23 84.9119 179.421 84.7999Z" fill="#A85C00"/>
<path opacity="0.1" d="M178.934 89.38V85.65C178.934 85.5122 178.963 85.3761 179.02 85.25L180.498 86.09C180.451 86.2096 180.427 86.3367 180.427 86.465V90.195L178.934 89.38Z" fill="#A85C00"/>
<path opacity="0.05" d="M175.408 92.9699L178.933 89.3799L180.427 90.1949L176.896 93.7849C176.627 94.0599 176.561 94.4599 176.708 94.6149L175.301 93.8499C175.057 93.7749 175.088 93.2899 175.408 92.9699Z" fill="#A85C00"/>
<path d="M189.51 83.2699C189.737 83.1087 190.003 83.0095 190.281 82.9823C190.56 82.955 190.841 83.0008 191.095 83.1149C191.979 83.6149 191.984 85.2099 191.095 86.6949L190.587 87.5699L187.453 92.9499L184.268 91.1699L183.76 90.8799C182.876 90.3799 182.871 88.7849 183.76 87.2949C184.134 86.6236 184.678 86.0587 185.339 85.6549C185.566 85.4943 185.832 85.3951 186.11 85.367C186.388 85.3389 186.669 85.383 186.924 85.4949L187.432 85.7799L187.94 84.9149C188.313 84.2443 188.853 83.6781 189.51 83.2699Z" fill="#A85C00"/>
</svg>
